<?xml version="1.0" encoding="utf-8" ?>
<svg baseProfile="full" height="200" version="1.1" width="200" xmlns="http://www.w3.org/2000/svg" xmlns:ev="http://www.w3.org/2001/xml-events" xmlns:xlink="http://www.w3.org/1999/xlink">
  <defs/>
  <g transform="translate(100,100)">
    <line stroke="black" transform="rotate(0.0,0,0)" x1="20" x2="40" y1="0" y2="0"/>
    <path d="m20,0 A 20 20 0 0,1 1.2246467991473533e-15 20.0" fill="none" stroke="black" transform="rotate(0.0,0,0)"/>
    <line stroke="#f0f0f0" stroke-dasharray="3" transform="rotate(90.0,0,0)" x1="20" x2="40" y1="0" y2="0"/>
    <path d="m20,0 A 20 20 0 0,1 1.2246467991473533e-15 20.0" fill="none" stroke="#f0f0f0" stroke-dasharray="3" transform="rotate(90.0,0,0)"/>
    <line stroke="#f0f0f0" stroke-dasharray="3" transform="rotate(180.0,0,0)" x1="20" x2="40" y1="0" y2="0"/>
    <path d="m20,0 A 20 20 0 0,1 1.2246467991473533e-15 20.0" fill="none" stroke="black" transform="rotate(180.0,0,0)"/>
    <line stroke="#f0f0f0" stroke-dasharray="3" transform="rotate(270.0,0,0)" x1="20" x2="40" y1="0" y2="0"/>
    <path d="m20,0 A 20 20 0 0,1 1.2246467991473533e-15 20.0" fill="none" stroke="black" transform="rotate(270.0,0,0)"/>
    <line stroke="black" transform="rotate(0.0,0,0)" x1="40" x2="60" y1="0" y2="0"/>
    <path d="m40,0 A 40 40 0 0,1 2.4492935982947065e-15 40.0" fill="none" stroke="black" transform="rotate(0.0,0,0)"/>
    <line stroke="#f0f0f0" stroke-dasharray="3" transform="rotate(90.0,0,0)" x1="40" x2="60" y1="0" y2="0"/>
    <path d="m40,0 A 40 40 0 0,1 2.4492935982947065e-15 40.0" fill="none" stroke="black" transform="rotate(90.0,0,0)"/>
    <line stroke="black" transform="rotate(180.0,0,0)" x1="40" x2="60" y1="0" y2="0"/>
    <path d="m40,0 A 40 40 0 0,1 2.4492935982947065e-15 40.0" fill="none" stroke="#f0f0f0" stroke-dasharray="3" transform="rotate(180.0,0,0)"/>
    <line stroke="#f0f0f0" stroke-dasharray="3" transform="rotate(270.0,0,0)" x1="40" x2="60" y1="0" y2="0"/>
    <path d="m40,0 A 40 40 0 0,1 2.4492935982947065e-15 40.0" fill="none" stroke="black" transform="rotate(270.0,0,0)"/>
    <line stroke="#f0f0f0" stroke-dasharray="3" transform="rotate(0.0,0,0)" x1="60" x2="80" y1="0" y2="0"/>
    <path d="m60,0 A 60 60 0 0,1 42.42640687119285 42.426406871192846" fill="none" stroke="black" transform="rotate(0.0,0,0)"/>
    <line stroke="black" transform="rotate(45.0,0,0)" x1="60" x2="80" y1="0" y2="0"/>
    <path d="m60,0 A 60 60 0 0,1 42.42640687119285 42.426406871192846" fill="none" stroke="black" transform="rotate(45.0,0,0)"/>
    <line stroke="#f0f0f0" stroke-dasharray="3" transform="rotate(90.0,0,0)" x1="60" x2="80" y1="0" y2="0"/>
    <path d="m60,0 A 60 60 0 0,1 42.42640687119285 42.426406871192846" fill="none" stroke="#f0f0f0" stroke-dasharray="3" transform="rotate(90.0,0,0)"/>
    <line stroke="black" transform="rotate(135.0,0,0)" x1="60" x2="80" y1="0" y2="0"/>
    <path d="m60,0 A 60 60 0 0,1 42.42640687119285 42.426406871192846" fill="none" stroke="#f0f0f0" stroke-dasharray="3" transform="rotate(135.0,0,0)"/>
    <line stroke="#f0f0f0" stroke-dasharray="3" transform="rotate(180.0,0,0)" x1="60" x2="80" y1="0" y2="0"/>
    <path d="m60,0 A 60 60 0 0,1 42.42640687119285 42.426406871192846" fill="none" stroke="black" transform="rotate(180.0,0,0)"/>
    <line stroke="black" transform="rotate(225.0,0,0)" x1="60" x2="80" y1="0" y2="0"/>
    <path d="m60,0 A 60 60 0 0,1 42.42640687119285 42.426406871192846" fill="none" stroke="black" transform="rotate(225.0,0,0)"/>
    <line stroke="#f0f0f0" stroke-dasharray="3" transform="rotate(270.0,0,0)" x1="60" x2="80" y1="0" y2="0"/>
    <path d="m60,0 A 60 60 0 0,1 42.42640687119285 42.426406871192846" fill="none" stroke="#f0f0f0" stroke-dasharray="3" transform="rotate(270.0,0,0)"/>
    <line stroke="#f0f0f0" stroke-dasharray="3" transform="rotate(315.0,0,0)" x1="60" x2="80" y1="0" y2="0"/>
    <path d="m60,0 A 60 60 0 0,1 42.42640687119285 42.426406871192846" fill="none" stroke="black" transform="rotate(315.0,0,0)"/>
    <line stroke="#f0f0f0" stroke-dasharray="3" transform="rotate(0.0,0,0)" x1="80" x2="100" y1="0" y2="0"/>
    <path d="m80,0 A 80 80 0 0,1 56.568542494923804 56.5685424949238" fill="none" stroke="black" transform="rotate(0.0,0,0)"/>
    <line stroke="black" transform="rotate(45.0,0,0)" x1="80" x2="100" y1="0" y2="0"/>
    <path d="m80,0 A 80 80 0 0,1 56.568542494923804 56.5685424949238" fill="none" stroke="#f0f0f0" stroke-dasharray="3" transform="rotate(45.0,0,0)"/>
    <line stroke="black" transform="rotate(90.0,0,0)" x1="80" x2="100" y1="0" y2="0"/>
    <path d="m80,0 A 80 80 0 0,1 56.568542494923804 56.5685424949238" fill="none" stroke="black" transform="rotate(90.0,0,0)"/>
    <line stroke="#f0f0f0" stroke-dasharray="3" transform="rotate(135.0,0,0)" x1="80" x2="100" y1="0" y2="0"/>
    <path d="m80,0 A 80 80 0 0,1 56.568542494923804 56.5685424949238" fill="none" stroke="#f0f0f0" stroke-dasharray="3" transform="rotate(135.0,0,0)"/>
    <line stroke="#f0f0f0" stroke-dasharray="3" transform="rotate(180.0,0,0)" x1="80" x2="100" y1="0" y2="0"/>
    <path d="m80,0 A 80 80 0 0,1 56.568542494923804 56.5685424949238" fill="none" stroke="black" transform="rotate(180.0,0,0)"/>
    <line stroke="#f0f0f0" stroke-dasharray="3" transform="rotate(225.0,0,0)" x1="80" x2="100" y1="0" y2="0"/>
    <path d="m80,0 A 80 80 0 0,1 56.568542494923804 56.5685424949238" fill="none" stroke="#f0f0f0" stroke-dasharray="3" transform="rotate(225.0,0,0)"/>
    <line stroke="#f0f0f0" stroke-dasharray="3" transform="rotate(270.0,0,0)" x1="80" x2="100" y1="0" y2="0"/>
    <path d="m80,0 A 80 80 0 0,1 56.568542494923804 56.5685424949238" fill="none" stroke="black" transform="rotate(270.0,0,0)"/>
    <line stroke="black" transform="rotate(315.0,0,0)" x1="80" x2="100" y1="0" y2="0"/>
    <path d="m80,0 A 80 80 0 0,1 56.568542494923804 56.5685424949238" fill="none" stroke="#f0f0f0" stroke-dasharray="3" transform="rotate(315.0,0,0)"/>
    <path d="m100,0 A 100 100 0 0,1 70.71067811865476 70.71067811865474" fill="none" stroke="black" transform="rotate(0.0,0,0)"/>
    <path d="m100,0 A 100 100 0 0,1 70.71067811865476 70.71067811865474" fill="none" stroke="black" transform="rotate(45.0,0,0)"/>
    <path d="m100,0 A 100 100 0 0,1 70.71067811865476 70.71067811865474" fill="none" stroke="black" transform="rotate(90.0,0,0)"/>
    <path d="m100,0 A 100 100 0 0,1 70.71067811865476 70.71067811865474" fill="none" stroke="black" transform="rotate(135.0,0,0)"/>
    <path d="m100,0 A 100 100 0 0,1 70.71067811865476 70.71067811865474" fill="none" stroke="black" transform="rotate(180.0,0,0)"/>
    <path d="m100,0 A 100 100 0 0,1 70.71067811865476 70.71067811865474" fill="none" stroke="black" transform="rotate(225.0,0,0)"/>
    <path d="m100,0 A 100 100 0 0,1 70.71067811865476 70.71067811865474" fill="none" stroke="black" transform="rotate(270.0,0,0)"/>
    <path d="m100,0 A 100 100 0 0,1 70.71067811865476 70.71067811865474" fill="none" stroke="black" transform="rotate(315.0,0,0)"/>
    <circle cx="0" cy="0" fill="blue" r="6.666666666666667"/>
    <circle cx="90.0" cy="0" fill="green" r="6.666666666666667" transform="rotate(67.5,0,0)"/>
  </g>
</svg>
