<?xml version="1.0" encoding="utf-8" ?>
<svg baseProfile="full" height="100%" version="1.1" width="100%" xmlns="http://www.w3.org/2000/svg" xmlns:ev="http://www.w3.org/2001/xml-events" xmlns:xlink="http://www.w3.org/1999/xlink"><defs /><line stroke="black" x1="0.0" x2="100" y1="100" y2="100.0" /><line stroke="black" x1="10.0" x2="100" y1="100" y2="110.0" /><line stroke="black" x1="20.0" x2="100" y1="100" y2="120.0" /><line stroke="black" x1="30.0" x2="100" y1="100" y2="130.0" /><line stroke="black" x1="40.0" x2="100" y1="100" y2="140.0" /><line stroke="black" x1="50.0" x2="100" y1="100" y2="150.0" /><line stroke="black" x1="60.0" x2="100" y1="100" y2="160.0" /><line stroke="black" x1="70.0" x2="100" y1="100" y2="170.0" /><line stroke="black" x1="80.0" x2="100" y1="100" y2="180.0" /><line stroke="black" x1="90.0" x2="100" y1="100" y2="190.0" /><line stroke="black" x1="100.0" x2="100" y1="100" y2="200.0" /><line stroke="black" x1="200.0" x2="100" y1="100" y2="100.0" /><line stroke="black" x1="190.0" x2="100" y1="100" y2="110.0" /><line stroke="black" x1="180.0" x2="100" y1="100" y2="120.0" /><line stroke="black" x1="170.0" x2="100" y1="100" y2="130.0" /><line stroke="black" x1="160.0" x2="100" y1="100" y2="140.0" /><line stroke="black" x1="150.0" x2="100" y1="100" y2="150.0" /><line stroke="black" x1="140.0" x2="100" y1="100" y2="160.0" /><line stroke="black" x1="130.0" x2="100" y1="100" y2="170.0" /><line stroke="black" x1="120.0" x2="100" y1="100" y2="180.0" /><line stroke="black" x1="110.0" x2="100" y1="100" y2="190.0" /><line stroke="black" x1="100.0" x2="100" y1="100" y2="200.0" /><line stroke="black" x1="0.0" x2="100" y1="100" y2="100.0" /><line stroke="black" x1="10.0" x2="100" y1="100" y2="90.0" /><line stroke="black" x1="20.0" x2="100" y1="100" y2="80.0" /><line stroke="black" x1="30.0" x2="100" y1="100" y2="70.0" /><line stroke="black" x1="40.0" x2="100" y1="100" y2="60.0" /><line stroke="black" x1="50.0" x2="100" y1="100" y2="50.0" /><line stroke="black" x1="60.0" x2="100" y1="100" y2="40.0" /><line stroke="black" x1="70.0" x2="100" y1="100" y2="30.0" /><line stroke="black" x1="80.0" x2="100" y1="100" y2="20.0" /><line stroke="black" x1="90.0" x2="100" y1="100" y2="10.0" /><line stroke="black" x1="100.0" x2="100" y1="100" y2="0.0" /><line stroke="black" x1="200.0" x2="100" y1="100" y2="100.0" /><line stroke="black" x1="190.0" x2="100" y1="100" y2="90.0" /><line stroke="black" x1="180.0" x2="100" y1="100" y2="80.0" /><line stroke="black" x1="170.0" x2="100" y1="100" y2="70.0" /><line stroke="black" x1="160.0" x2="100" y1="100" y2="60.0" /><line stroke="black" x1="150.0" x2="100" y1="100" y2="50.0" /><line stroke="black" x1="140.0" x2="100" y1="100" y2="40.0" /><line stroke="black" x1="130.0" x2="100" y1="100" y2="30.0" /><line stroke="black" x1="120.0" x2="100" y1="100" y2="20.0" /><line stroke="black" x1="110.0" x2="100" y1="100" y2="10.0" /><line stroke="black" x1="100.0" x2="100" y1="100" y2="0.0" /><line stroke="black" x1="200.0" x2="300" y1="100" y2="100.0" /><line stroke="black" x1="203.33333333333334" x2="300" y1="100" y2="103.33333333333333" /><line stroke="black" x1="206.66666666666666" x2="300" y1="100" y2="106.66666666666667" /><line stroke="black" x1="210.0" x2="300" y1="100" y2="110.0" /><line stroke="black" x1="213.33333333333334" x2="300" y1="100" y2="113.33333333333333" /><line stroke="black" x1="216.66666666666666" x2="300" y1="100" y2="116.66666666666667" /><line stroke="black" x1="220.0" x2="300" y1="100" y2="120.0" /><line stroke="black" x1="223.33333333333334" x2="300" y1="100" y2="123.33333333333334" /><line stroke="black" x1="226.66666666666666" x2="300" y1="100" y2="126.66666666666667" /><line stroke="black" x1="230.0" x2="300" y1="100" y2="130.0" /><line stroke="black" x1="233.33333333333334" x2="300" y1="100" y2="133.33333333333334" /><line stroke="black" x1="236.66666666666669" x2="300" y1="100" y2="136.66666666666669" /><line stroke="black" x1="240.0" x2="300" y1="100" y2="140.0" /><line stroke="black" x1="243.33333333333334" x2="300" y1="100" y2="143.33333333333334" /><line stroke="black" x1="246.66666666666669" x2="300" y1="100" y2="146.66666666666669" /><line stroke="black" x1="250.0" x2="300" y1="100" y2="150.0" /><line stroke="black" x1="253.33333333333334" x2="300" y1="100" y2="153.33333333333334" /><line stroke="black" x1="256.6666666666667" x2="300" y1="100" y2="156.66666666666669" /><line stroke="black" x1="260.0" x2="300" y1="100" y2="160.0" /><line stroke="black" x1="263.3333333333333" x2="300" y1="100" y2="163.33333333333334" /><line stroke="black" x1="266.6666666666667" x2="300" y1="100" y2="166.66666666666669" /><line stroke="black" x1="270.0" x2="300" y1="100" y2="170.0" /><line stroke="black" x1="273.33333333333337" x2="300" y1="100" y2="173.33333333333334" /><line stroke="black" x1="276.6666666666667" x2="300" y1="100" y2="176.66666666666669" /><line stroke="black" x1="280.0" x2="300" y1="100" y2="180.0" /><line stroke="black" x1="283.33333333333337" x2="300" y1="100" y2="183.33333333333334" /><line stroke="black" x1="286.6666666666667" x2="300" y1="100" y2="186.66666666666669" /><line stroke="black" x1="290.0" x2="300" y1="100" y2="190.0" /><line stroke="black" x1="293.33333333333337" x2="300" y1="100" y2="193.33333333333334" /><line stroke="black" x1="296.6666666666667" x2="300" y1="100" y2="196.66666666666669" /><line stroke="black" x1="300.0" x2="300" y1="100" y2="200.0" /><line stroke="black" x1="400.0" x2="300" y1="100" y2="100.0" /><line stroke="black" x1="396.6666666666667" x2="300" y1="100" y2="103.33333333333333" /><line stroke="black" x1="393.3333333333333" x2="300" y1="100" y2="106.66666666666667" /><line stroke="black" x1="390.0" x2="300" y1="100" y2="110.0" /><line stroke="black" x1="386.6666666666667" x2="300" y1="100" y2="113.33333333333333" /><line stroke="black" x1="383.3333333333333" x2="300" y1="100" y2="116.66666666666667" /><line stroke="black" x1="380.0" x2="300" y1="100" y2="120.0" /><line stroke="black" x1="376.6666666666667" x2="300" y1="100" y2="123.33333333333334" /><line stroke="black" x1="373.3333333333333" x2="300" y1="100" y2="126.66666666666667" /><line stroke="black" x1="370.0" x2="300" y1="100" y2="130.0" /><line stroke="black" x1="366.6666666666667" x2="300" y1="100" y2="133.33333333333334" /><line stroke="black" x1="363.3333333333333" x2="300" y1="100" y2="136.66666666666669" /><line stroke="black" x1="360.0" x2="300" y1="100" y2="140.0" /><line stroke="black" x1="356.6666666666667" x2="300" y1="100" y2="143.33333333333334" /><line stroke="black" x1="353.3333333333333" x2="300" y1="100" y2="146.66666666666669" /><line stroke="black" x1="350.0" x2="300" y1="100" y2="150.0" /><line stroke="black" x1="346.6666666666667" x2="300" y1="100" y2="153.33333333333334" /><line stroke="black" x1="343.3333333333333" x2="300" y1="100" y2="156.66666666666669" /><line stroke="black" x1="340.0" x2="300" y1="100" y2="160.0" /><line stroke="black" x1="336.6666666666667" x2="300" y1="100" y2="163.33333333333334" /><line stroke="black" x1="333.3333333333333" x2="300" y1="100" y2="166.66666666666669" /><line stroke="black" x1="330.0" x2="300" y1="100" y2="170.0" /><line stroke="black" x1="326.66666666666663" x2="300" y1="100" y2="173.33333333333334" /><line stroke="black" x1="323.3333333333333" x2="300" y1="100" y2="176.66666666666669" /><line stroke="black" x1="320.0" x2="300" y1="100" y2="180.0" /><line stroke="black" x1="316.66666666666663" x2="300" y1="100" y2="183.33333333333334" /><line stroke="black" x1="313.3333333333333" x2="300" y1="100" y2="186.66666666666669" /><line stroke="black" x1="310.0" x2="300" y1="100" y2="190.0" /><line stroke="black" x1="306.66666666666663" x2="300" y1="100" y2="193.33333333333334" /><line stroke="black" x1="303.3333333333333" x2="300" y1="100" y2="196.66666666666669" /><line stroke="black" x1="300.0" x2="300" y1="100" y2="200.0" /><line stroke="black" x1="200.0" x2="300" y1="100" y2="100.0" /><line stroke="black" x1="203.33333333333334" x2="300" y1="100" y2="96.66666666666667" /><line stroke="black" x1="206.66666666666666" x2="300" y1="100" y2="93.33333333333333" /><line stroke="black" x1="210.0" x2="300" y1="100" y2="90.0" /><line stroke="black" x1="213.33333333333334" x2="300" y1="100" y2="86.66666666666667" /><line stroke="black" x1="216.66666666666666" x2="300" y1="100" y2="83.33333333333333" /><line stroke="black" x1="220.0" x2="300" y1="100" y2="80.0" /><line stroke="black" x1="223.33333333333334" x2="300" y1="100" y2="76.66666666666666" /><line stroke="black" x1="226.66666666666666" x2="300" y1="100" y2="73.33333333333333" /><line stroke="black" x1="230.0" x2="300" y1="100" y2="70.0" /><line stroke="black" x1="233.33333333333334" x2="300" y1="100" y2="66.66666666666666" /><line stroke="black" x1="236.66666666666669" x2="300" y1="100" y2="63.33333333333333" /><line stroke="black" x1="240.0" x2="300" y1="100" y2="60.0" /><line stroke="black" x1="243.33333333333334" x2="300" y1="100" y2="56.666666666666664" /><line stroke="black" x1="246.66666666666669" x2="300" y1="100" y2="53.33333333333333" /><line stroke="black" x1="250.0" x2="300" y1="100" y2="50.0" /><line stroke="black" x1="253.33333333333334" x2="300" y1="100" y2="46.666666666666664" /><line stroke="black" x1="256.6666666666667" x2="300" y1="100" y2="43.33333333333333" /><line stroke="black" x1="260.0" x2="300" y1="100" y2="40.0" /><line stroke="black" x1="263.3333333333333" x2="300" y1="100" y2="36.666666666666664" /><line stroke="black" x1="266.6666666666667" x2="300" y1="100" y2="33.33333333333333" /><line stroke="black" x1="270.0" x2="300" y1="100" y2="30.0" /><line stroke="black" x1="273.33333333333337" x2="300" y1="100" y2="26.666666666666657" /><line stroke="black" x1="276.6666666666667" x2="300" y1="100" y2="23.33333333333333" /><line stroke="black" x1="280.0" x2="300" y1="100" y2="20.0" /><line stroke="black" x1="283.33333333333337" x2="300" y1="100" y2="16.666666666666657" /><line stroke="black" x1="286.6666666666667" x2="300" y1="100" y2="13.333333333333329" /><line stroke="black" x1="290.0" x2="300" y1="100" y2="10.0" /><line stroke="black" x1="293.33333333333337" x2="300" y1="100" y2="6.666666666666657" /><line stroke="black" x1="296.6666666666667" x2="300" y1="100" y2="3.3333333333333286" /><line stroke="black" x1="300.0" x2="300" y1="100" y2="0.0" /><line stroke="black" x1="400.0" x2="300" y1="100" y2="100.0" /><line stroke="black" x1="396.6666666666667" x2="300" y1="100" y2="96.66666666666667" /><line stroke="black" x1="393.3333333333333" x2="300" y1="100" y2="93.33333333333333" /><line stroke="black" x1="390.0" x2="300" y1="100" y2="90.0" /><line stroke="black" x1="386.6666666666667" x2="300" y1="100" y2="86.66666666666667" /><line stroke="black" x1="383.3333333333333" x2="300" y1="100" y2="83.33333333333333" /><line stroke="black" x1="380.0" x2="300" y1="100" y2="80.0" /><line stroke="black" x1="376.6666666666667" x2="300" y1="100" y2="76.66666666666666" /><line stroke="black" x1="373.3333333333333" x2="300" y1="100" y2="73.33333333333333" /><line stroke="black" x1="370.0" x2="300" y1="100" y2="70.0" /><line stroke="black" x1="366.6666666666667" x2="300" y1="100" y2="66.66666666666666" /><line stroke="black" x1="363.3333333333333" x2="300" y1="100" y2="63.33333333333333" /><line stroke="black" x1="360.0" x2="300" y1="100" y2="60.0" /><line stroke="black" x1="356.6666666666667" x2="300" y1="100" y2="56.666666666666664" /><line stroke="black" x1="353.3333333333333" x2="300" y1="100" y2="53.33333333333333" /><line stroke="black" x1="350.0" x2="300" y1="100" y2="50.0" /><line stroke="black" x1="346.6666666666667" x2="300" y1="100" y2="46.666666666666664" /><line stroke="black" x1="343.3333333333333" x2="300" y1="100" y2="43.33333333333333" /><line stroke="black" x1="340.0" x2="300" y1="100" y2="40.0" /><line stroke="black" x1="336.6666666666667" x2="300" y1="100" y2="36.666666666666664" /><line stroke="black" x1="333.3333333333333" x2="300" y1="100" y2="33.33333333333333" /><line stroke="black" x1="330.0" x2="300" y1="100" y2="30.0" /><line stroke="black" x1="326.66666666666663" x2="300" y1="100" y2="26.666666666666657" /><line stroke="black" x1="323.3333333333333" x2="300" y1="100" y2="23.33333333333333" /><line stroke="black" x1="320.0" x2="300" y1="100" y2="20.0" /><line stroke="black" x1="316.66666666666663" x2="300" y1="100" y2="16.666666666666657" /><line stroke="black" x1="313.3333333333333" x2="300" y1="100" y2="13.333333333333329" /><line stroke="black" x1="310.0" x2="300" y1="100" y2="10.0" /><line stroke="black" x1="306.66666666666663" x2="300" y1="100" y2="6.666666666666657" /><line stroke="black" x1="303.3333333333333" x2="300" y1="100" y2="3.3333333333333286" /><line stroke="black" x1="300.0" x2="300" y1="100" y2="0.0" /><line stroke="black" x1="100.0" x2="200" y1="200" y2="200.0" /><line stroke="black" x1="110.0" x2="200" y1="200" y2="210.0" /><line stroke="black" x1="120.0" x2="200" y1="200" y2="220.0" /><line stroke="black" x1="130.0" x2="200" y1="200" y2="230.0" /><line stroke="black" x1="140.0" x2="200" y1="200" y2="240.0" /><line stroke="black" x1="150.0" x2="200" y1="200" y2="250.0" /><line stroke="black" x1="160.0" x2="200" y1="200" y2="260.0" /><line stroke="black" x1="170.0" x2="200" y1="200" y2="270.0" /><line stroke="black" x1="180.0" x2="200" y1="200" y2="280.0" /><line stroke="black" x1="190.0" x2="200" y1="200" y2="290.0" /><line stroke="black" x1="200.0" x2="200" y1="200" y2="300.0" /><line stroke="black" x1="100.0" x2="0" y1="200" y2="200.0" /><line stroke="black" x1="90.0" x2="0" y1="200" y2="210.0" /><line stroke="black" x1="80.0" x2="0" y1="200" y2="220.0" /><line stroke="black" x1="70.0" x2="0" y1="200" y2="230.0" /><line stroke="black" x1="60.0" x2="0" y1="200" y2="240.0" /><line stroke="black" x1="50.0" x2="0" y1="200" y2="250.0" /><line stroke="black" x1="40.0" x2="0" y1="200" y2="260.0" /><line stroke="black" x1="30.0" x2="0" y1="200" y2="270.0" /><line stroke="black" x1="20.0" x2="0" y1="200" y2="280.0" /><line stroke="black" x1="10.0" x2="0" y1="200" y2="290.0" /><line stroke="black" x1="0.0" x2="0" y1="200" y2="300.0" /><line stroke="black" x1="100.0" x2="200" y1="400" y2="400.0" /><line stroke="black" x1="110.0" x2="200" y1="400" y2="390.0" /><line stroke="black" x1="120.0" x2="200" y1="400" y2="380.0" /><line stroke="black" x1="130.0" x2="200" y1="400" y2="370.0" /><line stroke="black" x1="140.0" x2="200" y1="400" y2="360.0" /><line stroke="black" x1="150.0" x2="200" y1="400" y2="350.0" /><line stroke="black" x1="160.0" x2="200" y1="400" y2="340.0" /><line stroke="black" x1="170.0" x2="200" y1="400" y2="330.0" /><line stroke="black" x1="180.0" x2="200" y1="400" y2="320.0" /><line stroke="black" x1="190.0" x2="200" y1="400" y2="310.0" /><line stroke="black" x1="200.0" x2="200" y1="400" y2="300.0" /><line stroke="black" x1="100.0" x2="0" y1="400" y2="400.0" /><line stroke="black" x1="90.0" x2="0" y1="400" y2="390.0" /><line stroke="black" x1="80.0" x2="0" y1="400" y2="380.0" /><line stroke="black" x1="70.0" x2="0" y1="400" y2="370.0" /><line stroke="black" x1="60.0" x2="0" y1="400" y2="360.0" /><line stroke="black" x1="50.0" x2="0" y1="400" y2="350.0" /><line stroke="black" x1="40.0" x2="0" y1="400" y2="340.0" /><line stroke="black" x1="30.0" x2="0" y1="400" y2="330.0" /><line stroke="black" x1="20.0" x2="0" y1="400" y2="320.0" /><line stroke="black" x1="10.0" x2="0" y1="400" y2="310.0" /><line stroke="black" x1="0.0" x2="0" y1="400" y2="300.0" /><line stroke="black" x1="250.0" x2="350" y1="250" y2="250.0" /><line stroke="black" x1="260.0" x2="350" y1="250" y2="260.0" /><line stroke="black" x1="270.0" x2="350" y1="250" y2="270.0" /><line stroke="black" x1="280.0" x2="350" y1="250" y2="280.0" /><line stroke="black" x1="290.0" x2="350" y1="250" y2="290.0" /><line stroke="black" x1="300.0" x2="350" y1="250" y2="300.0" /><line stroke="black" x1="310.0" x2="350" y1="250" y2="310.0" /><line stroke="black" x1="320.0" x2="350" y1="250" y2="320.0" /><line stroke="black" x1="330.0" x2="350" y1="250" y2="330.0" /><line stroke="black" x1="340.0" x2="350" y1="250" y2="340.0" /><line stroke="black" x1="350.0" x2="350" y1="250" y2="350.0" /><line stroke="black" x1="350.0" x2="250" y1="250" y2="250.0" /><line stroke="black" x1="340.0" x2="250" y1="250" y2="260.0" /><line stroke="black" x1="330.0" x2="250" y1="250" y2="270.0" /><line stroke="black" x1="320.0" x2="250" y1="250" y2="280.0" /><line stroke="black" x1="310.0" x2="250" y1="250" y2="290.0" /><line stroke="black" x1="300.0" x2="250" y1="250" y2="300.0" /><line stroke="black" x1="290.0" x2="250" y1="250" y2="310.0" /><line stroke="black" x1="280.0" x2="250" y1="250" y2="320.0" /><line stroke="black" x1="270.0" x2="250" y1="250" y2="330.0" /><line stroke="black" x1="260.0" x2="250" y1="250" y2="340.0" /><line stroke="black" x1="250.0" x2="250" y1="250" y2="350.0" /><line stroke="black" x1="350.0" x2="250" y1="350" y2="350.0" /><line stroke="black" x1="340.0" x2="250" y1="350" y2="340.0" /><line stroke="black" x1="330.0" x2="250" y1="350" y2="330.0" /><line stroke="black" x1="320.0" x2="250" y1="350" y2="320.0" /><line stroke="black" x1="310.0" x2="250" y1="350" y2="310.0" /><line stroke="black" x1="300.0" x2="250" y1="350" y2="300.0" /><line stroke="black" x1="290.0" x2="250" y1="350" y2="290.0" /><line stroke="black" x1="280.0" x2="250" y1="350" y2="280.0" /><line stroke="black" x1="270.0" x2="250" y1="350" y2="270.0" /><line stroke="black" x1="260.0" x2="250" y1="350" y2="260.0" /><line stroke="black" x1="250.0" x2="250" y1="350" y2="250.0" /><line stroke="black" x1="250.0" x2="350" y1="350" y2="350.0" /><line stroke="black" x1="260.0" x2="350" y1="350" y2="340.0" /><line stroke="black" x1="270.0" x2="350" y1="350" y2="330.0" /><line stroke="black" x1="280.0" x2="350" y1="350" y2="320.0" /><line stroke="black" x1="290.0" x2="350" y1="350" y2="310.0" /><line stroke="black" x1="300.0" x2="350" y1="350" y2="300.0" /><line stroke="black" x1="310.0" x2="350" y1="350" y2="290.0" /><line stroke="black" x1="320.0" x2="350" y1="350" y2="280.0" /><line stroke="black" x1="330.0" x2="350" y1="350" y2="270.0" /><line stroke="black" x1="340.0" x2="350" y1="350" y2="260.0" /><line stroke="black" x1="350.0" x2="350" y1="350" y2="250.0" /></svg>