<?xml version="1.0" encoding="utf-8" ?>
<svg baseProfile="full" height="150" version="1.1" width="330" xmlns="http://www.w3.org/2000/svg" xmlns:ev="http://www.w3.org/2001/xml-events" xmlns:xlink="http://www.w3.org/1999/xlink"><defs /><line stroke="black" x1="50" x2="100.0" y1="50" y2="50.0" /><line stroke="black" x1="100.0" x2="115.45084971874738" y1="50.0" y2="97.55282581475768" /><line stroke="black" x1="115.45084971874738" x2="75.00000000000001" y1="97.55282581475768" y2="126.94208842938134" /><line stroke="black" x1="75.00000000000001" x2="34.549150281252636" y1="126.94208842938134" y2="97.5528258147577" /><line stroke="black" x1="34.549150281252636" x2="50.0" y1="97.5528258147577" y2="50.000000000000014" /><line stroke="black" x1="150.0" x2="200.0" y1="50.000000000000014" y2="50.000000000000014" /><line stroke="black" x1="200.0" x2="159.54915028125265" y1="50.000000000000014" y2="79.38926261462368" /><line stroke="black" x1="159.54915028125265" x2="175.0" y1="79.38926261462368" y2="31.836436799865993" /><line stroke="black" x1="175.0" x2="190.45084971874738" y1="31.836436799865993" y2="79.38926261462368" /><line stroke="black" x1="190.45084971874738" x2="150.0" y1="79.38926261462368" y2="50.00000000000003" /><line stroke="black" x1="250.0" x2="300.0" y1="50.00000000000003" y2="50.00000000000003" /><line stroke="black" x1="300.0" x2="288.8739533021843" y1="50.00000000000003" y2="98.74639560909121" /><line stroke="black" x1="288.8739533021843" x2="243.82550990706335" y1="98.74639560909121" y2="77.05220865321331" /><line stroke="black" x1="243.82550990706335" x2="275.0" y1="77.05220865321331" y2="37.96063452981182" /><line stroke="black" x1="275.0" x2="306.17449009293665" y1="37.96063452981182" y2="77.05220865321331" /><line stroke="black" x1="306.17449009293665" x2="261.1260466978157" y1="77.05220865321331" y2="98.74639560909122" /><line stroke="black" x1="261.1260466978157" x2="249.99999999999997" y1="98.74639560909122" y2="50.00000000000004" /></svg>