<?xml version="1.0" encoding="utf-8" ?>
<svg baseProfile="full" height="200" version="1.1" width="1000" xmlns="http://www.w3.org/2000/svg" xmlns:ev="http://www.w3.org/2001/xml-events" xmlns:xlink="http://www.w3.org/1999/xlink"><defs /><line stroke="black" x1="0" x2="161.80339887498948" y1="0" y2="0.0" /><line stroke="black" x1="161.80339887498948" x2="30.901699437494756" y1="0.0" y2="95.10565162951538" /><line stroke="black" x1="30.901699437494756" x2="80.90169943749473" y1="95.10565162951538" y2="-58.77852522924731" /><line stroke="black" x1="80.90169943749473" x2="130.90169943749473" y1="-58.77852522924731" y2="95.10565162951535" /><line stroke="black" x1="130.90169943749473" x2="-2.842170943040401e-14" y1="95.10565162951535" y2="1.4210854715202004e-14" /><line stroke="black" x1="-2.842170943040401e-14" x2="80.9016994374947" y1="1.4210854715202004e-14" y2="-58.77852522924732" /><line stroke="black" x1="80.9016994374947" x2="161.80339887498945" y1="-58.77852522924732" y2="-7.105427357601002e-15" /><line stroke="black" x1="161.80339887498945" x2="130.90169943749473" y1="-7.105427357601002e-15" y2="95.10565162951536" /><line stroke="black" x1="130.90169943749473" x2="30.901699437494727" y1="95.10565162951536" y2="95.10565162951538" /><line stroke="black" x1="30.901699437494727" x2="-2.842170943040401e-14" y1="95.10565162951538" y2="2.842170943040401e-14" /><line stroke="black" x1="250" x2="350.0" y1="0" y2="0.0" /><line stroke="black" x1="350.0" x2="350.0" y1="0.0" y2="100.0" /><line stroke="black" x1="350.0" x2="250.0" y1="100.0" y2="100.00000000000001" /><line stroke="black" x1="250.0" x2="249.99999999999997" y1="100.00000000000001" y2="1.4210854715202004e-14" /><line stroke="black" x1="249.99999999999997" x2="265.0" y1="1.4210854715202004e-14" y2="1.4210854715202004e-14" /><line stroke="black" x1="265.0" x2="348.7066024995246" y1="1.4210854715202004e-14" y2="14.771753382269067" /><line stroke="black" x1="348.7066024995246" x2="333.93484911725557" y1="14.771753382269067" y2="98.4783558817937" /><line stroke="black" x1="333.93484911725557" x2="250.22824661773095" y1="98.4783558817937" y2="83.70660249952465" /><line stroke="black" x1="250.22824661773095" x2="265.00000000000006" y1="83.70660249952465" y2="2.842170943040401e-14" /><line stroke="black" x1="265.00000000000006" x2="277.55599037492874" y1="2.842170943040401e-14" y2="2.215763007340392" /><line stroke="black" x1="277.55599037492874" x2="345.4418964151972" y1="2.215763007340392" y2="26.945628779152504" /><line stroke="black" x1="345.4418964151972" x2="320.7120306433851" y1="26.945628779152504" y2="94.83153481942095" /><line stroke="black" x1="320.7120306433851" x2="252.82612460311665" y1="94.83153481942095" y2="70.10166904760887" /><line stroke="black" x1="252.82612460311665" x2="277.5559903749288" y1="70.10166904760887" y2="2.215763007340442" /><line stroke="black" x1="277.5559903749288" x2="287.73887628096907" y1="2.215763007340442" y2="5.925242873112264" /><line stroke="black" x1="287.73887628096907" x2="340.9108270197191" y1="5.925242873112264" y2="36.6537119349764" /><line stroke="black" x1="340.9108270197191" x2="310.18235795785495" y1="36.6537119349764" y2="89.82566267372641" /><line stroke="black" x1="310.18235795785495" x2="257.01040721910493" y1="89.82566267372641" y2="59.09719361186229" /><line stroke="black" x1="257.01040721910493" x2="287.7388762809691" y1="59.09719361186229" y2="5.925242873112282" /><line stroke="black" x1="287.7388762809691" x2="295.7146688917816" y1="5.925242873112282" y2="10.534513232391905" /><line stroke="black" x1="295.7146688917816" x2="335.6839686699447" y1="10.534513232391905" y2="44.11070011586568" /><line stroke="black" x1="335.6839686699447" x2="302.1077817864709" y1="44.11070011586568" y2="84.07999989402879" /><line stroke="black" x1="302.1077817864709" x2="262.13848200830785" y1="84.07999989402879" y2="50.503813010555014" /><line stroke="black" x1="262.13848200830785" x2="295.7146688917816" y1="50.503813010555014" y2="10.534513232391909" /><line stroke="black" x1="295.7146688917816" x2="301.7100638585061" y1="10.534513232391909" y2="15.570941264912978" /><line stroke="black" x1="301.7100638585061" x2="330.20721522405995" y1="15.570941264912978" y2="49.58059294580997" /><line stroke="black" x1="330.20721522405995" x2="296.19756354316297" y1="49.58059294580997" y2="78.0777443113638" /><line stroke="black" x1="296.19756354316297" x2="267.7004121776091" y1="78.0777443113638" y2="44.06809263046681" /><line stroke="black" x1="267.7004121776091" x2="301.71006385850615" y1="44.06809263046681" y2="15.570941264913003" /><line stroke="black" x1="301.71006385850615" x2="305.9846365633392" y1="15.570941264913003" y2="20.672389017047553" /><line stroke="black" x1="305.9846365633392" x2="324.81481190812036" y1="20.672389017047553" y2="53.35024188174043" /><line stroke="black" x1="324.81481190812036" x2="292.1369590434275" y1="53.35024188174043" y2="72.18041722652158" /><line stroke="black" x1="292.1369590434275" x2="273.3067836986463" y1="72.18041722652158" y2="39.50256436182872" /><line stroke="black" x1="273.3067836986463" x2="305.9846365633392" y1="39.50256436182872" y2="20.67238901704756" /><line stroke="black" x1="305.9846365633392" x2="308.8091628650564" y1="20.67238901704756" y2="25.574066946751493" /><line stroke="black" x1="308.8091628650564" x2="319.7441710550827" y1="25.574066946751493" y2="55.709134412959386" /><line stroke="black" x1="319.7441710550827" x2="289.6091035888748" y1="55.709134412959386" y2="66.64414260298564" /><line stroke="black" x1="289.6091035888748" x2="278.6740953988485" y1="66.64414260298564" y2="36.50907513677774" /><line stroke="black" x1="278.6740953988485" x2="308.8091628650564" y1="36.50907513677774" y2="25.57406694675148" /><line stroke="black" x1="308.8091628650564" x2="310.44941409356034" y1="25.57406694675148" y2="30.094327066682666" /><line stroke="black" x1="310.44941409356034" x2="315.15126008478745" y1="30.094327066682666" y2="56.93466064574649" /><line stroke="black" x1="315.15126008478745" x2="288.3109265057236" y1="56.93466064574649" y2="61.6365066369736" /><line stroke="black" x1="288.3109265057236" x2="283.6090805144965" y1="61.6365066369736" y2="34.79617305790978" /><line stroke="black" x1="283.6090805144965" x2="310.44941409356034" y1="34.79617305790978" y2="30.09432706668268" /><line stroke="black" x1="310.44941409356034" x2="311.1546909922444" y1="30.09432706668268" y2="34.12037710354225" /><line stroke="black" x1="311.1546909922444" x2="311.12565864298307" y1="34.12037710354225" y2="57.28205353635381" /><line stroke="black" x1="311.12565864298307" x2="287.96398221017154" y1="57.28205353635381" y2="57.253021187092465" /><line stroke="black" x1="287.96398221017154" x2="287.9930145594329" y1="57.253021187092465" y2="34.09134475428091" /><line stroke="black" x1="287.9930145594329" x2="311.1546909922444" y1="34.09134475428091" y2="34.12037710354228" /><line stroke="black" x1="311.1546909922444" x2="311.1503361398552" y1="34.12037710354228" y2="37.59462856846402" /><line stroke="black" x1="311.1503361398552" x2="307.7046484248087" y1="37.59462856846402" y2="56.978192405269695" /><line stroke="black" x1="307.7046484248087" x2="288.32108458800303" y1="56.978192405269695" y2="53.53250469022315" /><line stroke="black" x1="288.32108458800303" x2="291.7667723030496" y1="53.53250469022315" y2="34.14894085341747" /><line stroke="black" x1="291.7667723030496" x2="311.15033613985526" y1="34.14894085341747" y2="37.594628568464024" /><line stroke="black" x1="311.15033613985526" x2="310.63348298259825" y1="37.594628568464024" y2="40.50216314398487" /><line stroke="black" x1="310.63348298259825" x2="304.8859226169217" y1="40.50216314398487" y2="56.21849738351158" /><line stroke="black" x1="304.8859226169217" x2="289.169588377395" y1="56.21849738351158" y2="50.470937017835" /><line stroke="black" x1="289.169588377395" x2="294.91714874307155" y1="50.470937017835" y2="34.754602778308296" /><line stroke="black" x1="294.91714874307155" x2="310.63348298259825" y1="34.754602778308296" y2="40.502163143984895" /><line stroke="black" x1="310.63348298259825" x2="309.77134892774677" y1="40.502163143984895" y2="42.8596132799139" /><line stroke="black" x1="309.77134892774677" x2="302.6386832844336" y1="42.8596132799139" y2="55.16620726657642" /><line stroke="black" x1="302.6386832844336" x2="290.3320892977711" y1="55.16620726657642" y2="48.03354162326329" /><line stroke="black" x1="290.3320892977711" x2="297.46475494108427" y1="48.03354162326329" y2="35.72694763660077" /><line stroke="black" x1="297.46475494108427" x2="309.77134892774677" y1="35.72694763660077" y2="42.85961327991391" /><line stroke="black" x1="309.77134892774677" x2="308.7014490812498" y1="42.85961327991391" y2="44.70560237791329" /><line stroke="black" x1="308.7014490812498" x2="300.9130372901146" y1="44.70560237791329" y2="53.95341430914723" /><line stroke="black" x1="300.9130372901146" x2="291.6652253588806" y1="53.95341430914723" y2="46.165002518012" /><line stroke="black" x1="291.6652253588806" x2="299.4536371500158" y1="46.165002518012" y2="36.91719058677806" /><line stroke="black" x1="299.4536371500158" x2="308.70144908124973" y1="36.91719058677806" y2="44.705602377913294" /><line stroke="black" x1="308.70144908124973" x2="307.53318731257946" y1="44.705602377913294" y2="46.092774167598385" /><line stroke="black" x1="307.53318731257946" x2="299.64770844180987" y1="46.092774167598385" y2="52.68331835859793" /><line stroke="black" x1="299.64770844180987" x2="293.05716425081033" y1="52.68331835859793" y2="44.79783948782833" /><line stroke="black" x1="293.05716425081033" x2="300.9426431215799" y1="44.79783948782833" y2="38.20729529682878" /><line stroke="black" x1="300.9426431215799" x2="307.53318731257946" y1="38.20729529682878" y2="46.09277416759839" /><line stroke="black" x1="307.53318731257946" x2="306.350365481964" y1="46.09277416759839" y2="47.081355796248324" /><line stroke="black" x1="306.350365481964" x2="298.77616009398093" y1="47.081355796248324" y2="51.4332529329628" /><line stroke="black" x1="298.77616009398093" x2="294.4242629572665" y1="51.4332529329628" y2="43.859047544979774" /><line stroke="black" x1="294.4242629572665" x2="301.99846834524953" y1="43.859047544979774" y2="39.5071504082653" /><line stroke="black" x1="301.99846834524953" x2="306.350365481964" y1="39.5071504082653" y2="47.08135579624833" /><line stroke="black" x1="306.350365481964" x2="305.21423467376655" y1="47.08135579624833" y2="47.734140366755504" /><line stroke="black" x1="305.21423467376655" x2="298.2312731646645" y1="47.734140366755504" y2="50.258122663593895" /><line stroke="black" x1="298.2312731646645" x2="295.70729086782615" y1="50.258122663593895" y2="43.27516115449187" /><line stroke="black" x1="295.70729086782615" x2="302.6902523769282" y1="43.27516115449187" y2="40.751178857653485" /><line stroke="black" x1="302.6902523769282" x2="305.21423467376655" y1="40.751178857653485" y2="47.73414036675551" /><line stroke="black" x1="305.21423467376655" x2="304.16679044740124" y1="47.73414036675551" y2="48.11273771128127" /><line stroke="black" x1="304.16679044740124" x2="297.9487541739813" y1="48.11273771128127" y2="49.19397168675082" /><line stroke="black" x1="297.9487541739813" x2="296.8675201985117" y1="49.19397168675082" y2="42.97593541333089" /><line stroke="black" x1="296.8675201985117" x2="303.0855564719317" y1="42.97593541333089" y2="41.894701437861336" /><line stroke="black" x1="303.0855564719317" x2="304.16679044740124" y1="41.894701437861336" y2="48.11273771128127" /><line stroke="black" x1="304.16679044740124" x2="303.2340850063882" y1="48.11273771128127" y2="48.274922807601705" /><line stroke="black" x1="303.2340850063882" x2="297.8694608833787" y1="48.274922807601705" y2="48.26147405000818" /><line stroke="black" x1="297.8694608833787" x2="297.88290964097223" y1="48.26147405000818" y2="42.89684992699864" /><line stroke="black" x1="297.88290964097223" x2="303.2475337639818" y1="42.89684992699864" y2="42.91029868459216" /><line stroke="black" x1="303.2475337639818" x2="303.2340850063882" y1="42.91029868459216" y2="48.27492280760171" /><line stroke="black" x1="303.2340850063882" x2="302.4293913879368" y1="48.27492280760171" y2="48.27290549396268" /><line stroke="black" x1="302.4293913879368" x2="297.94083341500027" y1="48.27290549396268" y2="47.46919895056607" /><line stroke="black" x1="297.94083341500027" x2="298.7445399583969" y1="47.46919895056607" y2="42.980640977629555" /><line stroke="black" x1="298.7445399583969" x2="303.2330979313334" y1="42.980640977629555" y2="43.78434752102618" /><line stroke="black" x1="303.2330979313334" x2="302.4293913879368" y1="43.78434752102618" y2="48.27290549396269" /><line stroke="black" x1="302.4293913879368" x2="301.7561076919963" y1="48.27290549396269" y2="48.1523495124532" /><line stroke="black" x1="301.7561076919963" x2="298.11760986013735" y1="48.1523495124532" y2="46.816555356727164" /><line stroke="black" x1="298.11760986013735" x2="299.4534040158634" y1="46.816555356727164" y2="43.17805752486819" /><line stroke="black" x1="299.4534040158634" x2="303.09190184772234" y1="43.17805752486819" y2="44.51385168059422" /><line stroke="black" x1="303.09190184772234" x2="301.7561076919963" y1="44.51385168059422" y2="48.1523495124532" /><line stroke="black" x1="301.7561076919963" x2="301.21033301721747" y1="48.1523495124532" y2="47.951980389094295" /><line stroke="black" x1="301.21033301721747" x2="298.36199031852806" y1="47.951980389094295" y2="46.2963625584074" /><line stroke="black" x1="298.36199031852806" x2="300.01760814921494" y1="46.2963625584074" y2="43.448019859717995" /><line stroke="black" x1="300.01760814921494" x2="302.86595084790434" y1="43.448019859717995" y2="45.10363769040489" /><line stroke="black" x1="302.86595084790434" x2="301.21033301721747" y1="45.10363769040489" y2="47.95198038909429" /><line stroke="black" x1="301.21033301721747" x2="300.78308161241404" y1="47.95198038909429" y2="47.70363771449126" /><line stroke="black" x1="300.78308161241404" x2="298.6433944946998" y1="47.70363771449126" y2="45.89702611911466" /><line stroke="black" x1="298.6433944946998" x2="300.4500060900764" y1="45.89702611911466" y2="43.75733900140043" /><line stroke="black" x1="300.4500060900764" x2="302.5896932077906" y1="43.75733900140043" y2="45.563950596777026" /><line stroke="black" x1="302.5896932077906" x2="300.78308161241404" y1="45.563950596777026" y2="47.70363771449126" /><line stroke="black" x1="300.78308161241404" x2="300.4621285447569" y1="47.70363771449126" y2="47.43264597518477" /><line stroke="black" x1="300.4621285447569" x2="298.9379373638428" y1="47.43264597518477" y2="45.604323484151635" /><line stroke="black" x1="298.9379373638428" x2="300.76625985487595" y1="45.604323484151635" y2="44.080132303237555" /><line stroke="black" x1="300.76625985487595" x2="302.29045103579006" y1="44.080132303237555" y2="45.90845479427069" /><line stroke="black" x1="302.29045103579006" x2="300.4621285447569" y1="45.90845479427069" y2="47.43264597518477" /><line stroke="black" x1="300.4621285447569" x2="300.2334998676198" y1="47.43264597518477" y2="47.1583976015298" /><line stroke="black" x1="300.2334998676198" x2="299.2277265038872" y1="47.1583976015298" y2="45.40282119923236" /><line stroke="black" x1="299.2277265038872" x2="300.98330290618463" y1="45.40282119923236" y2="44.39704783549978" /><line stroke="black" x1="300.98330290618463" x2="301.98907626991723" y1="44.39704783549978" y2="46.15262423779721" /><line stroke="black" x1="301.98907626991723" x2="300.2334998676198" y1="46.15262423779721" y2="47.1583976015298" /><line stroke="black" x1="300.2334998676198" x2="300.0826338630599" y1="47.1583976015298" y2="46.89506114118518" /><line stroke="black" x1="300.0826338630599" x2="299.5000645680189" y1="46.89506114118518" y2="45.27695741966348" /><line stroke="black" x1="299.5000645680189" x2="301.1181682895406" y1="45.27695741966348" y2="44.69438812462244" /><line stroke="black" x1="301.1181682895406" x2="301.70073758458165" y1="44.69438812462244" y2="46.31249184614414" /><line stroke="black" x1="301.70073758458165" x2="300.0826338630599" y1="46.31249184614414" y2="46.89506114118518" /><line stroke="black" x1="300.0826338630599" x2="299.99524846880377" y1="46.89506114118518" y2="46.652345582956926" /><line stroke="black" x1="299.99524846880377" x2="299.74662179593196" y1="46.652345582956926" y2="45.21183023320845" /><line stroke="black" x1="299.74662179593196" x2="301.1871371456804" y1="45.21183023320845" y2="44.963203560336666" /><line stroke="black" x1="301.1871371456804" x2="301.43576381855223" y1="44.963203560336666" y2="46.40371891008514" /><line stroke="black" x1="301.43576381855223" x2="299.99524846880377" y1="46.40371891008514" y2="46.652345582956926" /><line stroke="black" x1="299.99524846880377" x2="299.957954467873" y1="46.652345582956926" y2="46.43626828049466" /><line stroke="black" x1="299.957954467873" x2="299.96262690200297" y1="46.43626828049466" y2="45.19373530377691" /><line stroke="black" x1="299.96262690200297" x2="301.20515987872074" y1="45.19373530377691" y2="45.198407737906905" /><line stroke="black" x1="301.20515987872074" x2="301.20048744459075" y1="45.198407737906905" y2="46.44094071462465" /><line stroke="black" x1="301.20048744459075" x2="299.957954467873" y1="46.44094071462465" y2="46.43626828049466" /><line stroke="black" x1="299.957954467873" x2="299.95865533299246" y1="46.43626828049466" y2="46.249888333986995" /><line stroke="black" x1="299.95865533299246" x2="300.1461103758708" y1="46.249888333986995" y2="45.21049639468699" /><line stroke="black" x1="300.1461103758708" x2="301.1855023151708" y1="45.21049639468699" y2="45.397951437565354" /><line stroke="black" x1="301.1855023151708" x2="300.99804727229247" y1="45.397951437565354" y2="46.43734337686536" /><line stroke="black" x1="300.99804727229247" x2="299.95865533299246" y1="46.43734337686536" y2="46.249888333986995" /><line stroke="black" x1="299.95865533299246" x2="299.9867735894242" y1="46.249888333986995" y2="46.093979543092" /><line stroke="black" x1="299.9867735894242" x2="300.2972222509803" y1="46.093979543092" y2="45.25163026068666" /><line stroke="black" x1="300.2972222509803" x2="301.13957153338566" y1="45.25163026068666" y2="45.56207892224275" /><line stroke="black" x1="301.13957153338566" x2="300.82912287182955" y1="45.56207892224275" y2="46.404428204648084" /><line stroke="black" x1="300.82912287182955" x2="299.9867735894242" y1="46.404428204648084" y2="46.093979543092" /><line stroke="black" x1="299.9867735894242" x2="300.0333408886576" y1="46.093979543092" y2="45.9676271507312" /><line stroke="black" x1="300.0333408886576" x2="300.41763667436567" y1="45.9676271507312" y2="45.30838389591418" /><line stroke="black" x1="300.41763667436567" x2="301.07687992918267" y1="45.30838389591418" y2="45.69267968162226" /><line stroke="black" x1="301.07687992918267" x2="300.6925841434746" y1="45.69267968162226" y2="46.35192293643927" /><line stroke="black" x1="300.6925841434746" x2="300.0333408886576" y1="46.35192293643927" y2="45.9676271507312" /><line stroke="black" x1="300.0333408886576" x2="300.0909852565138" y1="45.9676271507312" y2="45.86874066250864" /><line stroke="black" x1="300.0909852565138" x2="300.5100479900697" y1="45.86874066250864" y2="45.37367775741728" /><line stroke="black" x1="300.5100479900697" x2="301.00511089516107" y1="45.37367775741728" y2="45.79274049097318" /><line stroke="black" x1="301.00511089516107" x2="300.58604816160516" y1="45.79274049097318" y2="46.28780339606453" /><line stroke="black" x1="300.58604816160516" x2="300.0909852565138" y1="46.28780339606453" y2="45.868740662508635" /><line stroke="black" x1="300.0909852565138" x2="300.15384466654723" y1="45.868740662508635" y2="45.794481226744935" /><line stroke="black" x1="300.15384466654723" x2="300.5777573145757" y1="45.794481226744935" y2="45.441983802175386" /><line stroke="black" x1="300.5777573145757" x2="300.93025473914525" y1="45.441983802175386" y2="45.865896450203856" /><line stroke="black" x1="300.93025473914525" x2="300.5063420911168" y1="45.865896450203856" y2="46.218393874773405" /><line stroke="black" x1="300.5063420911168" x2="300.15384466654723" y1="46.218393874773405" y2="45.794481226744935" /><line stroke="black" x1="300.15384466654723" x2="300.2174315637515" y1="45.794481226744935" y2="45.7416066130595" /><line stroke="black" x1="300.2174315637515" x2="300.6243444892182" y1="45.7416066130595" y2="45.50916232597702" /><line stroke="black" x1="300.6243444892182" x2="300.8567887763007" y1="45.50916232597702" y2="45.91607525144369" /><line stroke="black" x1="300.8567887763007" x2="300.449875850834" y1="45.91607525144369" y2="46.148519538526166" /><line stroke="black" x1="300.449875850834" x2="300.2174315637515" y1="46.148519538526166" y2="45.7416066130595" /><line stroke="black" x1="300.2174315637515" x2="300.2784685025715" y1="45.7416066130595" y2="45.70673996999713" /><line stroke="black" x1="300.2784685025715" x2="300.6534175844501" y1="45.70673996999713" y2="45.57227692840666" /><line stroke="black" x1="300.6534175844501" x2="300.7878806260406" y1="45.57227692840666" y2="45.94722601028522" /><line stroke="black" x1="300.7878806260406" x2="300.412931544162" y1="45.94722601028522" y2="46.08168905187569" /><line stroke="black" x1="300.412931544162" x2="300.2784685025715" y1="46.08168905187569" y2="45.70673996999713" /><line stroke="black" x1="300.2784685025715" x2="300.3347108648533" y1="45.70673996999713" y2="45.68657051375856" /><line stroke="black" x1="300.3347108648533" x2="300.66843055129107" y1="45.68657051375856" y2="45.62940262370984" /><line stroke="black" x1="300.66843055129107" x2="300.7255984413398" y1="45.62940262370984" y2="45.96312231014758" /><line stroke="black" x1="300.7255984413398" x2="300.39187875490205" y1="45.96312231014758" y2="46.02029020019631" /><line stroke="black" x1="300.39187875490205" x2="300.3347108648533" y1="46.02029020019631" y2="45.68657051375856" /><line stroke="black" x1="300.3347108648533" x2="300.384768817819" y1="45.68657051375856" y2="45.67799533025125" /><line stroke="black" x1="300.384768817819" x2="300.67255892893996" y1="45.67799533025125" y2="45.67943828083946" /><line stroke="black" x1="300.67255892893996" x2="300.67111597835174" y1="45.67943828083946" y2="45.96722839196041" /><line stroke="black" x1="300.67111597835174" x2="300.3833258672308" y1="45.96722839196041" y2="45.9657854413722" /><line stroke="black" x1="300.3833258672308" x2="300.384768817819" y1="45.9657854413722" y2="45.67799533025125" /><line stroke="black" x1="300.384768817819" x2="300.4279373344871" y1="45.67799533025125" y2="45.67821177283948" /><line stroke="black" x1="300.4279373344871" x2="300.6686235097338" y1="45.67821177283948" y2="45.72193126322597" /><line stroke="black" x1="300.6686235097338" x2="300.6249040193473" y1="45.72193126322597" y2="45.962617438472606" /><line stroke="black" x1="300.6249040193473" x2="300.38421784410065" y1="45.962617438472606" y2="45.91889794808612" /><line stroke="black" x1="300.38421784410065" x2="300.4279373344871" y1="45.91889794808612" y2="45.67821177283948" /><line stroke="black" x1="300.4279373344871" x2="300.46404026077414" y1="45.67821177283948" y2="45.68476969639745" /><line stroke="black" x1="300.46404026077414" x2="300.65905234545926" y1="45.68476969639745" y2="45.756919364662735" /><line stroke="black" x1="300.65905234545926" x2="300.58690267719396" y1="45.756919364662735" y2="45.95193144934787" /><line stroke="black" x1="300.58690267719396" x2="300.39189059250884" y1="45.95193144934787" y2="45.879781781082585" /><line stroke="black" x1="300.39189059250884" x2="300.46404026077414" y1="45.879781781082585" y2="45.68476969639745" /><line stroke="black" x1="300.46404026077414" x2="300.49329207347694" y1="45.68476969639745" y2="45.695592146637246" /><line stroke="black" x1="300.49329207347694" x2="300.6458722929681" y1="45.695592146637246" y2="45.784792886872104" /><line stroke="black" x1="300.6458722929681" x2="300.55667155273323" y1="45.784792886872104" y2="45.93737310636325" /><line stroke="black" x1="300.55667155273323" x2="300.4040913332421" y1="45.93737310636325" y2="45.848172366128395" /><line stroke="black" x1="300.4040913332421" x2="300.49329207347694" y1="45.848172366128395" y2="45.695592146637246" /><line stroke="black" x1="300.49329207347694" x2="300.5161791064006" y1="45.695592146637246" y2="45.70897225767247" /><line stroke="black" x1="300.5161791064006" x2="300.63072231086034" y1="45.70897225767247" y2="45.806177940460856" /><line stroke="black" x1="300.63072231086034" x2="300.53351662807194" y1="45.806177940460856" y2="45.92072114492056" /><line stroke="black" x1="300.53351662807194" x2="300.4189734236122" y1="45.92072114492056" y2="45.82351546213218" /><line stroke="black" x1="300.4189734236122" x2="300.5161791064006" y1="45.82351546213218" y2="45.70897225767247" /><line stroke="black" x1="300.5161791064006" x2="300.5333605870696" y1="45.70897225767247" y2="45.72355311009073" /><line stroke="black" x1="300.5333605870696" x2="300.6148818281818" y1="45.72355311009073" y2="45.821840724268284" /><line stroke="black" x1="300.6148818281818" x2="300.5165942140043" y1="45.821840724268284" y2="45.90336196538054" /><line stroke="black" x1="300.5165942140043" x2="300.43507297289204" y1="45.90336196538054" y2="45.80507435120298" /><line stroke="black" x1="300.43507297289204" x2="300.5333605870696" y1="45.80507435120298" y2="45.72355311009073" /><line stroke="black" x1="300.5333605870696" x2="300.54558877323643" y1="45.72355311009073" y2="45.73829625221736" /><line stroke="black" x1="300.54558877323643" x2="300.59930863051534" y1="45.73829625221736" y2="45.8326115914145" /><line stroke="black" x1="300.59930863051534" x2="300.5049932913182" y1="45.8326115914145" y2="45.88633144869338" /><line stroke="black" x1="300.5049932913182" x2="300.4512734340393" y1="45.88633144869338" y2="45.792016109496245" /><line stroke="black" x1="300.4512734340393" x2="300.54558877323643" y1="45.792016109496245" y2="45.73829625221736" /><line stroke="black" x1="300.54558877323643" x2="300.55364675182824" y1="45.73829625221736" y2="45.75244355309693" /><line stroke="black" x1="300.55364675182824" x2="300.58468178991615" y1="45.75244355309693" y2="45.839327084009305" /><line stroke="black" x1="300.58468178991615" x2="300.4977982590038" y1="45.839327084009305" y2="45.870362122097205" /><line stroke="black" x1="300.4977982590038" x2="300.4667632209159" y1="45.870362122097205" y2="45.78347859118483" /><line stroke="black" x1="300.4667632209159" x2="300.55364675182824" y1="45.78347859118483" y2="45.75244355309693" /><line stroke="black" x1="300.55364675182824" x2="300.55830200754144" y1="45.75244355309693" y2="45.765476082733784" /><line stroke="black" x1="300.55830200754144" x2="300.5714461625931" y1="45.765476082733784" y2="45.84278775388059" /><line stroke="black" x1="300.5714461625931" x2="300.4941344914463" y1="45.84278775388059" y2="45.85593190893222" /><line stroke="black" x1="300.4941344914463" x2="300.48099033639465" y1="45.85593190893222" y2="45.77862023778541" /><line stroke="black" x1="300.48099033639465" x2="300.55830200754144" y1="45.77862023778541" y2="45.765476082733784" /><line stroke="black" x1="300.55830200754144" x2="300.5602736307992" y1="45.765476082733784" y2="45.7770728334058" /><line stroke="black" x1="300.5602736307992" x2="300.5598558670227" y1="45.7770728334058" y2="45.84372942882681" /><line stroke="black" x1="300.5598558670227" x2="300.49319927160167" y1="45.84372942882681" y2="45.84331166505029" /><line stroke="black" x1="300.49319927160167" x2="300.4936170353782" y1="45.84331166505029" y2="45.77665506962928" /><line stroke="black" x1="300.4936170353782" x2="300.5602736307992" y1="45.77665506962928" y2="45.7770728334058" /><line stroke="black" x1="300.5602736307992" x2="300.5602109662327" y1="45.7770728334058" y2="45.78707132271896" /><line stroke="black" x1="300.5602109662327" x2="300.55001492248033" y1="45.78707132271896" y2="45.84280558305295" /><line stroke="black" x1="300.55001492248033" x2="300.49428066214637" y1="45.84280558305295" y2="45.832609539300535" /><line stroke="black" x1="300.49428066214637" x2="300.50447670589875" y1="45.832609539300535" y2="45.77687527896654" /><line stroke="black" x1="300.50447670589875" x2="300.5602109662327" y1="45.77687527896654" y2="45.78707132271896" /><line stroke="black" x1="300.5602109662327" x2="300.5586815596699" y1="45.78707132271896" y2="45.795431461769056" /><line stroke="black" x1="300.5586815596699" x2="300.5419138703694" y1="45.795431461769056" y2="45.840578583085026" /><line stroke="black" x1="300.5419138703694" x2="300.49676674905345" y1="45.840578583085026" y2="45.82381089378455" /><line stroke="black" x1="300.49676674905345" x2="300.51353443835393" y1="45.82381089378455" y2="45.778663772468576" /><line stroke="black" x1="300.51353443835393" x2="300.5586815596699" y1="45.778663772468576" y2="45.795431461769056" /><line stroke="black" x1="300.5586815596699" x2="300.5561664062748" y1="45.795431461769056" y2="45.80220352996645" /><line stroke="black" x1="300.5561664062748" x2="300.5354617218237" y1="45.80220352996645" y2="45.837517769635014" /><line stroke="black" x1="300.5354617218237" x2="300.50014748215517" y1="45.837517769635014" y2="45.81681308518392" /><line stroke="black" x1="300.50014748215517" x2="300.5208521666063" y1="45.81681308518392" y2="45.78149884551535" /><line stroke="black" x1="300.5208521666063" x2="300.5561664062748" y1="45.78149884551535" y2="45.80220352996645" /><line stroke="black" x1="300.5561664062748" x2="300.5530607036072" y1="45.80220352996645" y2="45.807500665916734" /><line stroke="black" x1="300.5530607036072" x2="300.53051298330223" y1="45.807500665916734" y2="45.83400257121614" /><line stroke="black" x1="300.53051298330223" x2="300.5040110780028" y1="45.83400257121614" y2="45.81145485091122" /><line stroke="black" x1="300.5040110780028" x2="300.52655879830775" y1="45.81145485091122" y2="45.78495294561181" /><line stroke="black" x1="300.52655879830775" x2="300.5530607036072" y1="45.78495294561181" y2="45.807500665916734" /><line stroke="black" x1="300.5530607036072" x2="300.54967854556145" y1="45.807500665916734" y2="45.81147595171164" /><line stroke="black" x1="400.0" x2="400.0" y1="100.0" y2="100.0" /><line stroke="black" x1="500.0" x2="500.0" y1="0.0" y2="0.0" /><line stroke="black" x1="410.0" x2="410.0" y1="143.58898943540675" y2="56.41101056459326" /><line stroke="black" x1="543.5889894354067" x2="456.41101056459325" y1="10.0" y2="10.0" /><line stroke="black" x1="420.0" x2="420.0" y1="160.0" y2="40.0" /><line stroke="black" x1="560.0" x2="440.0" y1="20.0" y2="20.0" /><line stroke="black" x1="430.0" x2="430.0" y1="171.4142842854285" y2="28.585715714571506" /><line stroke="black" x1="571.4142842854285" x2="428.5857157145715" y1="30.0" y2="30.0" /><line stroke="black" x1="440.0" x2="440.0" y1="180.0" y2="20.0" /><line stroke="black" x1="580.0" x2="420.0" y1="40.0" y2="40.0" /><line stroke="black" x1="450.0" x2="450.0" y1="186.60254037844385" y2="13.397459621556138" /><line stroke="black" x1="586.6025403784439" x2="413.39745962155615" y1="50.0" y2="50.0" /><line stroke="black" x1="460.0" x2="460.0" y1="191.6515138991168" y2="8.348486100883207" /><line stroke="black" x1="591.6515138991168" x2="408.3484861008832" y1="60.0" y2="60.0" /><line stroke="black" x1="470.0" x2="470.0" y1="195.39392014169457" y2="4.606079858305435" /><line stroke="black" x1="595.3939201416946" x2="404.6060798583054" y1="70.0" y2="70.0" /><line stroke="black" x1="480.0" x2="480.0" y1="197.97958971132712" y2="2.0204102886728776" /><line stroke="black" x1="597.9795897113271" x2="402.0204102886729" y1="80.0" y2="80.0" /><line stroke="black" x1="490.0" x2="490.0" y1="199.49874371066198" y2="0.5012562893380021" /><line stroke="black" x1="599.498743710662" x2="400.501256289338" y1="90.0" y2="90.0" /><line stroke="black" x1="500.0" x2="500.0" y1="200.0" y2="0.0" /><line stroke="black" x1="600.0" x2="400.0" y1="100.0" y2="100.0" /><line stroke="black" x1="510.0" x2="510.0" y1="199.49874371066198" y2="0.5012562893380021" /><line stroke="black" x1="599.498743710662" x2="400.501256289338" y1="110.0" y2="110.0" /><line stroke="black" x1="520.0" x2="520.0" y1="197.97958971132712" y2="2.0204102886728776" /><line stroke="black" x1="597.9795897113271" x2="402.0204102886729" y1="120.0" y2="120.0" /><line stroke="black" x1="530.0" x2="530.0" y1="195.39392014169457" y2="4.606079858305435" /><line stroke="black" x1="595.3939201416946" x2="404.6060798583054" y1="130.0" y2="130.0" /><line stroke="black" x1="540.0" x2="540.0" y1="191.6515138991168" y2="8.348486100883207" /><line stroke="black" x1="591.6515138991168" x2="408.3484861008832" y1="140.0" y2="140.0" /><line stroke="black" x1="550.0" x2="550.0" y1="186.60254037844385" y2="13.397459621556138" /><line stroke="black" x1="586.6025403784439" x2="413.39745962155615" y1="150.0" y2="150.0" /><line stroke="black" x1="560.0" x2="560.0" y1="180.0" y2="20.0" /><line stroke="black" x1="580.0" x2="420.0" y1="160.0" y2="160.0" /><line stroke="black" x1="570.0" x2="570.0" y1="171.4142842854285" y2="28.585715714571506" /><line stroke="black" x1="571.4142842854285" x2="428.5857157145715" y1="170.0" y2="170.0" /><line stroke="black" x1="580.0" x2="580.0" y1="160.0" y2="40.0" /><line stroke="black" x1="560.0" x2="440.0" y1="180.0" y2="180.0" /><line stroke="black" x1="590.0" x2="590.0" y1="143.58898943540675" y2="56.41101056459326" /><line stroke="black" x1="543.5889894354067" x2="456.41101056459325" y1="190.0" y2="190.0" /><line stroke="black" x1="750" x2="850.0" y1="0" y2="173.20508075688772" /><line stroke="black" x1="850.0" x2="650.0" y1="173.20508075688772" y2="173.20508075688775" /><line stroke="black" x1="650.0" x2="750.0" y1="173.20508075688775" y2="2.842170943040401e-14" /><line stroke="black" x1="750.0" x2="841.5" y1="9.814954576223666" y2="168.29760346877595" /><line stroke="black" x1="841.5" x2="658.5" y1="168.29760346877595" y2="168.29760346877597" /><line stroke="black" x1="658.5" x2="750.0" y1="168.29760346877597" y2="9.814954576223698" /><line stroke="black" x1="750.0" x2="833.0" y1="19.629909152447336" y2="163.39012618066414" /><line stroke="black" x1="833.0" x2="667.0" y1="163.39012618066414" y2="163.39012618066417" /><line stroke="black" x1="667.0" x2="750.0" y1="163.39012618066417" y2="19.629909152447368" /><line stroke="black" x1="750.0" x2="824.5" y1="29.444863728671006" y2="158.48264889255236" /><line stroke="black" x1="824.5" x2="675.5" y1="158.48264889255236" y2="158.4826488925524" /><line stroke="black" x1="675.5" x2="750.0" y1="158.4826488925524" y2="29.444863728671038" /><line stroke="black" x1="750.0" x2="816.0" y1="39.25981830489468" y2="153.57517160444058" /><line stroke="black" x1="816.0" x2="684.0" y1="153.57517160444058" y2="153.5751716044406" /><line stroke="black" x1="684.0" x2="750.0" y1="153.5751716044406" y2="39.25981830489472" /><line stroke="black" x1="750.0" x2="807.5" y1="49.07477288111836" y2="148.6676943163288" /><line stroke="black" x1="807.5" x2="692.5" y1="148.6676943163288" y2="148.6676943163288" /><line stroke="black" x1="692.5" x2="750.0" y1="148.6676943163288" y2="49.07477288111836" /><line stroke="black" x1="750.0" x2="799.0" y1="58.889727457342005" y2="143.76021702821697" /><line stroke="black" x1="799.0" x2="701.0" y1="143.76021702821697" y2="143.76021702821697" /><line stroke="black" x1="701.0" x2="750.0" y1="143.76021702821697" y2="58.88972745734199" /><line stroke="black" x1="750.0" x2="790.5" y1="68.70468203356563" y2="138.85273974010516" /><line stroke="black" x1="790.5" x2="709.5" y1="138.85273974010516" y2="138.85273974010516" /><line stroke="black" x1="709.5" x2="750.0" y1="138.85273974010516" y2="68.70468203356563" /><line stroke="black" x1="750.0" x2="782.0" y1="78.51963660978927" y2="133.94526245199336" /><line stroke="black" x1="782.0" x2="718.0" y1="133.94526245199336" y2="133.94526245199336" /><line stroke="black" x1="718.0" x2="750.0" y1="133.94526245199336" y2="78.51963660978929" /><line stroke="black" x1="750.0" x2="773.5" y1="88.33459118601293" y2="129.03778516388155" /><line stroke="black" x1="773.5" x2="726.5" y1="129.03778516388155" y2="129.03778516388155" /><line stroke="black" x1="726.5" x2="750.0" y1="129.03778516388155" y2="88.33459118601294" /><line stroke="black" x1="750.0" x2="765.0" y1="98.14954576223658" y2="124.13030787576974" /><line stroke="black" x1="765.0" x2="735.0" y1="124.13030787576974" y2="124.13030787576974" /><line stroke="black" x1="735.0" x2="750.0" y1="124.13030787576974" y2="98.14954576223658" /><line stroke="black" x1="750.0" x2="756.5" y1="107.96450033846023" y2="119.22283058765792" /><line stroke="black" x1="756.5" x2="743.5" y1="119.22283058765792" y2="119.22283058765792" /><line stroke="black" x1="743.5" x2="750.0" y1="119.22283058765792" y2="107.96450033846023" /><line stroke="black" x1="900" x2="920.0" y1="50" y2="50.0" /><line stroke="black" x1="920.0" x2="937.3205080756887" y1="50.0" y2="60.0" /><line stroke="black" x1="937.3205080756887" x2="947.3205080756887" y1="60.0" y2="77.32050807568876" /><line stroke="black" x1="947.3205080756887" x2="947.3205080756887" y1="77.32050807568876" y2="97.32050807568876" /><line stroke="black" x1="947.3205080756887" x2="937.3205080756887" y1="97.32050807568876" y2="114.64101615137754" /><line stroke="black" x1="937.3205080756887" x2="920.0" y1="114.64101615137754" y2="124.64101615137754" /><line stroke="black" x1="920.0" x2="900.0" y1="124.64101615137754" y2="124.64101615137754" /><line stroke="black" x1="900.0" x2="882.6794919243113" y1="124.64101615137754" y2="114.64101615137754" /><line stroke="black" x1="882.6794919243113" x2="872.6794919243113" y1="114.64101615137754" y2="97.32050807568878" /><line stroke="black" x1="872.6794919243113" x2="872.6794919243113" y1="97.32050807568878" y2="77.32050807568878" /><line stroke="black" x1="872.6794919243113" x2="882.6794919243113" y1="77.32050807568878" y2="60.00000000000001" /><line stroke="black" x1="882.6794919243113" x2="900.0" y1="60.00000000000001" y2="50.0" /><line stroke="black" x1="900.0" x2="917.3205080756887" y1="50.0" y2="60.0" /><line stroke="black" x1="917.3205080756887" x2="927.3205080756887" y1="60.0" y2="77.32050807568876" /><line stroke="black" x1="927.3205080756887" x2="927.3205080756887" y1="77.32050807568876" y2="97.32050807568876" /><line stroke="black" x1="927.3205080756887" x2="917.3205080756887" y1="97.32050807568876" y2="114.64101615137754" /><line stroke="black" x1="917.3205080756887" x2="900.0" y1="114.64101615137754" y2="124.64101615137754" /><line stroke="black" x1="900.0" x2="880.0" y1="124.64101615137754" y2="124.64101615137754" /><line stroke="black" x1="880.0" x2="862.6794919243113" y1="124.64101615137754" y2="114.64101615137754" /><line stroke="black" x1="862.6794919243113" x2="852.6794919243113" y1="114.64101615137754" y2="97.32050807568878" /><line stroke="black" x1="852.6794919243113" x2="852.6794919243113" y1="97.32050807568878" y2="77.32050807568878" /><line stroke="black" x1="852.6794919243113" x2="862.6794919243113" y1="77.32050807568878" y2="60.00000000000001" /><line stroke="black" x1="862.6794919243113" x2="880.0" y1="60.00000000000001" y2="50.0" /><line stroke="black" x1="880.0" x2="900.0" y1="50.0" y2="50.0" /><line stroke="black" x1="900.0" x2="910.0" y1="50.0" y2="67.32050807568876" /><line stroke="black" x1="910.0" x2="910.0" y1="67.32050807568876" y2="87.32050807568876" /><line stroke="black" x1="910.0" x2="900.0" y1="87.32050807568876" y2="104.64101615137754" /><line stroke="black" x1="900.0" x2="882.6794919243113" y1="104.64101615137754" y2="114.64101615137754" /><line stroke="black" x1="882.6794919243113" x2="862.6794919243113" y1="114.64101615137754" y2="114.64101615137754" /><line stroke="black" x1="862.6794919243113" x2="845.3589838486225" y1="114.64101615137754" y2="104.64101615137754" /><line stroke="black" x1="845.3589838486225" x2="835.3589838486225" y1="104.64101615137754" y2="87.32050807568878" /><line stroke="black" x1="835.3589838486225" x2="835.3589838486225" y1="87.32050807568878" y2="67.32050807568878" /><line stroke="black" x1="835.3589838486225" x2="845.3589838486225" y1="67.32050807568878" y2="50.00000000000001" /><line stroke="black" x1="845.3589838486225" x2="862.6794919243113" y1="50.00000000000001" y2="40.0" /><line stroke="black" x1="862.6794919243113" x2="882.6794919243113" y1="40.0" y2="40.0" /><line stroke="black" x1="882.6794919243113" x2="900.0" y1="40.0" y2="50.0" /><line stroke="black" x1="900.0" x2="900.0" y1="50.0" y2="70.0" /><line stroke="black" x1="900.0" x2="890.0" y1="70.0" y2="87.32050807568878" /><line stroke="black" x1="890.0" x2="872.6794919243113" y1="87.32050807568878" y2="97.32050807568878" /><line stroke="black" x1="872.6794919243113" x2="852.6794919243113" y1="97.32050807568878" y2="97.32050807568878" /><line stroke="black" x1="852.6794919243113" x2="835.3589838486225" y1="97.32050807568878" y2="87.32050807568878" /><line stroke="black" x1="835.3589838486225" x2="825.3589838486225" y1="87.32050807568878" y2="70.00000000000001" /><line stroke="black" x1="825.3589838486225" x2="825.3589838486225" y1="70.00000000000001" y2="50.000000000000014" /><line stroke="black" x1="825.3589838486225" x2="835.3589838486225" y1="50.000000000000014" y2="32.67949192431124" /><line stroke="black" x1="835.3589838486225" x2="852.6794919243113" y1="32.67949192431124" y2="22.679491924311236" /><line stroke="black" x1="852.6794919243113" x2="872.6794919243113" y1="22.679491924311236" y2="22.679491924311236" /><line stroke="black" x1="872.6794919243113" x2="890.0" y1="22.679491924311236" y2="32.679491924311236" /><line stroke="black" x1="890.0" x2="900.0" y1="32.679491924311236" y2="50.00000000000001" /><line stroke="black" x1="900.0" x2="890.0" y1="50.00000000000001" y2="67.32050807568878" /><line stroke="black" x1="890.0" x2="872.6794919243113" y1="67.32050807568878" y2="77.32050807568878" /><line stroke="black" x1="872.6794919243113" x2="852.6794919243113" y1="77.32050807568878" y2="77.32050807568878" /><line stroke="black" x1="852.6794919243113" x2="835.3589838486225" y1="77.32050807568878" y2="67.32050807568878" /><line stroke="black" x1="835.3589838486225" x2="825.3589838486225" y1="67.32050807568878" y2="50.000000000000014" /><line stroke="black" x1="825.3589838486225" x2="825.3589838486225" y1="50.000000000000014" y2="30.000000000000014" /><line stroke="black" x1="825.3589838486225" x2="835.3589838486225" y1="30.000000000000014" y2="12.679491924311243" /><line stroke="black" x1="835.3589838486225" x2="852.6794919243113" y1="12.679491924311243" y2="2.6794919243112343" /><line stroke="black" x1="852.6794919243113" x2="872.6794919243113" y1="2.6794919243112343" y2="2.6794919243112343" /><line stroke="black" x1="872.6794919243113" x2="890.0" y1="2.6794919243112343" y2="12.679491924311233" /><line stroke="black" x1="890.0" x2="900.0" y1="12.679491924311233" y2="30.000000000000004" /><line stroke="black" x1="900.0" x2="900.0" y1="30.000000000000004" y2="50.0" /><line stroke="black" x1="900.0" x2="882.6794919243113" y1="50.0" y2="60.0" /><line stroke="black" x1="882.6794919243113" x2="862.6794919243113" y1="60.0" y2="60.0" /><line stroke="black" x1="862.6794919243113" x2="845.3589838486225" y1="60.0" y2="50.0" /><line stroke="black" x1="845.3589838486225" x2="835.3589838486225" y1="50.0" y2="32.679491924311236" /><line stroke="black" x1="835.3589838486225" x2="835.3589838486225" y1="32.679491924311236" y2="12.679491924311236" /><line stroke="black" x1="835.3589838486225" x2="845.3589838486225" y1="12.679491924311236" y2="-4.641016151377535" /><line stroke="black" x1="845.3589838486225" x2="862.6794919243113" y1="-4.641016151377535" y2="-14.641016151377544" /><line stroke="black" x1="862.6794919243113" x2="882.6794919243113" y1="-14.641016151377544" y2="-14.641016151377544" /><line stroke="black" x1="882.6794919243113" x2="900.0" y1="-14.641016151377544" y2="-4.641016151377546" /><line stroke="black" x1="900.0" x2="910.0" y1="-4.641016151377546" y2="12.679491924311225" /><line stroke="black" x1="910.0" x2="910.0" y1="12.679491924311225" y2="32.67949192431122" /><line stroke="black" x1="910.0" x2="900.0" y1="32.67949192431122" y2="50.0" /><line stroke="black" x1="900.0" x2="880.0" y1="50.0" y2="50.0" /><line stroke="black" x1="880.0" x2="862.6794919243113" y1="50.0" y2="40.0" /><line stroke="black" x1="862.6794919243113" x2="852.6794919243113" y1="40.0" y2="22.679491924311233" /><line stroke="black" x1="852.6794919243113" x2="852.6794919243113" y1="22.679491924311233" y2="2.6794919243112325" /><line stroke="black" x1="852.6794919243113" x2="862.6794919243113" y1="2.6794919243112325" y2="-14.641016151377539" /><line stroke="black" x1="862.6794919243113" x2="880.0" y1="-14.641016151377539" y2="-24.64101615137755" /><line stroke="black" x1="880.0" x2="900.0" y1="-24.64101615137755" y2="-24.64101615137755" /><line stroke="black" x1="900.0" x2="917.3205080756887" y1="-24.64101615137755" y2="-14.641016151377551" /><line stroke="black" x1="917.3205080756887" x2="927.3205080756887" y1="-14.641016151377551" y2="2.67949192431122" /><line stroke="black" x1="927.3205080756887" x2="927.3205080756887" y1="2.67949192431122" y2="22.679491924311222" /><line stroke="black" x1="927.3205080756887" x2="917.3205080756887" y1="22.679491924311222" y2="40.0" /><line stroke="black" x1="917.3205080756887" x2="900.0" y1="40.0" y2="50.0" /><line stroke="black" x1="900.0" x2="882.6794919243113" y1="50.0" y2="40.0" /><line stroke="black" x1="882.6794919243113" x2="872.6794919243113" y1="40.0" y2="22.679491924311233" /><line stroke="black" x1="872.6794919243113" x2="872.6794919243113" y1="22.679491924311233" y2="2.6794919243112325" /><line stroke="black" x1="872.6794919243113" x2="882.6794919243113" y1="2.6794919243112325" y2="-14.641016151377539" /><line stroke="black" x1="882.6794919243113" x2="900.0" y1="-14.641016151377539" y2="-24.64101615137755" /><line stroke="black" x1="900.0" x2="920.0" y1="-24.64101615137755" y2="-24.64101615137755" /><line stroke="black" x1="920.0" x2="937.3205080756887" y1="-24.64101615137755" y2="-14.641016151377551" /><line stroke="black" x1="937.3205080756887" x2="947.3205080756887" y1="-14.641016151377551" y2="2.67949192431122" /><line stroke="black" x1="947.3205080756887" x2="947.3205080756887" y1="2.67949192431122" y2="22.679491924311222" /><line stroke="black" x1="947.3205080756887" x2="937.3205080756887" y1="22.679491924311222" y2="40.0" /><line stroke="black" x1="937.3205080756887" x2="920.0" y1="40.0" y2="50.0" /><line stroke="black" x1="920.0" x2="900.0" y1="50.0" y2="50.0" /><line stroke="black" x1="900.0" x2="890.0" y1="50.0" y2="32.679491924311236" /><line stroke="black" x1="890.0" x2="890.0" y1="32.679491924311236" y2="12.679491924311236" /><line stroke="black" x1="890.0" x2="900.0" y1="12.679491924311236" y2="-4.641016151377535" /><line stroke="black" x1="900.0" x2="917.3205080756887" y1="-4.641016151377535" y2="-14.641016151377544" /><line stroke="black" x1="917.3205080756887" x2="937.3205080756887" y1="-14.641016151377544" y2="-14.641016151377544" /><line stroke="black" x1="937.3205080756887" x2="954.6410161513775" y1="-14.641016151377544" y2="-4.641016151377546" /><line stroke="black" x1="954.6410161513775" x2="964.6410161513775" y1="-4.641016151377546" y2="12.679491924311225" /><line stroke="black" x1="964.6410161513775" x2="964.6410161513775" y1="12.679491924311225" y2="32.67949192431122" /><line stroke="black" x1="964.6410161513775" x2="954.6410161513775" y1="32.67949192431122" y2="50.0" /><line stroke="black" x1="954.6410161513775" x2="937.3205080756887" y1="50.0" y2="60.0" /><line stroke="black" x1="937.3205080756887" x2="917.3205080756887" y1="60.0" y2="60.0" /><line stroke="black" x1="917.3205080756887" x2="900.0" y1="60.0" y2="50.0" /><line stroke="black" x1="900.0" x2="900.0" y1="50.0" y2="30.0" /><line stroke="black" x1="900.0" x2="910.0" y1="30.0" y2="12.679491924311229" /><line stroke="black" x1="910.0" x2="927.3205080756887" y1="12.679491924311229" y2="2.67949192431122" /><line stroke="black" x1="927.3205080756887" x2="947.3205080756887" y1="2.67949192431122" y2="2.67949192431122" /><line stroke="black" x1="947.3205080756887" x2="964.6410161513775" y1="2.67949192431122" y2="12.679491924311218" /><line stroke="black" x1="964.6410161513775" x2="974.6410161513775" y1="12.679491924311218" y2="29.99999999999999" /><line stroke="black" x1="974.6410161513775" x2="974.6410161513775" y1="29.99999999999999" y2="49.999999999999986" /><line stroke="black" x1="974.6410161513775" x2="964.6410161513775" y1="49.999999999999986" y2="67.32050807568876" /><line stroke="black" x1="964.6410161513775" x2="947.3205080756887" y1="67.32050807568876" y2="77.32050807568876" /><line stroke="black" x1="947.3205080756887" x2="927.3205080756887" y1="77.32050807568876" y2="77.32050807568876" /><line stroke="black" x1="927.3205080756887" x2="910.0" y1="77.32050807568876" y2="67.32050807568876" /><line stroke="black" x1="910.0" x2="900.0" y1="67.32050807568876" y2="50.0" /><line stroke="black" x1="900.0" x2="910.0" y1="50.0" y2="32.67949192431123" /><line stroke="black" x1="910.0" x2="927.3205080756887" y1="32.67949192431123" y2="22.679491924311222" /><line stroke="black" x1="927.3205080756887" x2="947.3205080756887" y1="22.679491924311222" y2="22.679491924311222" /><line stroke="black" x1="947.3205080756887" x2="964.6410161513775" y1="22.679491924311222" y2="32.67949192431122" /><line stroke="black" x1="964.6410161513775" x2="974.6410161513775" y1="32.67949192431122" y2="49.99999999999999" /><line stroke="black" x1="974.6410161513775" x2="974.6410161513775" y1="49.99999999999999" y2="70.0" /><line stroke="black" x1="974.6410161513775" x2="964.6410161513775" y1="70.0" y2="87.32050807568878" /><line stroke="black" x1="964.6410161513775" x2="947.3205080756887" y1="87.32050807568878" y2="97.32050807568878" /><line stroke="black" x1="947.3205080756887" x2="927.3205080756887" y1="97.32050807568878" y2="97.32050807568878" /><line stroke="black" x1="927.3205080756887" x2="910.0" y1="97.32050807568878" y2="87.32050807568878" /><line stroke="black" x1="910.0" x2="900.0" y1="87.32050807568878" y2="70.00000000000001" /><line stroke="black" x1="900.0" x2="900.0" y1="70.00000000000001" y2="50.000000000000014" /><line stroke="black" x1="900.0" x2="917.3205080756887" y1="50.000000000000014" y2="40.00000000000001" /><line stroke="black" x1="917.3205080756887" x2="937.3205080756887" y1="40.00000000000001" y2="40.00000000000001" /><line stroke="black" x1="937.3205080756887" x2="954.6410161513775" y1="40.00000000000001" y2="50.00000000000001" /><line stroke="black" x1="954.6410161513775" x2="964.6410161513775" y1="50.00000000000001" y2="67.32050807568878" /><line stroke="black" x1="964.6410161513775" x2="964.6410161513775" y1="67.32050807568878" y2="87.32050807568878" /><line stroke="black" x1="964.6410161513775" x2="954.6410161513775" y1="87.32050807568878" y2="104.64101615137756" /><line stroke="black" x1="954.6410161513775" x2="937.3205080756887" y1="104.64101615137756" y2="114.64101615137756" /><line stroke="black" x1="937.3205080756887" x2="917.3205080756887" y1="114.64101615137756" y2="114.64101615137756" /><line stroke="black" x1="917.3205080756887" x2="900.0" y1="114.64101615137756" y2="104.64101615137756" /><line stroke="black" x1="900.0" x2="890.0" y1="104.64101615137756" y2="87.32050807568879" /><line stroke="black" x1="890.0" x2="890.0" y1="87.32050807568879" y2="67.32050807568879" /><line stroke="black" x1="890.0" x2="900.0" y1="67.32050807568879" y2="50.00000000000002" /></svg>