<?xml version="1.0" encoding="utf-8" ?>
<svg baseProfile="full" height="680" version="1.1" width="300" xmlns="http://www.w3.org/2000/svg" xmlns:ev="http://www.w3.org/2001/xml-events" xmlns:xlink="http://www.w3.org/1999/xlink"><defs /><line stroke="black" x1="150" x2="150.0" y1="650" y2="640.0" /><line stroke="black" x1="150.0" x2="150.0" y1="640.0" y2="630.0" /><line stroke="black" x1="150.0" x2="150.0" y1="630.0" y2="620.0" /><line stroke="black" x1="150.0" x2="150.0" y1="620.0" y2="610.0" /><line stroke="black" x1="150.0" x2="150.0" y1="610.0" y2="600.0" /><line stroke="black" x1="150.0" x2="146.1731656763491" y1="600.0" y2="590.7612046748872" /><line stroke="black" x1="150.0" x2="153.8268343236509" y1="610.0" y2="600.7612046748872" /><line stroke="black" x1="153.8268343236509" x2="153.8268343236509" y1="600.7612046748872" y2="590.7612046748872" /><line stroke="black" x1="150.0" x2="150.0" y1="610.0" y2="600.0" /><line stroke="black" x1="150.0" x2="150.0" y1="600.0" y2="590.0" /><line stroke="black" x1="150.0" x2="150.0" y1="590.0" y2="580.0" /><line stroke="black" x1="150.0" x2="150.0" y1="580.0" y2="570.0" /><line stroke="black" x1="150.0" x2="150.0" y1="570.0" y2="560.0" /><line stroke="black" x1="150.0" x2="146.1731656763491" y1="560.0" y2="550.7612046748872" /><line stroke="black" x1="150.0" x2="153.8268343236509" y1="570.0" y2="560.7612046748872" /><line stroke="black" x1="153.8268343236509" x2="153.8268343236509" y1="560.7612046748872" y2="550.7612046748872" /><line stroke="black" x1="150.0" x2="150.0" y1="570.0" y2="560.0" /><line stroke="black" x1="150.0" x2="150.0" y1="560.0" y2="550.0" /><line stroke="black" x1="150.0" x2="146.1731656763491" y1="550.0" y2="540.7612046748872" /><line stroke="black" x1="146.1731656763491" x2="139.10209786448362" y1="540.7612046748872" y2="533.6901368630217" /><line stroke="black" x1="139.10209786448362" x2="132.03103005261815" y1="533.6901368630217" y2="526.6190690511563" /><line stroke="black" x1="132.03103005261815" x2="128.20419572896725" y1="526.6190690511563" y2="517.3802737260435" /><line stroke="black" x1="150.0" x2="153.8268343236509" y1="570.0" y2="560.7612046748872" /><line stroke="black" x1="153.8268343236509" x2="157.6536686473018" y1="560.7612046748872" y2="551.5224093497743" /><line stroke="black" x1="157.6536686473018" x2="157.6536686473018" y1="551.5224093497743" y2="541.5224093497743" /><line stroke="black" x1="157.6536686473018" x2="153.8268343236509" y1="541.5224093497743" y2="532.2836140246615" /><line stroke="black" x1="153.8268343236509" x2="150.0" y1="532.2836140246615" y2="523.0448186995486" /><line stroke="black" x1="150.0" x2="150.0" y1="523.0448186995486" y2="513.0448186995486" /><line stroke="black" x1="150.0" x2="150.0" y1="570.0" y2="560.0" /><line stroke="black" x1="150.0" x2="150.0" y1="560.0" y2="550.0" /><line stroke="black" x1="150.0" x2="150.0" y1="550.0" y2="540.0" /><line stroke="black" x1="150.0" x2="150.0" y1="540.0" y2="530.0" /><line stroke="black" x1="150.0" x2="150.0" y1="530.0" y2="520.0" /><line stroke="black" x1="150.0" x2="146.1731656763491" y1="520.0" y2="510.76120467488715" /><line stroke="black" x1="150.0" x2="153.8268343236509" y1="530.0" y2="520.7612046748872" /><line stroke="black" x1="153.8268343236509" x2="153.8268343236509" y1="520.7612046748872" y2="510.76120467488715" /><line stroke="black" x1="150.0" x2="150.0" y1="530.0" y2="520.0" /><line stroke="black" x1="150.0" x2="150.0" y1="520.0" y2="510.0" /><line stroke="black" x1="150.0" x2="150.0" y1="510.0" y2="500.0" /><line stroke="black" x1="150.0" x2="150.0" y1="500.0" y2="490.0" /><line stroke="black" x1="150.0" x2="150.0" y1="490.0" y2="480.0" /><line stroke="black" x1="150.0" x2="146.1731656763491" y1="480.0" y2="470.76120467488715" /><line stroke="black" x1="150.0" x2="153.8268343236509" y1="490.0" y2="480.76120467488715" /><line stroke="black" x1="153.8268343236509" x2="153.8268343236509" y1="480.76120467488715" y2="470.76120467488715" /><line stroke="black" x1="150.0" x2="150.0" y1="490.0" y2="480.0" /><line stroke="black" x1="150.0" x2="150.0" y1="480.0" y2="470.0" /><line stroke="black" x1="150.0" x2="146.1731656763491" y1="470.0" y2="460.76120467488715" /><line stroke="black" x1="146.1731656763491" x2="139.10209786448362" y1="460.76120467488715" y2="453.6901368630217" /><line stroke="black" x1="139.10209786448362" x2="132.03103005261815" y1="453.6901368630217" y2="446.6190690511562" /><line stroke="black" x1="132.03103005261815" x2="128.20419572896725" y1="446.6190690511562" y2="437.38027372604336" /><line stroke="black" x1="150.0" x2="153.8268343236509" y1="490.0" y2="480.76120467488715" /><line stroke="black" x1="153.8268343236509" x2="157.6536686473018" y1="480.76120467488715" y2="471.5224093497743" /><line stroke="black" x1="157.6536686473018" x2="157.6536686473018" y1="471.5224093497743" y2="461.5224093497743" /><line stroke="black" x1="157.6536686473018" x2="153.8268343236509" y1="461.5224093497743" y2="452.28361402466146" /><line stroke="black" x1="153.8268343236509" x2="150.0" y1="452.28361402466146" y2="443.0448186995486" /><line stroke="black" x1="150.0" x2="150.0" y1="443.0448186995486" y2="433.0448186995486" /><line stroke="black" x1="150.0" x2="150.0" y1="490.0" y2="480.0" /><line stroke="black" x1="150.0" x2="150.0" y1="480.0" y2="470.0" /><line stroke="black" x1="150.0" x2="150.0" y1="470.0" y2="460.0" /><line stroke="black" x1="150.0" x2="150.0" y1="460.0" y2="450.0" /><line stroke="black" x1="150.0" x2="150.0" y1="450.0" y2="440.0" /><line stroke="black" x1="150.0" x2="146.1731656763491" y1="440.0" y2="430.76120467488715" /><line stroke="black" x1="150.0" x2="153.8268343236509" y1="450.0" y2="440.76120467488715" /><line stroke="black" x1="153.8268343236509" x2="153.8268343236509" y1="440.76120467488715" y2="430.76120467488715" /><line stroke="black" x1="150.0" x2="146.1731656763491" y1="450.0" y2="440.76120467488715" /><line stroke="black" x1="146.1731656763491" x2="142.3463313526982" y1="440.76120467488715" y2="431.5224093497743" /><line stroke="black" x1="142.3463313526982" x2="142.3463313526982" y1="431.5224093497743" y2="421.5224093497743" /><line stroke="black" x1="142.3463313526982" x2="138.5194970290473" y1="421.5224093497743" y2="412.28361402466146" /><line stroke="black" x1="138.5194970290473" x2="134.6926627053964" y1="412.28361402466146" y2="403.0448186995486" /><line stroke="black" x1="134.6926627053964" x2="130.8658283817455" y1="403.0448186995486" y2="393.80602337443577" /><line stroke="black" x1="130.8658283817455" x2="127.0389940580946" y1="393.80602337443577" y2="384.5672280493229" /><line stroke="black" x1="127.0389940580946" x2="123.2121597344437" y1="384.5672280493229" y2="375.3284327242101" /><line stroke="black" x1="123.2121597344437" x2="116.14109192257823" y1="375.3284327242101" y2="368.2573649123446" /><line stroke="black" x1="127.0389940580946" x2="127.0389940580946" y1="384.5672280493229" y2="374.5672280493229" /><line stroke="black" x1="127.0389940580946" x2="123.2121597344437" y1="374.5672280493229" y2="365.3284327242101" /><line stroke="black" x1="127.0389940580946" x2="127.0389940580946" y1="384.5672280493229" y2="374.5672280493229" /><line stroke="black" x1="127.0389940580946" x2="127.0389940580946" y1="374.5672280493229" y2="364.5672280493229" /><line stroke="black" x1="127.0389940580946" x2="123.2121597344437" y1="364.5672280493229" y2="355.3284327242101" /><line stroke="black" x1="150.0" x2="153.8268343236509" y1="490.0" y2="480.76120467488715" /><line stroke="black" x1="153.8268343236509" x2="157.6536686473018" y1="480.76120467488715" y2="471.5224093497743" /><line stroke="black" x1="157.6536686473018" x2="161.4805029709527" y1="471.5224093497743" y2="462.28361402466146" /><line stroke="black" x1="161.4805029709527" x2="165.3073372946036" y1="462.28361402466146" y2="453.0448186995486" /><line stroke="black" x1="165.3073372946036" x2="169.1341716182545" y1="453.0448186995486" y2="443.80602337443577" /><line stroke="black" x1="169.1341716182545" x2="169.1341716182545" y1="443.80602337443577" y2="433.80602337443577" /><line stroke="black" x1="165.3073372946036" x2="172.37840510646907" y1="453.0448186995486" y2="445.97375088768314" /><line stroke="black" x1="172.37840510646907" x2="176.20523943011997" y1="445.97375088768314" y2="436.7349555625703" /><line stroke="black" x1="165.3073372946036" x2="165.3073372946036" y1="453.0448186995486" y2="443.0448186995486" /><line stroke="black" x1="165.3073372946036" x2="165.3073372946036" y1="443.0448186995486" y2="433.0448186995486" /><line stroke="black" x1="165.3073372946036" x2="169.1341716182545" y1="433.0448186995486" y2="423.80602337443577" /><line stroke="black" x1="169.1341716182545" x2="169.1341716182545" y1="423.80602337443577" y2="413.80602337443577" /><line stroke="black" x1="169.1341716182545" x2="169.1341716182545" y1="413.80602337443577" y2="403.80602337443577" /><line stroke="black" x1="169.1341716182545" x2="169.1341716182545" y1="403.80602337443577" y2="393.80602337443577" /><line stroke="black" x1="169.1341716182545" x2="169.1341716182545" y1="393.80602337443577" y2="383.80602337443577" /><line stroke="black" x1="169.1341716182545" x2="169.1341716182545" y1="383.80602337443577" y2="373.80602337443577" /><line stroke="black" x1="169.1341716182545" x2="165.3073372946036" y1="373.80602337443577" y2="364.5672280493229" /><line stroke="black" x1="169.1341716182545" x2="172.9610059419054" y1="383.80602337443577" y2="374.5672280493229" /><line stroke="black" x1="172.9610059419054" x2="172.9610059419054" y1="374.5672280493229" y2="364.5672280493229" /><line stroke="black" x1="169.1341716182545" x2="172.9610059419054" y1="383.80602337443577" y2="374.5672280493229" /><line stroke="black" x1="172.9610059419054" x2="176.7878402655563" y1="374.5672280493229" y2="365.3284327242101" /><line stroke="black" x1="176.7878402655563" x2="176.7878402655563" y1="365.3284327242101" y2="355.3284327242101" /><line stroke="black" x1="150.0" x2="150.0" y1="490.0" y2="480.0" /><line stroke="black" x1="150.0" x2="150.0" y1="480.0" y2="470.0" /><line stroke="black" x1="150.0" x2="150.0" y1="470.0" y2="460.0" /><line stroke="black" x1="150.0" x2="150.0" y1="460.0" y2="450.0" /><line stroke="black" x1="150.0" x2="150.0" y1="450.0" y2="440.0" /><line stroke="black" x1="150.0" x2="146.1731656763491" y1="440.0" y2="430.76120467488715" /><line stroke="black" x1="150.0" x2="153.8268343236509" y1="450.0" y2="440.76120467488715" /><line stroke="black" x1="153.8268343236509" x2="153.8268343236509" y1="440.76120467488715" y2="430.76120467488715" /><line stroke="black" x1="150.0" x2="150.0" y1="450.0" y2="440.0" /><line stroke="black" x1="150.0" x2="150.0" y1="440.0" y2="430.0" /><line stroke="black" x1="150.0" x2="150.0" y1="430.0" y2="420.0" /><line stroke="black" x1="150.0" x2="150.0" y1="420.0" y2="410.0" /><line stroke="black" x1="150.0" x2="150.0" y1="410.0" y2="400.0" /><line stroke="black" x1="150.0" x2="146.1731656763491" y1="400.0" y2="390.76120467488715" /><line stroke="black" x1="150.0" x2="153.8268343236509" y1="410.0" y2="400.76120467488715" /><line stroke="black" x1="153.8268343236509" x2="153.8268343236509" y1="400.76120467488715" y2="390.76120467488715" /><line stroke="black" x1="150.0" x2="150.0" y1="410.0" y2="400.0" /><line stroke="black" x1="150.0" x2="150.0" y1="400.0" y2="390.0" /><line stroke="black" x1="150.0" x2="146.1731656763491" y1="390.0" y2="380.76120467488715" /><line stroke="black" x1="146.1731656763491" x2="139.10209786448362" y1="380.76120467488715" y2="373.6901368630217" /><line stroke="black" x1="139.10209786448362" x2="132.03103005261815" y1="373.6901368630217" y2="366.6190690511562" /><line stroke="black" x1="132.03103005261815" x2="128.20419572896725" y1="366.6190690511562" y2="357.38027372604336" /><line stroke="black" x1="150.0" x2="153.8268343236509" y1="410.0" y2="400.76120467488715" /><line stroke="black" x1="153.8268343236509" x2="157.6536686473018" y1="400.76120467488715" y2="391.5224093497743" /><line stroke="black" x1="157.6536686473018" x2="157.6536686473018" y1="391.5224093497743" y2="381.5224093497743" /><line stroke="black" x1="157.6536686473018" x2="153.8268343236509" y1="381.5224093497743" y2="372.28361402466146" /><line stroke="black" x1="153.8268343236509" x2="150.0" y1="372.28361402466146" y2="363.0448186995486" /><line stroke="black" x1="150.0" x2="150.0" y1="363.0448186995486" y2="353.0448186995486" /><line stroke="black" x1="150.0" x2="150.0" y1="410.0" y2="400.0" /><line stroke="black" x1="150.0" x2="150.0" y1="400.0" y2="390.0" /><line stroke="black" x1="150.0" x2="150.0" y1="390.0" y2="380.0" /><line stroke="black" x1="150.0" x2="150.0" y1="380.0" y2="370.0" /><line stroke="black" x1="150.0" x2="150.0" y1="370.0" y2="360.0" /><line stroke="black" x1="150.0" x2="146.1731656763491" y1="360.0" y2="350.76120467488715" /><line stroke="black" x1="150.0" x2="153.8268343236509" y1="370.0" y2="360.76120467488715" /><line stroke="black" x1="153.8268343236509" x2="153.8268343236509" y1="360.76120467488715" y2="350.76120467488715" /><line stroke="black" x1="150.0" x2="150.0" y1="370.0" y2="360.0" /><line stroke="black" x1="150.0" x2="150.0" y1="360.0" y2="350.0" /><line stroke="black" x1="150.0" x2="150.0" y1="350.0" y2="340.0" /><line stroke="black" x1="150.0" x2="150.0" y1="340.0" y2="330.0" /><line stroke="black" x1="150.0" x2="150.0" y1="330.0" y2="320.0" /><line stroke="black" x1="150.0" x2="146.1731656763491" y1="320.0" y2="310.76120467488715" /><line stroke="black" x1="150.0" x2="153.8268343236509" y1="330.0" y2="320.76120467488715" /><line stroke="black" x1="153.8268343236509" x2="153.8268343236509" y1="320.76120467488715" y2="310.76120467488715" /><line stroke="black" x1="150.0" x2="150.0" y1="330.0" y2="320.0" /><line stroke="black" x1="150.0" x2="150.0" y1="320.0" y2="310.0" /><line stroke="black" x1="150.0" x2="146.1731656763491" y1="310.0" y2="300.76120467488715" /><line stroke="black" x1="146.1731656763491" x2="139.10209786448362" y1="300.76120467488715" y2="293.6901368630217" /><line stroke="black" x1="139.10209786448362" x2="132.03103005261815" y1="293.6901368630217" y2="286.6190690511562" /><line stroke="black" x1="132.03103005261815" x2="128.20419572896725" y1="286.6190690511562" y2="277.38027372604336" /><line stroke="black" x1="150.0" x2="153.8268343236509" y1="330.0" y2="320.76120467488715" /><line stroke="black" x1="153.8268343236509" x2="157.6536686473018" y1="320.76120467488715" y2="311.5224093497743" /><line stroke="black" x1="157.6536686473018" x2="157.6536686473018" y1="311.5224093497743" y2="301.5224093497743" /><line stroke="black" x1="157.6536686473018" x2="153.8268343236509" y1="301.5224093497743" y2="292.28361402466146" /><line stroke="black" x1="153.8268343236509" x2="150.0" y1="292.28361402466146" y2="283.0448186995486" /><line stroke="black" x1="150.0" x2="150.0" y1="283.0448186995486" y2="273.0448186995486" /><line stroke="black" x1="150.0" x2="150.0" y1="330.0" y2="320.0" /><line stroke="black" x1="150.0" x2="150.0" y1="320.0" y2="310.0" /><line stroke="black" x1="150.0" x2="150.0" y1="310.0" y2="300.0" /><line stroke="black" x1="150.0" x2="150.0" y1="300.0" y2="290.0" /><line stroke="black" x1="150.0" x2="150.0" y1="290.0" y2="280.0" /><line stroke="black" x1="150.0" x2="146.1731656763491" y1="280.0" y2="270.76120467488715" /><line stroke="black" x1="150.0" x2="153.8268343236509" y1="290.0" y2="280.76120467488715" /><line stroke="black" x1="153.8268343236509" x2="153.8268343236509" y1="280.76120467488715" y2="270.76120467488715" /><line stroke="black" x1="150.0" x2="146.1731656763491" y1="290.0" y2="280.76120467488715" /><line stroke="black" x1="146.1731656763491" x2="142.3463313526982" y1="280.76120467488715" y2="271.5224093497743" /><line stroke="black" x1="142.3463313526982" x2="142.3463313526982" y1="271.5224093497743" y2="261.5224093497743" /><line stroke="black" x1="142.3463313526982" x2="138.5194970290473" y1="261.5224093497743" y2="252.28361402466143" /><line stroke="black" x1="138.5194970290473" x2="134.6926627053964" y1="252.28361402466143" y2="243.04481869954856" /><line stroke="black" x1="134.6926627053964" x2="130.8658283817455" y1="243.04481869954856" y2="233.80602337443568" /><line stroke="black" x1="130.8658283817455" x2="127.0389940580946" y1="233.80602337443568" y2="224.5672280493228" /><line stroke="black" x1="127.0389940580946" x2="123.2121597344437" y1="224.5672280493228" y2="215.32843272420993" /><line stroke="black" x1="123.2121597344437" x2="116.14109192257823" y1="215.32843272420993" y2="208.25736491234446" /><line stroke="black" x1="127.0389940580946" x2="127.0389940580946" y1="224.5672280493228" y2="214.5672280493228" /><line stroke="black" x1="127.0389940580946" x2="123.2121597344437" y1="214.5672280493228" y2="205.32843272420993" /><line stroke="black" x1="127.0389940580946" x2="127.0389940580946" y1="224.5672280493228" y2="214.5672280493228" /><line stroke="black" x1="127.0389940580946" x2="127.0389940580946" y1="214.5672280493228" y2="204.5672280493228" /><line stroke="black" x1="127.0389940580946" x2="123.2121597344437" y1="204.5672280493228" y2="195.32843272420993" /><line stroke="black" x1="150.0" x2="153.8268343236509" y1="330.0" y2="320.76120467488715" /><line stroke="black" x1="153.8268343236509" x2="157.6536686473018" y1="320.76120467488715" y2="311.5224093497743" /><line stroke="black" x1="157.6536686473018" x2="161.4805029709527" y1="311.5224093497743" y2="302.28361402466146" /><line stroke="black" x1="161.4805029709527" x2="165.3073372946036" y1="302.28361402466146" y2="293.0448186995486" /><line stroke="black" x1="165.3073372946036" x2="169.1341716182545" y1="293.0448186995486" y2="283.80602337443577" /><line stroke="black" x1="169.1341716182545" x2="169.1341716182545" y1="283.80602337443577" y2="273.80602337443577" /><line stroke="black" x1="165.3073372946036" x2="172.37840510646907" y1="293.0448186995486" y2="285.97375088768314" /><line stroke="black" x1="172.37840510646907" x2="176.20523943011997" y1="285.97375088768314" y2="276.7349555625703" /><line stroke="black" x1="165.3073372946036" x2="165.3073372946036" y1="293.0448186995486" y2="283.0448186995486" /><line stroke="black" x1="165.3073372946036" x2="165.3073372946036" y1="283.0448186995486" y2="273.0448186995486" /><line stroke="black" x1="165.3073372946036" x2="169.1341716182545" y1="273.0448186995486" y2="263.80602337443577" /><line stroke="black" x1="169.1341716182545" x2="169.1341716182545" y1="263.80602337443577" y2="253.80602337443577" /><line stroke="black" x1="169.1341716182545" x2="169.1341716182545" y1="253.80602337443577" y2="243.80602337443577" /><line stroke="black" x1="169.1341716182545" x2="169.1341716182545" y1="243.80602337443577" y2="233.80602337443577" /><line stroke="black" x1="169.1341716182545" x2="169.1341716182545" y1="233.80602337443577" y2="223.80602337443577" /><line stroke="black" x1="169.1341716182545" x2="169.1341716182545" y1="223.80602337443577" y2="213.80602337443577" /><line stroke="black" x1="169.1341716182545" x2="165.3073372946036" y1="213.80602337443577" y2="204.5672280493229" /><line stroke="black" x1="169.1341716182545" x2="172.9610059419054" y1="223.80602337443577" y2="214.5672280493229" /><line stroke="black" x1="172.9610059419054" x2="172.9610059419054" y1="214.5672280493229" y2="204.5672280493229" /><line stroke="black" x1="169.1341716182545" x2="172.9610059419054" y1="223.80602337443577" y2="214.5672280493229" /><line stroke="black" x1="172.9610059419054" x2="176.7878402655563" y1="214.5672280493229" y2="205.32843272421002" /><line stroke="black" x1="176.7878402655563" x2="176.7878402655563" y1="205.32843272421002" y2="195.32843272421002" /><line stroke="black" x1="150.0" x2="150.0" y1="330.0" y2="320.0" /><line stroke="black" x1="150.0" x2="150.0" y1="320.0" y2="310.0" /><line stroke="black" x1="150.0" x2="150.0" y1="310.0" y2="300.0" /><line stroke="black" x1="150.0" x2="150.0" y1="300.0" y2="290.0" /><line stroke="black" x1="150.0" x2="150.0" y1="290.0" y2="280.0" /><line stroke="black" x1="150.0" x2="146.1731656763491" y1="280.0" y2="270.76120467488715" /><line stroke="black" x1="150.0" x2="153.8268343236509" y1="290.0" y2="280.76120467488715" /><line stroke="black" x1="153.8268343236509" x2="153.8268343236509" y1="280.76120467488715" y2="270.76120467488715" /><line stroke="black" x1="150.0" x2="150.0" y1="290.0" y2="280.0" /><line stroke="black" x1="150.0" x2="150.0" y1="280.0" y2="270.0" /><line stroke="black" x1="150.0" x2="150.0" y1="270.0" y2="260.0" /><line stroke="black" x1="150.0" x2="150.0" y1="260.0" y2="250.0" /><line stroke="black" x1="150.0" x2="150.0" y1="250.0" y2="240.0" /><line stroke="black" x1="150.0" x2="146.1731656763491" y1="240.0" y2="230.76120467488713" /><line stroke="black" x1="150.0" x2="153.8268343236509" y1="250.0" y2="240.76120467488713" /><line stroke="black" x1="153.8268343236509" x2="153.8268343236509" y1="240.76120467488713" y2="230.76120467488713" /><line stroke="black" x1="150.0" x2="150.0" y1="250.0" y2="240.0" /><line stroke="black" x1="150.0" x2="150.0" y1="240.0" y2="230.0" /><line stroke="black" x1="150.0" x2="146.1731656763491" y1="230.0" y2="220.76120467488713" /><line stroke="black" x1="146.1731656763491" x2="139.10209786448362" y1="220.76120467488713" y2="213.69013686302165" /><line stroke="black" x1="139.10209786448362" x2="132.03103005261815" y1="213.69013686302165" y2="206.61906905115617" /><line stroke="black" x1="132.03103005261815" x2="128.20419572896725" y1="206.61906905115617" y2="197.3802737260433" /><line stroke="black" x1="150.0" x2="153.8268343236509" y1="250.0" y2="240.76120467488713" /><line stroke="black" x1="153.8268343236509" x2="157.6536686473018" y1="240.76120467488713" y2="231.52240934977425" /><line stroke="black" x1="157.6536686473018" x2="157.6536686473018" y1="231.52240934977425" y2="221.52240934977425" /><line stroke="black" x1="157.6536686473018" x2="153.8268343236509" y1="221.52240934977425" y2="212.28361402466138" /><line stroke="black" x1="153.8268343236509" x2="150.0" y1="212.28361402466138" y2="203.0448186995485" /><line stroke="black" x1="150.0" x2="150.0" y1="203.0448186995485" y2="193.0448186995485" /><line stroke="black" x1="150.0" x2="146.1731656763491" y1="250.0" y2="240.76120467488713" /><line stroke="black" x1="146.1731656763491" x2="142.3463313526982" y1="240.76120467488713" y2="231.52240934977425" /><line stroke="black" x1="142.3463313526982" x2="138.5194970290473" y1="231.52240934977425" y2="222.28361402466138" /><line stroke="black" x1="138.5194970290473" x2="134.6926627053964" y1="222.28361402466138" y2="213.0448186995485" /><line stroke="black" x1="134.6926627053964" x2="130.8658283817455" y1="213.0448186995485" y2="203.80602337443563" /><line stroke="black" x1="130.8658283817455" x2="123.79476056988003" y1="203.80602337443563" y2="196.73495556257015" /><line stroke="black" x1="134.6926627053964" x2="134.6926627053964" y1="213.0448186995485" y2="203.0448186995485" /><line stroke="black" x1="134.6926627053964" x2="130.8658283817455" y1="203.0448186995485" y2="193.80602337443563" /><line stroke="black" x1="134.6926627053964" x2="134.6926627053964" y1="213.0448186995485" y2="203.0448186995485" /><line stroke="black" x1="134.6926627053964" x2="134.6926627053964" y1="203.0448186995485" y2="193.0448186995485" /><line stroke="black" x1="134.6926627053964" x2="130.8658283817455" y1="193.0448186995485" y2="183.80602337443563" /><line stroke="black" x1="130.8658283817455" x2="123.79476056988003" y1="183.80602337443563" y2="176.73495556257015" /><line stroke="black" x1="123.79476056988003" x2="116.72369275801455" y1="176.73495556257015" y2="169.66388775070467" /><line stroke="black" x1="116.72369275801455" x2="109.65262494614907" y1="169.66388775070467" y2="162.5928199388392" /><line stroke="black" x1="109.65262494614907" x2="102.5815571342836" y1="162.5928199388392" y2="155.52175212697372" /><line stroke="black" x1="102.5815571342836" x2="95.51048932241812" y1="155.52175212697372" y2="148.45068431510825" /><line stroke="black" x1="95.51048932241812" x2="86.27169399730525" y1="148.45068431510825" y2="144.62384999145735" /><line stroke="black" x1="102.5815571342836" x2="98.7547228106327" y1="155.52175212697372" y2="146.28295680186085" /><line stroke="black" x1="98.7547228106327" x2="91.68365499876722" y1="146.28295680186085" y2="139.21188898999537" /><line stroke="black" x1="102.5815571342836" x2="95.51048932241812" y1="155.52175212697372" y2="148.45068431510825" /><line stroke="black" x1="95.51048932241812" x2="88.43942151055265" y1="148.45068431510825" y2="141.37961650324277" /><line stroke="black" x1="88.43942151055265" x2="81.36835369868717" y1="141.37961650324277" y2="134.3085486913773" /><line stroke="black" x1="81.36835369868717" x2="74.2972858868217" y1="134.3085486913773" y2="127.23748087951182" /><line stroke="black" x1="74.2972858868217" x2="67.22621807495622" y1="127.23748087951182" y2="120.16641306764635" /><line stroke="black" x1="67.22621807495622" x2="57.987422749843354" y1="120.16641306764635" y2="116.33957874399545" /><line stroke="black" x1="74.2972858868217" x2="70.4704515631708" y1="127.23748087951182" y2="117.99868555439896" /><line stroke="black" x1="70.4704515631708" x2="63.39938375130532" y1="117.99868555439896" y2="110.92761774253349" /><line stroke="black" x1="74.2972858868217" x2="67.22621807495622" y1="127.23748087951182" y2="120.16641306764635" /><line stroke="black" x1="67.22621807495622" x2="60.155150263090746" y1="120.16641306764635" y2="113.09534525578087" /><line stroke="black" x1="60.155150263090746" x2="50.91635493797788" y1="113.09534525578087" y2="109.26851093212997" /><line stroke="black" x1="50.91635493797788" x2="40.91635493797788" y1="109.26851093212997" y2="109.26851093212997" /><line stroke="black" x1="40.91635493797788" x2="30.91635493797788" y1="109.26851093212997" y2="109.26851093212997" /><line stroke="black" x1="30.91635493797788" x2="21.67755961286501" y1="109.26851093212997" y2="105.44167660847907" /><line stroke="black" x1="74.2972858868217" x2="70.4704515631708" y1="127.23748087951182" y2="117.99868555439896" /><line stroke="black" x1="70.4704515631708" x2="66.6436172395199" y1="117.99868555439896" y2="108.7598902292861" /><line stroke="black" x1="66.6436172395199" x2="59.57254942765442" y1="108.7598902292861" y2="101.68882241742062" /><line stroke="black" x1="59.57254942765442" x2="50.333754102541555" y1="101.68882241742062" y2="97.86198809376972" /><line stroke="black" x1="50.333754102541555" x2="41.09495877742869" y1="97.86198809376972" y2="94.03515377011882" /><line stroke="black" x1="41.09495877742869" x2="34.02389096556321" y1="94.03515377011882" y2="86.96408595825335" /><line stroke="black" x1="74.2972858868217" x2="70.4704515631708" y1="127.23748087951182" y2="117.99868555439896" /><line stroke="black" x1="70.4704515631708" x2="66.6436172395199" y1="117.99868555439896" y2="108.7598902292861" /><line stroke="black" x1="66.6436172395199" x2="62.816782915869" y1="108.7598902292861" y2="99.52109490417324" /><line stroke="black" x1="62.816782915869" x2="58.9899485922181" y1="99.52109490417324" y2="90.28229957906038" /><line stroke="black" x1="58.9899485922181" x2="55.1631142685672" y1="90.28229957906038" y2="81.04350425394752" /><line stroke="black" x1="55.1631142685672" x2="48.09204645670172" y1="81.04350425394752" y2="73.97243644208204" /><line stroke="black" x1="58.9899485922181" x2="58.9899485922181" y1="90.28229957906038" y2="80.28229957906038" /><line stroke="black" x1="58.9899485922181" x2="55.1631142685672" y1="80.28229957906038" y2="71.04350425394752" /><line stroke="black" x1="58.9899485922181" x2="51.91888078035262" y1="90.28229957906038" y2="83.2112317671949" /><line stroke="black" x1="51.91888078035262" x2="44.84781296848715" y1="83.2112317671949" y2="76.14016395532943" /><line stroke="black" x1="44.84781296848715" x2="41.02097864483625" y1="76.14016395532943" y2="66.90136863021657" /><line stroke="black" x1="150.0" x2="153.8268343236509" y1="330.0" y2="320.76120467488715" /><line stroke="black" x1="153.8268343236509" x2="157.6536686473018" y1="320.76120467488715" y2="311.5224093497743" /><line stroke="black" x1="157.6536686473018" x2="161.4805029709527" y1="311.5224093497743" y2="302.28361402466146" /><line stroke="black" x1="161.4805029709527" x2="165.3073372946036" y1="302.28361402466146" y2="293.0448186995486" /><line stroke="black" x1="165.3073372946036" x2="169.1341716182545" y1="293.0448186995486" y2="283.80602337443577" /><line stroke="black" x1="169.1341716182545" x2="169.1341716182545" y1="283.80602337443577" y2="273.80602337443577" /><line stroke="black" x1="165.3073372946036" x2="172.37840510646907" y1="293.0448186995486" y2="285.97375088768314" /><line stroke="black" x1="172.37840510646907" x2="176.20523943011997" y1="285.97375088768314" y2="276.7349555625703" /><line stroke="black" x1="165.3073372946036" x2="169.1341716182545" y1="293.0448186995486" y2="283.80602337443577" /><line stroke="black" x1="169.1341716182545" x2="172.9610059419054" y1="283.80602337443577" y2="274.5672280493229" /><line stroke="black" x1="172.9610059419054" x2="176.7878402655563" y1="274.5672280493229" y2="265.3284327242101" /><line stroke="black" x1="176.7878402655563" x2="180.6146745892072" y1="265.3284327242101" y2="256.0896373990972" /><line stroke="black" x1="180.6146745892072" x2="184.4415089128581" y1="256.0896373990972" y2="246.85084207398435" /><line stroke="black" x1="184.4415089128581" x2="184.4415089128581" y1="246.85084207398435" y2="236.85084207398435" /><line stroke="black" x1="180.6146745892072" x2="187.68574240107267" y1="256.0896373990972" y2="249.01856958723175" /><line stroke="black" x1="187.68574240107267" x2="191.51257672472357" y1="249.01856958723175" y2="239.77977426211888" /><line stroke="black" x1="180.6146745892072" x2="184.4415089128581" y1="256.0896373990972" y2="246.85084207398435" /><line stroke="black" x1="184.4415089128581" x2="188.268343236509" y1="246.85084207398435" y2="237.61204674887148" /><line stroke="black" x1="188.268343236509" x2="188.268343236509" y1="237.61204674887148" y2="227.61204674887148" /><line stroke="black" x1="188.268343236509" x2="184.4415089128581" y1="227.61204674887148" y2="218.3732514237586" /><line stroke="black" x1="184.4415089128581" x2="180.6146745892072" y1="218.3732514237586" y2="209.13445609864573" /><line stroke="black" x1="180.6146745892072" x2="180.6146745892072" y1="209.13445609864573" y2="199.13445609864573" /><line stroke="black" x1="180.6146745892072" x2="187.68574240107267" y1="256.0896373990972" y2="249.01856958723175" /><line stroke="black" x1="187.68574240107267" x2="194.75681021293815" y1="249.01856958723175" y2="241.94750177536628" /><line stroke="black" x1="194.75681021293815" x2="198.58364453658905" y1="241.94750177536628" y2="232.7087064502534" /><line stroke="black" x1="198.58364453658905" x2="198.58364453658905" y1="232.7087064502534" y2="222.7087064502534" /><line stroke="black" x1="198.58364453658905" x2="198.58364453658905" y1="222.7087064502534" y2="212.7087064502534" /><line stroke="black" x1="198.58364453658905" x2="202.41047886023995" y1="212.7087064502534" y2="203.46991112514053" /><line stroke="black" x1="180.6146745892072" x2="180.6146745892072" y1="256.0896373990972" y2="246.08963739909723" /><line stroke="black" x1="180.6146745892072" x2="180.6146745892072" y1="246.08963739909723" y2="236.08963739909723" /><line stroke="black" x1="180.6146745892072" x2="180.6146745892072" y1="236.08963739909723" y2="226.08963739909723" /><line stroke="black" x1="180.6146745892072" x2="180.6146745892072" y1="226.08963739909723" y2="216.08963739909723" /><line stroke="black" x1="180.6146745892072" x2="180.6146745892072" y1="216.08963739909723" y2="206.08963739909723" /><line stroke="black" x1="180.6146745892072" x2="176.7878402655563" y1="206.08963739909723" y2="196.85084207398435" /><line stroke="black" x1="180.6146745892072" x2="184.4415089128581" y1="216.08963739909723" y2="206.85084207398435" /><line stroke="black" x1="184.4415089128581" x2="184.4415089128581" y1="206.85084207398435" y2="196.85084207398435" /><line stroke="black" x1="180.6146745892072" x2="184.4415089128581" y1="216.08963739909723" y2="206.85084207398435" /><line stroke="black" x1="184.4415089128581" x2="188.268343236509" y1="206.85084207398435" y2="197.61204674887148" /><line stroke="black" x1="188.268343236509" x2="188.268343236509" y1="197.61204674887148" y2="187.61204674887148" /><line stroke="black" x1="188.268343236509" x2="184.4415089128581" y1="187.61204674887148" y2="178.3732514237586" /><line stroke="black" x1="184.4415089128581" x2="180.6146745892072" y1="178.3732514237586" y2="169.13445609864573" /><line stroke="black" x1="180.6146745892072" x2="176.7878402655563" y1="169.13445609864573" y2="159.89566077353285" /><line stroke="black" x1="176.7878402655563" x2="172.9610059419054" y1="159.89566077353285" y2="150.65686544841998" /><line stroke="black" x1="172.9610059419054" x2="169.1341716182545" y1="150.65686544841998" y2="141.4180701233071" /><line stroke="black" x1="169.1341716182545" x2="162.06310380638902" y1="141.4180701233071" y2="134.34700231144163" /><line stroke="black" x1="172.9610059419054" x2="172.9610059419054" y1="150.65686544841998" y2="140.65686544841998" /><line stroke="black" x1="172.9610059419054" x2="169.1341716182545" y1="140.65686544841998" y2="131.4180701233071" /><line stroke="black" x1="172.9610059419054" x2="169.1341716182545" y1="150.65686544841998" y2="141.4180701233071" /><line stroke="black" x1="169.1341716182545" x2="165.3073372946036" y1="141.4180701233071" y2="132.17927479819423" /><line stroke="black" x1="165.3073372946036" x2="161.4805029709527" y1="132.17927479819423" y2="122.94047947308137" /><line stroke="black" x1="161.4805029709527" x2="157.6536686473018" y1="122.94047947308137" y2="113.7016841479685" /><line stroke="black" x1="157.6536686473018" x2="153.8268343236509" y1="113.7016841479685" y2="104.46288882285565" /><line stroke="black" x1="153.8268343236509" x2="146.75576651178542" y1="104.46288882285565" y2="97.39182101099017" /><line stroke="black" x1="157.6536686473018" x2="157.6536686473018" y1="113.7016841479685" y2="103.7016841479685" /><line stroke="black" x1="157.6536686473018" x2="153.8268343236509" y1="103.7016841479685" y2="94.46288882285565" /><line stroke="black" x1="157.6536686473018" x2="153.8268343236509" y1="113.7016841479685" y2="104.46288882285565" /><line stroke="black" x1="153.8268343236509" x2="150.0" y1="104.46288882285565" y2="95.22409349774279" /><line stroke="black" x1="150.0" x2="142.92893218813452" y1="95.22409349774279" y2="88.15302568587731" /><line stroke="black" x1="142.92893218813452" x2="133.69013686302165" y1="88.15302568587731" y2="84.32619136222641" /><line stroke="black" x1="133.69013686302165" x2="124.45134153790877" y1="84.32619136222641" y2="80.49935703857551" /><line stroke="black" x1="124.45134153790877" x2="117.3802737260433" y1="80.49935703857551" y2="73.42828922671004" /><line stroke="black" x1="157.6536686473018" x2="157.6536686473018" y1="113.7016841479685" y2="103.7016841479685" /><line stroke="black" x1="157.6536686473018" x2="157.6536686473018" y1="103.7016841479685" y2="93.7016841479685" /><line stroke="black" x1="157.6536686473018" x2="153.8268343236509" y1="93.7016841479685" y2="84.46288882285565" /><line stroke="black" x1="153.8268343236509" x2="146.75576651178542" y1="84.46288882285565" y2="77.39182101099017" /><line stroke="black" x1="146.75576651178542" x2="139.68469869991995" y1="77.39182101099017" y2="70.3207531991247" /><line stroke="black" x1="139.68469869991995" x2="135.85786437626905" y1="70.3207531991247" y2="61.081957874011835" /><line stroke="black" x1="157.6536686473018" x2="157.6536686473018" y1="113.7016841479685" y2="103.7016841479685" /><line stroke="black" x1="157.6536686473018" x2="157.6536686473018" y1="103.7016841479685" y2="93.7016841479685" /><line stroke="black" x1="157.6536686473018" x2="157.6536686473018" y1="93.7016841479685" y2="83.7016841479685" /><line stroke="black" x1="157.6536686473018" x2="157.6536686473018" y1="83.7016841479685" y2="73.7016841479685" /><line stroke="black" x1="157.6536686473018" x2="157.6536686473018" y1="73.7016841479685" y2="63.70168414796851" /><line stroke="black" x1="157.6536686473018" x2="153.8268343236509" y1="63.70168414796851" y2="54.462888822855646" /><line stroke="black" x1="157.6536686473018" x2="161.4805029709527" y1="73.7016841479685" y2="64.46288882285565" /><line stroke="black" x1="161.4805029709527" x2="161.4805029709527" y1="64.46288882285565" y2="54.462888822855646" /><line stroke="black" x1="157.6536686473018" x2="153.8268343236509" y1="73.7016841479685" y2="64.46288882285565" /><line stroke="black" x1="153.8268343236509" x2="150.0" y1="64.46288882285565" y2="55.224093497742786" /><line stroke="black" x1="150.0" x2="150.0" y1="55.224093497742786" y2="45.224093497742786" /></svg>