<?xml version="1.0" encoding="utf-8" ?>
<svg baseProfile="full" height="400" version="1.1" width="580" xmlns="http://www.w3.org/2000/svg" xmlns:ev="http://www.w3.org/2001/xml-events" xmlns:xlink="http://www.w3.org/1999/xlink"><defs /><line stroke="black" x1="80" x2="90.0" y1="250" y2="250.0" /><line stroke="black" x1="90.0" x2="85.0" y1="250.0" y2="258.66025403784437" /><line stroke="black" x1="85.0" x2="80.0" y1="258.66025403784437" y2="249.99999999999997" /><line stroke="black" x1="130" x2="140.0" y1="250" y2="250.0" /><line stroke="black" x1="140.0" x2="135.0" y1="250.0" y2="241.3397459621556" /><line stroke="black" x1="135.0" x2="145.0" y1="241.3397459621556" y2="241.3397459621556" /><line stroke="black" x1="145.0" x2="140.0" y1="241.3397459621556" y2="250.0" /><line stroke="black" x1="140.0" x2="150.0" y1="250.0" y2="250.0" /><line stroke="black" x1="150.0" x2="145.0" y1="250.0" y2="258.66025403784437" /><line stroke="black" x1="145.0" x2="140.0" y1="258.66025403784437" y2="249.99999999999997" /><line stroke="black" x1="140.0" x2="135.0" y1="249.99999999999997" y2="258.66025403784437" /><line stroke="black" x1="135.0" x2="130.0" y1="258.66025403784437" y2="249.99999999999997" /><line stroke="black" x1="180" x2="190.0" y1="250" y2="250.0" /><line stroke="black" x1="190.0" x2="185.0" y1="250.0" y2="241.3397459621556" /><line stroke="black" x1="185.0" x2="195.0" y1="241.3397459621556" y2="241.3397459621556" /><line stroke="black" x1="195.0" x2="190.0" y1="241.3397459621556" y2="232.6794919243112" /><line stroke="black" x1="190.0" x2="185.0" y1="232.6794919243112" y2="241.3397459621556" /><line stroke="black" x1="185.0" x2="180.0" y1="241.3397459621556" y2="232.6794919243112" /><line stroke="black" x1="180.0" x2="190.0" y1="232.6794919243112" y2="232.6794919243112" /><line stroke="black" x1="190.0" x2="185.0" y1="232.6794919243112" y2="224.0192378864668" /><line stroke="black" x1="185.0" x2="195.0" y1="224.0192378864668" y2="224.0192378864668" /><line stroke="black" x1="195.0" x2="190.0" y1="224.0192378864668" y2="232.6794919243112" /><line stroke="black" x1="190.0" x2="200.0" y1="232.6794919243112" y2="232.6794919243112" /><line stroke="black" x1="200.0" x2="195.0" y1="232.6794919243112" y2="241.3397459621556" /><line stroke="black" x1="195.0" x2="205.0" y1="241.3397459621556" y2="241.3397459621556" /><line stroke="black" x1="205.0" x2="200.0" y1="241.3397459621556" y2="232.6794919243112" /><line stroke="black" x1="200.0" x2="210.0" y1="232.6794919243112" y2="232.6794919243112" /><line stroke="black" x1="210.0" x2="205.0" y1="232.6794919243112" y2="241.3397459621556" /><line stroke="black" x1="205.0" x2="215.0" y1="241.3397459621556" y2="241.3397459621556" /><line stroke="black" x1="215.0" x2="210.0" y1="241.3397459621556" y2="250.0" /><line stroke="black" x1="210.0" x2="205.0" y1="250.0" y2="241.3397459621556" /><line stroke="black" x1="205.0" x2="200.0" y1="241.3397459621556" y2="250.0" /><line stroke="black" x1="200.0" x2="195.0" y1="250.0" y2="241.3397459621556" /><line stroke="black" x1="195.0" x2="190.0" y1="241.3397459621556" y2="250.0" /><line stroke="black" x1="190.0" x2="200.0" y1="250.0" y2="250.0" /><line stroke="black" x1="200.0" x2="195.0" y1="250.0" y2="258.66025403784437" /><line stroke="black" x1="195.0" x2="190.0" y1="258.66025403784437" y2="249.99999999999997" /><line stroke="black" x1="190.0" x2="185.0" y1="249.99999999999997" y2="258.66025403784437" /><line stroke="black" x1="185.0" x2="180.0" y1="258.66025403784437" y2="249.99999999999997" /><line stroke="black" x1="240" x2="250.0" y1="250" y2="250.0" /><line stroke="black" x1="250.0" x2="245.0" y1="250.0" y2="241.3397459621556" /><line stroke="black" x1="245.0" x2="255.0" y1="241.3397459621556" y2="241.3397459621556" /><line stroke="black" x1="255.0" x2="250.0" y1="241.3397459621556" y2="232.6794919243112" /><line stroke="black" x1="250.0" x2="245.0" y1="232.6794919243112" y2="241.3397459621556" /><line stroke="black" x1="245.0" x2="240.0" y1="241.3397459621556" y2="232.6794919243112" /><line stroke="black" x1="240.0" x2="250.0" y1="232.6794919243112" y2="232.6794919243112" /><line stroke="black" x1="250.0" x2="245.0" y1="232.6794919243112" y2="224.0192378864668" /><line stroke="black" x1="245.0" x2="255.0" y1="224.0192378864668" y2="224.0192378864668" /><line stroke="black" x1="255.0" x2="250.0" y1="224.0192378864668" y2="215.35898384862242" /><line stroke="black" x1="250.0" x2="245.0" y1="215.35898384862242" y2="224.0192378864668" /><line stroke="black" x1="245.0" x2="240.0" y1="224.0192378864668" y2="215.35898384862242" /><line stroke="black" x1="240.0" x2="235.0" y1="215.35898384862242" y2="224.0192378864668" /><line stroke="black" x1="235.0" x2="245.0" y1="224.0192378864668" y2="224.0192378864668" /><line stroke="black" x1="245.0" x2="240.0" y1="224.0192378864668" y2="232.6794919243112" /><line stroke="black" x1="240.0" x2="235.0" y1="232.6794919243112" y2="224.0192378864668" /><line stroke="black" x1="235.0" x2="230.0" y1="224.0192378864668" y2="232.6794919243112" /><line stroke="black" x1="230.0" x2="225.0" y1="232.6794919243112" y2="224.0192378864668" /><line stroke="black" x1="225.0" x2="235.0" y1="224.0192378864668" y2="224.0192378864668" /><line stroke="black" x1="235.0" x2="230.0" y1="224.0192378864668" y2="215.35898384862242" /><line stroke="black" x1="230.0" x2="240.0" y1="215.35898384862242" y2="215.35898384862242" /><line stroke="black" x1="240.0" x2="235.0" y1="215.35898384862242" y2="206.69872981077802" /><line stroke="black" x1="235.0" x2="230.0" y1="206.69872981077802" y2="215.35898384862242" /><line stroke="black" x1="230.0" x2="225.0" y1="215.35898384862242" y2="206.69872981077802" /><line stroke="black" x1="225.0" x2="235.0" y1="206.69872981077802" y2="206.69872981077802" /><line stroke="black" x1="235.0" x2="230.0" y1="206.69872981077802" y2="198.03847577293362" /><line stroke="black" x1="230.0" x2="240.0" y1="198.03847577293362" y2="198.03847577293362" /><line stroke="black" x1="240.0" x2="235.0" y1="198.03847577293362" y2="206.69872981077802" /><line stroke="black" x1="235.0" x2="245.0" y1="206.69872981077802" y2="206.69872981077802" /><line stroke="black" x1="245.0" x2="240.0" y1="206.69872981077802" y2="215.35898384862242" /><line stroke="black" x1="240.0" x2="250.0" y1="215.35898384862242" y2="215.35898384862242" /><line stroke="black" x1="250.0" x2="245.0" y1="215.35898384862242" y2="206.69872981077802" /><line stroke="black" x1="245.0" x2="255.0" y1="206.69872981077802" y2="206.69872981077802" /><line stroke="black" x1="255.0" x2="250.0" y1="206.69872981077802" y2="215.35898384862242" /><line stroke="black" x1="250.0" x2="260.0" y1="215.35898384862242" y2="215.35898384862242" /><line stroke="black" x1="260.0" x2="255.0" y1="215.35898384862242" y2="224.0192378864668" /><line stroke="black" x1="255.0" x2="265.0" y1="224.0192378864668" y2="224.0192378864668" /><line stroke="black" x1="265.0" x2="260.0" y1="224.0192378864668" y2="215.35898384862242" /><line stroke="black" x1="260.0" x2="270.0" y1="215.35898384862242" y2="215.35898384862242" /><line stroke="black" x1="270.0" x2="265.0" y1="215.35898384862242" y2="206.69872981077802" /><line stroke="black" x1="265.0" x2="260.0" y1="206.69872981077802" y2="215.35898384862242" /><line stroke="black" x1="260.0" x2="255.0" y1="215.35898384862242" y2="206.69872981077802" /><line stroke="black" x1="255.0" x2="265.0" y1="206.69872981077802" y2="206.69872981077802" /><line stroke="black" x1="265.0" x2="260.0" y1="206.69872981077802" y2="198.03847577293362" /><line stroke="black" x1="260.0" x2="270.0" y1="198.03847577293362" y2="198.03847577293362" /><line stroke="black" x1="270.0" x2="265.0" y1="198.03847577293362" y2="206.69872981077802" /><line stroke="black" x1="265.0" x2="275.0" y1="206.69872981077802" y2="206.69872981077802" /><line stroke="black" x1="275.0" x2="270.0" y1="206.69872981077802" y2="215.35898384862242" /><line stroke="black" x1="270.0" x2="280.0" y1="215.35898384862242" y2="215.35898384862242" /><line stroke="black" x1="280.0" x2="275.0" y1="215.35898384862242" y2="206.69872981077802" /><line stroke="black" x1="275.0" x2="285.0" y1="206.69872981077802" y2="206.69872981077802" /><line stroke="black" x1="285.0" x2="280.0" y1="206.69872981077802" y2="215.35898384862242" /><line stroke="black" x1="280.0" x2="290.0" y1="215.35898384862242" y2="215.35898384862242" /><line stroke="black" x1="290.0" x2="285.0" y1="215.35898384862242" y2="224.0192378864668" /><line stroke="black" x1="285.0" x2="280.0" y1="224.0192378864668" y2="215.35898384862242" /><line stroke="black" x1="280.0" x2="275.0" y1="215.35898384862242" y2="224.0192378864668" /><line stroke="black" x1="275.0" x2="270.0" y1="224.0192378864668" y2="215.35898384862242" /><line stroke="black" x1="270.0" x2="265.0" y1="215.35898384862242" y2="224.0192378864668" /><line stroke="black" x1="265.0" x2="275.0" y1="224.0192378864668" y2="224.0192378864668" /><line stroke="black" x1="275.0" x2="270.0" y1="224.0192378864668" y2="232.6794919243112" /><line stroke="black" x1="270.0" x2="265.0" y1="232.6794919243112" y2="224.0192378864668" /><line stroke="black" x1="265.0" x2="260.0" y1="224.0192378864668" y2="232.6794919243112" /><line stroke="black" x1="260.0" x2="255.0" y1="232.6794919243112" y2="224.0192378864668" /><line stroke="black" x1="255.0" x2="250.0" y1="224.0192378864668" y2="232.6794919243112" /><line stroke="black" x1="250.0" x2="260.0" y1="232.6794919243112" y2="232.6794919243112" /><line stroke="black" x1="260.0" x2="255.0" y1="232.6794919243112" y2="241.3397459621556" /><line stroke="black" x1="255.0" x2="265.0" y1="241.3397459621556" y2="241.3397459621556" /><line stroke="black" x1="265.0" x2="260.0" y1="241.3397459621556" y2="232.6794919243112" /><line stroke="black" x1="260.0" x2="270.0" y1="232.6794919243112" y2="232.6794919243112" /><line stroke="black" x1="270.0" x2="265.0" y1="232.6794919243112" y2="241.3397459621556" /><line stroke="black" x1="265.0" x2="275.0" y1="241.3397459621556" y2="241.3397459621556" /><line stroke="black" x1="275.0" x2="270.0" y1="241.3397459621556" y2="250.0" /><line stroke="black" x1="270.0" x2="265.0" y1="250.0" y2="241.3397459621556" /><line stroke="black" x1="265.0" x2="260.0" y1="241.3397459621556" y2="250.0" /><line stroke="black" x1="260.0" x2="255.0" y1="250.0" y2="241.3397459621556" /><line stroke="black" x1="255.0" x2="250.0" y1="241.3397459621556" y2="250.0" /><line stroke="black" x1="250.0" x2="260.0" y1="250.0" y2="250.0" /><line stroke="black" x1="260.0" x2="255.0" y1="250.0" y2="258.66025403784437" /><line stroke="black" x1="255.0" x2="250.0" y1="258.66025403784437" y2="249.99999999999997" /><line stroke="black" x1="250.0" x2="245.0" y1="249.99999999999997" y2="258.66025403784437" /><line stroke="black" x1="245.0" x2="240.0" y1="258.66025403784437" y2="249.99999999999997" /><line stroke="black" x1="360" x2="370.0" y1="250" y2="250.0" /><line stroke="black" x1="370.0" x2="365.0" y1="250.0" y2="241.3397459621556" /><line stroke="black" x1="365.0" x2="375.0" y1="241.3397459621556" y2="241.3397459621556" /><line stroke="black" x1="375.0" x2="370.0" y1="241.3397459621556" y2="232.6794919243112" /><line stroke="black" x1="370.0" x2="365.0" y1="232.6794919243112" y2="241.3397459621556" /><line stroke="black" x1="365.0" x2="360.0" y1="241.3397459621556" y2="232.6794919243112" /><line stroke="black" x1="360.0" x2="370.0" y1="232.6794919243112" y2="232.6794919243112" /><line stroke="black" x1="370.0" x2="365.0" y1="232.6794919243112" y2="224.0192378864668" /><line stroke="black" x1="365.0" x2="375.0" y1="224.0192378864668" y2="224.0192378864668" /><line stroke="black" x1="375.0" x2="370.0" y1="224.0192378864668" y2="215.35898384862242" /><line stroke="black" x1="370.0" x2="365.0" y1="215.35898384862242" y2="224.0192378864668" /><line stroke="black" x1="365.0" x2="360.0" y1="224.0192378864668" y2="215.35898384862242" /><line stroke="black" x1="360.0" x2="355.0" y1="215.35898384862242" y2="224.0192378864668" /><line stroke="black" x1="355.0" x2="365.0" y1="224.0192378864668" y2="224.0192378864668" /><line stroke="black" x1="365.0" x2="360.0" y1="224.0192378864668" y2="232.6794919243112" /><line stroke="black" x1="360.0" x2="355.0" y1="232.6794919243112" y2="224.0192378864668" /><line stroke="black" x1="355.0" x2="350.0" y1="224.0192378864668" y2="232.6794919243112" /><line stroke="black" x1="350.0" x2="345.0" y1="232.6794919243112" y2="224.0192378864668" /><line stroke="black" x1="345.0" x2="355.0" y1="224.0192378864668" y2="224.0192378864668" /><line stroke="black" x1="355.0" x2="350.0" y1="224.0192378864668" y2="215.35898384862242" /><line stroke="black" x1="350.0" x2="360.0" y1="215.35898384862242" y2="215.35898384862242" /><line stroke="black" x1="360.0" x2="355.0" y1="215.35898384862242" y2="206.69872981077802" /><line stroke="black" x1="355.0" x2="350.0" y1="206.69872981077802" y2="215.35898384862242" /><line stroke="black" x1="350.0" x2="345.0" y1="215.35898384862242" y2="206.69872981077802" /><line stroke="black" x1="345.0" x2="355.0" y1="206.69872981077802" y2="206.69872981077802" /><line stroke="black" x1="355.0" x2="350.0" y1="206.69872981077802" y2="198.03847577293362" /><line stroke="black" x1="350.0" x2="360.0" y1="198.03847577293362" y2="198.03847577293362" /><line stroke="black" x1="360.0" x2="355.0" y1="198.03847577293362" y2="189.37822173508923" /><line stroke="black" x1="355.0" x2="350.0" y1="189.37822173508923" y2="198.03847577293362" /><line stroke="black" x1="350.0" x2="345.0" y1="198.03847577293362" y2="189.37822173508923" /><line stroke="black" x1="345.0" x2="340.0" y1="189.37822173508923" y2="198.03847577293362" /><line stroke="black" x1="340.0" x2="350.0" y1="198.03847577293362" y2="198.03847577293362" /><line stroke="black" x1="350.0" x2="345.0" y1="198.03847577293362" y2="206.69872981077802" /><line stroke="black" x1="345.0" x2="340.0" y1="206.69872981077802" y2="198.03847577293362" /><line stroke="black" x1="340.0" x2="335.0" y1="198.03847577293362" y2="206.69872981077802" /><line stroke="black" x1="335.0" x2="330.0" y1="206.69872981077802" y2="198.03847577293362" /><line stroke="black" x1="330.0" x2="325.0" y1="198.03847577293362" y2="206.69872981077802" /><line stroke="black" x1="325.0" x2="335.0" y1="206.69872981077802" y2="206.69872981077802" /><line stroke="black" x1="335.0" x2="330.0" y1="206.69872981077802" y2="215.35898384862242" /><line stroke="black" x1="330.0" x2="340.0" y1="215.35898384862242" y2="215.35898384862242" /><line stroke="black" x1="340.0" x2="335.0" y1="215.35898384862242" y2="206.69872981077802" /><line stroke="black" x1="335.0" x2="345.0" y1="206.69872981077802" y2="206.69872981077802" /><line stroke="black" x1="345.0" x2="340.0" y1="206.69872981077802" y2="215.35898384862242" /><line stroke="black" x1="340.0" x2="350.0" y1="215.35898384862242" y2="215.35898384862242" /><line stroke="black" x1="350.0" x2="345.0" y1="215.35898384862242" y2="224.0192378864668" /><line stroke="black" x1="345.0" x2="340.0" y1="224.0192378864668" y2="215.35898384862242" /><line stroke="black" x1="340.0" x2="335.0" y1="215.35898384862242" y2="224.0192378864668" /><line stroke="black" x1="335.0" x2="330.0" y1="224.0192378864668" y2="215.35898384862242" /><line stroke="black" x1="330.0" x2="325.0" y1="215.35898384862242" y2="224.0192378864668" /><line stroke="black" x1="325.0" x2="335.0" y1="224.0192378864668" y2="224.0192378864668" /><line stroke="black" x1="335.0" x2="330.0" y1="224.0192378864668" y2="232.6794919243112" /><line stroke="black" x1="330.0" x2="325.0" y1="232.6794919243112" y2="224.0192378864668" /><line stroke="black" x1="325.0" x2="320.0" y1="224.0192378864668" y2="232.6794919243112" /><line stroke="black" x1="320.0" x2="315.0" y1="232.6794919243112" y2="224.0192378864668" /><line stroke="black" x1="315.0" x2="325.0" y1="224.0192378864668" y2="224.0192378864668" /><line stroke="black" x1="325.0" x2="320.0" y1="224.0192378864668" y2="215.35898384862242" /><line stroke="black" x1="320.0" x2="330.0" y1="215.35898384862242" y2="215.35898384862242" /><line stroke="black" x1="330.0" x2="325.0" y1="215.35898384862242" y2="206.69872981077802" /><line stroke="black" x1="325.0" x2="320.0" y1="206.69872981077802" y2="215.35898384862242" /><line stroke="black" x1="320.0" x2="315.0" y1="215.35898384862242" y2="206.69872981077802" /><line stroke="black" x1="315.0" x2="325.0" y1="206.69872981077802" y2="206.69872981077802" /><line stroke="black" x1="325.0" x2="320.0" y1="206.69872981077802" y2="198.03847577293362" /><line stroke="black" x1="320.0" x2="330.0" y1="198.03847577293362" y2="198.03847577293362" /><line stroke="black" x1="330.0" x2="325.0" y1="198.03847577293362" y2="189.37822173508923" /><line stroke="black" x1="325.0" x2="320.0" y1="189.37822173508923" y2="198.03847577293362" /><line stroke="black" x1="320.0" x2="315.0" y1="198.03847577293362" y2="189.37822173508923" /><line stroke="black" x1="315.0" x2="310.0" y1="189.37822173508923" y2="198.03847577293362" /><line stroke="black" x1="310.0" x2="320.0" y1="198.03847577293362" y2="198.03847577293362" /><line stroke="black" x1="320.0" x2="315.0" y1="198.03847577293362" y2="206.69872981077802" /><line stroke="black" x1="315.0" x2="310.0" y1="206.69872981077802" y2="198.03847577293362" /><line stroke="black" x1="310.0" x2="305.0" y1="198.03847577293362" y2="206.69872981077802" /><line stroke="black" x1="305.0" x2="300.0" y1="206.69872981077802" y2="198.03847577293362" /><line stroke="black" x1="300.0" x2="310.0" y1="198.03847577293362" y2="198.03847577293362" /><line stroke="black" x1="310.0" x2="305.0" y1="198.03847577293362" y2="189.37822173508923" /><line stroke="black" x1="305.0" x2="315.0" y1="189.37822173508923" y2="189.37822173508923" /><line stroke="black" x1="315.0" x2="310.0" y1="189.37822173508923" y2="180.71796769724483" /><line stroke="black" x1="310.0" x2="305.0" y1="180.71796769724483" y2="189.37822173508923" /><line stroke="black" x1="305.0" x2="300.0" y1="189.37822173508923" y2="180.71796769724483" /><line stroke="black" x1="300.0" x2="310.0" y1="180.71796769724483" y2="180.71796769724483" /><line stroke="black" x1="310.0" x2="305.0" y1="180.71796769724483" y2="172.05771365940043" /><line stroke="black" x1="305.0" x2="315.0" y1="172.05771365940043" y2="172.05771365940043" /><line stroke="black" x1="315.0" x2="310.0" y1="172.05771365940043" y2="180.71796769724483" /><line stroke="black" x1="310.0" x2="320.0" y1="180.71796769724483" y2="180.71796769724483" /><line stroke="black" x1="320.0" x2="315.0" y1="180.71796769724483" y2="189.37822173508923" /><line stroke="black" x1="315.0" x2="325.0" y1="189.37822173508923" y2="189.37822173508923" /><line stroke="black" x1="325.0" x2="320.0" y1="189.37822173508923" y2="180.71796769724483" /><line stroke="black" x1="320.0" x2="330.0" y1="180.71796769724483" y2="180.71796769724483" /><line stroke="black" x1="330.0" x2="325.0" y1="180.71796769724483" y2="189.37822173508923" /><line stroke="black" x1="325.0" x2="335.0" y1="189.37822173508923" y2="189.37822173508923" /><line stroke="black" x1="335.0" x2="330.0" y1="189.37822173508923" y2="198.03847577293362" /><line stroke="black" x1="330.0" x2="340.0" y1="198.03847577293362" y2="198.03847577293362" /><line stroke="black" x1="340.0" x2="335.0" y1="198.03847577293362" y2="189.37822173508923" /><line stroke="black" x1="335.0" x2="345.0" y1="189.37822173508923" y2="189.37822173508923" /><line stroke="black" x1="345.0" x2="340.0" y1="189.37822173508923" y2="180.71796769724483" /><line stroke="black" x1="340.0" x2="335.0" y1="180.71796769724483" y2="189.37822173508923" /><line stroke="black" x1="335.0" x2="330.0" y1="189.37822173508923" y2="180.71796769724483" /><line stroke="black" x1="330.0" x2="340.0" y1="180.71796769724483" y2="180.71796769724483" /><line stroke="black" x1="340.0" x2="335.0" y1="180.71796769724483" y2="172.05771365940043" /><line stroke="black" x1="335.0" x2="345.0" y1="172.05771365940043" y2="172.05771365940043" /><line stroke="black" x1="345.0" x2="340.0" y1="172.05771365940043" y2="180.71796769724483" /><line stroke="black" x1="340.0" x2="350.0" y1="180.71796769724483" y2="180.71796769724483" /><line stroke="black" x1="350.0" x2="345.0" y1="180.71796769724483" y2="189.37822173508923" /><line stroke="black" x1="345.0" x2="355.0" y1="189.37822173508923" y2="189.37822173508923" /><line stroke="black" x1="355.0" x2="350.0" y1="189.37822173508923" y2="180.71796769724483" /><line stroke="black" x1="350.0" x2="360.0" y1="180.71796769724483" y2="180.71796769724483" /><line stroke="black" x1="360.0" x2="355.0" y1="180.71796769724483" y2="189.37822173508923" /><line stroke="black" x1="355.0" x2="365.0" y1="189.37822173508923" y2="189.37822173508923" /><line stroke="black" x1="365.0" x2="360.0" y1="189.37822173508923" y2="198.03847577293362" /><line stroke="black" x1="360.0" x2="370.0" y1="198.03847577293362" y2="198.03847577293362" /><line stroke="black" x1="370.0" x2="365.0" y1="198.03847577293362" y2="189.37822173508923" /><line stroke="black" x1="365.0" x2="375.0" y1="189.37822173508923" y2="189.37822173508923" /><line stroke="black" x1="375.0" x2="370.0" y1="189.37822173508923" y2="180.71796769724483" /><line stroke="black" x1="370.0" x2="365.0" y1="180.71796769724483" y2="189.37822173508923" /><line stroke="black" x1="365.0" x2="360.0" y1="189.37822173508923" y2="180.71796769724483" /><line stroke="black" x1="360.0" x2="370.0" y1="180.71796769724483" y2="180.71796769724483" /><line stroke="black" x1="370.0" x2="365.0" y1="180.71796769724483" y2="172.05771365940043" /><line stroke="black" x1="365.0" x2="375.0" y1="172.05771365940043" y2="172.05771365940043" /><line stroke="black" x1="375.0" x2="370.0" y1="172.05771365940043" y2="163.39745962155604" /><line stroke="black" x1="370.0" x2="365.0" y1="163.39745962155604" y2="172.05771365940043" /><line stroke="black" x1="365.0" x2="360.0" y1="172.05771365940043" y2="163.39745962155604" /><line stroke="black" x1="360.0" x2="355.0" y1="163.39745962155604" y2="172.05771365940043" /><line stroke="black" x1="355.0" x2="365.0" y1="172.05771365940043" y2="172.05771365940043" /><line stroke="black" x1="365.0" x2="360.0" y1="172.05771365940043" y2="180.71796769724483" /><line stroke="black" x1="360.0" x2="355.0" y1="180.71796769724483" y2="172.05771365940043" /><line stroke="black" x1="355.0" x2="350.0" y1="172.05771365940043" y2="180.71796769724483" /><line stroke="black" x1="350.0" x2="345.0" y1="180.71796769724483" y2="172.05771365940043" /><line stroke="black" x1="345.0" x2="355.0" y1="172.05771365940043" y2="172.05771365940043" /><line stroke="black" x1="355.0" x2="350.0" y1="172.05771365940043" y2="163.39745962155604" /><line stroke="black" x1="350.0" x2="360.0" y1="163.39745962155604" y2="163.39745962155604" /><line stroke="black" x1="360.0" x2="355.0" y1="163.39745962155604" y2="154.73720558371164" /><line stroke="black" x1="355.0" x2="350.0" y1="154.73720558371164" y2="163.39745962155604" /><line stroke="black" x1="350.0" x2="345.0" y1="163.39745962155604" y2="154.73720558371164" /><line stroke="black" x1="345.0" x2="355.0" y1="154.73720558371164" y2="154.73720558371164" /><line stroke="black" x1="355.0" x2="350.0" y1="154.73720558371164" y2="146.07695154586725" /><line stroke="black" x1="350.0" x2="360.0" y1="146.07695154586725" y2="146.07695154586725" /><line stroke="black" x1="360.0" x2="355.0" y1="146.07695154586725" y2="154.73720558371164" /><line stroke="black" x1="355.0" x2="365.0" y1="154.73720558371164" y2="154.73720558371164" /><line stroke="black" x1="365.0" x2="360.0" y1="154.73720558371164" y2="163.39745962155604" /><line stroke="black" x1="360.0" x2="370.0" y1="163.39745962155604" y2="163.39745962155604" /><line stroke="black" x1="370.0" x2="365.0" y1="163.39745962155604" y2="154.73720558371164" /><line stroke="black" x1="365.0" x2="375.0" y1="154.73720558371164" y2="154.73720558371164" /><line stroke="black" x1="375.0" x2="370.0" y1="154.73720558371164" y2="163.39745962155604" /><line stroke="black" x1="370.0" x2="380.0" y1="163.39745962155604" y2="163.39745962155604" /><line stroke="black" x1="380.0" x2="375.0" y1="163.39745962155604" y2="172.05771365940043" /><line stroke="black" x1="375.0" x2="385.0" y1="172.05771365940043" y2="172.05771365940043" /><line stroke="black" x1="385.0" x2="380.0" y1="172.05771365940043" y2="163.39745962155604" /><line stroke="black" x1="380.0" x2="390.0" y1="163.39745962155604" y2="163.39745962155604" /><line stroke="black" x1="390.0" x2="385.0" y1="163.39745962155604" y2="154.73720558371164" /><line stroke="black" x1="385.0" x2="380.0" y1="154.73720558371164" y2="163.39745962155604" /><line stroke="black" x1="380.0" x2="375.0" y1="163.39745962155604" y2="154.73720558371164" /><line stroke="black" x1="375.0" x2="385.0" y1="154.73720558371164" y2="154.73720558371164" /><line stroke="black" x1="385.0" x2="380.0" y1="154.73720558371164" y2="146.07695154586725" /><line stroke="black" x1="380.0" x2="390.0" y1="146.07695154586725" y2="146.07695154586725" /><line stroke="black" x1="390.0" x2="385.0" y1="146.07695154586725" y2="154.73720558371164" /><line stroke="black" x1="385.0" x2="395.0" y1="154.73720558371164" y2="154.73720558371164" /><line stroke="black" x1="395.0" x2="390.0" y1="154.73720558371164" y2="163.39745962155604" /><line stroke="black" x1="390.0" x2="400.0" y1="163.39745962155604" y2="163.39745962155604" /><line stroke="black" x1="400.0" x2="395.0" y1="163.39745962155604" y2="154.73720558371164" /><line stroke="black" x1="395.0" x2="405.0" y1="154.73720558371164" y2="154.73720558371164" /><line stroke="black" x1="405.0" x2="400.0" y1="154.73720558371164" y2="163.39745962155604" /><line stroke="black" x1="400.0" x2="410.0" y1="163.39745962155604" y2="163.39745962155604" /><line stroke="black" x1="410.0" x2="405.0" y1="163.39745962155604" y2="172.05771365940043" /><line stroke="black" x1="405.0" x2="400.0" y1="172.05771365940043" y2="163.39745962155604" /><line stroke="black" x1="400.0" x2="395.0" y1="163.39745962155604" y2="172.05771365940043" /><line stroke="black" x1="395.0" x2="390.0" y1="172.05771365940043" y2="163.39745962155604" /><line stroke="black" x1="390.0" x2="385.0" y1="163.39745962155604" y2="172.05771365940043" /><line stroke="black" x1="385.0" x2="395.0" y1="172.05771365940043" y2="172.05771365940043" /><line stroke="black" x1="395.0" x2="390.0" y1="172.05771365940043" y2="180.71796769724483" /><line stroke="black" x1="390.0" x2="385.0" y1="180.71796769724483" y2="172.05771365940043" /><line stroke="black" x1="385.0" x2="380.0" y1="172.05771365940043" y2="180.71796769724483" /><line stroke="black" x1="380.0" x2="375.0" y1="180.71796769724483" y2="172.05771365940043" /><line stroke="black" x1="375.0" x2="370.0" y1="172.05771365940043" y2="180.71796769724483" /><line stroke="black" x1="370.0" x2="380.0" y1="180.71796769724483" y2="180.71796769724483" /><line stroke="black" x1="380.0" x2="375.0" y1="180.71796769724483" y2="189.37822173508923" /><line stroke="black" x1="375.0" x2="385.0" y1="189.37822173508923" y2="189.37822173508923" /><line stroke="black" x1="385.0" x2="380.0" y1="189.37822173508923" y2="180.71796769724483" /><line stroke="black" x1="380.0" x2="390.0" y1="180.71796769724483" y2="180.71796769724483" /><line stroke="black" x1="390.0" x2="385.0" y1="180.71796769724483" y2="189.37822173508923" /><line stroke="black" x1="385.0" x2="395.0" y1="189.37822173508923" y2="189.37822173508923" /><line stroke="black" x1="395.0" x2="390.0" y1="189.37822173508923" y2="198.03847577293362" /><line stroke="black" x1="390.0" x2="385.0" y1="198.03847577293362" y2="189.37822173508923" /><line stroke="black" x1="385.0" x2="380.0" y1="189.37822173508923" y2="198.03847577293362" /><line stroke="black" x1="380.0" x2="375.0" y1="198.03847577293362" y2="189.37822173508923" /><line stroke="black" x1="375.0" x2="370.0" y1="189.37822173508923" y2="198.03847577293362" /><line stroke="black" x1="370.0" x2="380.0" y1="198.03847577293362" y2="198.03847577293362" /><line stroke="black" x1="380.0" x2="375.0" y1="198.03847577293362" y2="206.69872981077802" /><line stroke="black" x1="375.0" x2="370.0" y1="206.69872981077802" y2="198.03847577293362" /><line stroke="black" x1="370.0" x2="365.0" y1="198.03847577293362" y2="206.69872981077802" /><line stroke="black" x1="365.0" x2="360.0" y1="206.69872981077802" y2="198.03847577293362" /><line stroke="black" x1="360.0" x2="355.0" y1="198.03847577293362" y2="206.69872981077802" /><line stroke="black" x1="355.0" x2="365.0" y1="206.69872981077802" y2="206.69872981077802" /><line stroke="black" x1="365.0" x2="360.0" y1="206.69872981077802" y2="215.35898384862242" /><line stroke="black" x1="360.0" x2="370.0" y1="215.35898384862242" y2="215.35898384862242" /><line stroke="black" x1="370.0" x2="365.0" y1="215.35898384862242" y2="206.69872981077802" /><line stroke="black" x1="365.0" x2="375.0" y1="206.69872981077802" y2="206.69872981077802" /><line stroke="black" x1="375.0" x2="370.0" y1="206.69872981077802" y2="215.35898384862242" /><line stroke="black" x1="370.0" x2="380.0" y1="215.35898384862242" y2="215.35898384862242" /><line stroke="black" x1="380.0" x2="375.0" y1="215.35898384862242" y2="224.0192378864668" /><line stroke="black" x1="375.0" x2="385.0" y1="224.0192378864668" y2="224.0192378864668" /><line stroke="black" x1="385.0" x2="380.0" y1="224.0192378864668" y2="215.35898384862242" /><line stroke="black" x1="380.0" x2="390.0" y1="215.35898384862242" y2="215.35898384862242" /><line stroke="black" x1="390.0" x2="385.0" y1="215.35898384862242" y2="206.69872981077802" /><line stroke="black" x1="385.0" x2="380.0" y1="206.69872981077802" y2="215.35898384862242" /><line stroke="black" x1="380.0" x2="375.0" y1="215.35898384862242" y2="206.69872981077802" /><line stroke="black" x1="375.0" x2="385.0" y1="206.69872981077802" y2="206.69872981077802" /><line stroke="black" x1="385.0" x2="380.0" y1="206.69872981077802" y2="198.03847577293362" /><line stroke="black" x1="380.0" x2="390.0" y1="198.03847577293362" y2="198.03847577293362" /><line stroke="black" x1="390.0" x2="385.0" y1="198.03847577293362" y2="206.69872981077802" /><line stroke="black" x1="385.0" x2="395.0" y1="206.69872981077802" y2="206.69872981077802" /><line stroke="black" x1="395.0" x2="390.0" y1="206.69872981077802" y2="215.35898384862242" /><line stroke="black" x1="390.0" x2="400.0" y1="215.35898384862242" y2="215.35898384862242" /><line stroke="black" x1="400.0" x2="395.0" y1="215.35898384862242" y2="206.69872981077802" /><line stroke="black" x1="395.0" x2="405.0" y1="206.69872981077802" y2="206.69872981077802" /><line stroke="black" x1="405.0" x2="400.0" y1="206.69872981077802" y2="215.35898384862242" /><line stroke="black" x1="400.0" x2="410.0" y1="215.35898384862242" y2="215.35898384862242" /><line stroke="black" x1="410.0" x2="405.0" y1="215.35898384862242" y2="224.0192378864668" /><line stroke="black" x1="405.0" x2="400.0" y1="224.0192378864668" y2="215.35898384862242" /><line stroke="black" x1="400.0" x2="395.0" y1="215.35898384862242" y2="224.0192378864668" /><line stroke="black" x1="395.0" x2="390.0" y1="224.0192378864668" y2="215.35898384862242" /><line stroke="black" x1="390.0" x2="385.0" y1="215.35898384862242" y2="224.0192378864668" /><line stroke="black" x1="385.0" x2="395.0" y1="224.0192378864668" y2="224.0192378864668" /><line stroke="black" x1="395.0" x2="390.0" y1="224.0192378864668" y2="232.6794919243112" /><line stroke="black" x1="390.0" x2="385.0" y1="232.6794919243112" y2="224.0192378864668" /><line stroke="black" x1="385.0" x2="380.0" y1="224.0192378864668" y2="232.6794919243112" /><line stroke="black" x1="380.0" x2="375.0" y1="232.6794919243112" y2="224.0192378864668" /><line stroke="black" x1="375.0" x2="370.0" y1="224.0192378864668" y2="232.6794919243112" /><line stroke="black" x1="370.0" x2="380.0" y1="232.6794919243112" y2="232.6794919243112" /><line stroke="black" x1="380.0" x2="375.0" y1="232.6794919243112" y2="241.3397459621556" /><line stroke="black" x1="375.0" x2="385.0" y1="241.3397459621556" y2="241.3397459621556" /><line stroke="black" x1="385.0" x2="380.0" y1="241.3397459621556" y2="232.6794919243112" /><line stroke="black" x1="380.0" x2="390.0" y1="232.6794919243112" y2="232.6794919243112" /><line stroke="black" x1="390.0" x2="385.0" y1="232.6794919243112" y2="241.3397459621556" /><line stroke="black" x1="385.0" x2="395.0" y1="241.3397459621556" y2="241.3397459621556" /><line stroke="black" x1="395.0" x2="390.0" y1="241.3397459621556" y2="250.0" /><line stroke="black" x1="390.0" x2="385.0" y1="250.0" y2="241.3397459621556" /><line stroke="black" x1="385.0" x2="380.0" y1="241.3397459621556" y2="250.0" /><line stroke="black" x1="380.0" x2="375.0" y1="250.0" y2="241.3397459621556" /><line stroke="black" x1="375.0" x2="370.0" y1="241.3397459621556" y2="250.0" /><line stroke="black" x1="370.0" x2="380.0" y1="250.0" y2="250.0" /><line stroke="black" x1="380.0" x2="375.0" y1="250.0" y2="258.66025403784437" /><line stroke="black" x1="375.0" x2="370.0" y1="258.66025403784437" y2="249.99999999999997" /><line stroke="black" x1="370.0" x2="365.0" y1="249.99999999999997" y2="258.66025403784437" /><line stroke="black" x1="365.0" x2="360.0" y1="258.66025403784437" y2="249.99999999999997" /><line stroke="black" x1="480" x2="490.0" y1="250" y2="250.0" /><line stroke="black" x1="490.0" x2="485.0" y1="250.0" y2="241.3397459621556" /><line stroke="black" x1="485.0" x2="495.0" y1="241.3397459621556" y2="241.3397459621556" /><line stroke="black" x1="495.0" x2="490.0" y1="241.3397459621556" y2="232.6794919243112" /><line stroke="black" x1="490.0" x2="485.0" y1="232.6794919243112" y2="241.3397459621556" /><line stroke="black" x1="485.0" x2="480.0" y1="241.3397459621556" y2="232.6794919243112" /><line stroke="black" x1="480.0" x2="490.0" y1="232.6794919243112" y2="232.6794919243112" /><line stroke="black" x1="490.0" x2="485.0" y1="232.6794919243112" y2="224.0192378864668" /><line stroke="black" x1="485.0" x2="495.0" y1="224.0192378864668" y2="224.0192378864668" /><line stroke="black" x1="495.0" x2="490.0" y1="224.0192378864668" y2="215.35898384862242" /><line stroke="black" x1="490.0" x2="485.0" y1="215.35898384862242" y2="224.0192378864668" /><line stroke="black" x1="485.0" x2="480.0" y1="224.0192378864668" y2="215.35898384862242" /><line stroke="black" x1="480.0" x2="475.0" y1="215.35898384862242" y2="224.0192378864668" /><line stroke="black" x1="475.0" x2="485.0" y1="224.0192378864668" y2="224.0192378864668" /><line stroke="black" x1="485.0" x2="480.0" y1="224.0192378864668" y2="232.6794919243112" /><line stroke="black" x1="480.0" x2="475.0" y1="232.6794919243112" y2="224.0192378864668" /><line stroke="black" x1="475.0" x2="470.0" y1="224.0192378864668" y2="232.6794919243112" /><line stroke="black" x1="470.0" x2="465.0" y1="232.6794919243112" y2="224.0192378864668" /><line stroke="black" x1="465.0" x2="475.0" y1="224.0192378864668" y2="224.0192378864668" /><line stroke="black" x1="475.0" x2="470.0" y1="224.0192378864668" y2="215.35898384862242" /><line stroke="black" x1="470.0" x2="480.0" y1="215.35898384862242" y2="215.35898384862242" /><line stroke="black" x1="480.0" x2="475.0" y1="215.35898384862242" y2="206.69872981077802" /><line stroke="black" x1="475.0" x2="470.0" y1="206.69872981077802" y2="215.35898384862242" /><line stroke="black" x1="470.0" x2="465.0" y1="215.35898384862242" y2="206.69872981077802" /><line stroke="black" x1="465.0" x2="475.0" y1="206.69872981077802" y2="206.69872981077802" /><line stroke="black" x1="475.0" x2="470.0" y1="206.69872981077802" y2="198.03847577293362" /><line stroke="black" x1="470.0" x2="480.0" y1="198.03847577293362" y2="198.03847577293362" /><line stroke="black" x1="480.0" x2="475.0" y1="198.03847577293362" y2="189.37822173508923" /><line stroke="black" x1="475.0" x2="470.0" y1="189.37822173508923" y2="198.03847577293362" /><line stroke="black" x1="470.0" x2="465.0" y1="198.03847577293362" y2="189.37822173508923" /><line stroke="black" x1="465.0" x2="460.0" y1="189.37822173508923" y2="198.03847577293362" /><line stroke="black" x1="460.0" x2="470.0" y1="198.03847577293362" y2="198.03847577293362" /><line stroke="black" x1="470.0" x2="465.0" y1="198.03847577293362" y2="206.69872981077802" /><line stroke="black" x1="465.0" x2="460.0" y1="206.69872981077802" y2="198.03847577293362" /><line stroke="black" x1="460.0" x2="455.0" y1="198.03847577293362" y2="206.69872981077802" /><line stroke="black" x1="455.0" x2="450.0" y1="206.69872981077802" y2="198.03847577293362" /><line stroke="black" x1="450.0" x2="445.0" y1="198.03847577293362" y2="206.69872981077802" /><line stroke="black" x1="445.0" x2="455.0" y1="206.69872981077802" y2="206.69872981077802" /><line stroke="black" x1="455.0" x2="450.0" y1="206.69872981077802" y2="215.35898384862242" /><line stroke="black" x1="450.0" x2="460.0" y1="215.35898384862242" y2="215.35898384862242" /><line stroke="black" x1="460.0" x2="455.0" y1="215.35898384862242" y2="206.69872981077802" /><line stroke="black" x1="455.0" x2="465.0" y1="206.69872981077802" y2="206.69872981077802" /><line stroke="black" x1="465.0" x2="460.0" y1="206.69872981077802" y2="215.35898384862242" /><line stroke="black" x1="460.0" x2="470.0" y1="215.35898384862242" y2="215.35898384862242" /><line stroke="black" x1="470.0" x2="465.0" y1="215.35898384862242" y2="224.0192378864668" /><line stroke="black" x1="465.0" x2="460.0" y1="224.0192378864668" y2="215.35898384862242" /><line stroke="black" x1="460.0" x2="455.0" y1="215.35898384862242" y2="224.0192378864668" /><line stroke="black" x1="455.0" x2="450.0" y1="224.0192378864668" y2="215.35898384862242" /><line stroke="black" x1="450.0" x2="445.0" y1="215.35898384862242" y2="224.0192378864668" /><line stroke="black" x1="445.0" x2="455.0" y1="224.0192378864668" y2="224.0192378864668" /><line stroke="black" x1="455.0" x2="450.0" y1="224.0192378864668" y2="232.6794919243112" /><line stroke="black" x1="450.0" x2="445.0" y1="232.6794919243112" y2="224.0192378864668" /><line stroke="black" x1="445.0" x2="440.0" y1="224.0192378864668" y2="232.6794919243112" /><line stroke="black" x1="440.0" x2="435.0" y1="232.6794919243112" y2="224.0192378864668" /><line stroke="black" x1="435.0" x2="445.0" y1="224.0192378864668" y2="224.0192378864668" /><line stroke="black" x1="445.0" x2="440.0" y1="224.0192378864668" y2="215.35898384862242" /><line stroke="black" x1="440.0" x2="450.0" y1="215.35898384862242" y2="215.35898384862242" /><line stroke="black" x1="450.0" x2="445.0" y1="215.35898384862242" y2="206.69872981077802" /><line stroke="black" x1="445.0" x2="440.0" y1="206.69872981077802" y2="215.35898384862242" /><line stroke="black" x1="440.0" x2="435.0" y1="215.35898384862242" y2="206.69872981077802" /><line stroke="black" x1="435.0" x2="445.0" y1="206.69872981077802" y2="206.69872981077802" /><line stroke="black" x1="445.0" x2="440.0" y1="206.69872981077802" y2="198.03847577293362" /><line stroke="black" x1="440.0" x2="450.0" y1="198.03847577293362" y2="198.03847577293362" /><line stroke="black" x1="450.0" x2="445.0" y1="198.03847577293362" y2="189.37822173508923" /><line stroke="black" x1="445.0" x2="440.0" y1="189.37822173508923" y2="198.03847577293362" /><line stroke="black" x1="440.0" x2="435.0" y1="198.03847577293362" y2="189.37822173508923" /><line stroke="black" x1="435.0" x2="430.0" y1="189.37822173508923" y2="198.03847577293362" /><line stroke="black" x1="430.0" x2="440.0" y1="198.03847577293362" y2="198.03847577293362" /><line stroke="black" x1="440.0" x2="435.0" y1="198.03847577293362" y2="206.69872981077802" /><line stroke="black" x1="435.0" x2="430.0" y1="206.69872981077802" y2="198.03847577293362" /><line stroke="black" x1="430.0" x2="425.0" y1="198.03847577293362" y2="206.69872981077802" /><line stroke="black" x1="425.0" x2="420.0" y1="206.69872981077802" y2="198.03847577293362" /><line stroke="black" x1="420.0" x2="430.0" y1="198.03847577293362" y2="198.03847577293362" /><line stroke="black" x1="430.0" x2="425.0" y1="198.03847577293362" y2="189.37822173508923" /><line stroke="black" x1="425.0" x2="435.0" y1="189.37822173508923" y2="189.37822173508923" /><line stroke="black" x1="435.0" x2="430.0" y1="189.37822173508923" y2="180.71796769724483" /><line stroke="black" x1="430.0" x2="425.0" y1="180.71796769724483" y2="189.37822173508923" /><line stroke="black" x1="425.0" x2="420.0" y1="189.37822173508923" y2="180.71796769724483" /><line stroke="black" x1="420.0" x2="430.0" y1="180.71796769724483" y2="180.71796769724483" /><line stroke="black" x1="430.0" x2="425.0" y1="180.71796769724483" y2="172.05771365940043" /><line stroke="black" x1="425.0" x2="435.0" y1="172.05771365940043" y2="172.05771365940043" /><line stroke="black" x1="435.0" x2="430.0" y1="172.05771365940043" y2="163.39745962155604" /><line stroke="black" x1="430.0" x2="425.0" y1="163.39745962155604" y2="172.05771365940043" /><line stroke="black" x1="425.0" x2="420.0" y1="172.05771365940043" y2="163.39745962155604" /><line stroke="black" x1="420.0" x2="415.0" y1="163.39745962155604" y2="172.05771365940043" /><line stroke="black" x1="415.0" x2="425.0" y1="172.05771365940043" y2="172.05771365940043" /><line stroke="black" x1="425.0" x2="420.0" y1="172.05771365940043" y2="180.71796769724483" /><line stroke="black" x1="420.0" x2="415.0" y1="180.71796769724483" y2="172.05771365940043" /><line stroke="black" x1="415.0" x2="410.0" y1="172.05771365940043" y2="180.71796769724483" /><line stroke="black" x1="410.0" x2="405.0" y1="180.71796769724483" y2="172.05771365940043" /><line stroke="black" x1="405.0" x2="400.0" y1="172.05771365940043" y2="180.71796769724483" /><line stroke="black" x1="400.0" x2="410.0" y1="180.71796769724483" y2="180.71796769724483" /><line stroke="black" x1="410.0" x2="405.0" y1="180.71796769724483" y2="189.37822173508923" /><line stroke="black" x1="405.0" x2="415.0" y1="189.37822173508923" y2="189.37822173508923" /><line stroke="black" x1="415.0" x2="410.0" y1="189.37822173508923" y2="180.71796769724483" /><line stroke="black" x1="410.0" x2="420.0" y1="180.71796769724483" y2="180.71796769724483" /><line stroke="black" x1="420.0" x2="415.0" y1="180.71796769724483" y2="189.37822173508923" /><line stroke="black" x1="415.0" x2="425.0" y1="189.37822173508923" y2="189.37822173508923" /><line stroke="black" x1="425.0" x2="420.0" y1="189.37822173508923" y2="198.03847577293362" /><line stroke="black" x1="420.0" x2="415.0" y1="198.03847577293362" y2="189.37822173508923" /><line stroke="black" x1="415.0" x2="410.0" y1="189.37822173508923" y2="198.03847577293362" /><line stroke="black" x1="410.0" x2="405.0" y1="198.03847577293362" y2="189.37822173508923" /><line stroke="black" x1="405.0" x2="400.0" y1="189.37822173508923" y2="198.03847577293362" /><line stroke="black" x1="400.0" x2="410.0" y1="198.03847577293362" y2="198.03847577293362" /><line stroke="black" x1="410.0" x2="405.0" y1="198.03847577293362" y2="206.69872981077802" /><line stroke="black" x1="405.0" x2="400.0" y1="206.69872981077802" y2="198.03847577293362" /><line stroke="black" x1="400.0" x2="395.0" y1="198.03847577293362" y2="206.69872981077802" /><line stroke="black" x1="395.0" x2="390.0" y1="206.69872981077802" y2="198.03847577293362" /><line stroke="black" x1="390.0" x2="385.0" y1="198.03847577293362" y2="206.69872981077802" /><line stroke="black" x1="385.0" x2="395.0" y1="206.69872981077802" y2="206.69872981077802" /><line stroke="black" x1="395.0" x2="390.0" y1="206.69872981077802" y2="215.35898384862242" /><line stroke="black" x1="390.0" x2="400.0" y1="215.35898384862242" y2="215.35898384862242" /><line stroke="black" x1="400.0" x2="395.0" y1="215.35898384862242" y2="206.69872981077802" /><line stroke="black" x1="395.0" x2="405.0" y1="206.69872981077802" y2="206.69872981077802" /><line stroke="black" x1="405.0" x2="400.0" y1="206.69872981077802" y2="215.35898384862242" /><line stroke="black" x1="400.0" x2="410.0" y1="215.35898384862242" y2="215.35898384862242" /><line stroke="black" x1="410.0" x2="405.0" y1="215.35898384862242" y2="224.0192378864668" /><line stroke="black" x1="405.0" x2="415.0" y1="224.0192378864668" y2="224.0192378864668" /><line stroke="black" x1="415.0" x2="410.0" y1="224.0192378864668" y2="215.35898384862242" /><line stroke="black" x1="410.0" x2="420.0" y1="215.35898384862242" y2="215.35898384862242" /><line stroke="black" x1="420.0" x2="415.0" y1="215.35898384862242" y2="206.69872981077802" /><line stroke="black" x1="415.0" x2="410.0" y1="206.69872981077802" y2="215.35898384862242" /><line stroke="black" x1="410.0" x2="405.0" y1="215.35898384862242" y2="206.69872981077802" /><line stroke="black" x1="405.0" x2="415.0" y1="206.69872981077802" y2="206.69872981077802" /><line stroke="black" x1="415.0" x2="410.0" y1="206.69872981077802" y2="198.03847577293362" /><line stroke="black" x1="410.0" x2="420.0" y1="198.03847577293362" y2="198.03847577293362" /><line stroke="black" x1="420.0" x2="415.0" y1="198.03847577293362" y2="206.69872981077802" /><line stroke="black" x1="415.0" x2="425.0" y1="206.69872981077802" y2="206.69872981077802" /><line stroke="black" x1="425.0" x2="420.0" y1="206.69872981077802" y2="215.35898384862242" /><line stroke="black" x1="420.0" x2="430.0" y1="215.35898384862242" y2="215.35898384862242" /><line stroke="black" x1="430.0" x2="425.0" y1="215.35898384862242" y2="206.69872981077802" /><line stroke="black" x1="425.0" x2="435.0" y1="206.69872981077802" y2="206.69872981077802" /><line stroke="black" x1="435.0" x2="430.0" y1="206.69872981077802" y2="215.35898384862242" /><line stroke="black" x1="430.0" x2="440.0" y1="215.35898384862242" y2="215.35898384862242" /><line stroke="black" x1="440.0" x2="435.0" y1="215.35898384862242" y2="224.0192378864668" /><line stroke="black" x1="435.0" x2="430.0" y1="224.0192378864668" y2="215.35898384862242" /><line stroke="black" x1="430.0" x2="425.0" y1="215.35898384862242" y2="224.0192378864668" /><line stroke="black" x1="425.0" x2="420.0" y1="224.0192378864668" y2="215.35898384862242" /><line stroke="black" x1="420.0" x2="415.0" y1="215.35898384862242" y2="224.0192378864668" /><line stroke="black" x1="415.0" x2="425.0" y1="224.0192378864668" y2="224.0192378864668" /><line stroke="black" x1="425.0" x2="420.0" y1="224.0192378864668" y2="232.6794919243112" /><line stroke="black" x1="420.0" x2="415.0" y1="232.6794919243112" y2="224.0192378864668" /><line stroke="black" x1="415.0" x2="410.0" y1="224.0192378864668" y2="232.6794919243112" /><line stroke="black" x1="410.0" x2="405.0" y1="232.6794919243112" y2="224.0192378864668" /><line stroke="black" x1="405.0" x2="400.0" y1="224.0192378864668" y2="232.6794919243112" /><line stroke="black" x1="400.0" x2="410.0" y1="232.6794919243112" y2="232.6794919243112" /><line stroke="black" x1="410.0" x2="405.0" y1="232.6794919243112" y2="241.3397459621556" /><line stroke="black" x1="405.0" x2="415.0" y1="241.3397459621556" y2="241.3397459621556" /><line stroke="black" x1="415.0" x2="410.0" y1="241.3397459621556" y2="232.6794919243112" /><line stroke="black" x1="410.0" x2="420.0" y1="232.6794919243112" y2="232.6794919243112" /><line stroke="black" x1="420.0" x2="415.0" y1="232.6794919243112" y2="241.3397459621556" /><line stroke="black" x1="415.0" x2="425.0" y1="241.3397459621556" y2="241.3397459621556" /><line stroke="black" x1="425.0" x2="420.0" y1="241.3397459621556" y2="250.0" /><line stroke="black" x1="420.0" x2="415.0" y1="250.0" y2="241.3397459621556" /><line stroke="black" x1="415.0" x2="410.0" y1="241.3397459621556" y2="250.0" /><line stroke="black" x1="410.0" x2="405.0" y1="250.0" y2="241.3397459621556" /><line stroke="black" x1="405.0" x2="400.0" y1="241.3397459621556" y2="250.0" /><line stroke="black" x1="400.0" x2="410.0" y1="250.0" y2="250.0" /><line stroke="black" x1="410.0" x2="405.0" y1="250.0" y2="258.66025403784437" /><line stroke="black" x1="405.0" x2="400.0" y1="258.66025403784437" y2="249.99999999999997" /><line stroke="black" x1="400.0" x2="395.0" y1="249.99999999999997" y2="258.66025403784437" /><line stroke="black" x1="395.0" x2="390.0" y1="258.66025403784437" y2="249.99999999999997" /><line stroke="black" x1="390.0" x2="400.0" y1="249.99999999999997" y2="249.99999999999997" /><line stroke="black" x1="400.0" x2="395.0" y1="249.99999999999997" y2="241.33974596215558" /><line stroke="black" x1="395.0" x2="405.0" y1="241.33974596215558" y2="241.33974596215558" /><line stroke="black" x1="405.0" x2="400.0" y1="241.33974596215558" y2="232.67949192431118" /><line stroke="black" x1="400.0" x2="395.0" y1="232.67949192431118" y2="241.33974596215558" /><line stroke="black" x1="395.0" x2="390.0" y1="241.33974596215558" y2="232.67949192431118" /><line stroke="black" x1="390.0" x2="400.0" y1="232.67949192431118" y2="232.67949192431118" /><line stroke="black" x1="400.0" x2="395.0" y1="232.67949192431118" y2="224.01923788646678" /><line stroke="black" x1="395.0" x2="405.0" y1="224.01923788646678" y2="224.01923788646678" /><line stroke="black" x1="405.0" x2="400.0" y1="224.01923788646678" y2="215.3589838486224" /><line stroke="black" x1="400.0" x2="395.0" y1="215.3589838486224" y2="224.01923788646678" /><line stroke="black" x1="395.0" x2="390.0" y1="224.01923788646678" y2="215.3589838486224" /><line stroke="black" x1="390.0" x2="385.0" y1="215.3589838486224" y2="224.01923788646678" /><line stroke="black" x1="385.0" x2="395.0" y1="224.01923788646678" y2="224.01923788646678" /><line stroke="black" x1="395.0" x2="390.0" y1="224.01923788646678" y2="232.67949192431118" /><line stroke="black" x1="390.0" x2="385.0" y1="232.67949192431118" y2="224.01923788646678" /><line stroke="black" x1="385.0" x2="380.0" y1="224.01923788646678" y2="232.67949192431118" /><line stroke="black" x1="380.0" x2="375.0" y1="232.67949192431118" y2="224.01923788646678" /><line stroke="black" x1="375.0" x2="385.0" y1="224.01923788646678" y2="224.01923788646678" /><line stroke="black" x1="385.0" x2="380.0" y1="224.01923788646678" y2="215.3589838486224" /><line stroke="black" x1="380.0" x2="390.0" y1="215.3589838486224" y2="215.3589838486224" /><line stroke="black" x1="390.0" x2="385.0" y1="215.3589838486224" y2="206.698729810778" /><line stroke="black" x1="385.0" x2="380.0" y1="206.698729810778" y2="215.3589838486224" /><line stroke="black" x1="380.0" x2="375.0" y1="215.3589838486224" y2="206.698729810778" /><line stroke="black" x1="375.0" x2="385.0" y1="206.698729810778" y2="206.698729810778" /><line stroke="black" x1="385.0" x2="380.0" y1="206.698729810778" y2="198.0384757729336" /><line stroke="black" x1="380.0" x2="390.0" y1="198.0384757729336" y2="198.0384757729336" /><line stroke="black" x1="390.0" x2="385.0" y1="198.0384757729336" y2="189.3782217350892" /><line stroke="black" x1="385.0" x2="380.0" y1="189.3782217350892" y2="198.0384757729336" /><line stroke="black" x1="380.0" x2="375.0" y1="198.0384757729336" y2="189.3782217350892" /><line stroke="black" x1="375.0" x2="370.0" y1="189.3782217350892" y2="198.0384757729336" /><line stroke="black" x1="370.0" x2="380.0" y1="198.0384757729336" y2="198.0384757729336" /><line stroke="black" x1="380.0" x2="375.0" y1="198.0384757729336" y2="206.698729810778" /><line stroke="black" x1="375.0" x2="370.0" y1="206.698729810778" y2="198.0384757729336" /><line stroke="black" x1="370.0" x2="365.0" y1="198.0384757729336" y2="206.698729810778" /><line stroke="black" x1="365.0" x2="360.0" y1="206.698729810778" y2="198.0384757729336" /><line stroke="black" x1="360.0" x2="355.0" y1="198.0384757729336" y2="206.698729810778" /><line stroke="black" x1="355.0" x2="365.0" y1="206.698729810778" y2="206.698729810778" /><line stroke="black" x1="365.0" x2="360.0" y1="206.698729810778" y2="215.3589838486224" /><line stroke="black" x1="360.0" x2="370.0" y1="215.3589838486224" y2="215.3589838486224" /><line stroke="black" x1="370.0" x2="365.0" y1="215.3589838486224" y2="206.698729810778" /><line stroke="black" x1="365.0" x2="375.0" y1="206.698729810778" y2="206.698729810778" /><line stroke="black" x1="375.0" x2="370.0" y1="206.698729810778" y2="215.3589838486224" /><line stroke="black" x1="370.0" x2="380.0" y1="215.3589838486224" y2="215.3589838486224" /><line stroke="black" x1="380.0" x2="375.0" y1="215.3589838486224" y2="224.01923788646678" /><line stroke="black" x1="375.0" x2="370.0" y1="224.01923788646678" y2="215.3589838486224" /><line stroke="black" x1="370.0" x2="365.0" y1="215.3589838486224" y2="224.01923788646678" /><line stroke="black" x1="365.0" x2="360.0" y1="224.01923788646678" y2="215.3589838486224" /><line stroke="black" x1="360.0" x2="355.0" y1="215.3589838486224" y2="224.01923788646678" /><line stroke="black" x1="355.0" x2="365.0" y1="224.01923788646678" y2="224.01923788646678" /><line stroke="black" x1="365.0" x2="360.0" y1="224.01923788646678" y2="232.67949192431118" /><line stroke="black" x1="360.0" x2="355.0" y1="232.67949192431118" y2="224.01923788646678" /><line stroke="black" x1="355.0" x2="350.0" y1="224.01923788646678" y2="232.67949192431118" /><line stroke="black" x1="350.0" x2="345.0" y1="232.67949192431118" y2="224.01923788646678" /><line stroke="black" x1="345.0" x2="355.0" y1="224.01923788646678" y2="224.01923788646678" /><line stroke="black" x1="355.0" x2="350.0" y1="224.01923788646678" y2="215.3589838486224" /><line stroke="black" x1="350.0" x2="360.0" y1="215.3589838486224" y2="215.3589838486224" /><line stroke="black" x1="360.0" x2="355.0" y1="215.3589838486224" y2="206.698729810778" /><line stroke="black" x1="355.0" x2="350.0" y1="206.698729810778" y2="215.3589838486224" /><line stroke="black" x1="350.0" x2="345.0" y1="215.3589838486224" y2="206.698729810778" /><line stroke="black" x1="345.0" x2="355.0" y1="206.698729810778" y2="206.698729810778" /><line stroke="black" x1="355.0" x2="350.0" y1="206.698729810778" y2="198.0384757729336" /><line stroke="black" x1="350.0" x2="360.0" y1="198.0384757729336" y2="198.0384757729336" /><line stroke="black" x1="360.0" x2="355.0" y1="198.0384757729336" y2="189.3782217350892" /><line stroke="black" x1="355.0" x2="350.0" y1="189.3782217350892" y2="198.0384757729336" /><line stroke="black" x1="350.0" x2="345.0" y1="198.0384757729336" y2="189.3782217350892" /><line stroke="black" x1="345.0" x2="340.0" y1="189.3782217350892" y2="198.0384757729336" /><line stroke="black" x1="340.0" x2="350.0" y1="198.0384757729336" y2="198.0384757729336" /><line stroke="black" x1="350.0" x2="345.0" y1="198.0384757729336" y2="206.698729810778" /><line stroke="black" x1="345.0" x2="340.0" y1="206.698729810778" y2="198.0384757729336" /><line stroke="black" x1="340.0" x2="335.0" y1="198.0384757729336" y2="206.698729810778" /><line stroke="black" x1="335.0" x2="330.0" y1="206.698729810778" y2="198.0384757729336" /><line stroke="black" x1="330.0" x2="340.0" y1="198.0384757729336" y2="198.0384757729336" /><line stroke="black" x1="340.0" x2="335.0" y1="198.0384757729336" y2="189.3782217350892" /><line stroke="black" x1="335.0" x2="345.0" y1="189.3782217350892" y2="189.3782217350892" /><line stroke="black" x1="345.0" x2="340.0" y1="189.3782217350892" y2="180.7179676972448" /><line stroke="black" x1="340.0" x2="335.0" y1="180.7179676972448" y2="189.3782217350892" /><line stroke="black" x1="335.0" x2="330.0" y1="189.3782217350892" y2="180.7179676972448" /><line stroke="black" x1="330.0" x2="340.0" y1="180.7179676972448" y2="180.7179676972448" /><line stroke="black" x1="340.0" x2="335.0" y1="180.7179676972448" y2="172.0577136594004" /><line stroke="black" x1="335.0" x2="345.0" y1="172.0577136594004" y2="172.0577136594004" /><line stroke="black" x1="345.0" x2="340.0" y1="172.0577136594004" y2="180.7179676972448" /><line stroke="black" x1="340.0" x2="350.0" y1="180.7179676972448" y2="180.7179676972448" /><line stroke="black" x1="350.0" x2="345.0" y1="180.7179676972448" y2="189.3782217350892" /><line stroke="black" x1="345.0" x2="355.0" y1="189.3782217350892" y2="189.3782217350892" /><line stroke="black" x1="355.0" x2="350.0" y1="189.3782217350892" y2="180.7179676972448" /><line stroke="black" x1="350.0" x2="360.0" y1="180.7179676972448" y2="180.7179676972448" /><line stroke="black" x1="360.0" x2="355.0" y1="180.7179676972448" y2="189.3782217350892" /><line stroke="black" x1="355.0" x2="365.0" y1="189.3782217350892" y2="189.3782217350892" /><line stroke="black" x1="365.0" x2="360.0" y1="189.3782217350892" y2="198.0384757729336" /><line stroke="black" x1="360.0" x2="370.0" y1="198.0384757729336" y2="198.0384757729336" /><line stroke="black" x1="370.0" x2="365.0" y1="198.0384757729336" y2="189.3782217350892" /><line stroke="black" x1="365.0" x2="375.0" y1="189.3782217350892" y2="189.3782217350892" /><line stroke="black" x1="375.0" x2="370.0" y1="189.3782217350892" y2="180.7179676972448" /><line stroke="black" x1="370.0" x2="365.0" y1="180.7179676972448" y2="189.3782217350892" /><line stroke="black" x1="365.0" x2="360.0" y1="189.3782217350892" y2="180.7179676972448" /><line stroke="black" x1="360.0" x2="370.0" y1="180.7179676972448" y2="180.7179676972448" /><line stroke="black" x1="370.0" x2="365.0" y1="180.7179676972448" y2="172.0577136594004" /><line stroke="black" x1="365.0" x2="375.0" y1="172.0577136594004" y2="172.0577136594004" /><line stroke="black" x1="375.0" x2="370.0" y1="172.0577136594004" y2="180.7179676972448" /><line stroke="black" x1="370.0" x2="380.0" y1="180.7179676972448" y2="180.7179676972448" /><line stroke="black" x1="380.0" x2="375.0" y1="180.7179676972448" y2="189.3782217350892" /><line stroke="black" x1="375.0" x2="385.0" y1="189.3782217350892" y2="189.3782217350892" /><line stroke="black" x1="385.0" x2="380.0" y1="189.3782217350892" y2="180.7179676972448" /><line stroke="black" x1="380.0" x2="390.0" y1="180.7179676972448" y2="180.7179676972448" /><line stroke="black" x1="390.0" x2="385.0" y1="180.7179676972448" y2="189.3782217350892" /><line stroke="black" x1="385.0" x2="395.0" y1="189.3782217350892" y2="189.3782217350892" /><line stroke="black" x1="395.0" x2="390.0" y1="189.3782217350892" y2="198.0384757729336" /><line stroke="black" x1="390.0" x2="400.0" y1="198.0384757729336" y2="198.0384757729336" /><line stroke="black" x1="400.0" x2="395.0" y1="198.0384757729336" y2="189.3782217350892" /><line stroke="black" x1="395.0" x2="405.0" y1="189.3782217350892" y2="189.3782217350892" /><line stroke="black" x1="405.0" x2="400.0" y1="189.3782217350892" y2="180.7179676972448" /><line stroke="black" x1="400.0" x2="395.0" y1="180.7179676972448" y2="189.3782217350892" /><line stroke="black" x1="395.0" x2="390.0" y1="189.3782217350892" y2="180.7179676972448" /><line stroke="black" x1="390.0" x2="400.0" y1="180.7179676972448" y2="180.7179676972448" /><line stroke="black" x1="400.0" x2="395.0" y1="180.7179676972448" y2="172.0577136594004" /><line stroke="black" x1="395.0" x2="405.0" y1="172.0577136594004" y2="172.0577136594004" /><line stroke="black" x1="405.0" x2="400.0" y1="172.0577136594004" y2="163.397459621556" /><line stroke="black" x1="400.0" x2="395.0" y1="163.397459621556" y2="172.0577136594004" /><line stroke="black" x1="395.0" x2="390.0" y1="172.0577136594004" y2="163.397459621556" /><line stroke="black" x1="390.0" x2="385.0" y1="163.397459621556" y2="172.0577136594004" /><line stroke="black" x1="385.0" x2="395.0" y1="172.0577136594004" y2="172.0577136594004" /><line stroke="black" x1="395.0" x2="390.0" y1="172.0577136594004" y2="180.7179676972448" /><line stroke="black" x1="390.0" x2="385.0" y1="180.7179676972448" y2="172.0577136594004" /><line stroke="black" x1="385.0" x2="380.0" y1="172.0577136594004" y2="180.7179676972448" /><line stroke="black" x1="380.0" x2="375.0" y1="180.7179676972448" y2="172.0577136594004" /><line stroke="black" x1="375.0" x2="385.0" y1="172.0577136594004" y2="172.0577136594004" /><line stroke="black" x1="385.0" x2="380.0" y1="172.0577136594004" y2="163.397459621556" /><line stroke="black" x1="380.0" x2="390.0" y1="163.397459621556" y2="163.397459621556" /><line stroke="black" x1="390.0" x2="385.0" y1="163.397459621556" y2="154.7372055837116" /><line stroke="black" x1="385.0" x2="380.0" y1="154.7372055837116" y2="163.397459621556" /><line stroke="black" x1="380.0" x2="375.0" y1="163.397459621556" y2="154.7372055837116" /><line stroke="black" x1="375.0" x2="385.0" y1="154.7372055837116" y2="154.7372055837116" /><line stroke="black" x1="385.0" x2="380.0" y1="154.7372055837116" y2="146.07695154586722" /><line stroke="black" x1="380.0" x2="390.0" y1="146.07695154586722" y2="146.07695154586722" /><line stroke="black" x1="390.0" x2="385.0" y1="146.07695154586722" y2="154.7372055837116" /><line stroke="black" x1="385.0" x2="395.0" y1="154.7372055837116" y2="154.7372055837116" /><line stroke="black" x1="395.0" x2="390.0" y1="154.7372055837116" y2="163.397459621556" /><line stroke="black" x1="390.0" x2="400.0" y1="163.397459621556" y2="163.397459621556" /><line stroke="black" x1="400.0" x2="395.0" y1="163.397459621556" y2="154.7372055837116" /><line stroke="black" x1="395.0" x2="405.0" y1="154.7372055837116" y2="154.7372055837116" /><line stroke="black" x1="405.0" x2="400.0" y1="154.7372055837116" y2="163.397459621556" /><line stroke="black" x1="400.0" x2="410.0" y1="163.397459621556" y2="163.397459621556" /><line stroke="black" x1="410.0" x2="405.0" y1="163.397459621556" y2="172.0577136594004" /><line stroke="black" x1="405.0" x2="415.0" y1="172.0577136594004" y2="172.0577136594004" /><line stroke="black" x1="415.0" x2="410.0" y1="172.0577136594004" y2="163.397459621556" /><line stroke="black" x1="410.0" x2="420.0" y1="163.397459621556" y2="163.397459621556" /><line stroke="black" x1="420.0" x2="415.0" y1="163.397459621556" y2="154.7372055837116" /><line stroke="black" x1="415.0" x2="410.0" y1="154.7372055837116" y2="163.397459621556" /><line stroke="black" x1="410.0" x2="405.0" y1="163.397459621556" y2="154.7372055837116" /><line stroke="black" x1="405.0" x2="415.0" y1="154.7372055837116" y2="154.7372055837116" /><line stroke="black" x1="415.0" x2="410.0" y1="154.7372055837116" y2="146.07695154586722" /><line stroke="black" x1="410.0" x2="420.0" y1="146.07695154586722" y2="146.07695154586722" /><line stroke="black" x1="420.0" x2="415.0" y1="146.07695154586722" y2="154.7372055837116" /><line stroke="black" x1="415.0" x2="425.0" y1="154.7372055837116" y2="154.7372055837116" /><line stroke="black" x1="425.0" x2="420.0" y1="154.7372055837116" y2="163.397459621556" /><line stroke="black" x1="420.0" x2="430.0" y1="163.397459621556" y2="163.397459621556" /><line stroke="black" x1="430.0" x2="425.0" y1="163.397459621556" y2="154.7372055837116" /><line stroke="black" x1="425.0" x2="435.0" y1="154.7372055837116" y2="154.7372055837116" /><line stroke="black" x1="435.0" x2="430.0" y1="154.7372055837116" y2="163.397459621556" /><line stroke="black" x1="430.0" x2="440.0" y1="163.397459621556" y2="163.397459621556" /><line stroke="black" x1="440.0" x2="435.0" y1="163.397459621556" y2="172.0577136594004" /><line stroke="black" x1="435.0" x2="445.0" y1="172.0577136594004" y2="172.0577136594004" /><line stroke="black" x1="445.0" x2="440.0" y1="172.0577136594004" y2="163.397459621556" /><line stroke="black" x1="440.0" x2="450.0" y1="163.397459621556" y2="163.397459621556" /><line stroke="black" x1="450.0" x2="445.0" y1="163.397459621556" y2="154.7372055837116" /><line stroke="black" x1="445.0" x2="440.0" y1="154.7372055837116" y2="163.397459621556" /><line stroke="black" x1="440.0" x2="435.0" y1="163.397459621556" y2="154.7372055837116" /><line stroke="black" x1="435.0" x2="445.0" y1="154.7372055837116" y2="154.7372055837116" /><line stroke="black" x1="445.0" x2="440.0" y1="154.7372055837116" y2="146.07695154586722" /><line stroke="black" x1="440.0" x2="450.0" y1="146.07695154586722" y2="146.07695154586722" /><line stroke="black" x1="450.0" x2="445.0" y1="146.07695154586722" y2="137.41669750802282" /><line stroke="black" x1="445.0" x2="440.0" y1="137.41669750802282" y2="146.07695154586722" /><line stroke="black" x1="440.0" x2="435.0" y1="146.07695154586722" y2="137.41669750802282" /><line stroke="black" x1="435.0" x2="430.0" y1="137.41669750802282" y2="146.07695154586722" /><line stroke="black" x1="430.0" x2="440.0" y1="146.07695154586722" y2="146.07695154586722" /><line stroke="black" x1="440.0" x2="435.0" y1="146.07695154586722" y2="154.7372055837116" /><line stroke="black" x1="435.0" x2="430.0" y1="154.7372055837116" y2="146.07695154586722" /><line stroke="black" x1="430.0" x2="425.0" y1="146.07695154586722" y2="154.7372055837116" /><line stroke="black" x1="425.0" x2="420.0" y1="154.7372055837116" y2="146.07695154586722" /><line stroke="black" x1="420.0" x2="430.0" y1="146.07695154586722" y2="146.07695154586722" /><line stroke="black" x1="430.0" x2="425.0" y1="146.07695154586722" y2="137.41669750802282" /><line stroke="black" x1="425.0" x2="435.0" y1="137.41669750802282" y2="137.41669750802282" /><line stroke="black" x1="435.0" x2="430.0" y1="137.41669750802282" y2="128.75644347017843" /><line stroke="black" x1="430.0" x2="425.0" y1="128.75644347017843" y2="137.41669750802282" /><line stroke="black" x1="425.0" x2="420.0" y1="137.41669750802282" y2="128.75644347017843" /><line stroke="black" x1="420.0" x2="430.0" y1="128.75644347017843" y2="128.75644347017843" /><line stroke="black" x1="430.0" x2="425.0" y1="128.75644347017843" y2="120.09618943233404" /><line stroke="black" x1="425.0" x2="435.0" y1="120.09618943233404" y2="120.09618943233404" /><line stroke="black" x1="435.0" x2="430.0" y1="120.09618943233404" y2="111.43593539448966" /><line stroke="black" x1="430.0" x2="425.0" y1="111.43593539448966" y2="120.09618943233404" /><line stroke="black" x1="425.0" x2="420.0" y1="120.09618943233404" y2="111.43593539448966" /><line stroke="black" x1="420.0" x2="415.0" y1="111.43593539448966" y2="120.09618943233404" /><line stroke="black" x1="415.0" x2="425.0" y1="120.09618943233404" y2="120.09618943233404" /><line stroke="black" x1="425.0" x2="420.0" y1="120.09618943233404" y2="128.75644347017843" /><line stroke="black" x1="420.0" x2="415.0" y1="128.75644347017843" y2="120.09618943233404" /><line stroke="black" x1="415.0" x2="410.0" y1="120.09618943233404" y2="128.75644347017843" /><line stroke="black" x1="410.0" x2="405.0" y1="128.75644347017843" y2="120.09618943233404" /><line stroke="black" x1="405.0" x2="400.0" y1="120.09618943233404" y2="128.75644347017843" /><line stroke="black" x1="400.0" x2="410.0" y1="128.75644347017843" y2="128.75644347017843" /><line stroke="black" x1="410.0" x2="405.0" y1="128.75644347017843" y2="137.41669750802282" /><line stroke="black" x1="405.0" x2="415.0" y1="137.41669750802282" y2="137.41669750802282" /><line stroke="black" x1="415.0" x2="410.0" y1="137.41669750802282" y2="128.75644347017843" /><line stroke="black" x1="410.0" x2="420.0" y1="128.75644347017843" y2="128.75644347017843" /><line stroke="black" x1="420.0" x2="415.0" y1="128.75644347017843" y2="137.41669750802282" /><line stroke="black" x1="415.0" x2="425.0" y1="137.41669750802282" y2="137.41669750802282" /><line stroke="black" x1="425.0" x2="420.0" y1="137.41669750802282" y2="146.07695154586722" /><line stroke="black" x1="420.0" x2="415.0" y1="146.07695154586722" y2="137.41669750802282" /><line stroke="black" x1="415.0" x2="410.0" y1="137.41669750802282" y2="146.07695154586722" /><line stroke="black" x1="410.0" x2="405.0" y1="146.07695154586722" y2="137.41669750802282" /><line stroke="black" x1="405.0" x2="400.0" y1="137.41669750802282" y2="146.07695154586722" /><line stroke="black" x1="400.0" x2="410.0" y1="146.07695154586722" y2="146.07695154586722" /><line stroke="black" x1="410.0" x2="405.0" y1="146.07695154586722" y2="154.7372055837116" /><line stroke="black" x1="405.0" x2="400.0" y1="154.7372055837116" y2="146.07695154586722" /><line stroke="black" x1="400.0" x2="395.0" y1="146.07695154586722" y2="154.7372055837116" /><line stroke="black" x1="395.0" x2="390.0" y1="154.7372055837116" y2="146.07695154586722" /><line stroke="black" x1="390.0" x2="400.0" y1="146.07695154586722" y2="146.07695154586722" /><line stroke="black" x1="400.0" x2="395.0" y1="146.07695154586722" y2="137.41669750802282" /><line stroke="black" x1="395.0" x2="405.0" y1="137.41669750802282" y2="137.41669750802282" /><line stroke="black" x1="405.0" x2="400.0" y1="137.41669750802282" y2="128.75644347017843" /><line stroke="black" x1="400.0" x2="395.0" y1="128.75644347017843" y2="137.41669750802282" /><line stroke="black" x1="395.0" x2="390.0" y1="137.41669750802282" y2="128.75644347017843" /><line stroke="black" x1="390.0" x2="400.0" y1="128.75644347017843" y2="128.75644347017843" /><line stroke="black" x1="400.0" x2="395.0" y1="128.75644347017843" y2="120.09618943233404" /><line stroke="black" x1="395.0" x2="405.0" y1="120.09618943233404" y2="120.09618943233404" /><line stroke="black" x1="405.0" x2="400.0" y1="120.09618943233404" y2="111.43593539448966" /><line stroke="black" x1="400.0" x2="395.0" y1="111.43593539448966" y2="120.09618943233404" /><line stroke="black" x1="395.0" x2="390.0" y1="120.09618943233404" y2="111.43593539448966" /><line stroke="black" x1="390.0" x2="385.0" y1="111.43593539448966" y2="120.09618943233404" /><line stroke="black" x1="385.0" x2="395.0" y1="120.09618943233404" y2="120.09618943233404" /><line stroke="black" x1="395.0" x2="390.0" y1="120.09618943233404" y2="128.75644347017843" /><line stroke="black" x1="390.0" x2="385.0" y1="128.75644347017843" y2="120.09618943233404" /><line stroke="black" x1="385.0" x2="380.0" y1="120.09618943233404" y2="128.75644347017843" /><line stroke="black" x1="380.0" x2="375.0" y1="128.75644347017843" y2="120.09618943233404" /><line stroke="black" x1="375.0" x2="385.0" y1="120.09618943233404" y2="120.09618943233404" /><line stroke="black" x1="385.0" x2="380.0" y1="120.09618943233404" y2="111.43593539448966" /><line stroke="black" x1="380.0" x2="390.0" y1="111.43593539448966" y2="111.43593539448966" /><line stroke="black" x1="390.0" x2="385.0" y1="111.43593539448966" y2="102.77568135664528" /><line stroke="black" x1="385.0" x2="380.0" y1="102.77568135664528" y2="111.43593539448966" /><line stroke="black" x1="380.0" x2="375.0" y1="111.43593539448966" y2="102.77568135664528" /><line stroke="black" x1="375.0" x2="385.0" y1="102.77568135664528" y2="102.77568135664528" /><line stroke="black" x1="385.0" x2="380.0" y1="102.77568135664528" y2="94.1154273188009" /><line stroke="black" x1="380.0" x2="390.0" y1="94.1154273188009" y2="94.1154273188009" /><line stroke="black" x1="390.0" x2="385.0" y1="94.1154273188009" y2="102.77568135664528" /><line stroke="black" x1="385.0" x2="395.0" y1="102.77568135664528" y2="102.77568135664528" /><line stroke="black" x1="395.0" x2="390.0" y1="102.77568135664528" y2="111.43593539448966" /><line stroke="black" x1="390.0" x2="400.0" y1="111.43593539448966" y2="111.43593539448966" /><line stroke="black" x1="400.0" x2="395.0" y1="111.43593539448966" y2="102.77568135664528" /><line stroke="black" x1="395.0" x2="405.0" y1="102.77568135664528" y2="102.77568135664528" /><line stroke="black" x1="405.0" x2="400.0" y1="102.77568135664528" y2="111.43593539448966" /><line stroke="black" x1="400.0" x2="410.0" y1="111.43593539448966" y2="111.43593539448966" /><line stroke="black" x1="410.0" x2="405.0" y1="111.43593539448966" y2="120.09618943233404" /><line stroke="black" x1="405.0" x2="415.0" y1="120.09618943233404" y2="120.09618943233404" /><line stroke="black" x1="415.0" x2="410.0" y1="120.09618943233404" y2="111.43593539448966" /><line stroke="black" x1="410.0" x2="420.0" y1="111.43593539448966" y2="111.43593539448966" /><line stroke="black" x1="420.0" x2="415.0" y1="111.43593539448966" y2="102.77568135664528" /><line stroke="black" x1="415.0" x2="410.0" y1="102.77568135664528" y2="111.43593539448966" /><line stroke="black" x1="410.0" x2="405.0" y1="111.43593539448966" y2="102.77568135664528" /><line stroke="black" x1="405.0" x2="415.0" y1="102.77568135664528" y2="102.77568135664528" /><line stroke="black" x1="415.0" x2="410.0" y1="102.77568135664528" y2="94.1154273188009" /><line stroke="black" x1="410.0" x2="420.0" y1="94.1154273188009" y2="94.1154273188009" /><line stroke="black" x1="420.0" x2="415.0" y1="94.1154273188009" y2="102.77568135664528" /><line stroke="black" x1="415.0" x2="425.0" y1="102.77568135664528" y2="102.77568135664528" /><line stroke="black" x1="425.0" x2="420.0" y1="102.77568135664528" y2="111.43593539448966" /><line stroke="black" x1="420.0" x2="430.0" y1="111.43593539448966" y2="111.43593539448966" /><line stroke="black" x1="430.0" x2="425.0" y1="111.43593539448966" y2="102.77568135664528" /><line stroke="black" x1="425.0" x2="435.0" y1="102.77568135664528" y2="102.77568135664528" /><line stroke="black" x1="435.0" x2="430.0" y1="102.77568135664528" y2="111.43593539448966" /><line stroke="black" x1="430.0" x2="440.0" y1="111.43593539448966" y2="111.43593539448966" /><line stroke="black" x1="440.0" x2="435.0" y1="111.43593539448966" y2="120.09618943233404" /><line stroke="black" x1="435.0" x2="445.0" y1="120.09618943233404" y2="120.09618943233404" /><line stroke="black" x1="445.0" x2="440.0" y1="120.09618943233404" y2="111.43593539448966" /><line stroke="black" x1="440.0" x2="450.0" y1="111.43593539448966" y2="111.43593539448966" /><line stroke="black" x1="450.0" x2="445.0" y1="111.43593539448966" y2="102.77568135664528" /><line stroke="black" x1="445.0" x2="440.0" y1="102.77568135664528" y2="111.43593539448966" /><line stroke="black" x1="440.0" x2="435.0" y1="111.43593539448966" y2="102.77568135664528" /><line stroke="black" x1="435.0" x2="445.0" y1="102.77568135664528" y2="102.77568135664528" /><line stroke="black" x1="445.0" x2="440.0" y1="102.77568135664528" y2="94.1154273188009" /><line stroke="black" x1="440.0" x2="450.0" y1="94.1154273188009" y2="94.1154273188009" /><line stroke="black" x1="450.0" x2="445.0" y1="94.1154273188009" y2="85.45517328095652" /><line stroke="black" x1="445.0" x2="440.0" y1="85.45517328095652" y2="94.1154273188009" /><line stroke="black" x1="440.0" x2="435.0" y1="94.1154273188009" y2="85.45517328095652" /><line stroke="black" x1="435.0" x2="430.0" y1="85.45517328095652" y2="94.1154273188009" /><line stroke="black" x1="430.0" x2="440.0" y1="94.1154273188009" y2="94.1154273188009" /><line stroke="black" x1="440.0" x2="435.0" y1="94.1154273188009" y2="102.77568135664528" /><line stroke="black" x1="435.0" x2="430.0" y1="102.77568135664528" y2="94.1154273188009" /><line stroke="black" x1="430.0" x2="425.0" y1="94.1154273188009" y2="102.77568135664528" /><line stroke="black" x1="425.0" x2="420.0" y1="102.77568135664528" y2="94.1154273188009" /><line stroke="black" x1="420.0" x2="430.0" y1="94.1154273188009" y2="94.1154273188009" /><line stroke="black" x1="430.0" x2="425.0" y1="94.1154273188009" y2="85.45517328095652" /><line stroke="black" x1="425.0" x2="435.0" y1="85.45517328095652" y2="85.45517328095652" /><line stroke="black" x1="435.0" x2="430.0" y1="85.45517328095652" y2="76.79491924311213" /><line stroke="black" x1="430.0" x2="425.0" y1="76.79491924311213" y2="85.45517328095652" /><line stroke="black" x1="425.0" x2="420.0" y1="85.45517328095652" y2="76.79491924311213" /><line stroke="black" x1="420.0" x2="430.0" y1="76.79491924311213" y2="76.79491924311213" /><line stroke="black" x1="430.0" x2="425.0" y1="76.79491924311213" y2="68.13466520526775" /><line stroke="black" x1="425.0" x2="435.0" y1="68.13466520526775" y2="68.13466520526775" /><line stroke="black" x1="435.0" x2="430.0" y1="68.13466520526775" y2="76.79491924311213" /><line stroke="black" x1="430.0" x2="440.0" y1="76.79491924311213" y2="76.79491924311213" /><line stroke="black" x1="440.0" x2="435.0" y1="76.79491924311213" y2="85.45517328095652" /><line stroke="black" x1="435.0" x2="445.0" y1="85.45517328095652" y2="85.45517328095652" /><line stroke="black" x1="445.0" x2="440.0" y1="85.45517328095652" y2="76.79491924311213" /><line stroke="black" x1="440.0" x2="450.0" y1="76.79491924311213" y2="76.79491924311213" /><line stroke="black" x1="450.0" x2="445.0" y1="76.79491924311213" y2="85.45517328095652" /><line stroke="black" x1="445.0" x2="455.0" y1="85.45517328095652" y2="85.45517328095652" /><line stroke="black" x1="455.0" x2="450.0" y1="85.45517328095652" y2="94.1154273188009" /><line stroke="black" x1="450.0" x2="460.0" y1="94.1154273188009" y2="94.1154273188009" /><line stroke="black" x1="460.0" x2="455.0" y1="94.1154273188009" y2="85.45517328095652" /><line stroke="black" x1="455.0" x2="465.0" y1="85.45517328095652" y2="85.45517328095652" /><line stroke="black" x1="465.0" x2="460.0" y1="85.45517328095652" y2="76.79491924311213" /><line stroke="black" x1="460.0" x2="455.0" y1="76.79491924311213" y2="85.45517328095652" /><line stroke="black" x1="455.0" x2="450.0" y1="85.45517328095652" y2="76.79491924311213" /><line stroke="black" x1="450.0" x2="460.0" y1="76.79491924311213" y2="76.79491924311213" /><line stroke="black" x1="460.0" x2="455.0" y1="76.79491924311213" y2="68.13466520526775" /><line stroke="black" x1="455.0" x2="465.0" y1="68.13466520526775" y2="68.13466520526775" /><line stroke="black" x1="465.0" x2="460.0" y1="68.13466520526775" y2="76.79491924311213" /><line stroke="black" x1="460.0" x2="470.0" y1="76.79491924311213" y2="76.79491924311213" /><line stroke="black" x1="470.0" x2="465.0" y1="76.79491924311213" y2="85.45517328095652" /><line stroke="black" x1="465.0" x2="475.0" y1="85.45517328095652" y2="85.45517328095652" /><line stroke="black" x1="475.0" x2="470.0" y1="85.45517328095652" y2="76.79491924311213" /><line stroke="black" x1="470.0" x2="480.0" y1="76.79491924311213" y2="76.79491924311213" /><line stroke="black" x1="480.0" x2="475.0" y1="76.79491924311213" y2="85.45517328095652" /><line stroke="black" x1="475.0" x2="485.0" y1="85.45517328095652" y2="85.45517328095652" /><line stroke="black" x1="485.0" x2="480.0" y1="85.45517328095652" y2="94.1154273188009" /><line stroke="black" x1="480.0" x2="475.0" y1="94.1154273188009" y2="85.45517328095652" /><line stroke="black" x1="475.0" x2="470.0" y1="85.45517328095652" y2="94.1154273188009" /><line stroke="black" x1="470.0" x2="465.0" y1="94.1154273188009" y2="85.45517328095652" /><line stroke="black" x1="465.0" x2="460.0" y1="85.45517328095652" y2="94.1154273188009" /><line stroke="black" x1="460.0" x2="470.0" y1="94.1154273188009" y2="94.1154273188009" /><line stroke="black" x1="470.0" x2="465.0" y1="94.1154273188009" y2="102.77568135664528" /><line stroke="black" x1="465.0" x2="460.0" y1="102.77568135664528" y2="94.1154273188009" /><line stroke="black" x1="460.0" x2="455.0" y1="94.1154273188009" y2="102.77568135664528" /><line stroke="black" x1="455.0" x2="450.0" y1="102.77568135664528" y2="94.1154273188009" /><line stroke="black" x1="450.0" x2="445.0" y1="94.1154273188009" y2="102.77568135664528" /><line stroke="black" x1="445.0" x2="455.0" y1="102.77568135664528" y2="102.77568135664528" /><line stroke="black" x1="455.0" x2="450.0" y1="102.77568135664528" y2="111.43593539448966" /><line stroke="black" x1="450.0" x2="460.0" y1="111.43593539448966" y2="111.43593539448966" /><line stroke="black" x1="460.0" x2="455.0" y1="111.43593539448966" y2="102.77568135664528" /><line stroke="black" x1="455.0" x2="465.0" y1="102.77568135664528" y2="102.77568135664528" /><line stroke="black" x1="465.0" x2="460.0" y1="102.77568135664528" y2="111.43593539448966" /><line stroke="black" x1="460.0" x2="470.0" y1="111.43593539448966" y2="111.43593539448966" /><line stroke="black" x1="470.0" x2="465.0" y1="111.43593539448966" y2="120.09618943233404" /><line stroke="black" x1="465.0" x2="460.0" y1="120.09618943233404" y2="111.43593539448966" /><line stroke="black" x1="460.0" x2="455.0" y1="111.43593539448966" y2="120.09618943233404" /><line stroke="black" x1="455.0" x2="450.0" y1="120.09618943233404" y2="111.43593539448966" /><line stroke="black" x1="450.0" x2="445.0" y1="111.43593539448966" y2="120.09618943233404" /><line stroke="black" x1="445.0" x2="455.0" y1="120.09618943233404" y2="120.09618943233404" /><line stroke="black" x1="455.0" x2="450.0" y1="120.09618943233404" y2="128.75644347017843" /><line stroke="black" x1="450.0" x2="445.0" y1="128.75644347017843" y2="120.09618943233404" /><line stroke="black" x1="445.0" x2="440.0" y1="120.09618943233404" y2="128.75644347017843" /><line stroke="black" x1="440.0" x2="435.0" y1="128.75644347017843" y2="120.09618943233404" /><line stroke="black" x1="435.0" x2="430.0" y1="120.09618943233404" y2="128.75644347017843" /><line stroke="black" x1="430.0" x2="440.0" y1="128.75644347017843" y2="128.75644347017843" /><line stroke="black" x1="440.0" x2="435.0" y1="128.75644347017843" y2="137.41669750802282" /><line stroke="black" x1="435.0" x2="445.0" y1="137.41669750802282" y2="137.41669750802282" /><line stroke="black" x1="445.0" x2="440.0" y1="137.41669750802282" y2="128.75644347017843" /><line stroke="black" x1="440.0" x2="450.0" y1="128.75644347017843" y2="128.75644347017843" /><line stroke="black" x1="450.0" x2="445.0" y1="128.75644347017843" y2="137.41669750802282" /><line stroke="black" x1="445.0" x2="455.0" y1="137.41669750802282" y2="137.41669750802282" /><line stroke="black" x1="455.0" x2="450.0" y1="137.41669750802282" y2="146.07695154586722" /><line stroke="black" x1="450.0" x2="460.0" y1="146.07695154586722" y2="146.07695154586722" /><line stroke="black" x1="460.0" x2="455.0" y1="146.07695154586722" y2="137.41669750802282" /><line stroke="black" x1="455.0" x2="465.0" y1="137.41669750802282" y2="137.41669750802282" /><line stroke="black" x1="465.0" x2="460.0" y1="137.41669750802282" y2="128.75644347017843" /><line stroke="black" x1="460.0" x2="455.0" y1="128.75644347017843" y2="137.41669750802282" /><line stroke="black" x1="455.0" x2="450.0" y1="137.41669750802282" y2="128.75644347017843" /><line stroke="black" x1="450.0" x2="460.0" y1="128.75644347017843" y2="128.75644347017843" /><line stroke="black" x1="460.0" x2="455.0" y1="128.75644347017843" y2="120.09618943233404" /><line stroke="black" x1="455.0" x2="465.0" y1="120.09618943233404" y2="120.09618943233404" /><line stroke="black" x1="465.0" x2="460.0" y1="120.09618943233404" y2="128.75644347017843" /><line stroke="black" x1="460.0" x2="470.0" y1="128.75644347017843" y2="128.75644347017843" /><line stroke="black" x1="470.0" x2="465.0" y1="128.75644347017843" y2="137.41669750802282" /><line stroke="black" x1="465.0" x2="475.0" y1="137.41669750802282" y2="137.41669750802282" /><line stroke="black" x1="475.0" x2="470.0" y1="137.41669750802282" y2="128.75644347017843" /><line stroke="black" x1="470.0" x2="480.0" y1="128.75644347017843" y2="128.75644347017843" /><line stroke="black" x1="480.0" x2="475.0" y1="128.75644347017843" y2="137.41669750802282" /><line stroke="black" x1="475.0" x2="485.0" y1="137.41669750802282" y2="137.41669750802282" /><line stroke="black" x1="485.0" x2="480.0" y1="137.41669750802282" y2="146.07695154586722" /><line stroke="black" x1="480.0" x2="475.0" y1="146.07695154586722" y2="137.41669750802282" /><line stroke="black" x1="475.0" x2="470.0" y1="137.41669750802282" y2="146.07695154586722" /><line stroke="black" x1="470.0" x2="465.0" y1="146.07695154586722" y2="137.41669750802282" /><line stroke="black" x1="465.0" x2="460.0" y1="137.41669750802282" y2="146.07695154586722" /><line stroke="black" x1="460.0" x2="470.0" y1="146.07695154586722" y2="146.07695154586722" /><line stroke="black" x1="470.0" x2="465.0" y1="146.07695154586722" y2="154.7372055837116" /><line stroke="black" x1="465.0" x2="460.0" y1="154.7372055837116" y2="146.07695154586722" /><line stroke="black" x1="460.0" x2="455.0" y1="146.07695154586722" y2="154.7372055837116" /><line stroke="black" x1="455.0" x2="450.0" y1="154.7372055837116" y2="146.07695154586722" /><line stroke="black" x1="450.0" x2="445.0" y1="146.07695154586722" y2="154.7372055837116" /><line stroke="black" x1="445.0" x2="455.0" y1="154.7372055837116" y2="154.7372055837116" /><line stroke="black" x1="455.0" x2="450.0" y1="154.7372055837116" y2="163.397459621556" /><line stroke="black" x1="450.0" x2="460.0" y1="163.397459621556" y2="163.397459621556" /><line stroke="black" x1="460.0" x2="455.0" y1="163.397459621556" y2="154.7372055837116" /><line stroke="black" x1="455.0" x2="465.0" y1="154.7372055837116" y2="154.7372055837116" /><line stroke="black" x1="465.0" x2="460.0" y1="154.7372055837116" y2="163.397459621556" /><line stroke="black" x1="460.0" x2="470.0" y1="163.397459621556" y2="163.397459621556" /><line stroke="black" x1="470.0" x2="465.0" y1="163.397459621556" y2="172.0577136594004" /><line stroke="black" x1="465.0" x2="460.0" y1="172.0577136594004" y2="163.397459621556" /><line stroke="black" x1="460.0" x2="455.0" y1="163.397459621556" y2="172.0577136594004" /><line stroke="black" x1="455.0" x2="450.0" y1="172.0577136594004" y2="163.397459621556" /><line stroke="black" x1="450.0" x2="445.0" y1="163.397459621556" y2="172.0577136594004" /><line stroke="black" x1="445.0" x2="455.0" y1="172.0577136594004" y2="172.0577136594004" /><line stroke="black" x1="455.0" x2="450.0" y1="172.0577136594004" y2="180.7179676972448" /><line stroke="black" x1="450.0" x2="445.0" y1="180.7179676972448" y2="172.0577136594004" /><line stroke="black" x1="445.0" x2="440.0" y1="172.0577136594004" y2="180.7179676972448" /><line stroke="black" x1="440.0" x2="435.0" y1="180.7179676972448" y2="172.0577136594004" /><line stroke="black" x1="435.0" x2="430.0" y1="172.0577136594004" y2="180.7179676972448" /><line stroke="black" x1="430.0" x2="440.0" y1="180.7179676972448" y2="180.7179676972448" /><line stroke="black" x1="440.0" x2="435.0" y1="180.7179676972448" y2="189.3782217350892" /><line stroke="black" x1="435.0" x2="445.0" y1="189.3782217350892" y2="189.3782217350892" /><line stroke="black" x1="445.0" x2="440.0" y1="189.3782217350892" y2="180.7179676972448" /><line stroke="black" x1="440.0" x2="450.0" y1="180.7179676972448" y2="180.7179676972448" /><line stroke="black" x1="450.0" x2="445.0" y1="180.7179676972448" y2="189.3782217350892" /><line stroke="black" x1="445.0" x2="455.0" y1="189.3782217350892" y2="189.3782217350892" /><line stroke="black" x1="455.0" x2="450.0" y1="189.3782217350892" y2="198.0384757729336" /><line stroke="black" x1="450.0" x2="460.0" y1="198.0384757729336" y2="198.0384757729336" /><line stroke="black" x1="460.0" x2="455.0" y1="198.0384757729336" y2="189.3782217350892" /><line stroke="black" x1="455.0" x2="465.0" y1="189.3782217350892" y2="189.3782217350892" /><line stroke="black" x1="465.0" x2="460.0" y1="189.3782217350892" y2="180.7179676972448" /><line stroke="black" x1="460.0" x2="455.0" y1="180.7179676972448" y2="189.3782217350892" /><line stroke="black" x1="455.0" x2="450.0" y1="189.3782217350892" y2="180.7179676972448" /><line stroke="black" x1="450.0" x2="460.0" y1="180.7179676972448" y2="180.7179676972448" /><line stroke="black" x1="460.0" x2="455.0" y1="180.7179676972448" y2="172.0577136594004" /><line stroke="black" x1="455.0" x2="465.0" y1="172.0577136594004" y2="172.0577136594004" /><line stroke="black" x1="465.0" x2="460.0" y1="172.0577136594004" y2="180.7179676972448" /><line stroke="black" x1="460.0" x2="470.0" y1="180.7179676972448" y2="180.7179676972448" /><line stroke="black" x1="470.0" x2="465.0" y1="180.7179676972448" y2="189.3782217350892" /><line stroke="black" x1="465.0" x2="475.0" y1="189.3782217350892" y2="189.3782217350892" /><line stroke="black" x1="475.0" x2="470.0" y1="189.3782217350892" y2="180.7179676972448" /><line stroke="black" x1="470.0" x2="480.0" y1="180.7179676972448" y2="180.7179676972448" /><line stroke="black" x1="480.0" x2="475.0" y1="180.7179676972448" y2="189.3782217350892" /><line stroke="black" x1="475.0" x2="485.0" y1="189.3782217350892" y2="189.3782217350892" /><line stroke="black" x1="485.0" x2="480.0" y1="189.3782217350892" y2="198.0384757729336" /><line stroke="black" x1="480.0" x2="490.0" y1="198.0384757729336" y2="198.0384757729336" /><line stroke="black" x1="490.0" x2="485.0" y1="198.0384757729336" y2="189.3782217350892" /><line stroke="black" x1="485.0" x2="495.0" y1="189.3782217350892" y2="189.3782217350892" /><line stroke="black" x1="495.0" x2="490.0" y1="189.3782217350892" y2="180.7179676972448" /><line stroke="black" x1="490.0" x2="485.0" y1="180.7179676972448" y2="189.3782217350892" /><line stroke="black" x1="485.0" x2="480.0" y1="189.3782217350892" y2="180.7179676972448" /><line stroke="black" x1="480.0" x2="490.0" y1="180.7179676972448" y2="180.7179676972448" /><line stroke="black" x1="490.0" x2="485.0" y1="180.7179676972448" y2="172.0577136594004" /><line stroke="black" x1="485.0" x2="495.0" y1="172.0577136594004" y2="172.0577136594004" /><line stroke="black" x1="495.0" x2="490.0" y1="172.0577136594004" y2="163.397459621556" /><line stroke="black" x1="490.0" x2="485.0" y1="163.397459621556" y2="172.0577136594004" /><line stroke="black" x1="485.0" x2="480.0" y1="172.0577136594004" y2="163.397459621556" /><line stroke="black" x1="480.0" x2="475.0" y1="163.397459621556" y2="172.0577136594004" /><line stroke="black" x1="475.0" x2="485.0" y1="172.0577136594004" y2="172.0577136594004" /><line stroke="black" x1="485.0" x2="480.0" y1="172.0577136594004" y2="180.7179676972448" /><line stroke="black" x1="480.0" x2="475.0" y1="180.7179676972448" y2="172.0577136594004" /><line stroke="black" x1="475.0" x2="470.0" y1="172.0577136594004" y2="180.7179676972448" /><line stroke="black" x1="470.0" x2="465.0" y1="180.7179676972448" y2="172.0577136594004" /><line stroke="black" x1="465.0" x2="475.0" y1="172.0577136594004" y2="172.0577136594004" /><line stroke="black" x1="475.0" x2="470.0" y1="172.0577136594004" y2="163.397459621556" /><line stroke="black" x1="470.0" x2="480.0" y1="163.397459621556" y2="163.397459621556" /><line stroke="black" x1="480.0" x2="475.0" y1="163.397459621556" y2="154.7372055837116" /><line stroke="black" x1="475.0" x2="470.0" y1="154.7372055837116" y2="163.397459621556" /><line stroke="black" x1="470.0" x2="465.0" y1="163.397459621556" y2="154.7372055837116" /><line stroke="black" x1="465.0" x2="475.0" y1="154.7372055837116" y2="154.7372055837116" /><line stroke="black" x1="475.0" x2="470.0" y1="154.7372055837116" y2="146.07695154586722" /><line stroke="black" x1="470.0" x2="480.0" y1="146.07695154586722" y2="146.07695154586722" /><line stroke="black" x1="480.0" x2="475.0" y1="146.07695154586722" y2="154.7372055837116" /><line stroke="black" x1="475.0" x2="485.0" y1="154.7372055837116" y2="154.7372055837116" /><line stroke="black" x1="485.0" x2="480.0" y1="154.7372055837116" y2="163.397459621556" /><line stroke="black" x1="480.0" x2="490.0" y1="163.397459621556" y2="163.397459621556" /><line stroke="black" x1="490.0" x2="485.0" y1="163.397459621556" y2="154.7372055837116" /><line stroke="black" x1="485.0" x2="495.0" y1="154.7372055837116" y2="154.7372055837116" /><line stroke="black" x1="495.0" x2="490.0" y1="154.7372055837116" y2="163.397459621556" /><line stroke="black" x1="490.0" x2="500.0" y1="163.397459621556" y2="163.397459621556" /><line stroke="black" x1="500.0" x2="495.0" y1="163.397459621556" y2="172.0577136594004" /><line stroke="black" x1="495.0" x2="505.0" y1="172.0577136594004" y2="172.0577136594004" /><line stroke="black" x1="505.0" x2="500.0" y1="172.0577136594004" y2="163.397459621556" /><line stroke="black" x1="500.0" x2="510.0" y1="163.397459621556" y2="163.397459621556" /><line stroke="black" x1="510.0" x2="505.0" y1="163.397459621556" y2="154.7372055837116" /><line stroke="black" x1="505.0" x2="500.0" y1="154.7372055837116" y2="163.397459621556" /><line stroke="black" x1="500.0" x2="495.0" y1="163.397459621556" y2="154.7372055837116" /><line stroke="black" x1="495.0" x2="505.0" y1="154.7372055837116" y2="154.7372055837116" /><line stroke="black" x1="505.0" x2="500.0" y1="154.7372055837116" y2="146.07695154586722" /><line stroke="black" x1="500.0" x2="510.0" y1="146.07695154586722" y2="146.07695154586722" /><line stroke="black" x1="510.0" x2="505.0" y1="146.07695154586722" y2="154.7372055837116" /><line stroke="black" x1="505.0" x2="515.0" y1="154.7372055837116" y2="154.7372055837116" /><line stroke="black" x1="515.0" x2="510.0" y1="154.7372055837116" y2="163.397459621556" /><line stroke="black" x1="510.0" x2="520.0" y1="163.397459621556" y2="163.397459621556" /><line stroke="black" x1="520.0" x2="515.0" y1="163.397459621556" y2="154.7372055837116" /><line stroke="black" x1="515.0" x2="525.0" y1="154.7372055837116" y2="154.7372055837116" /><line stroke="black" x1="525.0" x2="520.0" y1="154.7372055837116" y2="163.397459621556" /><line stroke="black" x1="520.0" x2="530.0" y1="163.397459621556" y2="163.397459621556" /><line stroke="black" x1="530.0" x2="525.0" y1="163.397459621556" y2="172.0577136594004" /><line stroke="black" x1="525.0" x2="520.0" y1="172.0577136594004" y2="163.397459621556" /><line stroke="black" x1="520.0" x2="515.0" y1="163.397459621556" y2="172.0577136594004" /><line stroke="black" x1="515.0" x2="510.0" y1="172.0577136594004" y2="163.397459621556" /><line stroke="black" x1="510.0" x2="505.0" y1="163.397459621556" y2="172.0577136594004" /><line stroke="black" x1="505.0" x2="515.0" y1="172.0577136594004" y2="172.0577136594004" /><line stroke="black" x1="515.0" x2="510.0" y1="172.0577136594004" y2="180.7179676972448" /><line stroke="black" x1="510.0" x2="505.0" y1="180.7179676972448" y2="172.0577136594004" /><line stroke="black" x1="505.0" x2="500.0" y1="172.0577136594004" y2="180.7179676972448" /><line stroke="black" x1="500.0" x2="495.0" y1="180.7179676972448" y2="172.0577136594004" /><line stroke="black" x1="495.0" x2="490.0" y1="172.0577136594004" y2="180.7179676972448" /><line stroke="black" x1="490.0" x2="500.0" y1="180.7179676972448" y2="180.7179676972448" /><line stroke="black" x1="500.0" x2="495.0" y1="180.7179676972448" y2="189.3782217350892" /><line stroke="black" x1="495.0" x2="505.0" y1="189.3782217350892" y2="189.3782217350892" /><line stroke="black" x1="505.0" x2="500.0" y1="189.3782217350892" y2="180.7179676972448" /><line stroke="black" x1="500.0" x2="510.0" y1="180.7179676972448" y2="180.7179676972448" /><line stroke="black" x1="510.0" x2="505.0" y1="180.7179676972448" y2="189.3782217350892" /><line stroke="black" x1="505.0" x2="515.0" y1="189.3782217350892" y2="189.3782217350892" /><line stroke="black" x1="515.0" x2="510.0" y1="189.3782217350892" y2="198.0384757729336" /><line stroke="black" x1="510.0" x2="505.0" y1="198.0384757729336" y2="189.3782217350892" /><line stroke="black" x1="505.0" x2="500.0" y1="189.3782217350892" y2="198.0384757729336" /><line stroke="black" x1="500.0" x2="495.0" y1="198.0384757729336" y2="189.3782217350892" /><line stroke="black" x1="495.0" x2="490.0" y1="189.3782217350892" y2="198.0384757729336" /><line stroke="black" x1="490.0" x2="500.0" y1="198.0384757729336" y2="198.0384757729336" /><line stroke="black" x1="500.0" x2="495.0" y1="198.0384757729336" y2="206.698729810778" /><line stroke="black" x1="495.0" x2="490.0" y1="206.698729810778" y2="198.0384757729336" /><line stroke="black" x1="490.0" x2="485.0" y1="198.0384757729336" y2="206.698729810778" /><line stroke="black" x1="485.0" x2="480.0" y1="206.698729810778" y2="198.0384757729336" /><line stroke="black" x1="480.0" x2="475.0" y1="198.0384757729336" y2="206.698729810778" /><line stroke="black" x1="475.0" x2="485.0" y1="206.698729810778" y2="206.698729810778" /><line stroke="black" x1="485.0" x2="480.0" y1="206.698729810778" y2="215.3589838486224" /><line stroke="black" x1="480.0" x2="490.0" y1="215.3589838486224" y2="215.3589838486224" /><line stroke="black" x1="490.0" x2="485.0" y1="215.3589838486224" y2="206.698729810778" /><line stroke="black" x1="485.0" x2="495.0" y1="206.698729810778" y2="206.698729810778" /><line stroke="black" x1="495.0" x2="490.0" y1="206.698729810778" y2="215.3589838486224" /><line stroke="black" x1="490.0" x2="500.0" y1="215.3589838486224" y2="215.3589838486224" /><line stroke="black" x1="500.0" x2="495.0" y1="215.3589838486224" y2="224.01923788646678" /><line stroke="black" x1="495.0" x2="505.0" y1="224.01923788646678" y2="224.01923788646678" /><line stroke="black" x1="505.0" x2="500.0" y1="224.01923788646678" y2="215.3589838486224" /><line stroke="black" x1="500.0" x2="510.0" y1="215.3589838486224" y2="215.3589838486224" /><line stroke="black" x1="510.0" x2="505.0" y1="215.3589838486224" y2="206.698729810778" /><line stroke="black" x1="505.0" x2="500.0" y1="206.698729810778" y2="215.3589838486224" /><line stroke="black" x1="500.0" x2="495.0" y1="215.3589838486224" y2="206.698729810778" /><line stroke="black" x1="495.0" x2="505.0" y1="206.698729810778" y2="206.698729810778" /><line stroke="black" x1="505.0" x2="500.0" y1="206.698729810778" y2="198.0384757729336" /><line stroke="black" x1="500.0" x2="510.0" y1="198.0384757729336" y2="198.0384757729336" /><line stroke="black" x1="510.0" x2="505.0" y1="198.0384757729336" y2="206.698729810778" /><line stroke="black" x1="505.0" x2="515.0" y1="206.698729810778" y2="206.698729810778" /><line stroke="black" x1="515.0" x2="510.0" y1="206.698729810778" y2="215.3589838486224" /><line stroke="black" x1="510.0" x2="520.0" y1="215.3589838486224" y2="215.3589838486224" /><line stroke="black" x1="520.0" x2="515.0" y1="215.3589838486224" y2="206.698729810778" /><line stroke="black" x1="515.0" x2="525.0" y1="206.698729810778" y2="206.698729810778" /><line stroke="black" x1="525.0" x2="520.0" y1="206.698729810778" y2="215.3589838486224" /><line stroke="black" x1="520.0" x2="530.0" y1="215.3589838486224" y2="215.3589838486224" /><line stroke="black" x1="530.0" x2="525.0" y1="215.3589838486224" y2="224.01923788646678" /><line stroke="black" x1="525.0" x2="520.0" y1="224.01923788646678" y2="215.3589838486224" /><line stroke="black" x1="520.0" x2="515.0" y1="215.3589838486224" y2="224.01923788646678" /><line stroke="black" x1="515.0" x2="510.0" y1="224.01923788646678" y2="215.3589838486224" /><line stroke="black" x1="510.0" x2="505.0" y1="215.3589838486224" y2="224.01923788646678" /><line stroke="black" x1="505.0" x2="515.0" y1="224.01923788646678" y2="224.01923788646678" /><line stroke="black" x1="515.0" x2="510.0" y1="224.01923788646678" y2="232.67949192431118" /><line stroke="black" x1="510.0" x2="505.0" y1="232.67949192431118" y2="224.01923788646678" /><line stroke="black" x1="505.0" x2="500.0" y1="224.01923788646678" y2="232.67949192431118" /><line stroke="black" x1="500.0" x2="495.0" y1="232.67949192431118" y2="224.01923788646678" /><line stroke="black" x1="495.0" x2="490.0" y1="224.01923788646678" y2="232.67949192431118" /><line stroke="black" x1="490.0" x2="500.0" y1="232.67949192431118" y2="232.67949192431118" /><line stroke="black" x1="500.0" x2="495.0" y1="232.67949192431118" y2="241.33974596215558" /><line stroke="black" x1="495.0" x2="505.0" y1="241.33974596215558" y2="241.33974596215558" /><line stroke="black" x1="505.0" x2="500.0" y1="241.33974596215558" y2="232.67949192431118" /><line stroke="black" x1="500.0" x2="510.0" y1="232.67949192431118" y2="232.67949192431118" /><line stroke="black" x1="510.0" x2="505.0" y1="232.67949192431118" y2="241.33974596215558" /><line stroke="black" x1="505.0" x2="515.0" y1="241.33974596215558" y2="241.33974596215558" /><line stroke="black" x1="515.0" x2="510.0" y1="241.33974596215558" y2="249.99999999999997" /><line stroke="black" x1="510.0" x2="505.0" y1="249.99999999999997" y2="241.33974596215558" /><line stroke="black" x1="505.0" x2="500.0" y1="241.33974596215558" y2="249.99999999999997" /><line stroke="black" x1="500.0" x2="495.0" y1="249.99999999999997" y2="241.33974596215558" /><line stroke="black" x1="495.0" x2="490.0" y1="241.33974596215558" y2="249.99999999999997" /><line stroke="black" x1="490.0" x2="500.0" y1="249.99999999999997" y2="249.99999999999997" /><line stroke="black" x1="500.0" x2="495.0" y1="249.99999999999997" y2="258.66025403784437" /><line stroke="black" x1="495.0" x2="490.0" y1="258.66025403784437" y2="249.99999999999997" /><line stroke="black" x1="490.0" x2="485.0" y1="249.99999999999997" y2="258.66025403784437" /><line stroke="black" x1="485.0" x2="480.0" y1="258.66025403784437" y2="249.99999999999997" /></svg>