<?xml version="1.0" encoding="utf-8" ?>
<svg baseProfile="full" height="110" version="1.1" width="370" xmlns="http://www.w3.org/2000/svg" xmlns:ev="http://www.w3.org/2001/xml-events" xmlns:xlink="http://www.w3.org/1999/xlink"><defs /><line stroke="black" x1="20" x2="320.0" y1="10" y2="10.0" /><line stroke="black" x1="20" x2="120.0" y1="30" y2="30.0" /><line stroke="black" x1="220.0" x2="320.0" y1="30.0" y2="30.0" /><line stroke="black" x1="20" x2="53.333333333333336" y1="50" y2="50.0" /><line stroke="black" x1="86.66666666666667" x2="120.0" y1="50.0" y2="50.0" /><line stroke="black" x1="220.00000000000003" x2="253.33333333333337" y1="50.0" y2="50.0" /><line stroke="black" x1="286.6666666666667" x2="320.0" y1="50.0" y2="50.0" /><line stroke="black" x1="20" x2="31.111111111111114" y1="70" y2="70.0" /><line stroke="black" x1="42.22222222222223" x2="53.33333333333334" y1="70.0" y2="70.0" /><line stroke="black" x1="86.66666666666669" x2="97.7777777777778" y1="70.0" y2="70.0" /><line stroke="black" x1="108.88888888888891" x2="120.00000000000003" y1="70.0" y2="70.0" /><line stroke="black" x1="220.00000000000006" x2="231.11111111111117" y1="70.0" y2="70.0" /><line stroke="black" x1="242.22222222222229" x2="253.3333333333334" y1="70.0" y2="70.0" /><line stroke="black" x1="286.6666666666667" x2="297.77777777777777" y1="70.0" y2="70.0" /><line stroke="black" x1="308.88888888888886" x2="319.99999999999994" y1="70.0" y2="70.0" /><line stroke="black" x1="20" x2="23.703703703703702" y1="90" y2="90.0" /><line stroke="black" x1="27.407407407407405" x2="31.111111111111107" y1="90.0" y2="90.0" /><line stroke="black" x1="42.222222222222214" x2="45.92592592592592" y1="90.0" y2="90.0" /><line stroke="black" x1="49.62962962962962" x2="53.33333333333332" y1="90.0" y2="90.0" /><line stroke="black" x1="86.66666666666669" x2="90.3703703703704" y1="90.0" y2="90.0" /><line stroke="black" x1="94.0740740740741" x2="97.77777777777781" y1="90.0" y2="90.0" /><line stroke="black" x1="108.88888888888894" x2="112.59259259259265" y1="90.0" y2="90.0" /><line stroke="black" x1="116.29629629629636" x2="120.00000000000007" y1="90.0" y2="90.0" /><line stroke="black" x1="219.9999999999999" x2="223.70370370370358" y1="90.0" y2="90.0" /><line stroke="black" x1="227.40740740740728" x2="231.11111111111097" y1="90.0" y2="90.0" /><line stroke="black" x1="242.22222222222206" x2="245.92592592592575" y1="90.0" y2="90.0" /><line stroke="black" x1="249.62962962962945" x2="253.33333333333314" y1="90.0" y2="90.0" /><line stroke="black" x1="286.6666666666664" x2="290.3703703703701" y1="90.0" y2="90.0" /><line stroke="black" x1="294.0740740740738" x2="297.7777777777775" y1="90.0" y2="90.0" /><line stroke="black" x1="308.8888888888886" x2="312.59259259259227" y1="90.0" y2="90.0" /><line stroke="black" x1="316.29629629629596" x2="319.99999999999966" y1="90.0" y2="90.0" /><line stroke="black" x1="20" x2="21.23456790123457" y1="110" y2="110.0" /><line stroke="black" x1="22.46913580246914" x2="23.70370370370371" y1="110.0" y2="110.0" /><line stroke="black" x1="27.40740740740742" x2="28.64197530864199" y1="110.0" y2="110.0" /><line stroke="black" x1="29.87654320987656" x2="31.11111111111113" y1="110.0" y2="110.0" /><line stroke="black" x1="42.22222222222226" x2="43.45679012345683" y1="110.0" y2="110.0" /><line stroke="black" x1="44.6913580246914" x2="45.92592592592597" y1="110.0" y2="110.0" /><line stroke="black" x1="49.629629629629676" x2="50.864197530864246" y1="110.0" y2="110.0" /><line stroke="black" x1="52.098765432098816" x2="53.333333333333385" y1="110.0" y2="110.0" /><line stroke="black" x1="86.66666666666677" x2="87.90123456790134" y1="110.0" y2="110.0" /><line stroke="black" x1="89.13580246913591" x2="90.37037037037048" y1="110.0" y2="110.0" /><line stroke="black" x1="94.07407407407419" x2="95.30864197530876" y1="110.0" y2="110.0" /><line stroke="black" x1="96.54320987654333" x2="97.7777777777779" y1="110.0" y2="110.0" /><line stroke="black" x1="108.88888888888903" x2="110.1234567901236" y1="110.0" y2="110.0" /><line stroke="black" x1="111.35802469135817" x2="112.59259259259274" y1="110.0" y2="110.0" /><line stroke="black" x1="116.29629629629645" x2="117.53086419753102" y1="110.0" y2="110.0" /><line stroke="black" x1="118.76543209876559" x2="120.00000000000016" y1="110.0" y2="110.0" /><line stroke="black" x1="219.99999999999926" x2="221.23456790123382" y1="110.0" y2="110.0" /><line stroke="black" x1="222.46913580246837" x2="223.70370370370293" y1="110.0" y2="110.0" /><line stroke="black" x1="227.4074074074066" x2="228.64197530864115" y1="110.0" y2="110.0" /><line stroke="black" x1="229.8765432098757" x2="231.11111111111026" y1="110.0" y2="110.0" /><line stroke="black" x1="242.22222222222126" x2="243.45679012345582" y1="110.0" y2="110.0" /><line stroke="black" x1="244.69135802469037" x2="245.92592592592493" y1="110.0" y2="110.0" /><line stroke="black" x1="249.6296296296286" x2="250.86419753086315" y1="110.0" y2="110.0" /><line stroke="black" x1="252.0987654320977" x2="253.33333333333226" y1="110.0" y2="110.0" /><line stroke="black" x1="286.66666666666595" x2="287.90123456790053" y1="110.0" y2="110.0" /><line stroke="black" x1="289.1358024691351" x2="290.3703703703697" y1="110.0" y2="110.0" /><line stroke="black" x1="294.07407407407345" x2="295.30864197530803" y1="110.0" y2="110.0" /><line stroke="black" x1="296.5432098765426" x2="297.7777777777772" y1="110.0" y2="110.0" /><line stroke="black" x1="308.88888888888846" x2="310.12345679012304" y1="110.0" y2="110.0" /><line stroke="black" x1="311.3580246913576" x2="312.5925925925922" y1="110.0" y2="110.0" /><line stroke="black" x1="316.29629629629596" x2="317.53086419753055" y1="110.0" y2="110.0" /><line stroke="black" x1="318.76543209876513" x2="319.9999999999997" y1="110.0" y2="110.0" /><line stroke="black" x1="20" x2="20.411522633744855" y1="130" y2="130.0" /><line stroke="black" x1="20.82304526748971" x2="21.234567901234566" y1="130.0" y2="130.0" /><line stroke="black" x1="22.469135802469133" x2="22.880658436213988" y1="130.0" y2="130.0" /><line stroke="black" x1="23.292181069958843" x2="23.7037037037037" y1="130.0" y2="130.0" /><line stroke="black" x1="27.407407407407398" x2="27.818930041152253" y1="130.0" y2="130.0" /><line stroke="black" x1="28.23045267489711" x2="28.641975308641964" y1="130.0" y2="130.0" /><line stroke="black" x1="29.87654320987653" x2="30.288065843621386" y1="130.0" y2="130.0" /><line stroke="black" x1="30.69958847736624" x2="31.111111111111097" y1="130.0" y2="130.0" /><line stroke="black" x1="42.22222222222228" x2="42.63374485596714" y1="130.0" y2="130.0" /><line stroke="black" x1="43.045267489711996" x2="43.456790123456855" y1="130.0" y2="130.0" /><line stroke="black" x1="44.69135802469143" x2="45.10288065843629" y1="130.0" y2="130.0" /><line stroke="black" x1="45.51440329218115" x2="45.92592592592601" y1="130.0" y2="130.0" /><line stroke="black" x1="49.62962962962974" x2="50.0411522633746" y1="130.0" y2="130.0" /><line stroke="black" x1="50.45267489711946" x2="50.86419753086432" y1="130.0" y2="130.0" /><line stroke="black" x1="52.098765432098894" x2="52.51028806584375" y1="130.0" y2="130.0" /><line stroke="black" x1="52.92181069958861" x2="53.33333333333347" y1="130.0" y2="130.0" /><line stroke="black" x1="86.66666666666666" x2="87.07818930041151" y1="130.0" y2="130.0" /><line stroke="black" x1="87.48971193415636" x2="87.90123456790121" y1="130.0" y2="130.0" /><line stroke="black" x1="89.13580246913577" x2="89.54732510288062" y1="130.0" y2="130.0" /><line stroke="black" x1="89.95884773662547" x2="90.37037037037032" y1="130.0" y2="130.0" /><line stroke="black" x1="94.07407407407399" x2="94.48559670781884" y1="130.0" y2="130.0" /><line stroke="black" x1="94.8971193415637" x2="95.30864197530855" y1="130.0" y2="130.0" /><line stroke="black" x1="96.5432098765431" x2="96.95473251028795" y1="130.0" y2="130.0" /><line stroke="black" x1="97.3662551440328" x2="97.77777777777766" y1="130.0" y2="130.0" /><line stroke="black" x1="108.88888888888866" x2="109.30041152263351" y1="130.0" y2="130.0" /><line stroke="black" x1="109.71193415637836" x2="110.12345679012321" y1="130.0" y2="130.0" /><line stroke="black" x1="111.35802469135777" x2="111.76954732510262" y1="130.0" y2="130.0" /><line stroke="black" x1="112.18106995884747" x2="112.59259259259233" y1="130.0" y2="130.0" /><line stroke="black" x1="116.29629629629599" x2="116.70781893004084" y1="130.0" y2="130.0" /><line stroke="black" x1="117.1193415637857" x2="117.53086419753055" y1="130.0" y2="130.0" /><line stroke="black" x1="118.7654320987651" x2="119.17695473250996" y1="130.0" y2="130.0" /><line stroke="black" x1="119.5884773662548" x2="119.99999999999966" y1="130.0" y2="130.0" /><line stroke="black" x1="219.99999999999866" x2="220.41152263374352" y1="130.0" y2="130.0" /><line stroke="black" x1="220.82304526748837" x2="221.23456790123322" y1="130.0" y2="130.0" /><line stroke="black" x1="222.46913580246778" x2="222.88065843621263" y1="130.0" y2="130.0" /><line stroke="black" x1="223.29218106995748" x2="223.70370370370233" y1="130.0" y2="130.0" /><line stroke="black" x1="227.407407407406" x2="227.81893004115085" y1="130.0" y2="130.0" /><line stroke="black" x1="228.2304526748957" x2="228.64197530864055" y1="130.0" y2="130.0" /><line stroke="black" x1="229.8765432098751" x2="230.28806584361996" y1="130.0" y2="130.0" /><line stroke="black" x1="230.6995884773648" x2="231.11111111110966" y1="130.0" y2="130.0" /><line stroke="black" x1="242.22222222222067" x2="242.63374485596552" y1="130.0" y2="130.0" /><line stroke="black" x1="243.04526748971037" x2="243.45679012345522" y1="130.0" y2="130.0" /><line stroke="black" x1="244.69135802468978" x2="245.10288065843463" y1="130.0" y2="130.0" /><line stroke="black" x1="245.51440329217948" x2="245.92592592592433" y1="130.0" y2="130.0" /><line stroke="black" x1="249.629629629628" x2="250.04115226337285" y1="130.0" y2="130.0" /><line stroke="black" x1="250.4526748971177" x2="250.86419753086255" y1="130.0" y2="130.0" /><line stroke="black" x1="252.0987654320971" x2="252.51028806584196" y1="130.0" y2="130.0" /><line stroke="black" x1="252.9218106995868" x2="253.33333333333167" y1="130.0" y2="130.0" /><line stroke="black" x1="286.6666666666668" x2="287.0781893004117" y1="130.0" y2="130.0" /><line stroke="black" x1="287.48971193415656" x2="287.90123456790144" y1="130.0" y2="130.0" /><line stroke="black" x1="289.1358024691361" x2="289.54732510288096" y1="130.0" y2="130.0" /><line stroke="black" x1="289.95884773662584" x2="290.3703703703707" y1="130.0" y2="130.0" /><line stroke="black" x1="294.07407407407464" x2="294.4855967078195" y1="130.0" y2="130.0" /><line stroke="black" x1="294.8971193415644" x2="295.3086419753093" y1="130.0" y2="130.0" /><line stroke="black" x1="296.5432098765439" x2="296.9547325102888" y1="130.0" y2="130.0" /><line stroke="black" x1="297.3662551440337" x2="297.77777777777857" y1="130.0" y2="130.0" /><line stroke="black" x1="308.88888888889034" x2="309.3004115226352" y1="130.0" y2="130.0" /><line stroke="black" x1="309.7119341563801" x2="310.123456790125" y1="130.0" y2="130.0" /><line stroke="black" x1="311.3580246913596" x2="311.7695473251045" y1="130.0" y2="130.0" /><line stroke="black" x1="312.1810699588494" x2="312.59259259259426" y1="130.0" y2="130.0" /><line stroke="black" x1="316.2962962962982" x2="316.70781893004306" y1="130.0" y2="130.0" /><line stroke="black" x1="317.11934156378794" x2="317.5308641975328" y1="130.0" y2="130.0" /><line stroke="black" x1="318.76543209876746" x2="319.17695473251234" y1="130.0" y2="130.0" /><line stroke="black" x1="319.5884773662572" x2="320.0000000000021" y1="130.0" y2="130.0" /></svg>