<?xml version="1.0" encoding="utf-8" ?>
<svg baseProfile="full" height="415" version="1.1" width="415" xmlns="http://www.w3.org/2000/svg" xmlns:ev="http://www.w3.org/2001/xml-events" xmlns:xlink="http://www.w3.org/1999/xlink"><defs /><line stroke="black" x1="6.777592232020013" x2="44.54302083725584" y1="1.3056763762521486" y2="5.059117857192246" /><line stroke="black" x1="6.777592232020013" x2="2.415683266390065" y1="1.3056763762521486" y2="48.68004581911396" /><line stroke="black" x1="6.777592232020013" x2="48.17189533944274" y1="1.3056763762521486" y2="43.86600716236182" /><line stroke="black" x1="6.777592232020013" x2="162.4014364865122" y1="1.3056763762521486" y2="1.0513004850456733" /><line stroke="black" x1="2.415683266390065" x2="48.17189533944274" y1="48.68004581911396" y2="43.86600716236182" /><line stroke="black" x1="2.415683266390065" x2="41.610968346466365" y1="48.68004581911396" y2="88.5583836377785" /><line stroke="black" x1="2.415683266390065" x2="2.3296601583502596" y1="48.68004581911396" y2="120.47485144831144" /><line stroke="black" x1="2.3296601583502596" x2="6.909156843204849" y1="120.47485144831144" y2="162.60146763560712" /><line stroke="black" x1="2.3296601583502596" x2="44.89419968712658" y1="120.47485144831144" y2="122.62747206826548" /><line stroke="black" x1="2.3296601583502596" x2="41.610968346466365" y1="120.47485144831144" y2="88.5583836377785" /><line stroke="black" x1="2.3296601583502596" x2="5.731434555207571" y1="120.47485144831144" y2="249.6273601998732" /><line stroke="black" x1="2.3296601583502596" x2="2.297772968894739" y1="120.47485144831144" y2="323.5914659929687" /><line stroke="black" x1="6.909156843204849" x2="46.04563530402665" y1="162.60146763560712" y2="169.44225521324864" /><line stroke="black" x1="6.909156843204849" x2="44.89419968712658" y1="162.60146763560712" y2="122.62747206826548" /><line stroke="black" x1="6.909156843204849" x2="5.731434555207571" y1="162.60146763560712" y2="249.6273601998732" /><line stroke="black" x1="5.731434555207571" x2="6.934015986222292" y1="249.6273601998732" y2="287.9788393419966" /><line stroke="black" x1="5.731434555207571" x2="48.02616916633615" y1="249.6273601998732" y2="242.91064079433107" /><line stroke="black" x1="5.731434555207571" x2="45.94681548730662" y1="249.6273601998732" y2="280.67041959557787" /><line stroke="black" x1="5.731434555207571" x2="2.297772968894739" y1="249.6273601998732" y2="323.5914659929687" /><line stroke="black" x1="5.731434555207571" x2="46.04563530402665" y1="249.6273601998732" y2="169.44225521324864" /><line stroke="black" x1="6.934015986222292" x2="2.297772968894739" y1="287.9788393419966" y2="323.5914659929687" /><line stroke="black" x1="6.934015986222292" x2="45.94681548730662" y1="287.9788393419966" y2="280.67041959557787" /><line stroke="black" x1="6.934015986222292" x2="40.82100576309457" y1="287.9788393419966" y2="327.58308930403837" /><line stroke="black" x1="2.297772968894739" x2="40.82100576309457" y1="323.5914659929687" y2="327.58308930403837" /><line stroke="black" x1="2.297772968894739" x2="5.7774933295802295" y1="323.5914659929687" y2="364.6408744768183" /><line stroke="black" x1="5.7774933295802295" x2="49.255975398376265" y1="364.6408744768183" y2="364.7962185637159" /><line stroke="black" x1="5.7774933295802295" x2="40.82100576309457" y1="364.6408744768183" y2="327.58308930403837" /><line stroke="black" x1="5.7774933295802295" x2="81.92344641967154" y1="364.6408744768183" y2="369.2250558353754" /><line stroke="black" x1="44.54302083725584" x2="48.17189533944274" y1="5.059117857192246" y2="43.86600716236182" /><line stroke="black" x1="44.54302083725584" x2="122.1189979914376" y1="5.059117857192246" y2="7.372920474701856" /><line stroke="black" x1="44.54302083725584" x2="162.4014364865122" y1="5.059117857192246" y2="1.0513004850456733" /><line stroke="black" x1="48.17189533944274" x2="41.610968346466365" y1="43.86600716236182" y2="88.5583836377785" /><line stroke="black" x1="48.17189533944274" x2="122.1189979914376" y1="43.86600716236182" y2="7.372920474701856" /><line stroke="black" x1="48.17189533944274" x2="121.90046183894192" y1="43.86600716236182" y2="84.91136045191685" /><line stroke="black" x1="41.610968346466365" x2="44.89419968712658" y1="88.5583836377785" y2="122.62747206826548" /><line stroke="black" x1="41.610968346466365" x2="121.90046183894192" y1="88.5583836377785" y2="84.91136045191685" /><line stroke="black" x1="44.89419968712658" x2="46.04563530402665" y1="122.62747206826548" y2="169.44225521324864" /><line stroke="black" x1="44.89419968712658" x2="81.48409650511493" y1="122.62747206826548" y2="163.92059305049355" /><line stroke="black" x1="44.89419968712658" x2="121.94381716031467" y1="122.62747206826548" y2="129.30837019411422" /><line stroke="black" x1="44.89419968712658" x2="121.90046183894192" y1="122.62747206826548" y2="84.91136045191685" /><line stroke="black" x1="46.04563530402665" x2="81.48409650511493" y1="169.44225521324864" y2="163.92059305049355" /><line stroke="black" x1="46.04563530402665" x2="48.02616916633615" y1="169.44225521324864" y2="242.91064079433107" /><line stroke="black" x1="46.04563530402665" x2="127.19544803866337" y1="169.44225521324864" y2="169.64561654096804" /><line stroke="black" x1="48.02616916633615" x2="82.43296371859512" y1="242.91064079433107" y2="248.83811891656956" /><line stroke="black" x1="48.02616916633615" x2="45.94681548730662" y1="242.91064079433107" y2="280.67041959557787" /><line stroke="black" x1="48.02616916633615" x2="126.92804897830176" y1="242.91064079433107" y2="245.74738726972552" /><line stroke="black" x1="48.02616916633615" x2="127.19544803866337" y1="242.91064079433107" y2="169.64561654096804" /><line stroke="black" x1="45.94681548730662" x2="87.95357671608821" y1="280.67041959557787" y2="281.71687548637107" /><line stroke="black" x1="45.94681548730662" x2="40.82100576309457" y1="280.67041959557787" y2="327.58308930403837" /><line stroke="black" x1="45.94681548730662" x2="82.43296371859512" y1="280.67041959557787" y2="248.83811891656956" /><line stroke="black" x1="45.94681548730662" x2="80.93985692749808" y1="280.67041959557787" y2="323.6163519529899" /><line stroke="black" x1="40.82100576309457" x2="49.255975398376265" y1="327.58308930403837" y2="364.7962185637159" /><line stroke="black" x1="40.82100576309457" x2="80.93985692749808" y1="327.58308930403837" y2="323.6163519529899" /><line stroke="black" x1="49.255975398376265" x2="81.92344641967154" y1="364.7962185637159" y2="369.2250558353754" /><line stroke="black" x1="49.255975398376265" x2="80.93985692749808" y1="364.7962185637159" y2="323.6163519529899" /><line stroke="black" x1="81.48409650511493" x2="127.19544803866337" y1="163.92059305049355" y2="169.64561654096804" /><line stroke="black" x1="81.48409650511493" x2="121.94381716031467" y1="163.92059305049355" y2="129.30837019411422" /><line stroke="black" x1="82.43296371859512" x2="87.95357671608821" y1="248.83811891656956" y2="281.71687548637107" /><line stroke="black" x1="82.43296371859512" x2="126.92804897830176" y1="248.83811891656956" y2="245.74738726972552" /><line stroke="black" x1="87.95357671608821" x2="122.95556730634107" y1="281.71687548637107" y2="283.30132878936627" /><line stroke="black" x1="87.95357671608821" x2="80.93985692749808" y1="281.71687548637107" y2="323.6163519529899" /><line stroke="black" x1="87.95357671608821" x2="126.92804897830176" y1="281.71687548637107" y2="245.74738726972552" /><line stroke="black" x1="87.95357671608821" x2="127.28083821875842" y1="281.71687548637107" y2="320.57681815576075" /><line stroke="black" x1="80.93985692749808" x2="81.92344641967154" y1="323.6163519529899" y2="369.2250558353754" /><line stroke="black" x1="80.93985692749808" x2="127.28083821875842" y1="323.6163519529899" y2="320.57681815576075" /><line stroke="black" x1="80.93985692749808" x2="125.30114508457021" y1="323.6163519529899" y2="368.5065668811083" /><line stroke="black" x1="81.92344641967154" x2="125.30114508457021" y1="369.2250558353754" y2="368.5065668811083" /><line stroke="black" x1="81.92344641967154" x2="289.1279153518902" y1="369.2250558353754" y2="369.3982093871792" /><line stroke="black" x1="122.1189979914376" x2="128.51683836249458" y1="7.372920474701856" y2="40.320540036613195" /><line stroke="black" x1="122.1189979914376" x2="162.4014364865122" y1="7.372920474701856" y2="1.0513004850456733" /><line stroke="black" x1="122.1189979914376" x2="121.90046183894192" y1="7.372920474701856" y2="84.91136045191685" /><line stroke="black" x1="128.51683836249458" x2="121.90046183894192" y1="40.320540036613195" y2="84.91136045191685" /><line stroke="black" x1="128.51683836249458" x2="162.4014364865122" y1="40.320540036613195" y2="1.0513004850456733" /><line stroke="black" x1="128.51683836249458" x2="164.57536051628534" y1="40.320540036613195" y2="82.28048976302327" /><line stroke="black" x1="128.51683836249458" x2="207.4576270542654" y1="40.320540036613195" y2="40.45281627927222" /><line stroke="black" x1="121.90046183894192" x2="164.57536051628534" y1="84.91136045191685" y2="82.28048976302327" /><line stroke="black" x1="121.90046183894192" x2="121.94381716031467" y1="84.91136045191685" y2="129.30837019411422" /><line stroke="black" x1="121.90046183894192" x2="161.4709617914458" y1="84.91136045191685" y2="122.27257287756353" /><line stroke="black" x1="121.94381716031467" x2="161.4709617914458" y1="129.30837019411422" y2="122.27257287756353" /><line stroke="black" x1="121.94381716031467" x2="127.19544803866337" y1="129.30837019411422" y2="169.64561654096804" /><line stroke="black" x1="121.94381716031467" x2="167.5332883128671" y1="129.30837019411422" y2="164.69493153923042" /><line stroke="black" x1="127.19544803866337" x2="167.5332883128671" y1="169.64561654096804" y2="164.69493153923042" /><line stroke="black" x1="127.19544803866337" x2="126.92804897830176" y1="169.64561654096804" y2="245.74738726972552" /><line stroke="black" x1="127.19544803866337" x2="167.1727044117654" y1="169.64561654096804" y2="241.77375564434763" /><line stroke="black" x1="126.92804897830176" x2="122.95556730634107" y1="245.74738726972552" y2="283.30132878936627" /><line stroke="black" x1="126.92804897830176" x2="167.1727044117654" y1="245.74738726972552" y2="241.77375564434763" /><line stroke="black" x1="126.92804897830176" x2="161.35141790935717" y1="245.74738726972552" y2="282.5789510046429" /><line stroke="black" x1="122.95556730634107" x2="127.28083821875842" y1="283.30132878936627" y2="320.57681815576075" /><line stroke="black" x1="122.95556730634107" x2="161.35141790935717" y1="283.30132878936627" y2="282.5789510046429" /><line stroke="black" x1="127.28083821875842" x2="160.25848440511876" y1="320.57681815576075" y2="328.36307705386065" /><line stroke="black" x1="127.28083821875842" x2="125.30114508457021" y1="320.57681815576075" y2="368.5065668811083" /><line stroke="black" x1="127.28083821875842" x2="161.35141790935717" y1="320.57681815576075" y2="282.5789510046429" /><line stroke="black" x1="125.30114508457021" x2="160.25848440511876" y1="368.5065668811083" y2="328.36307705386065" /><line stroke="black" x1="125.30114508457021" x2="206.87414574695634" y1="368.5065668811083" y2="363.44486599746216" /><line stroke="black" x1="125.30114508457021" x2="289.1279153518902" y1="368.5065668811083" y2="369.3982093871792" /><line stroke="black" x1="162.4014364865122" x2="202.28204544634653" y1="1.0513004850456733" y2="4.193989884929495" /><line stroke="black" x1="162.4014364865122" x2="207.4576270542654" y1="1.0513004850456733" y2="40.45281627927222" /><line stroke="black" x1="162.4014364865122" x2="362.22878505527785" y1="1.0513004850456733" y2="3.541476271416073" /><line stroke="black" x1="164.57536051628534" x2="201.62561843433943" y1="82.28048976302327" y2="86.0316289959095" /><line stroke="black" x1="164.57536051628534" x2="161.4709617914458" y1="82.28048976302327" y2="122.27257287756353" /><line stroke="black" x1="164.57536051628534" x2="207.4576270542654" y1="82.28048976302327" y2="40.45281627927222" /><line stroke="black" x1="161.4709617914458" x2="167.5332883128671" y1="122.27257287756353" y2="164.69493153923042" /><line stroke="black" x1="161.4709617914458" x2="207.84356495784328" y1="122.27257287756353" y2="125.95645367014404" /><line stroke="black" x1="161.4709617914458" x2="201.62561843433943" y1="122.27257287756353" y2="86.0316289959095" /><line stroke="black" x1="167.5332883128671" x2="209.10834956404057" y1="164.69493153923042" y2="160.09029764177444" /><line stroke="black" x1="167.5332883128671" x2="206.80938624311844" y1="164.69493153923042" y2="200.35440182964336" /><line stroke="black" x1="167.5332883128671" x2="207.84356495784328" y1="164.69493153923042" y2="125.95645367014404" /><line stroke="black" x1="167.5332883128671" x2="167.1727044117654" y1="164.69493153923042" y2="241.77375564434763" /><line stroke="black" x1="167.1727044117654" x2="201.63783604323305" y1="241.77375564434763" y2="247.69279324263147" /><line stroke="black" x1="167.1727044117654" x2="161.35141790935717" y1="241.77375564434763" y2="282.5789510046429" /><line stroke="black" x1="167.1727044117654" x2="206.80938624311844" y1="241.77375564434763" y2="200.35440182964336" /><line stroke="black" x1="161.35141790935717" x2="204.92806877473626" y1="282.5789510046429" y2="284.98553549040463" /><line stroke="black" x1="161.35141790935717" x2="160.25848440511876" y1="282.5789510046429" y2="328.36307705386065" /><line stroke="black" x1="161.35141790935717" x2="201.63783604323305" y1="282.5789510046429" y2="247.69279324263147" /><line stroke="black" x1="160.25848440511876" x2="207.95749035750575" y1="328.36307705386065" y2="323.37762655988183" /><line stroke="black" x1="160.25848440511876" x2="206.87414574695634" y1="328.36307705386065" y2="363.44486599746216" /><line stroke="black" x1="160.25848440511876" x2="204.92806877473626" y1="328.36307705386065" y2="284.98553549040463" /><line stroke="black" x1="202.28204544634653" x2="207.4576270542654" y1="4.193989884929495" y2="40.45281627927222" /><line stroke="black" x1="202.28204544634653" x2="245.1628888509442" y1="4.193989884929495" y2="49.49874428529221" /><line stroke="black" x1="202.28204544634653" x2="322.4977807927442" y1="4.193989884929495" y2="7.655792982612772" /><line stroke="black" x1="202.28204544634653" x2="362.22878505527785" y1="4.193989884929495" y2="3.541476271416073" /><line stroke="black" x1="207.4576270542654" x2="245.1628888509442" y1="40.45281627927222" y2="49.49874428529221" /><line stroke="black" x1="207.4576270542654" x2="201.62561843433943" y1="40.45281627927222" y2="86.0316289959095" /><line stroke="black" x1="207.4576270542654" x2="240.79964507875565" y1="40.45281627927222" y2="82.2835527978133" /><line stroke="black" x1="201.62561843433943" x2="240.79964507875565" y1="86.0316289959095" y2="82.2835527978133" /><line stroke="black" x1="201.62561843433943" x2="207.84356495784328" y1="86.0316289959095" y2="125.95645367014404" /><line stroke="black" x1="207.84356495784328" x2="209.10834956404057" y1="125.95645367014404" y2="160.09029764177444" /><line stroke="black" x1="207.84356495784328" x2="240.79964507875565" y1="125.95645367014404" y2="82.2835527978133" /><line stroke="black" x1="207.84356495784328" x2="284.05525966559895" y1="125.95645367014404" y2="129.67235824471516" /><line stroke="black" x1="209.10834956404057" x2="206.80938624311844" y1="160.09029764177444" y2="200.35440182964336" /><line stroke="black" x1="209.10834956404057" x2="244.231814420426" y1="160.09029764177444" y2="205.718994857437" /><line stroke="black" x1="209.10834956404057" x2="281.49708450563145" y1="160.09029764177444" y2="162.94948159391004" /><line stroke="black" x1="209.10834956404057" x2="284.05525966559895" y1="160.09029764177444" y2="129.67235824471516" /><line stroke="black" x1="206.80938624311844" x2="244.231814420426" y1="200.35440182964336" y2="205.718994857437" /><line stroke="black" x1="206.80938624311844" x2="201.63783604323305" y1="200.35440182964336" y2="247.69279324263147" /><line stroke="black" x1="206.80938624311844" x2="242.94755074275358" y1="200.35440182964336" y2="245.6832616562037" /><line stroke="black" x1="201.63783604323305" x2="204.92806877473626" y1="247.69279324263147" y2="284.98553549040463" /><line stroke="black" x1="201.63783604323305" x2="242.94755074275358" y1="247.69279324263147" y2="245.6832616562037" /><line stroke="black" x1="204.92806877473626" x2="207.95749035750575" y1="284.98553549040463" y2="323.37762655988183" /><line stroke="black" x1="204.92806877473626" x2="243.67556812115524" y1="284.98553549040463" y2="320.57967572694037" /><line stroke="black" x1="204.92806877473626" x2="242.94755074275358" y1="284.98553549040463" y2="245.6832616562037" /><line stroke="black" x1="207.95749035750575" x2="243.67556812115524" y1="323.37762655988183" y2="320.57967572694037" /><line stroke="black" x1="207.95749035750575" x2="206.87414574695634" y1="323.37762655988183" y2="363.44486599746216" /><line stroke="black" x1="207.95749035750575" x2="240.7981939246956" y1="323.37762655988183" y2="360.20725467213424" /><line stroke="black" x1="206.87414574695634" x2="240.7981939246956" y1="363.44486599746216" y2="360.20725467213424" /><line stroke="black" x1="206.87414574695634" x2="289.1279153518902" y1="363.44486599746216" y2="369.3982093871792" /><line stroke="black" x1="245.1628888509442" x2="240.79964507875565" y1="49.49874428529221" y2="82.2835527978133" /><line stroke="black" x1="245.1628888509442" x2="285.0878534181434" y1="49.49874428529221" y2="41.48326576909016" /><line stroke="black" x1="245.1628888509442" x2="284.74565506089897" y1="49.49874428529221" y2="88.37109802748638" /><line stroke="black" x1="245.1628888509442" x2="322.4977807927442" y1="49.49874428529221" y2="7.655792982612772" /><line stroke="black" x1="240.79964507875565" x2="284.74565506089897" y1="82.2835527978133" y2="88.37109802748638" /><line stroke="black" x1="240.79964507875565" x2="284.05525966559895" y1="82.2835527978133" y2="129.67235824471516" /><line stroke="black" x1="244.231814420426" x2="242.94755074275358" y1="205.718994857437" y2="245.6832616562037" /><line stroke="black" x1="244.231814420426" x2="288.9318769730091" y1="205.718994857437" y2="203.67569143963576" /><line stroke="black" x1="244.231814420426" x2="281.49708450563145" y1="205.718994857437" y2="162.94948159391004" /><line stroke="black" x1="244.231814420426" x2="286.7245973524237" y1="205.718994857437" y2="248.86542922044163" /><line stroke="black" x1="242.94755074275358" x2="286.7245973524237" y1="245.6832616562037" y2="248.86542922044163" /><line stroke="black" x1="242.94755074275358" x2="288.0242246373409" y1="245.6832616562037" y2="286.3036831774951" /><line stroke="black" x1="242.94755074275358" x2="243.67556812115524" y1="245.6832616562037" y2="320.57967572694037" /><line stroke="black" x1="243.67556812115524" x2="282.31155704396997" y1="320.57967572694037" y2="327.9463087018023" /><line stroke="black" x1="243.67556812115524" x2="240.7981939246956" y1="320.57967572694037" y2="360.20725467213424" /><line stroke="black" x1="243.67556812115524" x2="288.0242246373409" y1="320.57967572694037" y2="286.3036831774951" /><line stroke="black" x1="240.7981939246956" x2="289.1279153518902" y1="360.20725467213424" y2="369.3982093871792" /><line stroke="black" x1="240.7981939246956" x2="282.31155704396997" y1="360.20725467213424" y2="327.9463087018023" /><line stroke="black" x1="285.0878534181434" x2="321.44079457506274" y1="41.48326576909016" y2="45.28465989202138" /><line stroke="black" x1="285.0878534181434" x2="284.74565506089897" y1="41.48326576909016" y2="88.37109802748638" /><line stroke="black" x1="285.0878534181434" x2="322.4977807927442" y1="41.48326576909016" y2="7.655792982612772" /><line stroke="black" x1="284.74565506089897" x2="284.05525966559895" y1="88.37109802748638" y2="129.67235824471516" /><line stroke="black" x1="284.74565506089897" x2="329.49114625617483" y1="88.37109802748638" y2="80.88599911780842" /><line stroke="black" x1="284.74565506089897" x2="326.58405232408876" y1="88.37109802748638" y2="121.54627037133102" /><line stroke="black" x1="284.74565506089897" x2="321.44079457506274" y1="88.37109802748638" y2="45.28465989202138" /><line stroke="black" x1="284.05525966559895" x2="281.49708450563145" y1="129.67235824471516" y2="162.94948159391004" /><line stroke="black" x1="284.05525966559895" x2="326.58405232408876" y1="129.67235824471516" y2="121.54627037133102" /><line stroke="black" x1="284.05525966559895" x2="323.33996206165796" y1="129.67235824471516" y2="162.23763303118525" /><line stroke="black" x1="281.49708450563145" x2="288.9318769730091" y1="162.94948159391004" y2="203.67569143963576" /><line stroke="black" x1="281.49708450563145" x2="323.33996206165796" y1="162.94948159391004" y2="162.23763303118525" /><line stroke="black" x1="288.9318769730091" x2="320.2983538885722" y1="203.67569143963576" y2="204.97067705433912" /><line stroke="black" x1="288.9318769730091" x2="286.7245973524237" y1="203.67569143963576" y2="248.86542922044163" /><line stroke="black" x1="288.9318769730091" x2="323.33996206165796" y1="203.67569143963576" y2="162.23763303118525" /><line stroke="black" x1="286.7245973524237" x2="288.0242246373409" y1="248.86542922044163" y2="286.3036831774951" /><line stroke="black" x1="286.7245973524237" x2="324.5376820985777" y1="248.86542922044163" y2="246.95898998607387" /><line stroke="black" x1="286.7245973524237" x2="321.2242621115654" y1="248.86542922044163" y2="282.14632473996255" /><line stroke="black" x1="286.7245973524237" x2="320.2983538885722" y1="248.86542922044163" y2="204.97067705433912" /><line stroke="black" x1="288.0242246373409" x2="321.2242621115654" y1="286.3036831774951" y2="282.14632473996255" /><line stroke="black" x1="288.0242246373409" x2="282.31155704396997" y1="286.3036831774951" y2="327.9463087018023" /><line stroke="black" x1="288.0242246373409" x2="324.33115958974656" y1="286.3036831774951" y2="328.91550669983343" /><line stroke="black" x1="282.31155704396997" x2="289.1279153518902" y1="327.9463087018023" y2="369.3982093871792" /><line stroke="black" x1="282.31155704396997" x2="324.33115958974656" y1="327.9463087018023" y2="328.91550669983343" /><line stroke="black" x1="282.31155704396997" x2="320.0031184713248" y1="327.9463087018023" y2="366.96878946491603" /><line stroke="black" x1="289.1279153518902" x2="320.0031184713248" y1="369.3982093871792" y2="366.96878946491603" /><line stroke="black" x1="322.4977807927442" x2="321.44079457506274" y1="7.655792982612772" y2="45.28465989202138" /><line stroke="black" x1="322.4977807927442" x2="362.22878505527785" y1="7.655792982612772" y2="3.541476271416073" /><line stroke="black" x1="321.44079457506274" x2="329.49114625617483" y1="45.28465989202138" y2="80.88599911780842" /><line stroke="black" x1="321.44079457506274" x2="368.38283887862394" y1="45.28465989202138" y2="45.67673583182859" /><line stroke="black" x1="321.44079457506274" x2="362.22878505527785" y1="45.28465989202138" y2="3.541476271416073" /><line stroke="black" x1="329.49114625617483" x2="362.72987630325" y1="80.88599911780842" y2="83.3032592602998" /><line stroke="black" x1="329.49114625617483" x2="326.58405232408876" y1="80.88599911780842" y2="121.54627037133102" /><line stroke="black" x1="329.49114625617483" x2="368.38283887862394" y1="80.88599911780842" y2="45.67673583182859" /><line stroke="black" x1="326.58405232408876" x2="365.19913095177867" y1="121.54627037133102" y2="124.69994944927674" /><line stroke="black" x1="326.58405232408876" x2="323.33996206165796" y1="121.54627037133102" y2="162.23763303118525" /><line stroke="black" x1="326.58405232408876" x2="362.72987630325" y1="121.54627037133102" y2="83.3032592602998" /><line stroke="black" x1="326.58405232408876" x2="360.97184699387856" y1="121.54627037133102" y2="161.39735006388477" /><line stroke="black" x1="323.33996206165796" x2="360.97184699387856" y1="162.23763303118525" y2="161.39735006388477" /><line stroke="black" x1="323.33996206165796" x2="320.2983538885722" y1="162.23763303118525" y2="204.97067705433912" /><line stroke="black" x1="323.33996206165796" x2="362.5498048139044" y1="162.23763303118525" y2="204.50247235777638" /><line stroke="black" x1="320.2983538885722" x2="324.5376820985777" y1="204.97067705433912" y2="246.95898998607387" /><line stroke="black" x1="320.2983538885722" x2="362.5498048139044" y1="204.97067705433912" y2="204.50247235777638" /><line stroke="black" x1="324.5376820985777" x2="321.2242621115654" y1="246.95898998607387" y2="282.14632473996255" /><line stroke="black" x1="324.5376820985777" x2="368.35437032933794" y1="246.95898998607387" y2="241.81514263233495" /><line stroke="black" x1="324.5376820985777" x2="362.5498048139044" y1="246.95898998607387" y2="204.50247235777638" /><line stroke="black" x1="321.2242621115654" x2="324.33115958974656" y1="282.14632473996255" y2="328.91550669983343" /><line stroke="black" x1="321.2242621115654" x2="364.8406154188524" y1="282.14632473996255" y2="326.213157676155" /><line stroke="black" x1="321.2242621115654" x2="368.35437032933794" y1="282.14632473996255" y2="241.81514263233495" /><line stroke="black" x1="324.33115958974656" x2="320.0031184713248" y1="328.91550669983343" y2="366.96878946491603" /><line stroke="black" x1="324.33115958974656" x2="364.8406154188524" y1="328.91550669983343" y2="326.213157676155" /><line stroke="black" x1="324.33115958974656" x2="364.00793897748287" y1="328.91550669983343" y2="360.1585515151656" /><line stroke="black" x1="320.0031184713248" x2="364.00793897748287" y1="366.96878946491603" y2="360.1585515151656" /><line stroke="black" x1="362.22878505527785" x2="368.38283887862394" y1="3.541476271416073" y2="45.67673583182859" /><line stroke="black" x1="368.38283887862394" x2="362.72987630325" y1="45.67673583182859" y2="83.3032592602998" /><line stroke="black" x1="368.38283887862394" x2="365.19913095177867" y1="45.67673583182859" y2="124.69994944927674" /><line stroke="black" x1="368.38283887862394" x2="368.35437032933794" y1="45.67673583182859" y2="241.81514263233495" /><line stroke="black" x1="362.72987630325" x2="365.19913095177867" y1="83.3032592602998" y2="124.69994944927674" /><line stroke="black" x1="365.19913095177867" x2="360.97184699387856" y1="124.69994944927674" y2="161.39735006388477" /><line stroke="black" x1="365.19913095177867" x2="362.5498048139044" y1="124.69994944927674" y2="204.50247235777638" /><line stroke="black" x1="365.19913095177867" x2="368.35437032933794" y1="124.69994944927674" y2="241.81514263233495" /><line stroke="black" x1="360.97184699387856" x2="362.5498048139044" y1="161.39735006388477" y2="204.50247235777638" /><line stroke="black" x1="362.5498048139044" x2="368.35437032933794" y1="204.50247235777638" y2="241.81514263233495" /><line stroke="black" x1="368.35437032933794" x2="364.8406154188524" y1="241.81514263233495" y2="326.213157676155" /><line stroke="black" x1="368.35437032933794" x2="364.00793897748287" y1="241.81514263233495" y2="360.1585515151656" /><line stroke="black" x1="364.8406154188524" x2="364.00793897748287" y1="326.213157676155" y2="360.1585515151656" /><circle cx="6.777592232020013" cy="1.3056763762521486" fill="lightblue" r="2" stroke="blue" /><circle cx="2.415683266390065" cy="48.68004581911396" fill="lightblue" r="2" stroke="blue" /><circle cx="2.3296601583502596" cy="120.47485144831144" fill="lightblue" r="2" stroke="blue" /><circle cx="6.909156843204849" cy="162.60146763560712" fill="lightblue" r="2" stroke="blue" /><circle cx="5.731434555207571" cy="249.6273601998732" fill="lightblue" r="2" stroke="blue" /><circle cx="6.934015986222292" cy="287.9788393419966" fill="lightblue" r="2" stroke="blue" /><circle cx="2.297772968894739" cy="323.5914659929687" fill="lightblue" r="2" stroke="blue" /><circle cx="5.7774933295802295" cy="364.6408744768183" fill="lightblue" r="2" stroke="blue" /><circle cx="44.54302083725584" cy="5.059117857192246" fill="lightblue" r="2" stroke="blue" /><circle cx="48.17189533944274" cy="43.86600716236182" fill="lightblue" r="2" stroke="blue" /><circle cx="41.610968346466365" cy="88.5583836377785" fill="lightblue" r="2" stroke="blue" /><circle cx="44.89419968712658" cy="122.62747206826548" fill="lightblue" r="2" stroke="blue" /><circle cx="46.04563530402665" cy="169.44225521324864" fill="lightblue" r="2" stroke="blue" /><circle cx="48.02616916633615" cy="242.91064079433107" fill="lightblue" r="2" stroke="blue" /><circle cx="45.94681548730662" cy="280.67041959557787" fill="lightblue" r="2" stroke="blue" /><circle cx="40.82100576309457" cy="327.58308930403837" fill="lightblue" r="2" stroke="blue" /><circle cx="49.255975398376265" cy="364.7962185637159" fill="lightblue" r="2" stroke="blue" /><circle cx="81.48409650511493" cy="163.92059305049355" fill="lightblue" r="2" stroke="blue" /><circle cx="82.43296371859512" cy="248.83811891656956" fill="lightblue" r="2" stroke="blue" /><circle cx="87.95357671608821" cy="281.71687548637107" fill="lightblue" r="2" stroke="blue" /><circle cx="80.93985692749808" cy="323.6163519529899" fill="lightblue" r="2" stroke="blue" /><circle cx="81.92344641967154" cy="369.2250558353754" fill="lightblue" r="2" stroke="blue" /><circle cx="122.1189979914376" cy="7.372920474701856" fill="lightblue" r="2" stroke="blue" /><circle cx="128.51683836249458" cy="40.320540036613195" fill="lightblue" r="2" stroke="blue" /><circle cx="121.90046183894192" cy="84.91136045191685" fill="lightblue" r="2" stroke="blue" /><circle cx="121.94381716031467" cy="129.30837019411422" fill="lightblue" r="2" stroke="blue" /><circle cx="127.19544803866337" cy="169.64561654096804" fill="lightblue" r="2" stroke="blue" /><circle cx="126.92804897830176" cy="245.74738726972552" fill="lightblue" r="2" stroke="blue" /><circle cx="122.95556730634107" cy="283.30132878936627" fill="lightblue" r="2" stroke="blue" /><circle cx="127.28083821875842" cy="320.57681815576075" fill="lightblue" r="2" stroke="blue" /><circle cx="125.30114508457021" cy="368.5065668811083" fill="lightblue" r="2" stroke="blue" /><circle cx="162.4014364865122" cy="1.0513004850456733" fill="lightblue" r="2" stroke="blue" /><circle cx="164.57536051628534" cy="82.28048976302327" fill="lightblue" r="2" stroke="blue" /><circle cx="161.4709617914458" cy="122.27257287756353" fill="lightblue" r="2" stroke="blue" /><circle cx="167.5332883128671" cy="164.69493153923042" fill="lightblue" r="2" stroke="blue" /><circle cx="167.1727044117654" cy="241.77375564434763" fill="lightblue" r="2" stroke="blue" /><circle cx="161.35141790935717" cy="282.5789510046429" fill="lightblue" r="2" stroke="blue" /><circle cx="160.25848440511876" cy="328.36307705386065" fill="lightblue" r="2" stroke="blue" /><circle cx="202.28204544634653" cy="4.193989884929495" fill="lightblue" r="2" stroke="blue" /><circle cx="207.4576270542654" cy="40.45281627927222" fill="lightblue" r="2" stroke="blue" /><circle cx="201.62561843433943" cy="86.0316289959095" fill="lightblue" r="2" stroke="blue" /><circle cx="207.84356495784328" cy="125.95645367014404" fill="lightblue" r="2" stroke="blue" /><circle cx="209.10834956404057" cy="160.09029764177444" fill="lightblue" r="2" stroke="blue" /><circle cx="206.80938624311844" cy="200.35440182964336" fill="lightblue" r="2" stroke="blue" /><circle cx="201.63783604323305" cy="247.69279324263147" fill="lightblue" r="2" stroke="blue" /><circle cx="204.92806877473626" cy="284.98553549040463" fill="lightblue" r="2" stroke="blue" /><circle cx="207.95749035750575" cy="323.37762655988183" fill="lightblue" r="2" stroke="blue" /><circle cx="206.87414574695634" cy="363.44486599746216" fill="lightblue" r="2" stroke="blue" /><circle cx="245.1628888509442" cy="49.49874428529221" fill="lightblue" r="2" stroke="blue" /><circle cx="240.79964507875565" cy="82.2835527978133" fill="lightblue" r="2" stroke="blue" /><circle cx="244.231814420426" cy="205.718994857437" fill="lightblue" r="2" stroke="blue" /><circle cx="242.94755074275358" cy="245.6832616562037" fill="lightblue" r="2" stroke="blue" /><circle cx="243.67556812115524" cy="320.57967572694037" fill="lightblue" r="2" stroke="blue" /><circle cx="240.7981939246956" cy="360.20725467213424" fill="lightblue" r="2" stroke="blue" /><circle cx="285.0878534181434" cy="41.48326576909016" fill="lightblue" r="2" stroke="blue" /><circle cx="284.74565506089897" cy="88.37109802748638" fill="lightblue" r="2" stroke="blue" /><circle cx="284.05525966559895" cy="129.67235824471516" fill="lightblue" r="2" stroke="blue" /><circle cx="281.49708450563145" cy="162.94948159391004" fill="lightblue" r="2" stroke="blue" /><circle cx="288.9318769730091" cy="203.67569143963576" fill="lightblue" r="2" stroke="blue" /><circle cx="286.7245973524237" cy="248.86542922044163" fill="lightblue" r="2" stroke="blue" /><circle cx="288.0242246373409" cy="286.3036831774951" fill="lightblue" r="2" stroke="blue" /><circle cx="282.31155704396997" cy="327.9463087018023" fill="lightblue" r="2" stroke="blue" /><circle cx="289.1279153518902" cy="369.3982093871792" fill="lightblue" r="2" stroke="blue" /><circle cx="322.4977807927442" cy="7.655792982612772" fill="lightblue" r="2" stroke="blue" /><circle cx="321.44079457506274" cy="45.28465989202138" fill="lightblue" r="2" stroke="blue" /><circle cx="329.49114625617483" cy="80.88599911780842" fill="lightblue" r="2" stroke="blue" /><circle cx="326.58405232408876" cy="121.54627037133102" fill="lightblue" r="2" stroke="blue" /><circle cx="323.33996206165796" cy="162.23763303118525" fill="lightblue" r="2" stroke="blue" /><circle cx="320.2983538885722" cy="204.97067705433912" fill="lightblue" r="2" stroke="blue" /><circle cx="324.5376820985777" cy="246.95898998607387" fill="lightblue" r="2" stroke="blue" /><circle cx="321.2242621115654" cy="282.14632473996255" fill="lightblue" r="2" stroke="blue" /><circle cx="324.33115958974656" cy="328.91550669983343" fill="lightblue" r="2" stroke="blue" /><circle cx="320.0031184713248" cy="366.96878946491603" fill="lightblue" r="2" stroke="blue" /><circle cx="362.22878505527785" cy="3.541476271416073" fill="lightblue" r="2" stroke="blue" /><circle cx="368.38283887862394" cy="45.67673583182859" fill="lightblue" r="2" stroke="blue" /><circle cx="362.72987630325" cy="83.3032592602998" fill="lightblue" r="2" stroke="blue" /><circle cx="365.19913095177867" cy="124.69994944927674" fill="lightblue" r="2" stroke="blue" /><circle cx="360.97184699387856" cy="161.39735006388477" fill="lightblue" r="2" stroke="blue" /><circle cx="362.5498048139044" cy="204.50247235777638" fill="lightblue" r="2" stroke="blue" /><circle cx="368.35437032933794" cy="241.81514263233495" fill="lightblue" r="2" stroke="blue" /><circle cx="364.8406154188524" cy="326.213157676155" fill="lightblue" r="2" stroke="blue" /><circle cx="364.00793897748287" cy="360.1585515151656" fill="lightblue" r="2" stroke="blue" /></svg>