<?xml version="1.0" encoding="utf-8" ?>
<svg baseProfile="full" height="100%" version="1.1" width="100%" xmlns="http://www.w3.org/2000/svg" xmlns:ev="http://www.w3.org/2001/xml-events" xmlns:xlink="http://www.w3.org/1999/xlink"><defs /><line stroke="black" x1="51.77759223202001" x2="88.86600716236183" y1="46.30567637625215" y2="47.73145123502631" /><line stroke="black" x1="51.77759223202001" x2="47.41568326639006" y1="46.30567637625215" y2="93.68004581911396" /><line stroke="black" x1="51.77759223202001" x2="93.5583836377785" y1="46.30567637625215" y2="87.06819157129489" /><line stroke="black" x1="51.77759223202001" x2="171.92804897830175" y1="46.30567637625215" y2="50.74738726972552" /><line stroke="black" x1="51.77759223202001" x2="252.95749035750575" y1="46.30567637625215" y2="48.37762655988182" /><line stroke="black" x1="51.77759223202001" x2="370.6767358318286" y1="46.30567637625215" y2="47.84704701630807" /><line stroke="black" x1="47.41568326639006" x2="51.01295319825208" y1="93.68004581911396" y2="127.32966015835026" /><line stroke="black" x1="47.41568326639006" x2="93.5583836377785" y1="93.68004581911396" y2="87.06819157129489" /><line stroke="black" x1="47.41568326639006" x2="87.62747206826548" y1="93.68004581911396" y2="127.84937754922917" /><line stroke="black" x1="47.41568326639006" x2="46.74998226057307" y1="93.68004581911396" y2="212.78996757635576" /><line stroke="black" x1="51.01295319825208" x2="87.62747206826548" y1="127.32966015835026" y2="127.84937754922917" /><line stroke="black" x1="51.01295319825208" x2="51.55761568993887" y1="127.32966015835026" y2="171.90915684320484" /><line stroke="black" x1="51.01295319825208" x2="46.74998226057307" y1="127.32966015835026" y2="212.78996757635576" /><line stroke="black" x1="51.55761568993887" x2="46.74998226057307" y1="171.90915684320484" y2="212.78996757635576" /><line stroke="black" x1="51.55761568993887" x2="94.44225521324863" y1="171.90915684320484" y2="165.67478072836514" /><line stroke="black" x1="51.55761568993887" x2="93.02616916633615" y1="171.90915684320484" y2="207.91064079433107" /><line stroke="black" x1="51.55761568993887" x2="87.62747206826548" y1="171.90915684320484" y2="127.84937754922917" /><line stroke="black" x1="46.74998226057307" x2="54.627360199873216" y1="212.78996757635576" y2="250.43456490658014" /><line stroke="black" x1="46.74998226057307" x2="93.02616916633615" y1="212.78996757635576" y2="207.91064079433107" /><line stroke="black" x1="46.74998226057307" x2="90.94681548730662" y1="212.78996757635576" y2="245.67041959557787" /><line stroke="black" x1="46.74998226057307" x2="48.591465992968715" y1="212.78996757635576" y2="329.27708158321434" /><line stroke="black" x1="46.74998226057307" x2="52.978839341996604" y1="212.78996757635576" y2="291.6724212508481" /><line stroke="black" x1="54.627360199873216" x2="90.94681548730662" y1="250.43456490658014" y2="245.67041959557787" /><line stroke="black" x1="54.627360199873216" x2="52.978839341996604" y1="250.43456490658014" y2="291.6724212508481" /><line stroke="black" x1="54.627360199873216" x2="85.82100576309456" y1="250.43456490658014" y2="292.58308930403837" /><line stroke="black" x1="52.978839341996604" x2="85.82100576309456" y1="291.6724212508481" y2="292.58308930403837" /><line stroke="black" x1="52.978839341996604" x2="48.591465992968715" y1="291.6724212508481" y2="329.27708158321434" /><line stroke="black" x1="48.591465992968715" x2="49.64087447681826" y1="329.27708158321434" y2="372.6782752581466" /><line stroke="black" x1="48.591465992968715" x2="94.25597539837626" y1="329.27708158321434" y2="329.7962185637159" /><line stroke="black" x1="48.591465992968715" x2="85.26092844814134" y1="329.27708158321434" y2="365.3807389482952" /><line stroke="black" x1="48.591465992968715" x2="85.82100576309456" y1="329.27708158321434" y2="292.58308930403837" /><line stroke="black" x1="48.591465992968715" x2="50.05911785719225" y1="329.27708158321434" y2="407.93208199771965" /><line stroke="black" x1="49.64087447681826" x2="50.05911785719225" y1="372.6782752581466" y2="407.93208199771965" /><line stroke="black" x1="49.64087447681826" x2="85.26092844814134" y1="372.6782752581466" y2="365.3807389482952" /><line stroke="black" x1="49.64087447681826" x2="91.84381232943889" y1="372.6782752581466" y2="406.48409650511496" /><line stroke="black" x1="50.05911785719225" x2="91.84381232943889" y1="407.93208199771965" y2="406.48409650511496" /><line stroke="black" x1="50.05911785719225" x2="166.77375564434763" y1="407.93208199771965" y2="409.919091808118" /><line stroke="black" x1="50.05911785719225" x2="245.14345006515651" y1="407.93208199771965" y2="413.4638591958773" /><line stroke="black" x1="88.86600716236183" x2="126.32485805926844" y1="47.73145123502631" y2="53.501930284124946" /><line stroke="black" x1="88.86600716236183" x2="93.5583836377785" y1="47.73145123502631" y2="87.06819157129489" /><line stroke="black" x1="88.86600716236183" x2="171.92804897830175" y1="47.73145123502631" y2="50.74738726972552" /><line stroke="black" x1="93.5583836377785" x2="133.83811891656956" y1="87.06819157129489" y2="88.98905589891092" /><line stroke="black" x1="93.5583836377785" x2="87.62747206826548" y1="87.06819157129489" y2="127.84937754922917" /><line stroke="black" x1="93.5583836377785" x2="126.32485805926844" y1="87.06819157129489" y2="53.501930284124946" /><line stroke="black" x1="93.5583836377785" x2="126.71687548637108" y1="87.06819157129489" y2="132.78167297828088" /><line stroke="black" x1="87.62747206826548" x2="94.44225521324863" y1="127.84937754922917" y2="165.67478072836514" /><line stroke="black" x1="87.62747206826548" x2="126.71687548637108" y1="127.84937754922917" y2="132.78167297828088" /><line stroke="black" x1="94.44225521324863" x2="128.6163519529899" y1="165.67478072836514" y2="168.48043959549113" /><line stroke="black" x1="94.44225521324863" x2="93.02616916633615" y1="165.67478072836514" y2="207.91064079433107" /><line stroke="black" x1="94.44225521324863" x2="126.71687548637108" y1="165.67478072836514" y2="132.78167297828088" /><line stroke="black" x1="93.02616916633615" x2="90.94681548730662" y1="207.91064079433107" y2="245.67041959557787" /><line stroke="black" x1="93.02616916633615" x2="134.22505583537534" y1="207.91064079433107" y2="209.61436699651858" /><line stroke="black" x1="93.02616916633615" x2="128.6163519529899" y1="207.91064079433107" y2="168.48043959549113" /><line stroke="black" x1="93.02616916633615" x2="132.37292047470186" y1="207.91064079433107" y2="248.01106327808807" /><line stroke="black" x1="90.94681548730662" x2="132.37292047470186" y1="245.67041959557787" y2="248.01106327808807" /><line stroke="black" x1="90.94681548730662" x2="85.82100576309456" y1="245.67041959557787" y2="292.58308930403837" /><line stroke="black" x1="90.94681548730662" x2="125.3205400366132" y1="245.67041959557787" y2="287.73586171065574" /><line stroke="black" x1="85.82100576309456" x2="94.25597539837626" y1="292.58308930403837" y2="329.7962185637159" /><line stroke="black" x1="85.82100576309456" x2="125.3205400366132" y1="292.58308930403837" y2="287.73586171065574" /><line stroke="black" x1="94.25597539837626" x2="129.91136045191683" y1="329.7962185637159" y2="329.6920574085391" /><line stroke="black" x1="94.25597539837626" x2="85.26092844814134" y1="329.7962185637159" y2="365.3807389482952" /><line stroke="black" x1="94.25597539837626" x2="125.3205400366132" y1="329.7962185637159" y2="287.73586171065574" /><line stroke="black" x1="85.26092844814134" x2="91.84381232943889" y1="365.3807389482952" y2="406.48409650511496" /><line stroke="black" x1="85.26092844814134" x2="134.30837019411422" y1="365.3807389482952" y2="374.5147569387542" /><line stroke="black" x1="85.26092844814134" x2="129.91136045191683" y1="365.3807389482952" y2="329.6920574085391" /><line stroke="black" x1="91.84381232943889" x2="134.64561654096804" y1="406.48409650511496" y2="406.1098121059358" /><line stroke="black" x1="91.84381232943889" x2="134.30837019411422" y1="406.48409650511496" y2="374.5147569387542" /><line stroke="black" x1="91.84381232943889" x2="166.77375564434763" y1="406.48409650511496" y2="409.919091808118" /><line stroke="black" x1="126.32485805926844" x2="133.83811891656956" y1="53.501930284124946" y2="88.98905589891092" /><line stroke="black" x1="126.32485805926844" x2="171.92804897830175" y1="53.501930284124946" y2="50.74738726972552" /><line stroke="black" x1="133.83811891656956" x2="167.95556730634107" y1="88.98905589891092" y2="88.30132878936624" /><line stroke="black" x1="133.83811891656956" x2="126.71687548637108" y1="88.98905589891092" y2="132.78167297828088" /><line stroke="black" x1="133.83811891656956" x2="172.28083821875842" y1="88.98905589891092" y2="125.57681815576076" /><line stroke="black" x1="133.83811891656956" x2="171.92804897830175" y1="88.98905589891092" y2="50.74738726972552" /><line stroke="black" x1="126.71687548637108" x2="128.6163519529899" y1="132.78167297828088" y2="168.48043959549113" /><line stroke="black" x1="126.71687548637108" x2="172.28083821875842" y1="132.78167297828088" y2="125.57681815576076" /><line stroke="black" x1="126.71687548637108" x2="170.3011450845702" y1="132.78167297828088" y2="173.5065668811083" /><line stroke="black" x1="128.6163519529899" x2="134.22505583537534" y1="168.48043959549113" y2="209.61436699651858" /><line stroke="black" x1="128.6163519529899" x2="170.3011450845702" y1="168.48043959549113" y2="173.5065668811083" /><line stroke="black" x1="134.22505583537534" x2="167.4014364865122" y1="209.61436699651858" y2="206.0513004850457" /><line stroke="black" x1="134.22505583537534" x2="132.37292047470186" y1="209.61436699651858" y2="248.01106327808807" /><line stroke="black" x1="134.22505583537534" x2="170.3011450845702" y1="209.61436699651858" y2="173.5065668811083" /><line stroke="black" x1="132.37292047470186" x2="125.3205400366132" y1="248.01106327808807" y2="287.73586171065574" /><line stroke="black" x1="132.37292047470186" x2="174.43641325345968" y1="248.01106327808807" y2="249.57536051628534" /><line stroke="black" x1="132.37292047470186" x2="167.4014364865122" y1="248.01106327808807" y2="206.0513004850457" /><line stroke="black" x1="132.37292047470186" x2="173.60202883179832" y1="248.01106327808807" y2="286.4709617914458" /><line stroke="black" x1="125.3205400366132" x2="129.91136045191683" y1="287.73586171065574" y2="329.6920574085391" /><line stroke="black" x1="125.3205400366132" x2="173.60202883179832" y1="287.73586171065574" y2="286.4709617914458" /><line stroke="black" x1="129.91136045191683" x2="171.68230309397103" y1="329.6920574085391" y2="332.5332883128671" /><line stroke="black" x1="129.91136045191683" x2="134.30837019411422" y1="329.6920574085391" y2="374.5147569387542" /><line stroke="black" x1="129.91136045191683" x2="165.04013233039927" y1="329.6920574085391" y2="372.14233553701735" /><line stroke="black" x1="129.91136045191683" x2="173.60202883179832" y1="329.6920574085391" y2="286.4709617914458" /><line stroke="black" x1="134.30837019411422" x2="165.04013233039927" y1="374.5147569387542" y2="372.14233553701735" /><line stroke="black" x1="134.30837019411422" x2="134.64561654096804" y1="374.5147569387542" y2="406.1098121059358" /><line stroke="black" x1="134.64561654096804" x2="166.77375564434763" y1="406.1098121059358" y2="409.919091808118" /><line stroke="black" x1="134.64561654096804" x2="165.04013233039927" y1="406.1098121059358" y2="372.14233553701735" /><line stroke="black" x1="171.92804897830175" x2="207.57895100464287" y1="50.74738726972552" y2="50.64242491082584" /><line stroke="black" x1="171.92804897830175" x2="167.95556730634107" y1="50.74738726972552" y2="88.30132878936624" /><line stroke="black" x1="171.92804897830175" x2="213.36307705386068" y1="50.74738726972552" y2="85.61463594865398" /><line stroke="black" x1="171.92804897830175" x2="252.95749035750575" y1="50.74738726972552" y2="48.37762655988182" /><line stroke="black" x1="167.95556730634107" x2="172.28083821875842" y1="88.30132878936624" y2="125.57681815576076" /><line stroke="black" x1="167.95556730634107" x2="213.36307705386068" y1="88.30132878936624" y2="85.61463594865398" /><line stroke="black" x1="172.28083821875842" x2="207.28204544634653" y1="125.57681815576076" y2="129.1939898849295" /><line stroke="black" x1="172.28083821875842" x2="170.3011450845702" y1="125.57681815576076" y2="173.5065668811083" /><line stroke="black" x1="172.28083821875842" x2="213.36307705386068" y1="125.57681815576076" y2="85.61463594865398" /><line stroke="black" x1="170.3011450845702" x2="167.4014364865122" y1="173.5065668811083" y2="206.0513004850457" /><line stroke="black" x1="170.3011450845702" x2="212.4576270542654" y1="173.5065668811083" y2="165.4528162792722" /><line stroke="black" x1="170.3011450845702" x2="206.62561843433943" y1="173.5065668811083" y2="211.0316289959095" /><line stroke="black" x1="170.3011450845702" x2="207.28204544634653" y1="173.5065668811083" y2="129.1939898849295" /><line stroke="black" x1="167.4014364865122" x2="206.62561843433943" y1="206.0513004850457" y2="211.0316289959095" /><line stroke="black" x1="167.4014364865122" x2="174.43641325345968" y1="206.0513004850457" y2="249.57536051628534" /><line stroke="black" x1="174.43641325345968" x2="173.60202883179832" y1="249.57536051628534" y2="286.4709617914458" /><line stroke="black" x1="174.43641325345968" x2="212.84356495784328" y1="249.57536051628534" y2="250.95645367014404" /><line stroke="black" x1="174.43641325345968" x2="206.62561843433943" y1="249.57536051628534" y2="211.0316289959095" /><line stroke="black" x1="173.60202883179832" x2="214.10834956404057" y1="286.4709617914458" y2="285.09029764177444" /><line stroke="black" x1="173.60202883179832" x2="171.68230309397103" y1="286.4709617914458" y2="332.5332883128671" /><line stroke="black" x1="173.60202883179832" x2="212.84356495784328" y1="286.4709617914458" y2="250.95645367014404" /><line stroke="black" x1="173.60202883179832" x2="211.80938624311844" y1="286.4709617914458" y2="325.3544018296434" /><line stroke="black" x1="171.68230309397103" x2="165.04013233039927" y1="332.5332883128671" y2="372.14233553701735" /><line stroke="black" x1="171.68230309397103" x2="211.80938624311844" y1="332.5332883128671" y2="325.3544018296434" /><line stroke="black" x1="171.68230309397103" x2="206.63783604323305" y1="332.5332883128671" y2="372.69279324263147" /><line stroke="black" x1="165.04013233039927" x2="166.77375564434763" y1="372.14233553701735" y2="409.919091808118" /><line stroke="black" x1="165.04013233039927" x2="206.63783604323305" y1="372.14233553701735" y2="372.69279324263147" /><line stroke="black" x1="166.77375564434763" x2="209.92806877473626" y1="409.919091808118" y2="409.98553549040463" /><line stroke="black" x1="166.77375564434763" x2="206.63783604323305" y1="409.919091808118" y2="372.69279324263147" /><line stroke="black" x1="166.77375564434763" x2="245.14345006515651" y1="409.919091808118" y2="413.4638591958773" /><line stroke="black" x1="207.57895100464287" x2="213.36307705386068" y1="50.64242491082584" y2="85.61463594865398" /><line stroke="black" x1="207.57895100464287" x2="252.95749035750575" y1="50.64242491082584" y2="48.37762655988182" /><line stroke="black" x1="213.36307705386068" x2="251.87414574695634" y1="85.61463594865398" y2="88.44486599746217" /><line stroke="black" x1="213.36307705386068" x2="207.28204544634653" y1="85.61463594865398" y2="129.1939898849295" /><line stroke="black" x1="213.36307705386068" x2="252.95749035750575" y1="85.61463594865398" y2="48.37762655988182" /><line stroke="black" x1="213.36307705386068" x2="250.88858035145105" y1="85.61463594865398" y2="130.1628888509442" /><line stroke="black" x1="207.28204544634653" x2="212.4576270542654" y1="129.1939898849295" y2="165.4528162792722" /><line stroke="black" x1="207.28204544634653" x2="250.88858035145105" y1="129.1939898849295" y2="130.1628888509442" /><line stroke="black" x1="212.4576270542654" x2="252.600094803918" y1="165.4528162792722" y2="165.79964507875565" /><line stroke="black" x1="212.4576270542654" x2="206.62561843433943" y1="165.4528162792722" y2="211.0316289959095" /><line stroke="black" x1="212.4576270542654" x2="245.78472738203368" y1="165.4528162792722" y2="205.43499589827329" /><line stroke="black" x1="212.4576270542654" x2="250.88858035145105" y1="165.4528162792722" y2="130.1628888509442" /><line stroke="black" x1="206.62561843433943" x2="245.78472738203368" y1="211.0316289959095" y2="205.43499589827329" /><line stroke="black" x1="206.62561843433943" x2="212.84356495784328" y1="211.0316289959095" y2="250.95645367014404" /><line stroke="black" x1="212.84356495784328" x2="214.10834956404057" y1="250.95645367014404" y2="285.09029764177444" /><line stroke="black" x1="212.84356495784328" x2="249.231814420426" y1="250.95645367014404" y2="250.718994857437" /><line stroke="black" x1="212.84356495784328" x2="245.78472738203368" y1="250.95645367014404" y2="205.43499589827329" /><line stroke="black" x1="214.10834956404057" x2="247.94755074275358" y1="285.09029764177444" y2="290.6832616562037" /><line stroke="black" x1="214.10834956404057" x2="211.80938624311844" y1="285.09029764177444" y2="325.3544018296434" /><line stroke="black" x1="214.10834956404057" x2="249.231814420426" y1="285.09029764177444" y2="250.718994857437" /><line stroke="black" x1="211.80938624311844" x2="254.691615596248" y1="325.3544018296434" y2="328.67556812115527" /><line stroke="black" x1="211.80938624311844" x2="206.63783604323305" y1="325.3544018296434" y2="372.69279324263147" /><line stroke="black" x1="211.80938624311844" x2="247.94755074275358" y1="325.3544018296434" y2="290.6832616562037" /><line stroke="black" x1="211.80938624311844" x2="247.44932786540076" y1="325.3544018296434" y2="365.7981939246956" /><line stroke="black" x1="206.63783604323305" x2="209.92806877473626" y1="372.69279324263147" y2="409.98553549040463" /><line stroke="black" x1="206.63783604323305" x2="247.44932786540076" y1="372.69279324263147" y2="365.7981939246956" /><line stroke="black" x1="209.92806877473626" x2="245.14345006515651" y1="409.98553549040463" y2="413.4638591958773" /><line stroke="black" x1="252.95749035750575" x2="286.48326576909017" y1="48.37762655988182" y2="48.668223082609515" /><line stroke="black" x1="252.95749035750575" x2="251.87414574695634" y1="48.37762655988182" y2="88.44486599746217" /><line stroke="black" x1="252.95749035750575" x2="370.6767358318286" y1="48.37762655988182" y2="47.84704701630807" /><line stroke="black" x1="251.87414574695634" x2="293.37109802748637" y1="88.44486599746217" y2="89.79070630958783" /><line stroke="black" x1="251.87414574695634" x2="250.88858035145105" y1="88.44486599746217" y2="130.1628888509442" /><line stroke="black" x1="251.87414574695634" x2="286.48326576909017" y1="88.44486599746217" y2="48.668223082609515" /><line stroke="black" x1="250.88858035145105" x2="252.600094803918" y1="130.1628888509442" y2="165.79964507875565" /><line stroke="black" x1="250.88858035145105" x2="294.67235824471516" y1="130.1628888509442" y2="128.69433196778863" /><line stroke="black" x1="250.88858035145105" x2="293.37109802748637" y1="130.1628888509442" y2="89.79070630958783" /><line stroke="black" x1="252.600094803918" x2="287.94948159391004" y1="165.79964507875565" y2="174.54571512710817" /><line stroke="black" x1="252.600094803918" x2="245.78472738203368" y1="165.79964507875565" y2="205.43499589827329" /><line stroke="black" x1="252.600094803918" x2="294.67235824471516" y1="165.79964507875565" y2="128.69433196778863" /><line stroke="black" x1="245.78472738203368" x2="288.6756914396358" y1="205.43499589827329" y2="209.77791816603442" /><line stroke="black" x1="245.78472738203368" x2="249.231814420426" y1="205.43499589827329" y2="250.718994857437" /><line stroke="black" x1="245.78472738203368" x2="287.94948159391004" y1="205.43499589827329" y2="174.54571512710817" /><line stroke="black" x1="249.231814420426" x2="247.94755074275358" y1="250.718994857437" y2="290.6832616562037" /><line stroke="black" x1="249.231814420426" x2="293.8654292204416" y1="250.718994857437" y2="254.04021219918377" /><line stroke="black" x1="249.231814420426" x2="288.6756914396358" y1="250.718994857437" y2="209.77791816603442" /><line stroke="black" x1="249.231814420426" x2="291.3036831774951" y1="250.718994857437" y2="291.5118737961389" /><line stroke="black" x1="247.94755074275358" x2="254.691615596248" y1="290.6832616562037" y2="328.67556812115527" /><line stroke="black" x1="247.94755074275358" x2="291.3036831774951" y1="290.6832616562037" y2="291.5118737961389" /><line stroke="black" x1="254.691615596248" x2="247.44932786540076" y1="328.67556812115527" y2="365.7981939246956" /><line stroke="black" x1="254.691615596248" x2="292.9463087018023" y1="328.67556812115527" y2="330.8010914960643" /><line stroke="black" x1="254.691615596248" x2="291.3036831774951" y1="328.67556812115527" y2="291.5118737961389" /><line stroke="black" x1="247.44932786540076" x2="294.3982093871792" y1="365.7981939246956" y2="370.74293899338204" /><line stroke="black" x1="247.44932786540076" x2="245.14345006515651" y1="365.7981939246956" y2="413.4638591958773" /><line stroke="black" x1="247.44932786540076" x2="292.9463087018023" y1="365.7981939246956" y2="330.8010914960643" /><line stroke="black" x1="247.44932786540076" x2="292.65579298261275" y1="365.7981939246956" y2="409.6127012242638" /><line stroke="black" x1="245.14345006515651" x2="292.65579298261275" y1="413.4638591958773" y2="409.6127012242638" /><line stroke="black" x1="245.14345006515651" x2="328.54147627141606" y1="413.4638591958773" y2="410.4275512691919" /><line stroke="black" x1="245.14345006515651" x2="371.1789119784597" y1="413.4638591958773" y2="409.5942093059098" /><line stroke="black" x1="286.48326576909017" x2="293.37109802748637" y1="48.668223082609515" y2="89.79070630958783" /><line stroke="black" x1="286.48326576909017" x2="330.2846598920214" y1="48.668223082609515" y2="54.63431250291293" /><line stroke="black" x1="286.48326576909017" x2="370.6767358318286" y1="48.668223082609515" y2="47.84704701630807" /><line stroke="black" x1="293.37109802748637" x2="325.8859991178084" y1="89.79070630958783" y2="93.20984098304453" /><line stroke="black" x1="293.37109802748637" x2="294.67235824471516" y1="89.79070630958783" y2="128.69433196778863" /><line stroke="black" x1="293.37109802748637" x2="330.2846598920214" y1="89.79070630958783" y2="54.63431250291293" /><line stroke="black" x1="294.67235824471516" x2="326.546270371331" y1="128.69433196778863" y2="132.0600778010513" /><line stroke="black" x1="294.67235824471516" x2="287.94948159391004" y1="128.69433196778863" y2="174.54571512710817" /><line stroke="black" x1="294.67235824471516" x2="325.8859991178084" y1="128.69433196778863" y2="93.20984098304453" /><line stroke="black" x1="294.67235824471516" x2="327.2376330311852" y1="128.69433196778863" y2="170.69783627303883" /><line stroke="black" x1="287.94948159391004" x2="288.6756914396358" y1="174.54571512710817" y2="209.77791816603442" /><line stroke="black" x1="287.94948159391004" x2="327.2376330311852" y1="174.54571512710817" y2="170.69783627303883" /><line stroke="black" x1="288.6756914396358" x2="329.9706770543391" y1="209.77791816603442" y2="211.41655242062052" /><line stroke="black" x1="288.6756914396358" x2="293.8654292204416" y1="209.77791816603442" y2="254.04021219918377" /><line stroke="black" x1="288.6756914396358" x2="327.2376330311852" y1="209.77791816603442" y2="170.69783627303883" /><line stroke="black" x1="293.8654292204416" x2="291.3036831774951" y1="254.04021219918377" y2="291.5118737961389" /><line stroke="black" x1="293.8654292204416" x2="331.95898998607385" y1="254.04021219918377" y2="247.82604524824714" /><line stroke="black" x1="293.8654292204416" x2="327.14632473996255" y1="254.04021219918377" y2="294.2613595632489" /><line stroke="black" x1="293.8654292204416" x2="329.9706770543391" y1="254.04021219918377" y2="211.41655242062052" /><line stroke="black" x1="291.3036831774951" x2="327.14632473996255" y1="291.5118737961389" y2="294.2613595632489" /><line stroke="black" x1="291.3036831774951" x2="292.9463087018023" y1="291.5118737961389" y2="330.8010914960643" /><line stroke="black" x1="292.9463087018023" x2="294.3982093871792" y1="330.8010914960643" y2="370.74293899338204" /><line stroke="black" x1="292.9463087018023" x2="333.91550669983343" y1="330.8010914960643" y2="327.23730302316204" /><line stroke="black" x1="292.9463087018023" x2="327.14632473996255" y1="330.8010914960643" y2="294.2613595632489" /><line stroke="black" x1="292.9463087018023" x2="331.96878946491603" y1="330.8010914960643" y2="370.2951424699392" /><line stroke="black" x1="294.3982093871792" x2="331.96878946491603" y1="370.74293899338204" y2="370.2951424699392" /><line stroke="black" x1="294.3982093871792" x2="292.65579298261275" y1="370.74293899338204" y2="409.6127012242638" /><line stroke="black" x1="294.3982093871792" x2="328.54147627141606" y1="370.74293899338204" y2="410.4275512691919" /><line stroke="black" x1="292.65579298261275" x2="328.54147627141606" y1="409.6127012242638" y2="410.4275512691919" /><line stroke="black" x1="330.2846598920214" x2="325.8859991178084" y1="54.63431250291293" y2="93.20984098304453" /><line stroke="black" x1="330.2846598920214" x2="370.6767358318286" y1="54.63431250291293" y2="47.84704701630807" /><line stroke="black" x1="330.2846598920214" x2="368.3032592602998" y1="54.63431250291293" y2="92.90176688032993" /><line stroke="black" x1="325.8859991178084" x2="326.546270371331" y1="93.20984098304453" y2="132.0600778010513" /><line stroke="black" x1="325.8859991178084" x2="368.3032592602998" y1="93.20984098304453" y2="92.90176688032993" /><line stroke="black" x1="326.546270371331" x2="327.2376330311852" y1="132.0600778010513" y2="170.69783627303883" /><line stroke="black" x1="326.546270371331" x2="369.69994944927674" y1="132.0600778010513" y2="130.66203442226367" /><line stroke="black" x1="326.546270371331" x2="366.39735006388474" y1="132.0600778010513" y2="172.68960885904625" /><line stroke="black" x1="326.546270371331" x2="368.3032592602998" y1="132.0600778010513" y2="92.90176688032993" /><line stroke="black" x1="327.2376330311852" x2="366.39735006388474" y1="170.69783627303883" y2="172.68960885904625" /><line stroke="black" x1="327.2376330311852" x2="329.9706770543391" y1="170.69783627303883" y2="211.41655242062052" /><line stroke="black" x1="329.9706770543391" x2="331.95898998607385" y1="211.41655242062052" y2="247.82604524824714" /><line stroke="black" x1="329.9706770543391" x2="369.5024723577764" y1="211.41655242062052" y2="211.4929451828923" /><line stroke="black" x1="329.9706770543391" x2="366.8151426323349" y1="211.41655242062052" y2="245.5951635312249" /><line stroke="black" x1="329.9706770543391" x2="366.39735006388474" y1="211.41655242062052" y2="172.68960885904625" /><line stroke="black" x1="331.95898998607385" x2="366.8151426323349" y1="247.82604524824714" y2="245.5951635312249" /><line stroke="black" x1="331.95898998607385" x2="327.14632473996255" y1="247.82604524824714" y2="294.2613595632489" /><line stroke="black" x1="331.95898998607385" x2="369.8406154188524" y1="247.82604524824714" y2="291.213157676155" /><line stroke="black" x1="327.14632473996255" x2="333.91550669983343" y1="294.2613595632489" y2="327.23730302316204" /><line stroke="black" x1="327.14632473996255" x2="369.8406154188524" y1="294.2613595632489" y2="291.213157676155" /><line stroke="black" x1="333.91550669983343" x2="369.00793897748287" y1="327.23730302316204" y2="325.1585515151656" /><line stroke="black" x1="333.91550669983343" x2="331.96878946491603" y1="327.23730302316204" y2="370.2951424699392" /><line stroke="black" x1="333.91550669983343" x2="369.8406154188524" y1="327.23730302316204" y2="291.213157676155" /><line stroke="black" x1="333.91550669983343" x2="372.5904299508855" y1="327.23730302316204" y2="368.6859035321582" /><line stroke="black" x1="331.96878946491603" x2="328.54147627141606" y1="370.2951424699392" y2="410.4275512691919" /><line stroke="black" x1="331.96878946491603" x2="372.5904299508855" y1="370.2951424699392" y2="368.6859035321582" /><line stroke="black" x1="331.96878946491603" x2="371.1789119784597" y1="370.2951424699392" y2="409.5942093059098" /><line stroke="black" x1="328.54147627141606" x2="371.1789119784597" y1="410.4275512691919" y2="409.5942093059098" /><line stroke="black" x1="370.6767358318286" x2="409.71435130534144" y1="47.84704701630807" y2="51.92723654568934" /><line stroke="black" x1="370.6767358318286" x2="368.3032592602998" y1="47.84704701630807" y2="92.90176688032993" /><line stroke="black" x1="370.6767358318286" x2="405.57872238390183" y1="47.84704701630807" y2="92.33973590739132" /><line stroke="black" x1="368.3032592602998" x2="405.57872238390183" y1="92.90176688032993" y2="92.33973590739132" /><line stroke="black" x1="368.3032592602998" x2="369.69994944927674" y1="92.90176688032993" y2="130.66203442226367" /><line stroke="black" x1="369.69994944927674" x2="366.39735006388474" y1="130.66203442226367" y2="172.68960885904625" /><line stroke="black" x1="369.69994944927674" x2="413.9630757970426" y1="130.66203442226367" y2="130.68827253029332" /><line stroke="black" x1="369.69994944927674" x2="405.57872238390183" y1="130.66203442226367" y2="92.33973590739132" /><line stroke="black" x1="369.69994944927674" x2="407.23282496197606" y1="130.66203442226367" y2="168.7385260036195" /><line stroke="black" x1="366.39735006388474" x2="369.5024723577764" y1="172.68960885904625" y2="211.4929451828923" /><line stroke="black" x1="366.39735006388474" x2="407.23282496197606" y1="172.68960885904625" y2="168.7385260036195" /><line stroke="black" x1="366.39735006388474" x2="405.2489830416697" y1="172.68960885904625" y2="211.48779126885054" /><line stroke="black" x1="369.5024723577764" x2="366.8151426323349" y1="211.4929451828923" y2="245.5951635312249" /><line stroke="black" x1="369.5024723577764" x2="405.2489830416697" y1="211.4929451828923" y2="211.48779126885054" /><line stroke="black" x1="366.8151426323349" x2="406.8183860780673" y1="245.5951635312249" y2="254.19353264490783" /><line stroke="black" x1="366.8151426323349" x2="369.8406154188524" y1="245.5951635312249" y2="291.213157676155" /><line stroke="black" x1="366.8151426323349" x2="405.2489830416697" y1="245.5951635312249" y2="211.48779126885054" /><line stroke="black" x1="369.8406154188524" x2="369.00793897748287" y1="291.213157676155" y2="325.1585515151656" /><line stroke="black" x1="369.8406154188524" x2="409.5869781594385" y1="291.213157676155" y2="287.53083068686135" /><line stroke="black" x1="369.8406154188524" x2="406.8183860780673" y1="291.213157676155" y2="254.19353264490783" /><line stroke="black" x1="369.00793897748287" x2="372.5904299508855" y1="325.1585515151656" y2="368.6859035321582" /><line stroke="black" x1="369.00793897748287" x2="414.19672460476545" y1="325.1585515151656" y2="328.34370289357855" /><line stroke="black" x1="369.00793897748287" x2="409.5869781594385" y1="325.1585515151656" y2="287.53083068686135" /><line stroke="black" x1="369.00793897748287" x2="407.9170673393202" y1="325.1585515151656" y2="365.0591344466141" /><line stroke="black" x1="372.5904299508855" x2="407.9170673393202" y1="368.6859035321582" y2="365.0591344466141" /><line stroke="black" x1="372.5904299508855" x2="371.1789119784597" y1="368.6859035321582" y2="409.5942093059098" /><line stroke="black" x1="372.5904299508855" x2="405.57588671354443" y1="368.6859035321582" y2="408.46336228882797" /><line stroke="black" x1="371.1789119784597" x2="405.57588671354443" y1="409.5942093059098" y2="408.46336228882797" /><line stroke="black" x1="409.71435130534144" x2="405.57872238390183" y1="51.92723654568934" y2="92.33973590739132" /><line stroke="black" x1="409.71435130534144" x2="413.9630757970426" y1="51.92723654568934" y2="130.68827253029332" /><line stroke="black" x1="405.57872238390183" x2="413.9630757970426" y1="92.33973590739132" y2="130.68827253029332" /><line stroke="black" x1="413.9630757970426" x2="407.23282496197606" y1="130.68827253029332" y2="168.7385260036195" /><line stroke="black" x1="413.9630757970426" x2="405.2489830416697" y1="130.68827253029332" y2="211.48779126885054" /><line stroke="black" x1="413.9630757970426" x2="414.19672460476545" y1="130.68827253029332" y2="328.34370289357855" /><line stroke="black" x1="413.9630757970426" x2="406.8183860780673" y1="130.68827253029332" y2="254.19353264490783" /><line stroke="black" x1="413.9630757970426" x2="409.5869781594385" y1="130.68827253029332" y2="287.53083068686135" /><line stroke="black" x1="407.23282496197606" x2="405.2489830416697" y1="168.7385260036195" y2="211.48779126885054" /><line stroke="black" x1="405.2489830416697" x2="406.8183860780673" y1="211.48779126885054" y2="254.19353264490783" /><line stroke="black" x1="406.8183860780673" x2="409.5869781594385" y1="254.19353264490783" y2="287.53083068686135" /><line stroke="black" x1="409.5869781594385" x2="414.19672460476545" y1="287.53083068686135" y2="328.34370289357855" /><line stroke="black" x1="414.19672460476545" x2="407.9170673393202" y1="328.34370289357855" y2="365.0591344466141" /><line stroke="black" x1="414.19672460476545" x2="405.57588671354443" y1="328.34370289357855" y2="408.46336228882797" /><line stroke="black" x1="407.9170673393202" x2="405.57588671354443" y1="365.0591344466141" y2="408.46336228882797" /><circle cx="51.77759223202001" cy="46.30567637625215" fill="lightblue" r="2" stroke="blue" /><circle cx="47.41568326639006" cy="93.68004581911396" fill="lightblue" r="2" stroke="blue" /><circle cx="51.01295319825208" cy="127.32966015835026" fill="lightblue" r="2" stroke="blue" /><circle cx="51.55761568993887" cy="171.90915684320484" fill="lightblue" r="2" stroke="blue" /><circle cx="46.74998226057307" cy="212.78996757635576" fill="lightblue" r="2" stroke="blue" /><circle cx="54.627360199873216" cy="250.43456490658014" fill="lightblue" r="2" stroke="blue" /><circle cx="52.978839341996604" cy="291.6724212508481" fill="lightblue" r="2" stroke="blue" /><circle cx="48.591465992968715" cy="329.27708158321434" fill="lightblue" r="2" stroke="blue" /><circle cx="49.64087447681826" cy="372.6782752581466" fill="lightblue" r="2" stroke="blue" /><circle cx="50.05911785719225" cy="407.93208199771965" fill="lightblue" r="2" stroke="blue" /><circle cx="88.86600716236183" cy="47.73145123502631" fill="lightblue" r="2" stroke="blue" /><circle cx="93.5583836377785" cy="87.06819157129489" fill="lightblue" r="2" stroke="blue" /><circle cx="87.62747206826548" cy="127.84937754922917" fill="lightblue" r="2" stroke="blue" /><circle cx="94.44225521324863" cy="165.67478072836514" fill="lightblue" r="2" stroke="blue" /><circle cx="93.02616916633615" cy="207.91064079433107" fill="lightblue" r="2" stroke="blue" /><circle cx="90.94681548730662" cy="245.67041959557787" fill="lightblue" r="2" stroke="blue" /><circle cx="85.82100576309456" cy="292.58308930403837" fill="lightblue" r="2" stroke="blue" /><circle cx="94.25597539837626" cy="329.7962185637159" fill="lightblue" r="2" stroke="blue" /><circle cx="85.26092844814134" cy="365.3807389482952" fill="lightblue" r="2" stroke="blue" /><circle cx="91.84381232943889" cy="406.48409650511496" fill="lightblue" r="2" stroke="blue" /><circle cx="126.32485805926844" cy="53.501930284124946" fill="lightblue" r="2" stroke="blue" /><circle cx="133.83811891656956" cy="88.98905589891092" fill="lightblue" r="2" stroke="blue" /><circle cx="126.71687548637108" cy="132.78167297828088" fill="lightblue" r="2" stroke="blue" /><circle cx="128.6163519529899" cy="168.48043959549113" fill="lightblue" r="2" stroke="blue" /><circle cx="134.22505583537534" cy="209.61436699651858" fill="lightblue" r="2" stroke="blue" /><circle cx="132.37292047470186" cy="248.01106327808807" fill="lightblue" r="2" stroke="blue" /><circle cx="125.3205400366132" cy="287.73586171065574" fill="lightblue" r="2" stroke="blue" /><circle cx="129.91136045191683" cy="329.6920574085391" fill="lightblue" r="2" stroke="blue" /><circle cx="134.30837019411422" cy="374.5147569387542" fill="lightblue" r="2" stroke="blue" /><circle cx="134.64561654096804" cy="406.1098121059358" fill="lightblue" r="2" stroke="blue" /><circle cx="171.92804897830175" cy="50.74738726972552" fill="lightblue" r="2" stroke="blue" /><circle cx="167.95556730634107" cy="88.30132878936624" fill="lightblue" r="2" stroke="blue" /><circle cx="172.28083821875842" cy="125.57681815576076" fill="lightblue" r="2" stroke="blue" /><circle cx="170.3011450845702" cy="173.5065668811083" fill="lightblue" r="2" stroke="blue" /><circle cx="167.4014364865122" cy="206.0513004850457" fill="lightblue" r="2" stroke="blue" /><circle cx="174.43641325345968" cy="249.57536051628534" fill="lightblue" r="2" stroke="blue" /><circle cx="173.60202883179832" cy="286.4709617914458" fill="lightblue" r="2" stroke="blue" /><circle cx="171.68230309397103" cy="332.5332883128671" fill="lightblue" r="2" stroke="blue" /><circle cx="165.04013233039927" cy="372.14233553701735" fill="lightblue" r="2" stroke="blue" /><circle cx="166.77375564434763" cy="409.919091808118" fill="lightblue" r="2" stroke="blue" /><circle cx="207.57895100464287" cy="50.64242491082584" fill="lightblue" r="2" stroke="blue" /><circle cx="213.36307705386068" cy="85.61463594865398" fill="lightblue" r="2" stroke="blue" /><circle cx="207.28204544634653" cy="129.1939898849295" fill="lightblue" r="2" stroke="blue" /><circle cx="212.4576270542654" cy="165.4528162792722" fill="lightblue" r="2" stroke="blue" /><circle cx="206.62561843433943" cy="211.0316289959095" fill="lightblue" r="2" stroke="blue" /><circle cx="212.84356495784328" cy="250.95645367014404" fill="lightblue" r="2" stroke="blue" /><circle cx="214.10834956404057" cy="285.09029764177444" fill="lightblue" r="2" stroke="blue" /><circle cx="211.80938624311844" cy="325.3544018296434" fill="lightblue" r="2" stroke="blue" /><circle cx="206.63783604323305" cy="372.69279324263147" fill="lightblue" r="2" stroke="blue" /><circle cx="209.92806877473626" cy="409.98553549040463" fill="lightblue" r="2" stroke="blue" /><circle cx="252.95749035750575" cy="48.37762655988182" fill="lightblue" r="2" stroke="blue" /><circle cx="251.87414574695634" cy="88.44486599746217" fill="lightblue" r="2" stroke="blue" /><circle cx="250.88858035145105" cy="130.1628888509442" fill="lightblue" r="2" stroke="blue" /><circle cx="252.600094803918" cy="165.79964507875565" fill="lightblue" r="2" stroke="blue" /><circle cx="245.78472738203368" cy="205.43499589827329" fill="lightblue" r="2" stroke="blue" /><circle cx="249.231814420426" cy="250.718994857437" fill="lightblue" r="2" stroke="blue" /><circle cx="247.94755074275358" cy="290.6832616562037" fill="lightblue" r="2" stroke="blue" /><circle cx="254.691615596248" cy="328.67556812115527" fill="lightblue" r="2" stroke="blue" /><circle cx="247.44932786540076" cy="365.7981939246956" fill="lightblue" r="2" stroke="blue" /><circle cx="245.14345006515651" cy="413.4638591958773" fill="lightblue" r="2" stroke="blue" /><circle cx="286.48326576909017" cy="48.668223082609515" fill="lightblue" r="2" stroke="blue" /><circle cx="293.37109802748637" cy="89.79070630958783" fill="lightblue" r="2" stroke="blue" /><circle cx="294.67235824471516" cy="128.69433196778863" fill="lightblue" r="2" stroke="blue" /><circle cx="287.94948159391004" cy="174.54571512710817" fill="lightblue" r="2" stroke="blue" /><circle cx="288.6756914396358" cy="209.77791816603442" fill="lightblue" r="2" stroke="blue" /><circle cx="293.8654292204416" cy="254.04021219918377" fill="lightblue" r="2" stroke="blue" /><circle cx="291.3036831774951" cy="291.5118737961389" fill="lightblue" r="2" stroke="blue" /><circle cx="292.9463087018023" cy="330.8010914960643" fill="lightblue" r="2" stroke="blue" /><circle cx="294.3982093871792" cy="370.74293899338204" fill="lightblue" r="2" stroke="blue" /><circle cx="292.65579298261275" cy="409.6127012242638" fill="lightblue" r="2" stroke="blue" /><circle cx="330.2846598920214" cy="54.63431250291293" fill="lightblue" r="2" stroke="blue" /><circle cx="325.8859991178084" cy="93.20984098304453" fill="lightblue" r="2" stroke="blue" /><circle cx="326.546270371331" cy="132.0600778010513" fill="lightblue" r="2" stroke="blue" /><circle cx="327.2376330311852" cy="170.69783627303883" fill="lightblue" r="2" stroke="blue" /><circle cx="329.9706770543391" cy="211.41655242062052" fill="lightblue" r="2" stroke="blue" /><circle cx="331.95898998607385" cy="247.82604524824714" fill="lightblue" r="2" stroke="blue" /><circle cx="327.14632473996255" cy="294.2613595632489" fill="lightblue" r="2" stroke="blue" /><circle cx="333.91550669983343" cy="327.23730302316204" fill="lightblue" r="2" stroke="blue" /><circle cx="331.96878946491603" cy="370.2951424699392" fill="lightblue" r="2" stroke="blue" /><circle cx="328.54147627141606" cy="410.4275512691919" fill="lightblue" r="2" stroke="blue" /><circle cx="370.6767358318286" cy="47.84704701630807" fill="lightblue" r="2" stroke="blue" /><circle cx="368.3032592602998" cy="92.90176688032993" fill="lightblue" r="2" stroke="blue" /><circle cx="369.69994944927674" cy="130.66203442226367" fill="lightblue" r="2" stroke="blue" /><circle cx="366.39735006388474" cy="172.68960885904625" fill="lightblue" r="2" stroke="blue" /><circle cx="369.5024723577764" cy="211.4929451828923" fill="lightblue" r="2" stroke="blue" /><circle cx="366.8151426323349" cy="245.5951635312249" fill="lightblue" r="2" stroke="blue" /><circle cx="369.8406154188524" cy="291.213157676155" fill="lightblue" r="2" stroke="blue" /><circle cx="369.00793897748287" cy="325.1585515151656" fill="lightblue" r="2" stroke="blue" /><circle cx="372.5904299508855" cy="368.6859035321582" fill="lightblue" r="2" stroke="blue" /><circle cx="371.1789119784597" cy="409.5942093059098" fill="lightblue" r="2" stroke="blue" /><circle cx="409.71435130534144" cy="51.92723654568934" fill="lightblue" r="2" stroke="blue" /><circle cx="405.57872238390183" cy="92.33973590739132" fill="lightblue" r="2" stroke="blue" /><circle cx="413.9630757970426" cy="130.68827253029332" fill="lightblue" r="2" stroke="blue" /><circle cx="407.23282496197606" cy="168.7385260036195" fill="lightblue" r="2" stroke="blue" /><circle cx="405.2489830416697" cy="211.48779126885054" fill="lightblue" r="2" stroke="blue" /><circle cx="406.8183860780673" cy="254.19353264490783" fill="lightblue" r="2" stroke="blue" /><circle cx="409.5869781594385" cy="287.53083068686135" fill="lightblue" r="2" stroke="blue" /><circle cx="414.19672460476545" cy="328.34370289357855" fill="lightblue" r="2" stroke="blue" /><circle cx="407.9170673393202" cy="365.0591344466141" fill="lightblue" r="2" stroke="blue" /><circle cx="405.57588671354443" cy="408.46336228882797" fill="lightblue" r="2" stroke="blue" /></svg>