<?xml version="1.0" encoding="utf-8" ?>
<svg baseProfile="full" height="100%" version="1.1" width="100%" xmlns="http://www.w3.org/2000/svg" xmlns:ev="http://www.w3.org/2001/xml-events" xmlns:xlink="http://www.w3.org/1999/xlink"><defs /><line stroke="black" x1="266.9754889446441" x2="272.3462455229594" y1="103.10917614548508" y2="98.21215193502209" /><line stroke="black" x1="77.36443324062031" x2="75.36318609832159" y1="357.04311069145075" y2="349.38386013179894" /><line stroke="black" x1="167.56561673861017" x2="180.33462040774722" y1="253.1699768227326" y2="253.61599925489207" /><line stroke="black" x1="280.9453028828482" x2="272.3462455229594" y1="108.68846185445187" y2="98.21215193502209" /><line stroke="black" x1="280.9453028828482" x2="266.9754889446441" y1="108.68846185445187" y2="103.10917614548508" /><line stroke="black" x1="119.5644526455039" x2="104.92118870989529" y1="181.5068545090027" y2="185.27794646094637" /><line stroke="black" x1="299.549862842444" x2="304.36185502954623" y1="340.92806242516485" y2="356.74438815667656" /><line stroke="black" x1="165.47032346001575" x2="181.44074424688915" y1="296.9375494749081" y2="305.606760048189" /><line stroke="black" x1="64.72306508715526" x2="72.14678652395781" y1="70.58744655092923" y2="89.05817309796986" /><line stroke="black" x1="133.7409207947178" x2="152.3854309548776" y1="101.53404416390194" y2="94.5032840069317" /><line stroke="black" x1="215.05198160619537" x2="205.01531765847565" y1="88.75000605335109" y2="107.60876947518385" /><line stroke="black" x1="179.19839148544852" x2="199.34937511657853" y1="344.06362854606675" y2="333.93315012507117" /><line stroke="black" x1="168.4030451291563" x2="152.3854309548776" y1="77.47126685434489" y2="94.5032840069317" /><line stroke="black" x1="77.36443324062031" x2="100.89713435493366" y1="357.04311069145075" y2="354.8959679972898" /><line stroke="black" x1="373.53580204133635" x2="357.4590224563325" y1="118.14906445377224" y2="136.6266124654913" /><line stroke="black" x1="302.20698729846976" x2="299.549862842444" y1="315.55060830208566" y2="340.92806242516485" /><line stroke="black" x1="186.68646817302" x2="180.33462040774722" y1="228.86565933440428" y2="253.61599925489207" /><line stroke="black" x1="75.36318609832159" x2="100.89713435493366" y1="349.38386013179894" y2="354.8959679972898" /><line stroke="black" x1="237.98531300942454" x2="211.78235002104412" y1="200.00449640529885" y2="197.69971534310002" /><line stroke="black" x1="152.3854309548776" x2="166.0679582772342" y1="94.5032840069317" y2="117.66960960282047" /><line stroke="black" x1="128.9859907618872" x2="100.89713435493366" y1="351.0399224020661" y2="354.8959679972898" /><line stroke="black" x1="295.63513112032695" x2="324.3401929973786" y1="386.3477144634412" y2="385.9774533693445" /><line stroke="black" x1="250.32004006772812" x2="263.49667614365023" y1="277.73792024098327" y2="303.84397577469906" /><line stroke="black" x1="117.17094765419615" x2="128.9859907618872" y1="323.5638989116988" y2="351.0399224020661" /><line stroke="black" x1="295.63513112032695" x2="304.36185502954623" y1="386.3477144634412" y2="356.74438815667656" /><line stroke="black" x1="186.68646817302" x2="167.56561673861017" y1="228.86565933440428" y2="253.1699768227326" /><line stroke="black" x1="215.05198160619537" x2="241.16080203790327" y1="88.75000605335109" y2="72.04192347842033" /><line stroke="black" x1="133.7409207947178" x2="102.61604322407169" y1="101.53404416390194" y2="101.23489128302634" /><line stroke="black" x1="211.8679284038779" x2="181.44074424688915" y1="293.92052124029" y2="305.606760048189" /><line stroke="black" x1="72.14678652395781" x2="102.61604322407169" y1="89.05817309796986" y2="101.23489128302634" /><line stroke="black" x1="181.44074424688915" x2="199.34937511657853" y1="305.606760048189" y2="333.93315012507117" /><line stroke="black" x1="306.8842612240661" x2="323.2982280004222" y1="251.0531770240222" y2="280.4423088023118" /><line stroke="black" x1="186.68646817302" x2="159.33126929288346" y1="228.86565933440428" y2="206.93068593196264" /><line stroke="black" x1="77.36443324062031" x2="74.27013404697269" y1="357.04311069145075" y2="392.019408449455" /><line stroke="black" x1="117.17094765419615" x2="100.89713435493366" y1="323.5638989116988" y2="354.8959679972898" /><line stroke="black" x1="304.36185502954623" x2="324.3401929973786" y1="356.74438815667656" y2="385.9774533693445" /><line stroke="black" x1="357.4590224563325" x2="386.62670600157367" y1="136.6266124654913" y2="157.765806402595" /><line stroke="black" x1="133.7409207947178" x2="166.0679582772342" y1="101.53404416390194" y2="117.66960960282047" /><line stroke="black" x1="179.19839148544852" x2="181.44074424688915" y1="344.06362854606675" y2="305.606760048189" /><line stroke="black" x1="387.6088126561471" x2="396.3645999572147" y1="242.093598792099" y2="203.49597034778031" /><line stroke="black" x1="380.96565757130674" x2="387.6088126561471" y1="281.3507223555825" y2="242.093598792099" /><line stroke="black" x1="186.68646817302" x2="211.78235002104412" y1="228.86565933440428" y2="197.69971534310002" /><line stroke="black" x1="166.0679582772342" x2="205.01531765847565" y1="117.66960960282047" y2="107.60876947518385" /><line stroke="black" x1="168.4030451291563" x2="166.0679582772342" y1="77.47126685434489" y2="117.66960960282047" /><line stroke="black" x1="266.9754889446441" x2="241.16080203790327" y1="103.10917614548508" y2="72.04192347842033" /><line stroke="black" x1="302.20698729846976" x2="263.49667614365023" y1="315.55060830208566" y2="303.84397577469906" /><line stroke="black" x1="272.3462455229594" x2="241.16080203790327" y1="98.21215193502209" y2="72.04192347842033" /><line stroke="black" x1="302.20698729846976" x2="323.2982280004222" y1="315.55060830208566" y2="280.4423088023118" /><line stroke="black" x1="302.20698729846976" x2="304.36185502954623" y1="315.55060830208566" y2="356.74438815667656" /><line stroke="black" x1="250.32004006772812" x2="211.8679284038779" y1="277.73792024098327" y2="293.92052124029" /><line stroke="black" x1="373.53580204133635" x2="386.62670600157367" y1="118.14906445377224" y2="157.765806402595" /><line stroke="black" x1="211.8679284038779" x2="199.34937511657853" y1="293.92052124029" y2="333.93315012507117" /><line stroke="black" x1="168.4030451291563" x2="133.7409207947178" y1="77.47126685434489" y2="101.53404416390194" /><line stroke="black" x1="74.27013404697269" x2="75.36318609832159" y1="392.019408449455" y2="349.38386013179894" /><line stroke="black" x1="165.47032346001575" x2="167.56561673861017" y1="296.9375494749081" y2="253.1699768227326" /><line stroke="black" x1="295.63513112032695" x2="299.549862842444" y1="386.3477144634412" y2="340.92806242516485" /><line stroke="black" x1="74.27013404697269" x2="100.89713435493366" y1="392.019408449455" y2="354.8959679972898" /><line stroke="black" x1="165.47032346001575" x2="180.33462040774722" y1="296.9375494749081" y2="253.61599925489207" /><line stroke="black" x1="165.47032346001575" x2="211.8679284038779" y1="296.9375494749081" y2="293.92052124029" /><line stroke="black" x1="386.62670600157367" x2="396.3645999572147" y1="157.765806402595" y2="203.49597034778031" /><line stroke="black" x1="167.56561673861017" x2="159.33126929288346" y1="253.1699768227326" y2="206.93068593196264" /><line stroke="black" x1="119.5644526455039" x2="159.33126929288346" y1="181.5068545090027" y2="206.93068593196264" /><line stroke="black" x1="168.4030451291563" x2="205.01531765847565" y1="77.47126685434489" y2="107.60876947518385" /><line stroke="black" x1="168.4030451291563" x2="215.05198160619537" y1="77.47126685434489" y2="88.75000605335109" /><line stroke="black" x1="64.72306508715526" x2="102.61604322407169" y1="70.58744655092923" y2="101.23489128302634" /><line stroke="black" x1="165.47032346001575" x2="179.19839148544852" y1="296.9375494749081" y2="344.06362854606675" /><line stroke="black" x1="117.17094765419615" x2="75.36318609832159" y1="323.5638989116988" y2="349.38386013179894" /><line stroke="black" x1="128.9859907618872" x2="179.19839148544852" y1="351.0399224020661" y2="344.06362854606675" /><line stroke="black" x1="205.01531765847565" x2="241.16080203790327" y1="107.60876947518385" y2="72.04192347842033" /><line stroke="black" x1="180.33462040774722" x2="211.8679284038779" y1="253.61599925489207" y2="293.92052124029" /><line stroke="black" x1="380.96565757130674" x2="356.0774775012725" y1="281.3507223555825" y2="326.46325448839434" /><line stroke="black" x1="299.549862842444" x2="263.49667614365023" y1="340.92806242516485" y2="303.84397577469906" /><line stroke="black" x1="237.98531300942454" x2="277.5128773632005" y1="200.00449640529885" y2="166.58224327199417" /><line stroke="black" x1="263.49667614365023" x2="211.8679284038779" y1="303.84397577469906" y2="293.92052124029" /><line stroke="black" x1="211.78235002104412" x2="159.33126929288346" y1="197.69971534310002" y2="206.93068593196264" /><line stroke="black" x1="302.20698729846976" x2="356.0774775012725" y1="315.55060830208566" y2="326.46325448839434" /><line stroke="black" x1="165.47032346001575" x2="117.17094765419615" y1="296.9375494749081" y2="323.5638989116988" /><line stroke="black" x1="356.0774775012725" x2="323.2982280004222" y1="326.46325448839434" y2="280.4423088023118" /><line stroke="black" x1="380.96565757130674" x2="323.2982280004222" y1="281.3507223555825" y2="280.4423088023118" /><line stroke="black" x1="280.9453028828482" x2="277.5128773632005" y1="108.68846185445187" y2="166.58224327199417" /><line stroke="black" x1="104.92118870989529" x2="159.33126929288346" y1="185.27794646094637" y2="206.93068593196264" /><line stroke="black" x1="186.68646817302" x2="237.98531300942454" y1="228.86565933440428" y2="200.00449640529885" /><line stroke="black" x1="304.36185502954623" x2="356.0774775012725" y1="356.74438815667656" y2="326.46325448839434" /><line stroke="black" x1="266.9754889446441" x2="205.01531765847565" y1="103.10917614548508" y2="107.60876947518385" /><line stroke="black" x1="250.32004006772812" x2="306.8842612240661" y1="277.73792024098327" y2="251.0531770240222" /><line stroke="black" x1="302.20698729846976" x2="250.32004006772812" y1="315.55060830208566" y2="277.73792024098327" /><line stroke="black" x1="266.9754889446441" x2="277.5128773632005" y1="103.10917614548508" y2="166.58224327199417" /><line stroke="black" x1="302.20698729846976" x2="306.8842612240661" y1="315.55060830208566" y2="251.0531770240222" /><line stroke="black" x1="165.47032346001575" x2="128.9859907618872" y1="296.9375494749081" y2="351.0399224020661" /><line stroke="black" x1="166.0679582772342" x2="102.61604322407169" y1="117.66960960282047" y2="101.23489128302634" /><line stroke="black" x1="356.0774775012725" x2="324.3401929973786" y1="326.46325448839434" y2="385.9774533693445" /><line stroke="black" x1="128.9859907618872" x2="74.27013404697269" y1="351.0399224020661" y2="392.019408449455" /><line stroke="black" x1="186.68646817302" x2="211.8679284038779" y1="228.86565933440428" y2="293.92052124029" /><line stroke="black" x1="168.4030451291563" x2="102.61604322407169" y1="77.47126685434489" y2="101.23489128302634" /><line stroke="black" x1="117.17094765419615" x2="94.66586001159105" y1="323.5638989116988" y2="256.54528119132874" /><line stroke="black" x1="263.49667614365023" x2="199.34937511657853" y1="303.84397577469906" y2="333.93315012507117" /><line stroke="black" x1="104.92118870989529" x2="94.66586001159105" y1="185.27794646094637" y2="256.54528119132874" /><line stroke="black" x1="211.78235002104412" x2="277.5128773632005" y1="197.69971534310002" y2="166.58224327199417" /><line stroke="black" x1="168.4030451291563" x2="241.16080203790327" y1="77.47126685434489" y2="72.04192347842033" /><line stroke="black" x1="167.56561673861017" x2="94.66586001159105" y1="253.1699768227326" y2="256.54528119132874" /><line stroke="black" x1="387.6088126561471" x2="323.2982280004222" y1="242.093598792099" y2="280.4423088023118" /><line stroke="black" x1="357.4590224563325" x2="396.3645999572147" y1="136.6266124654913" y2="203.49597034778031" /><line stroke="black" x1="250.32004006772812" x2="237.98531300942454" y1="277.73792024098327" y2="200.00449640529885" /><line stroke="black" x1="119.5644526455039" x2="166.0679582772342" y1="181.5068545090027" y2="117.66960960282047" /><line stroke="black" x1="380.96565757130674" x2="396.3645999572147" y1="281.3507223555825" y2="203.49597034778031" /><line stroke="black" x1="186.68646817302" x2="250.32004006772812" y1="228.86565933440428" y2="277.73792024098327" /><line stroke="black" x1="387.6088126561471" x2="306.8842612240661" y1="242.093598792099" y2="251.0531770240222" /><line stroke="black" x1="357.4590224563325" x2="280.9453028828482" y1="136.6266124654913" y2="108.68846185445187" /><line stroke="black" x1="94.66586001159105" x2="159.33126929288346" y1="256.54528119132874" y2="206.93068593196264" /><line stroke="black" x1="165.47032346001575" x2="94.66586001159105" y1="296.9375494749081" y2="256.54528119132874" /><line stroke="black" x1="119.5644526455039" x2="102.61604322407169" y1="181.5068545090027" y2="101.23489128302634" /><line stroke="black" x1="104.92118870989529" x2="102.61604322407169" y1="185.27794646094637" y2="101.23489128302634" /><line stroke="black" x1="357.4590224563325" x2="277.5128773632005" y1="136.6266124654913" y2="166.58224327199417" /><line stroke="black" x1="237.98531300942454" x2="306.8842612240661" y1="200.00449640529885" y2="251.0531770240222" /><line stroke="black" x1="295.63513112032695" x2="263.49667614365023" y1="386.3477144634412" y2="303.84397577469906" /><line stroke="black" x1="306.8842612240661" x2="277.5128773632005" y1="251.0531770240222" y2="166.58224327199417" /><line stroke="black" x1="166.0679582772342" x2="159.33126929288346" y1="117.66960960282047" y2="206.93068593196264" /><line stroke="black" x1="205.01531765847565" x2="211.78235002104412" y1="107.60876947518385" y2="197.69971534310002" /><line stroke="black" x1="166.0679582772342" x2="211.78235002104412" y1="117.66960960282047" y2="197.69971534310002" /><line stroke="black" x1="373.53580204133635" x2="280.9453028828482" y1="118.14906445377224" y2="108.68846185445187" /><line stroke="black" x1="179.19839148544852" x2="263.49667614365023" y1="344.06362854606675" y2="303.84397577469906" /><line stroke="black" x1="205.01531765847565" x2="277.5128773632005" y1="107.60876947518385" y2="166.58224327199417" /><line stroke="black" x1="75.36318609832159" x2="94.66586001159105" y1="349.38386013179894" y2="256.54528119132874" /><line stroke="black" x1="306.8842612240661" x2="396.3645999572147" y1="251.0531770240222" y2="203.49597034778031" /><line stroke="black" x1="104.92118870989529" x2="72.14678652395781" y1="185.27794646094637" y2="89.05817309796986" /><line stroke="black" x1="373.53580204133635" x2="272.3462455229594" y1="118.14906445377224" y2="98.21215193502209" /><line stroke="black" x1="168.4030451291563" x2="64.72306508715526" y1="77.47126685434489" y2="70.58744655092923" /><line stroke="black" x1="179.19839148544852" x2="74.27013404697269" y1="344.06362854606675" y2="392.019408449455" /><line stroke="black" x1="380.96565757130674" x2="324.3401929973786" y1="281.3507223555825" y2="385.9774533693445" /><line stroke="black" x1="64.72306508715526" x2="104.92118870989529" y1="70.58744655092923" y2="185.27794646094637" /><line stroke="black" x1="179.19839148544852" x2="295.63513112032695" y1="344.06362854606675" y2="386.3477144634412" /><line stroke="black" x1="396.3645999572147" x2="277.5128773632005" y1="203.49597034778031" y2="166.58224327199417" /><line stroke="black" x1="373.53580204133635" x2="241.16080203790327" y1="118.14906445377224" y2="72.04192347842033" /><line stroke="black" x1="104.92118870989529" x2="75.36318609832159" y1="185.27794646094637" y2="349.38386013179894" /><line stroke="black" x1="64.72306508715526" x2="241.16080203790327" y1="70.58744655092923" y2="72.04192347842033" /><line stroke="black" x1="295.63513112032695" x2="74.27013404697269" y1="386.3477144634412" y2="392.019408449455" /><line stroke="black" x1="74.27013404697269" x2="324.3401929973786" y1="392.019408449455" y2="385.9774533693445" /><line stroke="black" x1="64.72306508715526" x2="75.36318609832159" y1="70.58744655092923" y2="349.38386013179894" /><line stroke="black" x1="74.27013404697269" x2="64.72306508715526" y1="392.019408449455" y2="70.58744655092923" /><circle cx="302.20698729846976" cy="315.55060830208566" fill="lightblue" r="2" stroke="blue" /><circle cx="119.5644526455039" cy="181.5068545090027" fill="lightblue" r="2" stroke="blue" /><circle cx="165.47032346001575" cy="296.9375494749081" fill="lightblue" r="2" stroke="blue" /><circle cx="117.17094765419615" cy="323.5638989116988" fill="lightblue" r="2" stroke="blue" /><circle cx="380.96565757130674" cy="281.3507223555825" fill="lightblue" r="2" stroke="blue" /><circle cx="128.9859907618872" cy="351.0399224020661" fill="lightblue" r="2" stroke="blue" /><circle cx="373.53580204133635" cy="118.14906445377224" fill="lightblue" r="2" stroke="blue" /><circle cx="77.36443324062031" cy="357.04311069145075" fill="lightblue" r="2" stroke="blue" /><circle cx="179.19839148544852" cy="344.06362854606675" fill="lightblue" r="2" stroke="blue" /><circle cx="295.63513112032695" cy="386.3477144634412" fill="lightblue" r="2" stroke="blue" /><circle cx="168.4030451291563" cy="77.47126685434489" fill="lightblue" r="2" stroke="blue" /><circle cx="133.7409207947178" cy="101.53404416390194" fill="lightblue" r="2" stroke="blue" /><circle cx="299.549862842444" cy="340.92806242516485" fill="lightblue" r="2" stroke="blue" /><circle cx="304.36185502954623" cy="356.74438815667656" fill="lightblue" r="2" stroke="blue" /><circle cx="152.3854309548776" cy="94.5032840069317" fill="lightblue" r="2" stroke="blue" /><circle cx="186.68646817302" cy="228.86565933440428" fill="lightblue" r="2" stroke="blue" /><circle cx="167.56561673861017" cy="253.1699768227326" fill="lightblue" r="2" stroke="blue" /><circle cx="357.4590224563325" cy="136.6266124654913" fill="lightblue" r="2" stroke="blue" /><circle cx="356.0774775012725" cy="326.46325448839434" fill="lightblue" r="2" stroke="blue" /><circle cx="166.0679582772342" cy="117.66960960282047" fill="lightblue" r="2" stroke="blue" /><circle cx="74.27013404697269" cy="392.019408449455" fill="lightblue" r="2" stroke="blue" /><circle cx="280.9453028828482" cy="108.68846185445187" fill="lightblue" r="2" stroke="blue" /><circle cx="180.33462040774722" cy="253.61599925489207" fill="lightblue" r="2" stroke="blue" /><circle cx="387.6088126561471" cy="242.093598792099" fill="lightblue" r="2" stroke="blue" /><circle cx="266.9754889446441" cy="103.10917614548508" fill="lightblue" r="2" stroke="blue" /><circle cx="272.3462455229594" cy="98.21215193502209" fill="lightblue" r="2" stroke="blue" /><circle cx="250.32004006772812" cy="277.73792024098327" fill="lightblue" r="2" stroke="blue" /><circle cx="263.49667614365023" cy="303.84397577469906" fill="lightblue" r="2" stroke="blue" /><circle cx="211.8679284038779" cy="293.92052124029" fill="lightblue" r="2" stroke="blue" /><circle cx="215.05198160619537" cy="88.75000605335109" fill="lightblue" r="2" stroke="blue" /><circle cx="205.01531765847565" cy="107.60876947518385" fill="lightblue" r="2" stroke="blue" /><circle cx="64.72306508715526" cy="70.58744655092923" fill="lightblue" r="2" stroke="blue" /><circle cx="104.92118870989529" cy="185.27794646094637" fill="lightblue" r="2" stroke="blue" /><circle cx="181.44074424688915" cy="305.606760048189" fill="lightblue" r="2" stroke="blue" /><circle cx="386.62670600157367" cy="157.765806402595" fill="lightblue" r="2" stroke="blue" /><circle cx="75.36318609832159" cy="349.38386013179894" fill="lightblue" r="2" stroke="blue" /><circle cx="72.14678652395781" cy="89.05817309796986" fill="lightblue" r="2" stroke="blue" /><circle cx="237.98531300942454" cy="200.00449640529885" fill="lightblue" r="2" stroke="blue" /><circle cx="94.66586001159105" cy="256.54528119132874" fill="lightblue" r="2" stroke="blue" /><circle cx="241.16080203790327" cy="72.04192347842033" fill="lightblue" r="2" stroke="blue" /><circle cx="324.3401929973786" cy="385.9774533693445" fill="lightblue" r="2" stroke="blue" /><circle cx="306.8842612240661" cy="251.0531770240222" fill="lightblue" r="2" stroke="blue" /><circle cx="199.34937511657853" cy="333.93315012507117" fill="lightblue" r="2" stroke="blue" /><circle cx="102.61604322407169" cy="101.23489128302634" fill="lightblue" r="2" stroke="blue" /><circle cx="100.89713435493366" cy="354.8959679972898" fill="lightblue" r="2" stroke="blue" /><circle cx="323.2982280004222" cy="280.4423088023118" fill="lightblue" r="2" stroke="blue" /><circle cx="211.78235002104412" cy="197.69971534310002" fill="lightblue" r="2" stroke="blue" /><circle cx="396.3645999572147" cy="203.49597034778031" fill="lightblue" r="2" stroke="blue" /><circle cx="159.33126929288346" cy="206.93068593196264" fill="lightblue" r="2" stroke="blue" /><circle cx="277.5128773632005" cy="166.58224327199417" fill="lightblue" r="2" stroke="blue" /></svg>