<?xml version="1.0" encoding="utf-8" ?>
<svg baseProfile="full" height="415" version="1.1" width="415" xmlns="http://www.w3.org/2000/svg" xmlns:ev="http://www.w3.org/2001/xml-events" xmlns:xlink="http://www.w3.org/1999/xlink"><defs /><line stroke="black" x1="252.97198736530754" x2="259.1099948833822" y1="65.69620130912581" y2="60.09960221145383" /><line stroke="black" x1="36.27363798928036" x2="33.98649839808183" y1="355.9064122188009" y2="347.1529830077702" /><line stroke="black" x1="139.3607048441259" x2="153.95385189456823" y1="237.19425922598012" y2="237.70399914844808" /><line stroke="black" x1="268.93748900896935" x2="259.1099948833822" y1="72.0725278336593" y2="60.09960221145383" /><line stroke="black" x1="268.93748900896935" x2="252.97198736530754" y1="72.0725278336593" y2="65.69620130912581" /><line stroke="black" x1="84.5022315948616" x2="67.7670728113089" y1="155.29354801028882" y2="159.6033673839387" /><line stroke="black" x1="290.1998432485074" x2="295.69926289090995" y1="337.48921420018837" y2="355.56501503620177" /><line stroke="black" x1="136.9660839543037" x2="155.21799342501618" y1="287.21434225703786" y2="297.1220114836446" /><line stroke="black" x1="21.826360099606006" x2="30.310613170237506" y1="28.528510343919116" y2="49.63791211196555" /><line stroke="black" x1="100.70390947967749" x2="122.01192109128868" y1="63.89605047303079" y2="55.86089600792194" /><line stroke="black" x1="193.63083612136614" x2="182.16036303825788" y1="49.28572120382981" y2="70.8385936859244" /><line stroke="black" x1="152.6553045547983" x2="175.6850001332326" y1="341.072718338362" y2="329.49502871436704" /><line stroke="black" x1="140.31776586189292" x2="122.01192109128868" y1="36.39573354782272" y2="55.86089600792194" /><line stroke="black" x1="36.27363798928036" x2="63.1681535484956" y1="355.9064122188009" y2="353.4525348540455" /><line stroke="black" x1="374.75520233295583" x2="356.38173995009424" y1="82.88464509002542" y2="104.00184281770433" /><line stroke="black" x1="293.23655691253686" x2="290.1998432485074" y1="308.48640948809793" y2="337.48921420018837" /><line stroke="black" x1="161.2131064834514" x2="153.95385189456823" y1="209.41789638217634" y2="237.70399914844808" /><line stroke="black" x1="33.98649839808183" x2="63.1681535484956" y1="347.1529830077702" y2="353.4525348540455" /><line stroke="black" x1="219.8403577250566" x2="189.8941143097647" y1="176.43371017748441" y2="173.7996746778286" /><line stroke="black" x1="122.01192109128868" x2="137.64909517398195" y1="55.86089600792194" y2="82.33669668893768" /><line stroke="black" x1="95.26970372787106" x2="63.1681535484956" y1="349.04562560236127" y2="353.4525348540455" /><line stroke="black" x1="285.7258641375165" x2="318.5316491398613" y1="389.3973879582185" y2="388.97423242210806" /><line stroke="black" x1="233.93718864883215" x2="248.9962013070288" y1="265.2719088468381" y2="295.1074008853704" /><line stroke="black" x1="81.76679731908132" x2="95.26970372787106" y1="317.64445589908433" y2="349.04562560236127" /><line stroke="black" x1="285.7258641375165" x2="295.69926289090995" y1="389.3973879582185" y2="355.56501503620177" /><line stroke="black" x1="161.2131064834514" x2="139.3607048441259" y1="209.41789638217634" y2="237.19425922598012" /><line stroke="black" x1="193.63083612136614" x2="223.469488043318" y1="49.28572120382981" y2="30.190769689623238" /><line stroke="black" x1="100.70390947967749" x2="65.1326208275105" y1="63.89605047303079" y2="63.554161466315826" /><line stroke="black" x1="189.99191817586046" x2="155.21799342501618" y1="283.7663099889029" y2="297.1220114836446" /><line stroke="black" x1="30.310613170237506" x2="65.1326208275105" y1="49.63791211196555" y2="63.554161466315826" /><line stroke="black" x1="155.21799342501618" x2="175.6850001332326" y1="297.1220114836446" y2="329.49502871436704" /><line stroke="black" x1="298.5820128275041" x2="317.3408320004825" y1="234.77505945602536" y2="268.3626386312135" /><line stroke="black" x1="161.2131064834514" x2="129.95002204900968" y1="209.41789638217634" y2="184.34935535081445" /><line stroke="black" x1="36.27363798928036" x2="32.73729605368307" y1="355.9064122188009" y2="395.8793239422343" /><line stroke="black" x1="81.76679731908132" x2="63.1681535484956" y1="317.64445589908433" y2="353.4525348540455" /><line stroke="black" x1="295.69926289090995" x2="318.5316491398613" y1="355.56501503620177" y2="388.97423242210806" /><line stroke="black" x1="356.38173995009424" x2="389.7162354303699" y1="104.00184281770433" y2="128.1609216029657" /><line stroke="black" x1="100.70390947967749" x2="137.64909517398195" y1="63.89605047303079" y2="82.33669668893768" /><line stroke="black" x1="152.6553045547983" x2="155.21799342501618" y1="341.072718338362" y2="297.1220114836446" /><line stroke="black" x1="390.83864303559665" x2="400.8452570939596" y1="224.53554147668456" y2="180.42396611174894" /><line stroke="black" x1="383.24646579577916" x2="390.83864303559665" y1="269.40082554923714" y2="224.53554147668456" /><line stroke="black" x1="161.2131064834514" x2="189.8941143097647" y1="209.41789638217634" y2="173.7996746778286" /><line stroke="black" x1="137.64909517398195" x2="182.16036303825788" y1="82.33669668893768" y2="70.8385936859244" /><line stroke="black" x1="140.31776586189292" x2="137.64909517398195" y1="36.39573354782272" y2="82.33669668893768" /><line stroke="black" x1="252.97198736530754" x2="223.469488043318" y1="65.69620130912581" y2="30.190769689623238" /><line stroke="black" x1="293.23655691253686" x2="248.9962013070288" y1="308.48640948809793" y2="295.1074008853704" /><line stroke="black" x1="259.1099948833822" x2="223.469488043318" y1="60.09960221145383" y2="30.190769689623238" /><line stroke="black" x1="293.23655691253686" x2="317.3408320004825" y1="308.48640948809793" y2="268.3626386312135" /><line stroke="black" x1="293.23655691253686" x2="295.69926289090995" y1="308.48640948809793" y2="355.56501503620177" /><line stroke="black" x1="233.93718864883215" x2="189.99191817586046" y1="265.2719088468381" y2="283.7663099889029" /><line stroke="black" x1="374.75520233295583" x2="389.7162354303699" y1="82.88464509002542" y2="128.1609216029657" /><line stroke="black" x1="189.99191817586046" x2="175.6850001332326" y1="283.7663099889029" y2="329.49502871436704" /><line stroke="black" x1="140.31776586189292" x2="100.70390947967749" y1="36.39573354782272" y2="63.89605047303079" /><line stroke="black" x1="32.73729605368307" x2="33.98649839808183" y1="395.8793239422343" y2="347.1529830077702" /><line stroke="black" x1="136.9660839543037" x2="139.3607048441259" y1="287.21434225703786" y2="237.19425922598012" /><line stroke="black" x1="285.7258641375165" x2="290.1998432485074" y1="389.3973879582185" y2="337.48921420018837" /><line stroke="black" x1="32.73729605368307" x2="63.1681535484956" y1="395.8793239422343" y2="353.4525348540455" /><line stroke="black" x1="136.9660839543037" x2="153.95385189456823" y1="287.21434225703786" y2="237.70399914844808" /><line stroke="black" x1="136.9660839543037" x2="189.99191817586046" y1="287.21434225703786" y2="283.7663099889029" /><line stroke="black" x1="389.7162354303699" x2="400.8452570939596" y1="128.1609216029657" y2="180.42396611174894" /><line stroke="black" x1="139.3607048441259" x2="129.95002204900968" y1="237.19425922598012" y2="184.34935535081445" /><line stroke="black" x1="84.5022315948616" x2="129.95002204900968" y1="155.29354801028882" y2="184.34935535081445" /><line stroke="black" x1="140.31776586189292" x2="182.16036303825788" y1="36.39573354782272" y2="70.8385936859244" /><line stroke="black" x1="140.31776586189292" x2="193.63083612136614" y1="36.39573354782272" y2="49.28572120382981" /><line stroke="black" x1="21.826360099606006" x2="65.1326208275105" y1="28.528510343919116" y2="63.554161466315826" /><line stroke="black" x1="136.9660839543037" x2="152.6553045547983" y1="287.21434225703786" y2="341.072718338362" /><line stroke="black" x1="81.76679731908132" x2="33.98649839808183" y1="317.64445589908433" y2="347.1529830077702" /><line stroke="black" x1="95.26970372787106" x2="152.6553045547983" y1="349.04562560236127" y2="341.072718338362" /><line stroke="black" x1="182.16036303825788" x2="223.469488043318" y1="70.8385936859244" y2="30.190769689623238" /><line stroke="black" x1="153.95385189456823" x2="189.99191817586046" y1="237.70399914844808" y2="283.7663099889029" /><line stroke="black" x1="383.24646579577916" x2="354.8028314300257" y1="269.40082554923714" y2="320.9580051295935" /><line stroke="black" x1="290.1998432485074" x2="248.9962013070288" y1="337.48921420018837" y2="295.1074008853704" /><line stroke="black" x1="219.8403577250566" x2="265.0147169865149" y1="176.43371017748441" y2="138.23684945370763" /><line stroke="black" x1="248.9962013070288" x2="189.99191817586046" y1="295.1074008853704" y2="283.7663099889029" /><line stroke="black" x1="189.8941143097647" x2="129.95002204900968" y1="173.7996746778286" y2="184.34935535081445" /><line stroke="black" x1="293.23655691253686" x2="354.8028314300257" y1="308.48640948809793" y2="320.9580051295935" /><line stroke="black" x1="136.9660839543037" x2="81.76679731908132" y1="287.21434225703786" y2="317.64445589908433" /><line stroke="black" x1="354.8028314300257" x2="317.3408320004825" y1="320.9580051295935" y2="268.3626386312135" /><line stroke="black" x1="383.24646579577916" x2="317.3408320004825" y1="269.40082554923714" y2="268.3626386312135" /><line stroke="black" x1="268.93748900896935" x2="265.0147169865149" y1="72.0725278336593" y2="138.23684945370763" /><line stroke="black" x1="67.7670728113089" x2="129.95002204900968" y1="159.6033673839387" y2="184.34935535081445" /><line stroke="black" x1="161.2131064834514" x2="219.8403577250566" y1="209.41789638217634" y2="176.43371017748441" /><line stroke="black" x1="295.69926289090995" x2="354.8028314300257" y1="355.56501503620177" y2="320.9580051295935" /><line stroke="black" x1="252.97198736530754" x2="182.16036303825788" y1="65.69620130912581" y2="70.8385936859244" /><line stroke="black" x1="233.93718864883215" x2="298.5820128275041" y1="265.2719088468381" y2="234.77505945602536" /><line stroke="black" x1="293.23655691253686" x2="233.93718864883215" y1="308.48640948809793" y2="265.2719088468381" /><line stroke="black" x1="252.97198736530754" x2="265.0147169865149" y1="65.69620130912581" y2="138.23684945370763" /><line stroke="black" x1="293.23655691253686" x2="298.5820128275041" y1="308.48640948809793" y2="234.77505945602536" /><line stroke="black" x1="136.9660839543037" x2="95.26970372787106" y1="287.21434225703786" y2="349.04562560236127" /><line stroke="black" x1="137.64909517398195" x2="65.1326208275105" y1="82.33669668893768" y2="63.554161466315826" /><line stroke="black" x1="354.8028314300257" x2="318.5316491398613" y1="320.9580051295935" y2="388.97423242210806" /><line stroke="black" x1="95.26970372787106" x2="32.73729605368307" y1="349.04562560236127" y2="395.8793239422343" /><line stroke="black" x1="161.2131064834514" x2="189.99191817586046" y1="209.41789638217634" y2="283.7663099889029" /><line stroke="black" x1="140.31776586189292" x2="65.1326208275105" y1="36.39573354782272" y2="63.554161466315826" /><line stroke="black" x1="81.76679731908132" x2="56.04669715610406" y1="317.64445589908433" y2="241.0517499329472" /><line stroke="black" x1="248.9962013070288" x2="175.6850001332326" y1="295.1074008853704" y2="329.49502871436704" /><line stroke="black" x1="67.7670728113089" x2="56.04669715610406" y1="159.6033673839387" y2="241.0517499329472" /><line stroke="black" x1="189.8941143097647" x2="265.0147169865149" y1="173.7996746778286" y2="138.23684945370763" /><line stroke="black" x1="140.31776586189292" x2="223.469488043318" y1="36.39573354782272" y2="30.190769689623238" /><line stroke="black" x1="139.3607048441259" x2="56.04669715610406" y1="237.19425922598012" y2="241.0517499329472" /><line stroke="black" x1="390.83864303559665" x2="317.3408320004825" y1="224.53554147668456" y2="268.3626386312135" /><line stroke="black" x1="356.38173995009424" x2="400.8452570939596" y1="104.00184281770433" y2="180.42396611174894" /><line stroke="black" x1="233.93718864883215" x2="219.8403577250566" y1="265.2719088468381" y2="176.43371017748441" /><line stroke="black" x1="84.5022315948616" x2="137.64909517398195" y1="155.29354801028882" y2="82.33669668893768" /><line stroke="black" x1="383.24646579577916" x2="400.8452570939596" y1="269.40082554923714" y2="180.42396611174894" /><line stroke="black" x1="161.2131064834514" x2="233.93718864883215" y1="209.41789638217634" y2="265.2719088468381" /><line stroke="black" x1="390.83864303559665" x2="298.5820128275041" y1="224.53554147668456" y2="234.77505945602536" /><line stroke="black" x1="356.38173995009424" x2="268.93748900896935" y1="104.00184281770433" y2="72.0725278336593" /><line stroke="black" x1="56.04669715610406" x2="129.95002204900968" y1="241.0517499329472" y2="184.34935535081445" /><line stroke="black" x1="136.9660839543037" x2="56.04669715610406" y1="287.21434225703786" y2="241.0517499329472" /><line stroke="black" x1="84.5022315948616" x2="65.1326208275105" y1="155.29354801028882" y2="63.554161466315826" /><line stroke="black" x1="67.7670728113089" x2="65.1326208275105" y1="159.6033673839387" y2="63.554161466315826" /><line stroke="black" x1="356.38173995009424" x2="265.0147169865149" y1="104.00184281770433" y2="138.23684945370763" /><line stroke="black" x1="219.8403577250566" x2="298.5820128275041" y1="176.43371017748441" y2="234.77505945602536" /><line stroke="black" x1="285.7258641375165" x2="248.9962013070288" y1="389.3973879582185" y2="295.1074008853704" /><line stroke="black" x1="298.5820128275041" x2="265.0147169865149" y1="234.77505945602536" y2="138.23684945370763" /><line stroke="black" x1="137.64909517398195" x2="129.95002204900968" y1="82.33669668893768" y2="184.34935535081445" /><line stroke="black" x1="182.16036303825788" x2="189.8941143097647" y1="70.8385936859244" y2="173.7996746778286" /><line stroke="black" x1="137.64909517398195" x2="189.8941143097647" y1="82.33669668893768" y2="173.7996746778286" /><line stroke="black" x1="374.75520233295583" x2="268.93748900896935" y1="82.88464509002542" y2="72.0725278336593" /><line stroke="black" x1="152.6553045547983" x2="248.9962013070288" y1="341.072718338362" y2="295.1074008853704" /><line stroke="black" x1="182.16036303825788" x2="265.0147169865149" y1="70.8385936859244" y2="138.23684945370763" /><line stroke="black" x1="33.98649839808183" x2="56.04669715610406" y1="347.1529830077702" y2="241.0517499329472" /><line stroke="black" x1="298.5820128275041" x2="400.8452570939596" y1="234.77505945602536" y2="180.42396611174894" /><line stroke="black" x1="67.7670728113089" x2="30.310613170237506" y1="159.6033673839387" y2="49.63791211196555" /><line stroke="black" x1="374.75520233295583" x2="259.1099948833822" y1="82.88464509002542" y2="60.09960221145383" /><line stroke="black" x1="140.31776586189292" x2="21.826360099606006" y1="36.39573354782272" y2="28.528510343919116" /><line stroke="black" x1="152.6553045547983" x2="32.73729605368307" y1="341.072718338362" y2="395.8793239422343" /><line stroke="black" x1="383.24646579577916" x2="318.5316491398613" y1="269.40082554923714" y2="388.97423242210806" /><line stroke="black" x1="21.826360099606006" x2="67.7670728113089" y1="28.528510343919116" y2="159.6033673839387" /><line stroke="black" x1="152.6553045547983" x2="285.7258641375165" y1="341.072718338362" y2="389.3973879582185" /><line stroke="black" x1="400.8452570939596" x2="265.0147169865149" y1="180.42396611174894" y2="138.23684945370763" /><line stroke="black" x1="374.75520233295583" x2="223.469488043318" y1="82.88464509002542" y2="30.190769689623238" /><line stroke="black" x1="67.7670728113089" x2="33.98649839808183" y1="159.6033673839387" y2="347.1529830077702" /><line stroke="black" x1="21.826360099606006" x2="223.469488043318" y1="28.528510343919116" y2="30.190769689623238" /><line stroke="black" x1="285.7258641375165" x2="32.73729605368307" y1="389.3973879582185" y2="395.8793239422343" /><line stroke="black" x1="32.73729605368307" x2="318.5316491398613" y1="395.8793239422343" y2="388.97423242210806" /><line stroke="black" x1="21.826360099606006" x2="33.98649839808183" y1="28.528510343919116" y2="347.1529830077702" /><line stroke="black" x1="32.73729605368307" x2="21.826360099606006" y1="395.8793239422343" y2="28.528510343919116" /><circle cx="293.23655691253686" cy="308.48640948809793" fill="lightblue" r="2" stroke="blue" /><circle cx="84.5022315948616" cy="155.29354801028882" fill="lightblue" r="2" stroke="blue" /><circle cx="136.9660839543037" cy="287.21434225703786" fill="lightblue" r="2" stroke="blue" /><circle cx="81.76679731908132" cy="317.64445589908433" fill="lightblue" r="2" stroke="blue" /><circle cx="383.24646579577916" cy="269.40082554923714" fill="lightblue" r="2" stroke="blue" /><circle cx="95.26970372787106" cy="349.04562560236127" fill="lightblue" r="2" stroke="blue" /><circle cx="374.75520233295583" cy="82.88464509002542" fill="lightblue" r="2" stroke="blue" /><circle cx="36.27363798928036" cy="355.9064122188009" fill="lightblue" r="2" stroke="blue" /><circle cx="152.6553045547983" cy="341.072718338362" fill="lightblue" r="2" stroke="blue" /><circle cx="285.7258641375165" cy="389.3973879582185" fill="lightblue" r="2" stroke="blue" /><circle cx="140.31776586189292" cy="36.39573354782272" fill="lightblue" r="2" stroke="blue" /><circle cx="100.70390947967749" cy="63.89605047303079" fill="lightblue" r="2" stroke="blue" /><circle cx="290.1998432485074" cy="337.48921420018837" fill="lightblue" r="2" stroke="blue" /><circle cx="295.69926289090995" cy="355.56501503620177" fill="lightblue" r="2" stroke="blue" /><circle cx="122.01192109128868" cy="55.86089600792194" fill="lightblue" r="2" stroke="blue" /><circle cx="161.2131064834514" cy="209.41789638217634" fill="lightblue" r="2" stroke="blue" /><circle cx="139.3607048441259" cy="237.19425922598012" fill="lightblue" r="2" stroke="blue" /><circle cx="356.38173995009424" cy="104.00184281770433" fill="lightblue" r="2" stroke="blue" /><circle cx="354.8028314300257" cy="320.9580051295935" fill="lightblue" r="2" stroke="blue" /><circle cx="137.64909517398195" cy="82.33669668893768" fill="lightblue" r="2" stroke="blue" /><circle cx="32.73729605368307" cy="395.8793239422343" fill="lightblue" r="2" stroke="blue" /><circle cx="268.93748900896935" cy="72.0725278336593" fill="lightblue" r="2" stroke="blue" /><circle cx="153.95385189456823" cy="237.70399914844808" fill="lightblue" r="2" stroke="blue" /><circle cx="390.83864303559665" cy="224.53554147668456" fill="lightblue" r="2" stroke="blue" /><circle cx="252.97198736530754" cy="65.69620130912581" fill="lightblue" r="2" stroke="blue" /><circle cx="259.1099948833822" cy="60.09960221145383" fill="lightblue" r="2" stroke="blue" /><circle cx="233.93718864883215" cy="265.2719088468381" fill="lightblue" r="2" stroke="blue" /><circle cx="248.9962013070288" cy="295.1074008853704" fill="lightblue" r="2" stroke="blue" /><circle cx="189.99191817586046" cy="283.7663099889029" fill="lightblue" r="2" stroke="blue" /><circle cx="193.63083612136614" cy="49.28572120382981" fill="lightblue" r="2" stroke="blue" /><circle cx="182.16036303825788" cy="70.8385936859244" fill="lightblue" r="2" stroke="blue" /><circle cx="21.826360099606006" cy="28.528510343919116" fill="lightblue" r="2" stroke="blue" /><circle cx="67.7670728113089" cy="159.6033673839387" fill="lightblue" r="2" stroke="blue" /><circle cx="155.21799342501618" cy="297.1220114836446" fill="lightblue" r="2" stroke="blue" /><circle cx="389.7162354303699" cy="128.1609216029657" fill="lightblue" r="2" stroke="blue" /><circle cx="33.98649839808183" cy="347.1529830077702" fill="lightblue" r="2" stroke="blue" /><circle cx="30.310613170237506" cy="49.63791211196555" fill="lightblue" r="2" stroke="blue" /><circle cx="219.8403577250566" cy="176.43371017748441" fill="lightblue" r="2" stroke="blue" /><circle cx="56.04669715610406" cy="241.0517499329472" fill="lightblue" r="2" stroke="blue" /><circle cx="223.469488043318" cy="30.190769689623238" fill="lightblue" r="2" stroke="blue" /><circle cx="318.5316491398613" cy="388.97423242210806" fill="lightblue" r="2" stroke="blue" /><circle cx="298.5820128275041" cy="234.77505945602536" fill="lightblue" r="2" stroke="blue" /><circle cx="175.6850001332326" cy="329.49502871436704" fill="lightblue" r="2" stroke="blue" /><circle cx="65.1326208275105" cy="63.554161466315826" fill="lightblue" r="2" stroke="blue" /><circle cx="63.1681535484956" cy="353.4525348540455" fill="lightblue" r="2" stroke="blue" /><circle cx="317.3408320004825" cy="268.3626386312135" fill="lightblue" r="2" stroke="blue" /><circle cx="189.8941143097647" cy="173.7996746778286" fill="lightblue" r="2" stroke="blue" /><circle cx="400.8452570939596" cy="180.42396611174894" fill="lightblue" r="2" stroke="blue" /><circle cx="129.95002204900968" cy="184.34935535081445" fill="lightblue" r="2" stroke="blue" /><circle cx="265.0147169865149" cy="138.23684945370763" fill="lightblue" r="2" stroke="blue" /></svg>