<?xml version="1.0" encoding="utf-8" ?>
<svg baseProfile="full" height="100%" version="1.1" width="100%" xmlns="http://www.w3.org/2000/svg" xmlns:ev="http://www.w3.org/2001/xml-events" xmlns:xlink="http://www.w3.org/1999/xlink"><defs /><line stroke="black" x1="51.77759223202001" x2="89.54302083725584" y1="46.30567637625215" y2="50.05911785719225" /><line stroke="black" x1="51.77759223202001" x2="47.41568326639006" y1="46.30567637625215" y2="93.68004581911396" /><line stroke="black" x1="51.77759223202001" x2="93.17189533944274" y1="46.30567637625215" y2="88.86600716236183" /><line stroke="black" x1="51.77759223202001" x2="207.4014364865122" y1="46.30567637625215" y2="46.05130048504567" /><line stroke="black" x1="47.41568326639006" x2="93.17189533944274" y1="93.68004581911396" y2="88.86600716236183" /><line stroke="black" x1="47.41568326639006" x2="86.61096834646636" y1="93.68004581911396" y2="133.55838363777852" /><line stroke="black" x1="47.41568326639006" x2="47.32966015835026" y1="93.68004581911396" y2="165.47485144831143" /><line stroke="black" x1="47.32966015835026" x2="51.90915684320485" y1="165.47485144831143" y2="207.60146763560712" /><line stroke="black" x1="47.32966015835026" x2="89.89419968712659" y1="165.47485144831143" y2="167.6274720682655" /><line stroke="black" x1="47.32966015835026" x2="86.61096834646636" y1="165.47485144831143" y2="133.55838363777852" /><line stroke="black" x1="47.32966015835026" x2="50.73143455520757" y1="165.47485144831143" y2="294.62736019987324" /><line stroke="black" x1="47.32966015835026" x2="47.29777296889474" y1="165.47485144831143" y2="368.5914659929687" /><line stroke="black" x1="51.90915684320485" x2="91.04563530402665" y1="207.60146763560712" y2="214.44225521324864" /><line stroke="black" x1="51.90915684320485" x2="89.89419968712659" y1="207.60146763560712" y2="167.6274720682655" /><line stroke="black" x1="51.90915684320485" x2="50.73143455520757" y1="207.60146763560712" y2="294.62736019987324" /><line stroke="black" x1="50.73143455520757" x2="51.93401598622229" y1="294.62736019987324" y2="332.9788393419966" /><line stroke="black" x1="50.73143455520757" x2="93.02616916633615" y1="294.62736019987324" y2="287.9106407943311" /><line stroke="black" x1="50.73143455520757" x2="90.94681548730662" y1="294.62736019987324" y2="325.67041959557787" /><line stroke="black" x1="50.73143455520757" x2="47.29777296889474" y1="294.62736019987324" y2="368.5914659929687" /><line stroke="black" x1="50.73143455520757" x2="91.04563530402665" y1="294.62736019987324" y2="214.44225521324864" /><line stroke="black" x1="51.93401598622229" x2="47.29777296889474" y1="332.9788393419966" y2="368.5914659929687" /><line stroke="black" x1="51.93401598622229" x2="90.94681548730662" y1="332.9788393419966" y2="325.67041959557787" /><line stroke="black" x1="51.93401598622229" x2="85.82100576309456" y1="332.9788393419966" y2="372.58308930403837" /><line stroke="black" x1="47.29777296889474" x2="85.82100576309456" y1="368.5914659929687" y2="372.58308930403837" /><line stroke="black" x1="47.29777296889474" x2="50.77749332958023" y1="368.5914659929687" y2="409.6408744768183" /><line stroke="black" x1="50.77749332958023" x2="94.25597539837626" y1="409.6408744768183" y2="409.7962185637159" /><line stroke="black" x1="50.77749332958023" x2="85.82100576309456" y1="409.6408744768183" y2="372.58308930403837" /><line stroke="black" x1="50.77749332958023" x2="126.92344641967154" y1="409.6408744768183" y2="414.2250558353754" /><line stroke="black" x1="89.54302083725584" x2="93.17189533944274" y1="50.05911785719225" y2="88.86600716236183" /><line stroke="black" x1="89.54302083725584" x2="167.1189979914376" y1="50.05911785719225" y2="52.37292047470186" /><line stroke="black" x1="89.54302083725584" x2="207.4014364865122" y1="50.05911785719225" y2="46.05130048504567" /><line stroke="black" x1="93.17189533944274" x2="86.61096834646636" y1="88.86600716236183" y2="133.55838363777852" /><line stroke="black" x1="93.17189533944274" x2="167.1189979914376" y1="88.86600716236183" y2="52.37292047470186" /><line stroke="black" x1="93.17189533944274" x2="166.90046183894194" y1="88.86600716236183" y2="129.91136045191683" /><line stroke="black" x1="86.61096834646636" x2="89.89419968712659" y1="133.55838363777852" y2="167.6274720682655" /><line stroke="black" x1="86.61096834646636" x2="166.90046183894194" y1="133.55838363777852" y2="129.91136045191683" /><line stroke="black" x1="89.89419968712659" x2="91.04563530402665" y1="167.6274720682655" y2="214.44225521324864" /><line stroke="black" x1="89.89419968712659" x2="126.48409650511493" y1="167.6274720682655" y2="208.92059305049355" /><line stroke="black" x1="89.89419968712659" x2="166.94381716031467" y1="167.6274720682655" y2="174.30837019411422" /><line stroke="black" x1="89.89419968712659" x2="166.90046183894194" y1="167.6274720682655" y2="129.91136045191683" /><line stroke="black" x1="91.04563530402665" x2="126.48409650511493" y1="214.44225521324864" y2="208.92059305049355" /><line stroke="black" x1="91.04563530402665" x2="93.02616916633615" y1="214.44225521324864" y2="287.9106407943311" /><line stroke="black" x1="91.04563530402665" x2="172.19544803866336" y1="214.44225521324864" y2="214.64561654096804" /><line stroke="black" x1="93.02616916633615" x2="127.43296371859512" y1="287.9106407943311" y2="293.83811891656956" /><line stroke="black" x1="93.02616916633615" x2="90.94681548730662" y1="287.9106407943311" y2="325.67041959557787" /><line stroke="black" x1="93.02616916633615" x2="171.92804897830175" y1="287.9106407943311" y2="290.74738726972555" /><line stroke="black" x1="93.02616916633615" x2="172.19544803866336" y1="287.9106407943311" y2="214.64561654096804" /><line stroke="black" x1="90.94681548730662" x2="132.9535767160882" y1="325.67041959557787" y2="326.71687548637107" /><line stroke="black" x1="90.94681548730662" x2="85.82100576309456" y1="325.67041959557787" y2="372.58308930403837" /><line stroke="black" x1="90.94681548730662" x2="127.43296371859512" y1="325.67041959557787" y2="293.83811891656956" /><line stroke="black" x1="90.94681548730662" x2="125.93985692749808" y1="325.67041959557787" y2="368.6163519529899" /><line stroke="black" x1="85.82100576309456" x2="94.25597539837626" y1="372.58308930403837" y2="409.7962185637159" /><line stroke="black" x1="85.82100576309456" x2="125.93985692749808" y1="372.58308930403837" y2="368.6163519529899" /><line stroke="black" x1="94.25597539837626" x2="126.92344641967154" y1="409.7962185637159" y2="414.2250558353754" /><line stroke="black" x1="94.25597539837626" x2="125.93985692749808" y1="409.7962185637159" y2="368.6163519529899" /><line stroke="black" x1="126.48409650511493" x2="172.19544803866336" y1="208.92059305049355" y2="214.64561654096804" /><line stroke="black" x1="126.48409650511493" x2="166.94381716031467" y1="208.92059305049355" y2="174.30837019411422" /><line stroke="black" x1="127.43296371859512" x2="132.9535767160882" y1="293.83811891656956" y2="326.71687548637107" /><line stroke="black" x1="127.43296371859512" x2="171.92804897830175" y1="293.83811891656956" y2="290.74738726972555" /><line stroke="black" x1="132.9535767160882" x2="167.95556730634107" y1="326.71687548637107" y2="328.30132878936627" /><line stroke="black" x1="132.9535767160882" x2="125.93985692749808" y1="326.71687548637107" y2="368.6163519529899" /><line stroke="black" x1="132.9535767160882" x2="171.92804897830175" y1="326.71687548637107" y2="290.74738726972555" /><line stroke="black" x1="132.9535767160882" x2="172.28083821875842" y1="326.71687548637107" y2="365.57681815576075" /><line stroke="black" x1="125.93985692749808" x2="126.92344641967154" y1="368.6163519529899" y2="414.2250558353754" /><line stroke="black" x1="125.93985692749808" x2="172.28083821875842" y1="368.6163519529899" y2="365.57681815576075" /><line stroke="black" x1="125.93985692749808" x2="170.3011450845702" y1="368.6163519529899" y2="413.5065668811083" /><line stroke="black" x1="126.92344641967154" x2="170.3011450845702" y1="414.2250558353754" y2="413.5065668811083" /><line stroke="black" x1="126.92344641967154" x2="334.1279153518902" y1="414.2250558353754" y2="414.3982093871792" /><line stroke="black" x1="167.1189979914376" x2="173.51683836249458" y1="52.37292047470186" y2="85.3205400366132" /><line stroke="black" x1="167.1189979914376" x2="207.4014364865122" y1="52.37292047470186" y2="46.05130048504567" /><line stroke="black" x1="167.1189979914376" x2="166.90046183894194" y1="52.37292047470186" y2="129.91136045191683" /><line stroke="black" x1="173.51683836249458" x2="166.90046183894194" y1="85.3205400366132" y2="129.91136045191683" /><line stroke="black" x1="173.51683836249458" x2="207.4014364865122" y1="85.3205400366132" y2="46.05130048504567" /><line stroke="black" x1="173.51683836249458" x2="209.57536051628534" y1="85.3205400366132" y2="127.28048976302327" /><line stroke="black" x1="173.51683836249458" x2="252.4576270542654" y1="85.3205400366132" y2="85.45281627927221" /><line stroke="black" x1="166.90046183894194" x2="209.57536051628534" y1="129.91136045191683" y2="127.28048976302327" /><line stroke="black" x1="166.90046183894194" x2="166.94381716031467" y1="129.91136045191683" y2="174.30837019411422" /><line stroke="black" x1="166.90046183894194" x2="206.4709617914458" y1="129.91136045191683" y2="167.27257287756353" /><line stroke="black" x1="166.94381716031467" x2="206.4709617914458" y1="174.30837019411422" y2="167.27257287756353" /><line stroke="black" x1="166.94381716031467" x2="172.19544803866336" y1="174.30837019411422" y2="214.64561654096804" /><line stroke="black" x1="166.94381716031467" x2="212.5332883128671" y1="174.30837019411422" y2="209.69493153923042" /><line stroke="black" x1="172.19544803866336" x2="212.5332883128671" y1="214.64561654096804" y2="209.69493153923042" /><line stroke="black" x1="172.19544803866336" x2="171.92804897830175" y1="214.64561654096804" y2="290.74738726972555" /><line stroke="black" x1="172.19544803866336" x2="212.1727044117654" y1="214.64561654096804" y2="286.77375564434766" /><line stroke="black" x1="171.92804897830175" x2="167.95556730634107" y1="290.74738726972555" y2="328.30132878936627" /><line stroke="black" x1="171.92804897830175" x2="212.1727044117654" y1="290.74738726972555" y2="286.77375564434766" /><line stroke="black" x1="171.92804897830175" x2="206.35141790935717" y1="290.74738726972555" y2="327.5789510046429" /><line stroke="black" x1="167.95556730634107" x2="172.28083821875842" y1="328.30132878936627" y2="365.57681815576075" /><line stroke="black" x1="167.95556730634107" x2="206.35141790935717" y1="328.30132878936627" y2="327.5789510046429" /><line stroke="black" x1="172.28083821875842" x2="205.25848440511876" y1="365.57681815576075" y2="373.36307705386065" /><line stroke="black" x1="172.28083821875842" x2="170.3011450845702" y1="365.57681815576075" y2="413.5065668811083" /><line stroke="black" x1="172.28083821875842" x2="206.35141790935717" y1="365.57681815576075" y2="327.5789510046429" /><line stroke="black" x1="170.3011450845702" x2="205.25848440511876" y1="413.5065668811083" y2="373.36307705386065" /><line stroke="black" x1="170.3011450845702" x2="251.87414574695634" y1="413.5065668811083" y2="408.44486599746216" /><line stroke="black" x1="170.3011450845702" x2="334.1279153518902" y1="413.5065668811083" y2="414.3982093871792" /><line stroke="black" x1="207.4014364865122" x2="247.28204544634653" y1="46.05130048504567" y2="49.19398988492949" /><line stroke="black" x1="207.4014364865122" x2="252.4576270542654" y1="46.05130048504567" y2="85.45281627927221" /><line stroke="black" x1="207.4014364865122" x2="407.22878505527785" y1="46.05130048504567" y2="48.54147627141607" /><line stroke="black" x1="209.57536051628534" x2="246.62561843433943" y1="127.28048976302327" y2="131.0316289959095" /><line stroke="black" x1="209.57536051628534" x2="206.4709617914458" y1="127.28048976302327" y2="167.27257287756353" /><line stroke="black" x1="209.57536051628534" x2="252.4576270542654" y1="127.28048976302327" y2="85.45281627927221" /><line stroke="black" x1="206.4709617914458" x2="212.5332883128671" y1="167.27257287756353" y2="209.69493153923042" /><line stroke="black" x1="206.4709617914458" x2="252.84356495784328" y1="167.27257287756353" y2="170.95645367014404" /><line stroke="black" x1="206.4709617914458" x2="246.62561843433943" y1="167.27257287756353" y2="131.0316289959095" /><line stroke="black" x1="212.5332883128671" x2="254.10834956404057" y1="209.69493153923042" y2="205.09029764177444" /><line stroke="black" x1="212.5332883128671" x2="251.80938624311844" y1="209.69493153923042" y2="245.35440182964336" /><line stroke="black" x1="212.5332883128671" x2="252.84356495784328" y1="209.69493153923042" y2="170.95645367014404" /><line stroke="black" x1="212.5332883128671" x2="212.1727044117654" y1="209.69493153923042" y2="286.77375564434766" /><line stroke="black" x1="212.1727044117654" x2="246.63783604323305" y1="286.77375564434766" y2="292.69279324263147" /><line stroke="black" x1="212.1727044117654" x2="206.35141790935717" y1="286.77375564434766" y2="327.5789510046429" /><line stroke="black" x1="212.1727044117654" x2="251.80938624311844" y1="286.77375564434766" y2="245.35440182964336" /><line stroke="black" x1="206.35141790935717" x2="249.92806877473626" y1="327.5789510046429" y2="329.98553549040463" /><line stroke="black" x1="206.35141790935717" x2="205.25848440511876" y1="327.5789510046429" y2="373.36307705386065" /><line stroke="black" x1="206.35141790935717" x2="246.63783604323305" y1="327.5789510046429" y2="292.69279324263147" /><line stroke="black" x1="205.25848440511876" x2="252.95749035750575" y1="373.36307705386065" y2="368.37762655988183" /><line stroke="black" x1="205.25848440511876" x2="251.87414574695634" y1="373.36307705386065" y2="408.44486599746216" /><line stroke="black" x1="205.25848440511876" x2="249.92806877473626" y1="373.36307705386065" y2="329.98553549040463" /><line stroke="black" x1="247.28204544634653" x2="252.4576270542654" y1="49.19398988492949" y2="85.45281627927221" /><line stroke="black" x1="247.28204544634653" x2="290.1628888509442" y1="49.19398988492949" y2="94.49874428529222" /><line stroke="black" x1="247.28204544634653" x2="367.4977807927442" y1="49.19398988492949" y2="52.65579298261277" /><line stroke="black" x1="247.28204544634653" x2="407.22878505527785" y1="49.19398988492949" y2="48.54147627141607" /><line stroke="black" x1="252.4576270542654" x2="290.1628888509442" y1="85.45281627927221" y2="94.49874428529222" /><line stroke="black" x1="252.4576270542654" x2="246.62561843433943" y1="85.45281627927221" y2="131.0316289959095" /><line stroke="black" x1="252.4576270542654" x2="285.79964507875565" y1="85.45281627927221" y2="127.2835527978133" /><line stroke="black" x1="246.62561843433943" x2="285.79964507875565" y1="131.0316289959095" y2="127.2835527978133" /><line stroke="black" x1="246.62561843433943" x2="252.84356495784328" y1="131.0316289959095" y2="170.95645367014404" /><line stroke="black" x1="252.84356495784328" x2="254.10834956404057" y1="170.95645367014404" y2="205.09029764177444" /><line stroke="black" x1="252.84356495784328" x2="285.79964507875565" y1="170.95645367014404" y2="127.2835527978133" /><line stroke="black" x1="252.84356495784328" x2="329.05525966559895" y1="170.95645367014404" y2="174.67235824471516" /><line stroke="black" x1="254.10834956404057" x2="251.80938624311844" y1="205.09029764177444" y2="245.35440182964336" /><line stroke="black" x1="254.10834956404057" x2="289.23181442042596" y1="205.09029764177444" y2="250.718994857437" /><line stroke="black" x1="254.10834956404057" x2="326.49708450563145" y1="205.09029764177444" y2="207.94948159391004" /><line stroke="black" x1="254.10834956404057" x2="329.05525966559895" y1="205.09029764177444" y2="174.67235824471516" /><line stroke="black" x1="251.80938624311844" x2="289.23181442042596" y1="245.35440182964336" y2="250.718994857437" /><line stroke="black" x1="251.80938624311844" x2="246.63783604323305" y1="245.35440182964336" y2="292.69279324263147" /><line stroke="black" x1="251.80938624311844" x2="287.9475507427536" y1="245.35440182964336" y2="290.6832616562037" /><line stroke="black" x1="246.63783604323305" x2="249.92806877473626" y1="292.69279324263147" y2="329.98553549040463" /><line stroke="black" x1="246.63783604323305" x2="287.9475507427536" y1="292.69279324263147" y2="290.6832616562037" /><line stroke="black" x1="249.92806877473626" x2="252.95749035750575" y1="329.98553549040463" y2="368.37762655988183" /><line stroke="black" x1="249.92806877473626" x2="288.67556812115527" y1="329.98553549040463" y2="365.57967572694037" /><line stroke="black" x1="249.92806877473626" x2="287.9475507427536" y1="329.98553549040463" y2="290.6832616562037" /><line stroke="black" x1="252.95749035750575" x2="288.67556812115527" y1="368.37762655988183" y2="365.57967572694037" /><line stroke="black" x1="252.95749035750575" x2="251.87414574695634" y1="368.37762655988183" y2="408.44486599746216" /><line stroke="black" x1="252.95749035750575" x2="285.7981939246956" y1="368.37762655988183" y2="405.20725467213424" /><line stroke="black" x1="251.87414574695634" x2="285.7981939246956" y1="408.44486599746216" y2="405.20725467213424" /><line stroke="black" x1="251.87414574695634" x2="334.1279153518902" y1="408.44486599746216" y2="414.3982093871792" /><line stroke="black" x1="290.1628888509442" x2="285.79964507875565" y1="94.49874428529222" y2="127.2835527978133" /><line stroke="black" x1="290.1628888509442" x2="330.0878534181434" y1="94.49874428529222" y2="86.48326576909017" /><line stroke="black" x1="290.1628888509442" x2="329.74565506089897" y1="94.49874428529222" y2="133.3710980274864" /><line stroke="black" x1="290.1628888509442" x2="367.4977807927442" y1="94.49874428529222" y2="52.65579298261277" /><line stroke="black" x1="285.79964507875565" x2="329.74565506089897" y1="127.2835527978133" y2="133.3710980274864" /><line stroke="black" x1="285.79964507875565" x2="329.05525966559895" y1="127.2835527978133" y2="174.67235824471516" /><line stroke="black" x1="289.23181442042596" x2="287.9475507427536" y1="250.718994857437" y2="290.6832616562037" /><line stroke="black" x1="289.23181442042596" x2="333.9318769730091" y1="250.718994857437" y2="248.67569143963576" /><line stroke="black" x1="289.23181442042596" x2="326.49708450563145" y1="250.718994857437" y2="207.94948159391004" /><line stroke="black" x1="289.23181442042596" x2="331.7245973524237" y1="250.718994857437" y2="293.8654292204416" /><line stroke="black" x1="287.9475507427536" x2="331.7245973524237" y1="290.6832616562037" y2="293.8654292204416" /><line stroke="black" x1="287.9475507427536" x2="333.0242246373409" y1="290.6832616562037" y2="331.3036831774951" /><line stroke="black" x1="287.9475507427536" x2="288.67556812115527" y1="290.6832616562037" y2="365.57967572694037" /><line stroke="black" x1="288.67556812115527" x2="327.31155704396997" y1="365.57967572694037" y2="372.9463087018023" /><line stroke="black" x1="288.67556812115527" x2="285.7981939246956" y1="365.57967572694037" y2="405.20725467213424" /><line stroke="black" x1="288.67556812115527" x2="333.0242246373409" y1="365.57967572694037" y2="331.3036831774951" /><line stroke="black" x1="285.7981939246956" x2="334.1279153518902" y1="405.20725467213424" y2="414.3982093871792" /><line stroke="black" x1="285.7981939246956" x2="327.31155704396997" y1="405.20725467213424" y2="372.9463087018023" /><line stroke="black" x1="330.0878534181434" x2="366.44079457506274" y1="86.48326576909017" y2="90.28465989202138" /><line stroke="black" x1="330.0878534181434" x2="329.74565506089897" y1="86.48326576909017" y2="133.3710980274864" /><line stroke="black" x1="330.0878534181434" x2="367.4977807927442" y1="86.48326576909017" y2="52.65579298261277" /><line stroke="black" x1="329.74565506089897" x2="329.05525966559895" y1="133.3710980274864" y2="174.67235824471516" /><line stroke="black" x1="329.74565506089897" x2="374.49114625617483" y1="133.3710980274864" y2="125.88599911780842" /><line stroke="black" x1="329.74565506089897" x2="371.58405232408876" y1="133.3710980274864" y2="166.54627037133102" /><line stroke="black" x1="329.74565506089897" x2="366.44079457506274" y1="133.3710980274864" y2="90.28465989202138" /><line stroke="black" x1="329.05525966559895" x2="326.49708450563145" y1="174.67235824471516" y2="207.94948159391004" /><line stroke="black" x1="329.05525966559895" x2="371.58405232408876" y1="174.67235824471516" y2="166.54627037133102" /><line stroke="black" x1="329.05525966559895" x2="368.33996206165796" y1="174.67235824471516" y2="207.23763303118525" /><line stroke="black" x1="326.49708450563145" x2="333.9318769730091" y1="207.94948159391004" y2="248.67569143963576" /><line stroke="black" x1="326.49708450563145" x2="368.33996206165796" y1="207.94948159391004" y2="207.23763303118525" /><line stroke="black" x1="333.9318769730091" x2="365.2983538885722" y1="248.67569143963576" y2="249.97067705433912" /><line stroke="black" x1="333.9318769730091" x2="331.7245973524237" y1="248.67569143963576" y2="293.8654292204416" /><line stroke="black" x1="333.9318769730091" x2="368.33996206165796" y1="248.67569143963576" y2="207.23763303118525" /><line stroke="black" x1="331.7245973524237" x2="333.0242246373409" y1="293.8654292204416" y2="331.3036831774951" /><line stroke="black" x1="331.7245973524237" x2="369.5376820985777" y1="293.8654292204416" y2="291.95898998607385" /><line stroke="black" x1="331.7245973524237" x2="366.2242621115654" y1="293.8654292204416" y2="327.14632473996255" /><line stroke="black" x1="331.7245973524237" x2="365.2983538885722" y1="293.8654292204416" y2="249.97067705433912" /><line stroke="black" x1="333.0242246373409" x2="366.2242621115654" y1="331.3036831774951" y2="327.14632473996255" /><line stroke="black" x1="333.0242246373409" x2="327.31155704396997" y1="331.3036831774951" y2="372.9463087018023" /><line stroke="black" x1="333.0242246373409" x2="369.33115958974656" y1="331.3036831774951" y2="373.91550669983343" /><line stroke="black" x1="327.31155704396997" x2="334.1279153518902" y1="372.9463087018023" y2="414.3982093871792" /><line stroke="black" x1="327.31155704396997" x2="369.33115958974656" y1="372.9463087018023" y2="373.91550669983343" /><line stroke="black" x1="327.31155704396997" x2="365.0031184713248" y1="372.9463087018023" y2="411.96878946491603" /><line stroke="black" x1="334.1279153518902" x2="365.0031184713248" y1="414.3982093871792" y2="411.96878946491603" /><line stroke="black" x1="367.4977807927442" x2="366.44079457506274" y1="52.65579298261277" y2="90.28465989202138" /><line stroke="black" x1="367.4977807927442" x2="407.22878505527785" y1="52.65579298261277" y2="48.54147627141607" /><line stroke="black" x1="366.44079457506274" x2="374.49114625617483" y1="90.28465989202138" y2="125.88599911780842" /><line stroke="black" x1="366.44079457506274" x2="413.38283887862394" y1="90.28465989202138" y2="90.67673583182858" /><line stroke="black" x1="366.44079457506274" x2="407.22878505527785" y1="90.28465989202138" y2="48.54147627141607" /><line stroke="black" x1="374.49114625617483" x2="407.72987630325" y1="125.88599911780842" y2="128.3032592602998" /><line stroke="black" x1="374.49114625617483" x2="371.58405232408876" y1="125.88599911780842" y2="166.54627037133102" /><line stroke="black" x1="374.49114625617483" x2="413.38283887862394" y1="125.88599911780842" y2="90.67673583182858" /><line stroke="black" x1="371.58405232408876" x2="410.19913095177867" y1="166.54627037133102" y2="169.69994944927674" /><line stroke="black" x1="371.58405232408876" x2="368.33996206165796" y1="166.54627037133102" y2="207.23763303118525" /><line stroke="black" x1="371.58405232408876" x2="407.72987630325" y1="166.54627037133102" y2="128.3032592602998" /><line stroke="black" x1="371.58405232408876" x2="405.97184699387856" y1="166.54627037133102" y2="206.39735006388477" /><line stroke="black" x1="368.33996206165796" x2="405.97184699387856" y1="207.23763303118525" y2="206.39735006388477" /><line stroke="black" x1="368.33996206165796" x2="365.2983538885722" y1="207.23763303118525" y2="249.97067705433912" /><line stroke="black" x1="368.33996206165796" x2="407.5498048139044" y1="207.23763303118525" y2="249.50247235777638" /><line stroke="black" x1="365.2983538885722" x2="369.5376820985777" y1="249.97067705433912" y2="291.95898998607385" /><line stroke="black" x1="365.2983538885722" x2="407.5498048139044" y1="249.97067705433912" y2="249.50247235777638" /><line stroke="black" x1="369.5376820985777" x2="366.2242621115654" y1="291.95898998607385" y2="327.14632473996255" /><line stroke="black" x1="369.5376820985777" x2="413.35437032933794" y1="291.95898998607385" y2="286.8151426323349" /><line stroke="black" x1="369.5376820985777" x2="407.5498048139044" y1="291.95898998607385" y2="249.50247235777638" /><line stroke="black" x1="366.2242621115654" x2="369.33115958974656" y1="327.14632473996255" y2="373.91550669983343" /><line stroke="black" x1="366.2242621115654" x2="409.8406154188524" y1="327.14632473996255" y2="371.213157676155" /><line stroke="black" x1="366.2242621115654" x2="413.35437032933794" y1="327.14632473996255" y2="286.8151426323349" /><line stroke="black" x1="369.33115958974656" x2="365.0031184713248" y1="373.91550669983343" y2="411.96878946491603" /><line stroke="black" x1="369.33115958974656" x2="409.8406154188524" y1="373.91550669983343" y2="371.213157676155" /><line stroke="black" x1="369.33115958974656" x2="409.00793897748287" y1="373.91550669983343" y2="405.1585515151656" /><line stroke="black" x1="365.0031184713248" x2="409.00793897748287" y1="411.96878946491603" y2="405.1585515151656" /><line stroke="black" x1="407.22878505527785" x2="413.38283887862394" y1="48.54147627141607" y2="90.67673583182858" /><line stroke="black" x1="413.38283887862394" x2="407.72987630325" y1="90.67673583182858" y2="128.3032592602998" /><line stroke="black" x1="413.38283887862394" x2="410.19913095177867" y1="90.67673583182858" y2="169.69994944927674" /><line stroke="black" x1="413.38283887862394" x2="413.35437032933794" y1="90.67673583182858" y2="286.8151426323349" /><line stroke="black" x1="407.72987630325" x2="410.19913095177867" y1="128.3032592602998" y2="169.69994944927674" /><line stroke="black" x1="410.19913095177867" x2="405.97184699387856" y1="169.69994944927674" y2="206.39735006388477" /><line stroke="black" x1="410.19913095177867" x2="407.5498048139044" y1="169.69994944927674" y2="249.50247235777638" /><line stroke="black" x1="410.19913095177867" x2="413.35437032933794" y1="169.69994944927674" y2="286.8151426323349" /><line stroke="black" x1="405.97184699387856" x2="407.5498048139044" y1="206.39735006388477" y2="249.50247235777638" /><line stroke="black" x1="407.5498048139044" x2="413.35437032933794" y1="249.50247235777638" y2="286.8151426323349" /><line stroke="black" x1="413.35437032933794" x2="409.8406154188524" y1="286.8151426323349" y2="371.213157676155" /><line stroke="black" x1="413.35437032933794" x2="409.00793897748287" y1="286.8151426323349" y2="405.1585515151656" /><line stroke="black" x1="409.8406154188524" x2="409.00793897748287" y1="371.213157676155" y2="405.1585515151656" /><circle cx="51.77759223202001" cy="46.30567637625215" fill="lightblue" r="2" stroke="blue" /><circle cx="47.41568326639006" cy="93.68004581911396" fill="lightblue" r="2" stroke="blue" /><circle cx="47.32966015835026" cy="165.47485144831143" fill="lightblue" r="2" stroke="blue" /><circle cx="51.90915684320485" cy="207.60146763560712" fill="lightblue" r="2" stroke="blue" /><circle cx="50.73143455520757" cy="294.62736019987324" fill="lightblue" r="2" stroke="blue" /><circle cx="51.93401598622229" cy="332.9788393419966" fill="lightblue" r="2" stroke="blue" /><circle cx="47.29777296889474" cy="368.5914659929687" fill="lightblue" r="2" stroke="blue" /><circle cx="50.77749332958023" cy="409.6408744768183" fill="lightblue" r="2" stroke="blue" /><circle cx="89.54302083725584" cy="50.05911785719225" fill="lightblue" r="2" stroke="blue" /><circle cx="93.17189533944274" cy="88.86600716236183" fill="lightblue" r="2" stroke="blue" /><circle cx="86.61096834646636" cy="133.55838363777852" fill="lightblue" r="2" stroke="blue" /><circle cx="89.89419968712659" cy="167.6274720682655" fill="lightblue" r="2" stroke="blue" /><circle cx="91.04563530402665" cy="214.44225521324864" fill="lightblue" r="2" stroke="blue" /><circle cx="93.02616916633615" cy="287.9106407943311" fill="lightblue" r="2" stroke="blue" /><circle cx="90.94681548730662" cy="325.67041959557787" fill="lightblue" r="2" stroke="blue" /><circle cx="85.82100576309456" cy="372.58308930403837" fill="lightblue" r="2" stroke="blue" /><circle cx="94.25597539837626" cy="409.7962185637159" fill="lightblue" r="2" stroke="blue" /><circle cx="126.48409650511493" cy="208.92059305049355" fill="lightblue" r="2" stroke="blue" /><circle cx="127.43296371859512" cy="293.83811891656956" fill="lightblue" r="2" stroke="blue" /><circle cx="132.9535767160882" cy="326.71687548637107" fill="lightblue" r="2" stroke="blue" /><circle cx="125.93985692749808" cy="368.6163519529899" fill="lightblue" r="2" stroke="blue" /><circle cx="126.92344641967154" cy="414.2250558353754" fill="lightblue" r="2" stroke="blue" /><circle cx="167.1189979914376" cy="52.37292047470186" fill="lightblue" r="2" stroke="blue" /><circle cx="173.51683836249458" cy="85.3205400366132" fill="lightblue" r="2" stroke="blue" /><circle cx="166.90046183894194" cy="129.91136045191683" fill="lightblue" r="2" stroke="blue" /><circle cx="166.94381716031467" cy="174.30837019411422" fill="lightblue" r="2" stroke="blue" /><circle cx="172.19544803866336" cy="214.64561654096804" fill="lightblue" r="2" stroke="blue" /><circle cx="171.92804897830175" cy="290.74738726972555" fill="lightblue" r="2" stroke="blue" /><circle cx="167.95556730634107" cy="328.30132878936627" fill="lightblue" r="2" stroke="blue" /><circle cx="172.28083821875842" cy="365.57681815576075" fill="lightblue" r="2" stroke="blue" /><circle cx="170.3011450845702" cy="413.5065668811083" fill="lightblue" r="2" stroke="blue" /><circle cx="207.4014364865122" cy="46.05130048504567" fill="lightblue" r="2" stroke="blue" /><circle cx="209.57536051628534" cy="127.28048976302327" fill="lightblue" r="2" stroke="blue" /><circle cx="206.4709617914458" cy="167.27257287756353" fill="lightblue" r="2" stroke="blue" /><circle cx="212.5332883128671" cy="209.69493153923042" fill="lightblue" r="2" stroke="blue" /><circle cx="212.1727044117654" cy="286.77375564434766" fill="lightblue" r="2" stroke="blue" /><circle cx="206.35141790935717" cy="327.5789510046429" fill="lightblue" r="2" stroke="blue" /><circle cx="205.25848440511876" cy="373.36307705386065" fill="lightblue" r="2" stroke="blue" /><circle cx="247.28204544634653" cy="49.19398988492949" fill="lightblue" r="2" stroke="blue" /><circle cx="252.4576270542654" cy="85.45281627927221" fill="lightblue" r="2" stroke="blue" /><circle cx="246.62561843433943" cy="131.0316289959095" fill="lightblue" r="2" stroke="blue" /><circle cx="252.84356495784328" cy="170.95645367014404" fill="lightblue" r="2" stroke="blue" /><circle cx="254.10834956404057" cy="205.09029764177444" fill="lightblue" r="2" stroke="blue" /><circle cx="251.80938624311844" cy="245.35440182964336" fill="lightblue" r="2" stroke="blue" /><circle cx="246.63783604323305" cy="292.69279324263147" fill="lightblue" r="2" stroke="blue" /><circle cx="249.92806877473626" cy="329.98553549040463" fill="lightblue" r="2" stroke="blue" /><circle cx="252.95749035750575" cy="368.37762655988183" fill="lightblue" r="2" stroke="blue" /><circle cx="251.87414574695634" cy="408.44486599746216" fill="lightblue" r="2" stroke="blue" /><circle cx="290.1628888509442" cy="94.49874428529222" fill="lightblue" r="2" stroke="blue" /><circle cx="285.79964507875565" cy="127.2835527978133" fill="lightblue" r="2" stroke="blue" /><circle cx="289.23181442042596" cy="250.718994857437" fill="lightblue" r="2" stroke="blue" /><circle cx="287.9475507427536" cy="290.6832616562037" fill="lightblue" r="2" stroke="blue" /><circle cx="288.67556812115527" cy="365.57967572694037" fill="lightblue" r="2" stroke="blue" /><circle cx="285.7981939246956" cy="405.20725467213424" fill="lightblue" r="2" stroke="blue" /><circle cx="330.0878534181434" cy="86.48326576909017" fill="lightblue" r="2" stroke="blue" /><circle cx="329.74565506089897" cy="133.3710980274864" fill="lightblue" r="2" stroke="blue" /><circle cx="329.05525966559895" cy="174.67235824471516" fill="lightblue" r="2" stroke="blue" /><circle cx="326.49708450563145" cy="207.94948159391004" fill="lightblue" r="2" stroke="blue" /><circle cx="333.9318769730091" cy="248.67569143963576" fill="lightblue" r="2" stroke="blue" /><circle cx="331.7245973524237" cy="293.8654292204416" fill="lightblue" r="2" stroke="blue" /><circle cx="333.0242246373409" cy="331.3036831774951" fill="lightblue" r="2" stroke="blue" /><circle cx="327.31155704396997" cy="372.9463087018023" fill="lightblue" r="2" stroke="blue" /><circle cx="334.1279153518902" cy="414.3982093871792" fill="lightblue" r="2" stroke="blue" /><circle cx="367.4977807927442" cy="52.65579298261277" fill="lightblue" r="2" stroke="blue" /><circle cx="366.44079457506274" cy="90.28465989202138" fill="lightblue" r="2" stroke="blue" /><circle cx="374.49114625617483" cy="125.88599911780842" fill="lightblue" r="2" stroke="blue" /><circle cx="371.58405232408876" cy="166.54627037133102" fill="lightblue" r="2" stroke="blue" /><circle cx="368.33996206165796" cy="207.23763303118525" fill="lightblue" r="2" stroke="blue" /><circle cx="365.2983538885722" cy="249.97067705433912" fill="lightblue" r="2" stroke="blue" /><circle cx="369.5376820985777" cy="291.95898998607385" fill="lightblue" r="2" stroke="blue" /><circle cx="366.2242621115654" cy="327.14632473996255" fill="lightblue" r="2" stroke="blue" /><circle cx="369.33115958974656" cy="373.91550669983343" fill="lightblue" r="2" stroke="blue" /><circle cx="365.0031184713248" cy="411.96878946491603" fill="lightblue" r="2" stroke="blue" /><circle cx="407.22878505527785" cy="48.54147627141607" fill="lightblue" r="2" stroke="blue" /><circle cx="413.38283887862394" cy="90.67673583182858" fill="lightblue" r="2" stroke="blue" /><circle cx="407.72987630325" cy="128.3032592602998" fill="lightblue" r="2" stroke="blue" /><circle cx="410.19913095177867" cy="169.69994944927674" fill="lightblue" r="2" stroke="blue" /><circle cx="405.97184699387856" cy="206.39735006388477" fill="lightblue" r="2" stroke="blue" /><circle cx="407.5498048139044" cy="249.50247235777638" fill="lightblue" r="2" stroke="blue" /><circle cx="413.35437032933794" cy="286.8151426323349" fill="lightblue" r="2" stroke="blue" /><circle cx="409.8406154188524" cy="371.213157676155" fill="lightblue" r="2" stroke="blue" /><circle cx="409.00793897748287" cy="405.1585515151656" fill="lightblue" r="2" stroke="blue" /></svg>