<?xml version="1.0" encoding="utf-8" ?>
<svg baseProfile="full" height="415" version="1.1" width="415" xmlns="http://www.w3.org/2000/svg" xmlns:ev="http://www.w3.org/2001/xml-events" xmlns:xlink="http://www.w3.org/1999/xlink"><defs /><line stroke="black" x1="89.30837019411422" x2="120.04013233039927" y1="329.5147569387542" y2="327.14233553701735" /><line stroke="black" x1="89.30837019411422" x2="89.64561654096802" y1="329.5147569387542" y2="361.1098121059358" /><line stroke="black" x1="249.67235824471516" x2="281.546270371331" y1="83.69433196778863" y2="87.0600778010513" /><line stroke="black" x1="89.64561654096802" x2="121.77375564434763" y1="361.1098121059358" y2="364.919091808118" /><line stroke="black" x1="125.30114508457021" x2="122.40143648651222" y1="128.5065668811083" y2="161.0513004850457" /><line stroke="black" x1="248.3710980274864" x2="280.8859991178084" y1="44.79070630958783" y2="48.20984098304453" /><line stroke="black" x1="7.978839341996604" x2="40.82100576309457" y1="246.67242125084812" y2="247.58308930403837" /><line stroke="black" x1="89.22505583537534" x2="122.40143648651222" y1="164.61436699651858" y2="161.0513004850457" /><line stroke="black" x1="361.8183860780673" x2="364.5869781594385" y1="209.19353264490783" y2="242.53083068686135" /><line stroke="black" x1="207.95749035750575" x2="241.48326576909017" y1="3.3776265598818203" y2="3.6682230826095132" /><line stroke="black" x1="282.14632473996255" x2="288.91550669983343" y1="249.26135956324887" y2="282.23730302316204" /><line stroke="black" x1="2.415683266390065" x2="6.012953198252079" y1="48.68004581911396" y2="82.32966015835026" /><line stroke="black" x1="324.8406154188524" x2="324.00793897748287" y1="246.213157676155" y2="280.1585515151656" /><line stroke="black" x1="88.83811891656956" x2="122.95556730634107" y1="43.98905589891091" y2="43.301328789366245" /><line stroke="black" x1="167.84356495784328" x2="169.10834956404057" y1="205.95645367014404" y2="240.09029764177444" /><line stroke="black" x1="324.5024723577764" x2="321.8151426323349" y1="166.4929451828923" y2="200.5951635312249" /><line stroke="black" x1="49.442255213248636" x2="83.6163519529899" y1="120.67478072836514" y2="123.48043959549112" /><line stroke="black" x1="169.10834956404057" x2="202.94755074275358" y1="240.09029764177444" y2="245.6832616562037" /><line stroke="black" x1="326.1789119784597" x2="360.57588671354443" y1="364.5942093059098" y2="363.46336228882797" /><line stroke="black" x1="286.95898998607385" x2="321.8151426323349" y1="202.82604524824714" y2="200.5951635312249" /><line stroke="black" x1="288.91550669983343" x2="324.00793897748287" y1="282.23730302316204" y2="280.1585515151656" /><line stroke="black" x1="127.28083821875842" x2="162.28204544634653" y1="80.57681815576076" y2="84.1939898849295" /><line stroke="black" x1="242.94948159391004" x2="243.67569143963576" y1="129.54571512710817" y2="164.77791816603442" /><line stroke="black" x1="4.640874476818264" x2="5.059117857192246" y1="327.6782752581466" y2="362.93208199771965" /><line stroke="black" x1="164.92806877473626" x2="200.14345006515651" y1="364.98553549040463" y2="368.4638591958773" /><line stroke="black" x1="162.57895100464287" x2="168.36307705386068" y1="5.64242491082584" y2="40.614635948653984" /><line stroke="black" x1="327.5904299508855" x2="362.9170673393202" y1="323.6859035321582" y2="320.0591344466141" /><line stroke="black" x1="126.92804897830176" x2="162.57895100464287" y1="5.747387269725522" y2="5.64242491082584" /><line stroke="black" x1="49.255975398376265" x2="84.91136045191685" y1="284.7962185637159" y2="284.6920574085391" /><line stroke="black" x1="205.88858035145105" x2="207.600094803918" y1="85.1628888509442" y2="120.79964507875563" /><line stroke="black" x1="324.5024723577764" x2="360.2489830416697" y1="166.4929451828923" y2="166.48779126885054" /><line stroke="black" x1="81.71687548637108" x2="83.6163519529899" y1="87.78167297828087" y2="123.48043959549112" /><line stroke="black" x1="247.65579298261278" x2="283.54147627141606" y1="364.6127012242638" y2="365.4275512691919" /><line stroke="black" x1="246.3036831774951" x2="282.14632473996255" y1="246.5118737961389" y2="249.26135956324887" /><line stroke="black" x1="81.32485805926844" x2="88.83811891656956" y1="8.501930284124946" y2="43.98905589891091" /><line stroke="black" x1="4.640874476818264" x2="40.26092844814134" y1="327.6782752581466" y2="320.3807389482952" /><line stroke="black" x1="167.84356495784328" x2="204.231814420426" y1="205.95645367014404" y2="205.718994857437" /><line stroke="black" x1="207.600094803918" x2="242.94948159391004" y1="120.79964507875563" y2="129.54571512710817" /><line stroke="black" x1="284.9706770543391" x2="286.95898998607385" y1="166.41655242062052" y2="202.82604524824714" /><line stroke="black" x1="6.012953198252079" x2="42.627472068265476" y1="82.32966015835026" y2="82.84937754922917" /><line stroke="black" x1="162.28204544634653" x2="167.4576270542654" y1="84.1939898849295" y2="120.45281627927221" /><line stroke="black" x1="9.627360199873218" x2="45.94681548730662" y1="205.43456490658014" y2="200.67041959557787" /><line stroke="black" x1="49.255975398376265" x2="40.26092844814134" y1="284.7962185637159" y2="320.3807389482952" /><line stroke="black" x1="129.43641325345968" x2="128.60202883179832" y1="204.57536051628534" y2="241.4709617914458" /><line stroke="black" x1="6.777592232020013" x2="43.86600716236182" y1="1.3056763762521486" y2="2.7314512350263156" /><line stroke="black" x1="369.19672460476545" x2="362.9170673393202" y1="283.34370289357855" y2="320.0591344466141" /><line stroke="black" x1="323.3032592602998" x2="360.57872238390183" y1="47.90176688032993" y2="47.33973590739132" /><line stroke="black" x1="161.63783604323305" x2="164.92806877473626" y1="327.69279324263147" y2="364.98553549040463" /><line stroke="black" x1="122.95556730634107" x2="127.28083821875842" y1="43.301328789366245" y2="80.57681815576076" /><line stroke="black" x1="248.86542922044163" x2="246.3036831774951" y1="209.04021219918377" y2="246.5118737961389" /><line stroke="black" x1="249.39820938717918" x2="286.96878946491603" y1="325.74293899338204" y2="325.2951424699392" /><line stroke="black" x1="126.92804897830176" x2="122.95556730634107" y1="5.747387269725522" y2="43.301328789366245" /><line stroke="black" x1="323.3032592602998" x2="324.69994944927674" y1="47.90176688032993" y2="85.66203442226367" /><line stroke="black" x1="120.04013233039927" x2="121.77375564434763" y1="327.14233553701735" y2="364.919091808118" /><line stroke="black" x1="48.02616916633615" x2="45.94681548730662" y1="162.91064079433107" y2="200.67041959557787" /><line stroke="black" x1="209.691615596248" x2="202.44932786540076" y1="283.67556812115527" y2="320.7981939246956" /><line stroke="black" x1="7.978839341996604" x2="3.5914659929687156" y1="246.67242125084812" y2="284.27708158321434" /><line stroke="black" x1="43.86600716236182" x2="81.32485805926844" y1="2.7314512350263156" y2="8.501930284124946" /><line stroke="black" x1="40.82100576309457" x2="49.255975398376265" y1="247.58308930403837" y2="284.7962185637159" /><line stroke="black" x1="209.691615596248" x2="247.9463087018023" y1="283.67556812115527" y2="285.8010914960643" /><line stroke="black" x1="129.43641325345968" x2="167.84356495784328" y1="204.57536051628534" y2="205.95645367014404" /><line stroke="black" x1="42.627472068265476" x2="49.442255213248636" y1="82.84937754922917" y2="120.67478072836514" /><line stroke="black" x1="89.22505583537534" x2="87.37292047470186" y1="164.61436699651858" y2="203.01106327808807" /><line stroke="black" x1="1.74998226057307" x2="9.627360199873218" y1="167.78996757635576" y2="205.43456490658014" /><line stroke="black" x1="202.94755074275358" x2="209.691615596248" y1="245.6832616562037" y2="283.67556812115527" /><line stroke="black" x1="248.86542922044163" x2="286.95898998607385" y1="209.04021219918377" y2="202.82604524824714" /><line stroke="black" x1="168.36307705386068" x2="206.87414574695634" y1="40.614635948653984" y2="43.44486599746217" /><line stroke="black" x1="368.9630757970426" x2="362.23282496197606" y1="85.68827253029332" y2="123.73852600361951" /><line stroke="black" x1="281.546270371331" x2="282.2376330311852" y1="87.0600778010513" y2="125.69783627303885" /><line stroke="black" x1="285.2846598920214" x2="280.8859991178084" y1="9.634312502912929" y2="48.20984098304453" /><line stroke="black" x1="280.8859991178084" x2="281.546270371331" y1="48.20984098304453" y2="87.0600778010513" /><line stroke="black" x1="249.39820938717918" x2="247.65579298261278" y1="325.74293899338204" y2="364.6127012242638" /><line stroke="black" x1="248.3710980274864" x2="249.67235824471516" y1="44.79070630958783" y2="83.69433196778863" /><line stroke="black" x1="321.39735006388474" x2="324.5024723577764" y1="127.68960885904623" y2="166.4929451828923" /><line stroke="black" x1="282.2376330311852" x2="321.39735006388474" y1="125.69783627303885" y2="127.68960885904623" /><line stroke="black" x1="325.6767358318286" x2="364.71435130534144" y1="2.847047016308064" y2="6.927236545689337" /><line stroke="black" x1="360.57872238390183" x2="368.9630757970426" y1="47.33973590739132" y2="85.68827253029332" /><line stroke="black" x1="246.3036831774951" x2="247.9463087018023" y1="246.5118737961389" y2="285.8010914960643" /><line stroke="black" x1="42.627472068265476" x2="81.71687548637108" y1="82.84937754922917" y2="87.78167297828087" /><line stroke="black" x1="242.94948159391004" x2="282.2376330311852" y1="129.54571512710817" y2="125.69783627303885" /><line stroke="black" x1="284.9706770543391" x2="324.5024723577764" y1="166.41655242062052" y2="166.4929451828923" /><line stroke="black" x1="122.40143648651222" x2="161.62561843433943" y1="161.0513004850457" y2="166.0316289959095" /><line stroke="black" x1="161.62561843433943" x2="200.78472738203368" y1="166.0316289959095" y2="160.43499589827329" /><line stroke="black" x1="43.86600716236182" x2="48.55838363777851" y1="2.7314512350263156" y2="42.06819157129489" /><line stroke="black" x1="40.82100576309457" x2="80.3205400366132" y1="247.58308930403837" y2="242.73586171065577" /><line stroke="black" x1="324.8406154188524" x2="364.5869781594385" y1="246.213157676155" y2="242.53083068686135" /><line stroke="black" x1="247.9463087018023" x2="249.39820938717918" y1="285.8010914960643" y2="325.74293899338204" /><line stroke="black" x1="204.231814420426" x2="202.94755074275358" y1="205.718994857437" y2="245.6832616562037" /><line stroke="black" x1="207.95749035750575" x2="206.87414574695634" y1="3.3776265598818203" y2="43.44486599746217" /><line stroke="black" x1="167.4576270542654" x2="207.600094803918" y1="120.45281627927221" y2="120.79964507875563" /><line stroke="black" x1="126.68230309397103" x2="120.04013233039927" y1="287.5332883128671" y2="327.14233553701735" /><line stroke="black" x1="207.600094803918" x2="200.78472738203368" y1="120.79964507875563" y2="160.43499589827329" /><line stroke="black" x1="286.96878946491603" x2="283.54147627141606" y1="325.2951424699392" y2="365.4275512691919" /><line stroke="black" x1="48.55838363777851" x2="88.83811891656956" y1="42.06819157129489" y2="43.98905589891091" /><line stroke="black" x1="169.10834956404057" x2="166.80938624311844" y1="240.09029764177444" y2="280.3544018296434" /><line stroke="black" x1="87.37292047470186" x2="80.3205400366132" y1="203.01106327808807" y2="242.73586171065577" /><line stroke="black" x1="161.62561843433943" x2="167.84356495784328" y1="166.0316289959095" y2="205.95645367014404" /><line stroke="black" x1="128.60202883179832" x2="169.10834956404057" y1="241.4709617914458" y2="240.09029764177444" /><line stroke="black" x1="364.71435130534144" x2="360.57872238390183" y1="6.927236545689337" y2="47.33973590739132" /><line stroke="black" x1="286.96878946491603" x2="327.5904299508855" y1="325.2951424699392" y2="323.6859035321582" /><line stroke="black" x1="126.68230309397103" x2="166.80938624311844" y1="287.5332883128671" y2="280.3544018296434" /><line stroke="black" x1="282.2376330311852" x2="284.9706770543391" y1="125.69783627303885" y2="166.41655242062052" /><line stroke="black" x1="321.8151426323349" x2="361.8183860780673" y1="200.5951635312249" y2="209.19353264490783" /><line stroke="black" x1="327.5904299508855" x2="326.1789119784597" y1="323.6859035321582" y2="364.5942093059098" /><line stroke="black" x1="285.2846598920214" x2="325.6767358318286" y1="9.634312502912929" y2="2.847047016308064" /><line stroke="black" x1="321.39735006388474" x2="362.23282496197606" y1="127.68960885904623" y2="123.73852600361951" /><line stroke="black" x1="364.5869781594385" x2="369.19672460476545" y1="242.53083068686135" y2="283.34370289357855" /><line stroke="black" x1="247.9463087018023" x2="288.91550669983343" y1="285.8010914960643" y2="282.23730302316204" /><line stroke="black" x1="6.557615689938872" x2="1.74998226057307" y1="126.90915684320485" y2="167.78996757635576" /><line stroke="black" x1="48.55838363777851" x2="42.627472068265476" y1="42.06819157129489" y2="82.84937754922917" /><line stroke="black" x1="48.02616916633615" x2="89.22505583537534" y1="162.91064079433107" y2="164.61436699651858" /><line stroke="black" x1="9.627360199873218" x2="7.978839341996604" y1="205.43456490658014" y2="246.67242125084812" /><line stroke="black" x1="243.67569143963576" x2="284.9706770543391" y1="164.77791816603442" y2="166.41655242062052" /><line stroke="black" x1="161.63783604323305" x2="202.44932786540076" y1="327.69279324263147" y2="320.7981939246956" /><line stroke="black" x1="45.94681548730662" x2="87.37292047470186" y1="200.67041959557787" y2="203.01106327808807" /><line stroke="black" x1="83.6163519529899" x2="89.22505583537534" y1="123.48043959549112" y2="164.61436699651858" /><line stroke="black" x1="206.87414574695634" x2="248.3710980274864" y1="43.44486599746217" y2="44.79070630958783" /><line stroke="black" x1="120.04013233039927" x2="161.63783604323305" y1="327.14233553701735" y2="327.69279324263147" /><line stroke="black" x1="40.26092844814134" x2="46.84381232943888" y1="320.3807389482952" y2="361.48409650511496" /><line stroke="black" x1="241.48326576909017" x2="248.3710980274864" y1="3.6682230826095132" y2="44.79070630958783" /><line stroke="black" x1="206.87414574695634" x2="205.88858035145105" y1="43.44486599746217" y2="85.1628888509442" /><line stroke="black" x1="5.059117857192246" x2="46.84381232943888" y1="362.93208199771965" y2="361.48409650511496" /><line stroke="black" x1="84.91136045191685" x2="126.68230309397103" y1="284.6920574085391" y2="287.5332883128671" /><line stroke="black" x1="83.6163519529899" x2="125.30114508457021" y1="123.48043959549112" y2="128.5065668811083" /><line stroke="black" x1="87.37292047470186" x2="129.43641325345968" y1="203.01106327808807" y2="204.57536051628534" /><line stroke="black" x1="324.69994944927674" x2="321.39735006388474" y1="85.66203442226367" y2="127.68960885904623" /><line stroke="black" x1="80.3205400366132" x2="84.91136045191685" y1="242.73586171065577" y2="284.6920574085391" /><line stroke="black" x1="49.442255213248636" x2="48.02616916633615" y1="120.67478072836514" y2="162.91064079433107" /><line stroke="black" x1="280.8859991178084" x2="323.3032592602998" y1="48.20984098304453" y2="47.90176688032993" /><line stroke="black" x1="283.54147627141606" x2="326.1789119784597" y1="365.4275512691919" y2="364.5942093059098" /><line stroke="black" x1="360.2489830416697" x2="361.8183860780673" y1="166.48779126885054" y2="209.19353264490783" /><line stroke="black" x1="362.23282496197606" x2="360.2489830416697" y1="123.73852600361951" y2="166.48779126885054" /><line stroke="black" x1="282.14632473996255" x2="324.8406154188524" y1="249.26135956324887" y2="246.213157676155" /><line stroke="black" x1="46.84381232943888" x2="89.64561654096802" y1="361.48409650511496" y2="361.1098121059358" /><line stroke="black" x1="125.30114508457021" x2="167.4576270542654" y1="128.5065668811083" y2="120.45281627927221" /><line stroke="black" x1="166.80938624311844" x2="209.691615596248" y1="280.3544018296434" y2="283.67556812115527" /><line stroke="black" x1="288.91550669983343" x2="286.96878946491603" y1="282.23730302316204" y2="325.2951424699392" /><line stroke="black" x1="200.78472738203368" x2="243.67569143963576" y1="160.43499589827329" y2="164.77791816603442" /><line stroke="black" x1="121.77375564434763" x2="164.92806877473626" y1="364.919091808118" y2="364.98553549040463" /><line stroke="black" x1="281.546270371331" x2="324.69994944927674" y1="87.0600778010513" y2="85.66203442226367" /><line stroke="black" x1="6.557615689938872" x2="49.442255213248636" y1="126.90915684320485" y2="120.67478072836514" /><line stroke="black" x1="202.94755074275358" x2="246.3036831774951" y1="245.6832616562037" y2="246.5118737961389" /><line stroke="black" x1="3.5914659929687156" x2="4.640874476818264" y1="284.27708158321434" y2="327.6782752581466" /><line stroke="black" x1="362.9170673393202" x2="360.57588671354443" y1="320.0591344466141" y2="363.46336228882797" /><line stroke="black" x1="162.28204544634653" x2="205.88858035145105" y1="84.1939898849295" y2="85.1628888509442" /><line stroke="black" x1="324.00793897748287" x2="327.5904299508855" y1="280.1585515151656" y2="323.6859035321582" /><line stroke="black" x1="205.88858035145105" x2="249.67235824471516" y1="85.1628888509442" y2="83.69433196778863" /><line stroke="black" x1="168.36307705386068" x2="162.28204544634653" y1="40.614635948653984" y2="84.1939898849295" /><line stroke="black" x1="122.40143648651222" x2="129.43641325345968" y1="161.0513004850457" y2="204.57536051628534" /><line stroke="black" x1="241.48326576909017" x2="285.2846598920214" y1="3.6682230826095132" y2="9.634312502912929" /><line stroke="black" x1="324.69994944927674" x2="368.9630757970426" y1="85.66203442226367" y2="85.68827253029332" /><line stroke="black" x1="88.83811891656956" x2="81.71687548637108" y1="43.98905589891091" y2="87.78167297828087" /><line stroke="black" x1="243.67569143963576" x2="248.86542922044163" y1="164.77791816603442" y2="209.04021219918377" /><line stroke="black" x1="6.012953198252079" x2="6.557615689938872" y1="82.32966015835026" y2="126.90915684320485" /><line stroke="black" x1="204.231814420426" x2="248.86542922044163" y1="205.718994857437" y2="209.04021219918377" /><line stroke="black" x1="84.91136045191685" x2="89.30837019411422" y1="284.6920574085391" y2="329.5147569387542" /><line stroke="black" x1="325.6767358318286" x2="323.3032592602998" y1="2.847047016308064" y2="47.90176688032993" /><line stroke="black" x1="324.00793897748287" x2="369.19672460476545" y1="280.1585515151656" y2="283.34370289357855" /><line stroke="black" x1="200.78472738203368" x2="204.231814420426" y1="160.43499589827329" y2="205.718994857437" /><line stroke="black" x1="162.57895100464287" x2="207.95749035750575" y1="5.64242491082584" y2="3.3776265598818203" /><line stroke="black" x1="122.95556730634107" x2="168.36307705386068" y1="43.301328789366245" y2="40.614635948653984" /><line stroke="black" x1="89.64561654096802" x2="120.04013233039927" y1="361.1098121059358" y2="327.14233553701735" /><line stroke="black" x1="3.5914659929687156" x2="49.255975398376265" y1="284.27708158321434" y2="284.7962185637159" /><line stroke="black" x1="81.32485805926844" x2="126.92804897830176" y1="8.501930284124946" y2="5.747387269725522" /><line stroke="black" x1="321.8151426323349" x2="324.8406154188524" y1="200.5951635312249" y2="246.213157676155" /><line stroke="black" x1="167.4576270542654" x2="161.62561843433943" y1="120.45281627927221" y2="166.0316289959095" /><line stroke="black" x1="49.442255213248636" x2="81.71687548637108" y1="120.67478072836514" y2="87.78167297828087" /><line stroke="black" x1="128.60202883179832" x2="126.68230309397103" y1="241.4709617914458" y2="287.5332883128671" /><line stroke="black" x1="81.71687548637108" x2="127.28083821875842" y1="87.78167297828087" y2="80.57681815576076" /><line stroke="black" x1="249.67235824471516" x2="242.94948159391004" y1="83.69433196778863" y2="129.54571512710817" /><line stroke="black" x1="1.74998226057307" x2="48.02616916633615" y1="167.78996757635576" y2="162.91064079433107" /><line stroke="black" x1="2.415683266390065" x2="48.55838363777851" y1="48.68004581911396" y2="42.06819157129489" /><line stroke="black" x1="286.95898998607385" x2="282.14632473996255" y1="202.82604524824714" y2="249.26135956324887" /><line stroke="black" x1="48.55838363777851" x2="81.32485805926844" y1="42.06819157129489" y2="8.501930284124946" /><line stroke="black" x1="45.94681548730662" x2="40.82100576309457" y1="200.67041959557787" y2="247.58308930403837" /><line stroke="black" x1="202.44932786540076" x2="249.39820938717918" y1="320.7981939246956" y2="325.74293899338204" /><line stroke="black" x1="249.67235824471516" x2="280.8859991178084" y1="83.69433196778863" y2="48.20984098304453" /><line stroke="black" x1="6.777592232020013" x2="2.415683266390065" y1="1.3056763762521486" y2="48.68004581911396" /><line stroke="black" x1="166.80938624311844" x2="161.63783604323305" y1="280.3544018296434" y2="327.69279324263147" /><line stroke="black" x1="200.14345006515651" x2="247.65579298261278" y1="368.4638591958773" y2="364.6127012242638" /><line stroke="black" x1="202.44932786540076" x2="200.14345006515651" y1="320.7981939246956" y2="368.4638591958773" /><line stroke="black" x1="127.28083821875842" x2="125.30114508457021" y1="80.57681815576076" y2="128.5065668811083" /><line stroke="black" x1="80.3205400366132" x2="128.60202883179832" y1="242.73586171065577" y2="241.4709617914458" /><line stroke="black" x1="169.10834956404057" x2="204.231814420426" y1="240.09029764177444" y2="205.718994857437" /><line stroke="black" x1="40.26092844814134" x2="89.30837019411422" y1="320.3807389482952" y2="329.5147569387542" /><line stroke="black" x1="247.9463087018023" x2="282.14632473996255" y1="285.8010914960643" y2="249.26135956324887" /><line stroke="black" x1="166.80938624311844" x2="202.94755074275358" y1="280.3544018296434" y2="245.6832616562037" /><line stroke="black" x1="129.43641325345968" x2="161.62561843433943" y1="204.57536051628534" y2="166.0316289959095" /><line stroke="black" x1="284.9706770543391" x2="321.8151426323349" y1="166.41655242062052" y2="200.5951635312249" /><line stroke="black" x1="288.91550669983343" x2="324.8406154188524" y1="282.23730302316204" y2="246.213157676155" /><line stroke="black" x1="248.3710980274864" x2="285.2846598920214" y1="44.79070630958783" y2="9.634312502912929" /><line stroke="black" x1="89.22505583537534" x2="125.30114508457021" y1="164.61436699651858" y2="128.5065668811083" /><line stroke="black" x1="321.8151426323349" x2="360.2489830416697" y1="200.5951635312249" y2="166.48779126885054" /><line stroke="black" x1="3.5914659929687156" x2="40.26092844814134" y1="284.27708158321434" y2="320.3807389482952" /><line stroke="black" x1="327.5904299508855" x2="360.57588671354443" y1="323.6859035321582" y2="363.46336228882797" /><line stroke="black" x1="167.4576270542654" x2="200.78472738203368" y1="120.45281627927221" y2="160.43499589827329" /><line stroke="black" x1="209.691615596248" x2="246.3036831774951" y1="283.67556812115527" y2="246.5118737961389" /><line stroke="black" x1="167.4576270542654" x2="205.88858035145105" y1="120.45281627927221" y2="85.1628888509442" /><line stroke="black" x1="248.86542922044163" x2="282.14632473996255" y1="209.04021219918377" y2="249.26135956324887" /><line stroke="black" x1="125.30114508457021" x2="161.62561843433943" y1="128.5065668811083" y2="166.0316289959095" /><line stroke="black" x1="200.78472738203368" x2="242.94948159391004" y1="160.43499589827329" y2="129.54571512710817" /><line stroke="black" x1="3.5914659929687156" x2="40.82100576309457" y1="284.27708158321434" y2="247.58308930403837" /><line stroke="black" x1="49.255975398376265" x2="80.3205400366132" y1="284.7962185637159" y2="242.73586171065577" /><line stroke="black" x1="324.8406154188524" x2="361.8183860780673" y1="246.213157676155" y2="209.19353264490783" /><line stroke="black" x1="249.39820938717918" x2="283.54147627141606" y1="325.74293899338204" y2="365.4275512691919" /><line stroke="black" x1="9.627360199873218" x2="40.82100576309457" y1="205.43456490658014" y2="247.58308930403837" /><line stroke="black" x1="324.69994944927674" x2="360.57872238390183" y1="85.66203442226367" y2="47.33973590739132" /><line stroke="black" x1="206.87414574695634" x2="241.48326576909017" y1="43.44486599746217" y2="3.6682230826095132" /><line stroke="black" x1="2.415683266390065" x2="42.627472068265476" y1="48.68004581911396" y2="82.84937754922917" /><line stroke="black" x1="128.60202883179832" x2="167.84356495784328" y1="241.4709617914458" y2="205.95645367014404" /><line stroke="black" x1="88.83811891656956" x2="127.28083821875842" y1="43.98905589891091" y2="80.57681815576076" /><line stroke="black" x1="48.02616916633615" x2="83.6163519529899" y1="162.91064079433107" y2="123.48043959549112" /><line stroke="black" x1="249.67235824471516" x2="282.2376330311852" y1="83.69433196778863" y2="125.69783627303885" /><line stroke="black" x1="46.84381232943888" x2="89.30837019411422" y1="361.48409650511496" y2="329.5147569387542" /><line stroke="black" x1="284.9706770543391" x2="321.39735006388474" y1="166.41655242062052" y2="127.68960885904623" /><line stroke="black" x1="126.68230309397103" x2="161.63783604323305" y1="287.5332883128671" y2="327.69279324263147" /><line stroke="black" x1="324.69994944927674" x2="362.23282496197606" y1="85.66203442226367" y2="123.73852600361951" /><line stroke="black" x1="166.80938624311844" x2="202.44932786540076" y1="280.3544018296434" y2="320.7981939246956" /><line stroke="black" x1="285.2846598920214" x2="323.3032592602998" y1="9.634312502912929" y2="47.90176688032993" /><line stroke="black" x1="88.83811891656956" x2="126.92804897830176" y1="43.98905589891091" y2="5.747387269725522" /><line stroke="black" x1="4.640874476818264" x2="46.84381232943888" y1="327.6782752581466" y2="361.48409650511496" /><line stroke="black" x1="126.92804897830176" x2="168.36307705386068" y1="5.747387269725522" y2="40.614635948653984" /><line stroke="black" x1="45.94681548730662" x2="80.3205400366132" y1="200.67041959557787" y2="242.73586171065577" /><line stroke="black" x1="168.36307705386068" x2="207.95749035750575" y1="40.614635948653984" y2="3.3776265598818203" /><line stroke="black" x1="128.60202883179832" x2="166.80938624311844" y1="241.4709617914458" y2="280.3544018296434" /><line stroke="black" x1="121.77375564434763" x2="161.63783604323305" y1="364.919091808118" y2="327.69279324263147" /><line stroke="black" x1="87.37292047470186" x2="122.40143648651222" y1="203.01106327808807" y2="161.0513004850457" /><line stroke="black" x1="243.67569143963576" x2="282.2376330311852" y1="164.77791816603442" y2="125.69783627303885" /><line stroke="black" x1="321.39735006388474" x2="360.2489830416697" y1="127.68960885904623" y2="166.48779126885054" /><line stroke="black" x1="6.557615689938872" x2="48.02616916633615" y1="126.90915684320485" y2="162.91064079433107" /><line stroke="black" x1="1.74998226057307" x2="45.94681548730662" y1="167.78996757635576" y2="200.67041959557787" /><line stroke="black" x1="84.91136045191685" x2="120.04013233039927" y1="284.6920574085391" y2="327.14233553701735" /><line stroke="black" x1="324.00793897748287" x2="364.5869781594385" y1="280.1585515151656" y2="242.53083068686135" /><line stroke="black" x1="286.96878946491603" x2="326.1789119784597" y1="325.2951424699392" y2="364.5942093059098" /><line stroke="black" x1="247.9463087018023" x2="286.96878946491603" y1="285.8010914960643" y2="325.2951424699392" /><line stroke="black" x1="324.00793897748287" x2="362.9170673393202" y1="280.1585515151656" y2="320.0591344466141" /><line stroke="black" x1="248.86542922044163" x2="284.9706770543391" y1="209.04021219918377" y2="166.41655242062052" /><line stroke="black" x1="161.63783604323305" x2="200.14345006515651" y1="327.69279324263147" y2="368.4638591958773" /><line stroke="black" x1="207.600094803918" x2="249.67235824471516" y1="120.79964507875563" y2="83.69433196778863" /><line stroke="black" x1="48.02616916633615" x2="87.37292047470186" y1="162.91064079433107" y2="203.01106327808807" /><line stroke="black" x1="167.84356495784328" x2="200.78472738203368" y1="205.95645367014404" y2="160.43499589827329" /><line stroke="black" x1="87.37292047470186" x2="128.60202883179832" y1="203.01106327808807" y2="241.4709617914458" /><line stroke="black" x1="48.55838363777851" x2="81.71687548637108" y1="42.06819157129489" y2="87.78167297828087" /><line stroke="black" x1="325.6767358318286" x2="360.57872238390183" y1="2.847047016308064" y2="47.33973590739132" /><line stroke="black" x1="127.28083821875842" x2="167.4576270542654" y1="80.57681815576076" y2="120.45281627927221" /><line stroke="black" x1="288.91550669983343" x2="327.5904299508855" y1="282.23730302316204" y2="323.6859035321582" /><line stroke="black" x1="122.95556730634107" x2="162.28204544634653" y1="43.301328789366245" y2="84.1939898849295" /><line stroke="black" x1="204.231814420426" x2="243.67569143963576" y1="205.718994857437" y2="164.77791816603442" /><line stroke="black" x1="281.546270371331" x2="321.39735006388474" y1="87.0600778010513" y2="127.68960885904623" /><line stroke="black" x1="6.557615689938872" x2="42.627472068265476" y1="126.90915684320485" y2="82.84937754922917" /><line stroke="black" x1="40.26092844814134" x2="84.91136045191685" y1="320.3807389482952" y2="284.6920574085391" /><line stroke="black" x1="281.546270371331" x2="323.3032592602998" y1="87.0600778010513" y2="47.90176688032993" /><line stroke="black" x1="202.44932786540076" x2="247.9463087018023" y1="320.7981939246956" y2="285.8010914960643" /><line stroke="black" x1="286.95898998607385" x2="324.8406154188524" y1="202.82604524824714" y2="246.213157676155" /><line stroke="black" x1="168.36307705386068" x2="205.88858035145105" y1="40.614635948653984" y2="85.1628888509442" /><line stroke="black" x1="6.777592232020013" x2="48.55838363777851" y1="1.3056763762521486" y2="42.06819157129489" /><line stroke="black" x1="204.231814420426" x2="246.3036831774951" y1="205.718994857437" y2="246.5118737961389" /><line stroke="black" x1="205.88858035145105" x2="248.3710980274864" y1="85.1628888509442" y2="44.79070630958783" /><line stroke="black" x1="81.71687548637108" x2="125.30114508457021" y1="87.78167297828087" y2="128.5065668811083" /><line stroke="black" x1="84.91136045191685" x2="128.60202883179832" y1="284.6920574085391" y2="241.4709617914458" /><line stroke="black" x1="202.44932786540076" x2="247.65579298261278" y1="320.7981939246956" y2="364.6127012242638" /><line stroke="black" x1="361.8183860780673" x2="369.19672460476545" y1="209.19353264490783" y2="283.34370289357855" /><line stroke="black" x1="46.84381232943888" x2="121.77375564434763" y1="361.48409650511496" y2="364.919091808118" /><line stroke="black" x1="2.415683266390065" x2="6.557615689938872" y1="48.68004581911396" y2="126.90915684320485" /><line stroke="black" x1="121.77375564434763" x2="200.14345006515651" y1="364.919091808118" y2="368.4638591958773" /><line stroke="black" x1="3.5914659929687156" x2="5.059117857192246" y1="284.27708158321434" y2="362.93208199771965" /><line stroke="black" x1="364.71435130534144" x2="368.9630757970426" y1="6.927236545689337" y2="85.68827253029332" /><line stroke="black" x1="9.627360199873218" x2="3.5914659929687156" y1="205.43456490658014" y2="284.27708158321434" /><line stroke="black" x1="369.19672460476545" x2="360.57588671354443" y1="283.34370289357855" y2="363.46336228882797" /><line stroke="black" x1="126.92804897830176" x2="207.95749035750575" y1="5.747387269725522" y2="3.3776265598818203" /><line stroke="black" x1="368.9630757970426" x2="360.2489830416697" y1="85.68827253029332" y2="166.48779126885054" /><line stroke="black" x1="43.86600716236182" x2="126.92804897830176" y1="2.7314512350263156" y2="5.747387269725522" /><line stroke="black" x1="200.14345006515651" x2="283.54147627141606" y1="368.4638591958773" y2="365.4275512691919" /><line stroke="black" x1="241.48326576909017" x2="325.6767358318286" y1="3.6682230826095132" y2="2.847047016308064" /><line stroke="black" x1="1.74998226057307" x2="3.5914659929687156" y1="167.78996757635576" y2="284.27708158321434" /><line stroke="black" x1="5.059117857192246" x2="121.77375564434763" y1="362.93208199771965" y2="364.919091808118" /><line stroke="black" x1="360.2489830416697" x2="369.19672460476545" y1="166.48779126885054" y2="283.34370289357855" /><line stroke="black" x1="207.95749035750575" x2="325.6767358318286" y1="3.3776265598818203" y2="2.847047016308064" /><line stroke="black" x1="2.415683266390065" x2="1.74998226057307" y1="48.68004581911396" y2="167.78996757635576" /><line stroke="black" x1="6.777592232020013" x2="126.92804897830176" y1="1.3056763762521486" y2="5.747387269725522" /><line stroke="black" x1="200.14345006515651" x2="326.1789119784597" y1="368.4638591958773" y2="364.5942093059098" /><line stroke="black" x1="5.059117857192246" x2="200.14345006515651" y1="362.93208199771965" y2="368.4638591958773" /><line stroke="black" x1="368.9630757970426" x2="369.19672460476545" y1="85.68827253029332" y2="283.34370289357855" /><line stroke="black" x1="6.777592232020013" x2="207.95749035750575" y1="1.3056763762521486" y2="3.3776265598818203" /><line stroke="black" x1="6.777592232020013" x2="325.6767358318286" y1="1.3056763762521486" y2="2.847047016308064" /><circle cx="6.777592232020013" cy="1.3056763762521486" fill="lightblue" r="2" stroke="blue" /><circle cx="2.415683266390065" cy="48.68004581911396" fill="lightblue" r="2" stroke="blue" /><circle cx="6.012953198252079" cy="82.32966015835026" fill="lightblue" r="2" stroke="blue" /><circle cx="6.557615689938872" cy="126.90915684320485" fill="lightblue" r="2" stroke="blue" /><circle cx="1.74998226057307" cy="167.78996757635576" fill="lightblue" r="2" stroke="blue" /><circle cx="9.627360199873218" cy="205.43456490658014" fill="lightblue" r="2" stroke="blue" /><circle cx="7.978839341996604" cy="246.67242125084812" fill="lightblue" r="2" stroke="blue" /><circle cx="3.5914659929687156" cy="284.27708158321434" fill="lightblue" r="2" stroke="blue" /><circle cx="4.640874476818264" cy="327.6782752581466" fill="lightblue" r="2" stroke="blue" /><circle cx="5.059117857192246" cy="362.93208199771965" fill="lightblue" r="2" stroke="blue" /><circle cx="43.86600716236182" cy="2.7314512350263156" fill="lightblue" r="2" stroke="blue" /><circle cx="48.55838363777851" cy="42.06819157129489" fill="lightblue" r="2" stroke="blue" /><circle cx="42.627472068265476" cy="82.84937754922917" fill="lightblue" r="2" stroke="blue" /><circle cx="49.442255213248636" cy="120.67478072836514" fill="lightblue" r="2" stroke="blue" /><circle cx="48.02616916633615" cy="162.91064079433107" fill="lightblue" r="2" stroke="blue" /><circle cx="45.94681548730662" cy="200.67041959557787" fill="lightblue" r="2" stroke="blue" /><circle cx="40.82100576309457" cy="247.58308930403837" fill="lightblue" r="2" stroke="blue" /><circle cx="49.255975398376265" cy="284.7962185637159" fill="lightblue" r="2" stroke="blue" /><circle cx="40.26092844814134" cy="320.3807389482952" fill="lightblue" r="2" stroke="blue" /><circle cx="46.84381232943888" cy="361.48409650511496" fill="lightblue" r="2" stroke="blue" /><circle cx="81.32485805926844" cy="8.501930284124946" fill="lightblue" r="2" stroke="blue" /><circle cx="88.83811891656956" cy="43.98905589891091" fill="lightblue" r="2" stroke="blue" /><circle cx="81.71687548637108" cy="87.78167297828087" fill="lightblue" r="2" stroke="blue" /><circle cx="83.6163519529899" cy="123.48043959549112" fill="lightblue" r="2" stroke="blue" /><circle cx="89.22505583537534" cy="164.61436699651858" fill="lightblue" r="2" stroke="blue" /><circle cx="87.37292047470186" cy="203.01106327808807" fill="lightblue" r="2" stroke="blue" /><circle cx="80.3205400366132" cy="242.73586171065577" fill="lightblue" r="2" stroke="blue" /><circle cx="84.91136045191685" cy="284.6920574085391" fill="lightblue" r="2" stroke="blue" /><circle cx="89.30837019411422" cy="329.5147569387542" fill="lightblue" r="2" stroke="blue" /><circle cx="89.64561654096802" cy="361.1098121059358" fill="lightblue" r="2" stroke="blue" /><circle cx="126.92804897830176" cy="5.747387269725522" fill="lightblue" r="2" stroke="blue" /><circle cx="122.95556730634107" cy="43.301328789366245" fill="lightblue" r="2" stroke="blue" /><circle cx="127.28083821875842" cy="80.57681815576076" fill="lightblue" r="2" stroke="blue" /><circle cx="125.30114508457021" cy="128.5065668811083" fill="lightblue" r="2" stroke="blue" /><circle cx="122.40143648651222" cy="161.0513004850457" fill="lightblue" r="2" stroke="blue" /><circle cx="129.43641325345968" cy="204.57536051628534" fill="lightblue" r="2" stroke="blue" /><circle cx="128.60202883179832" cy="241.4709617914458" fill="lightblue" r="2" stroke="blue" /><circle cx="126.68230309397103" cy="287.5332883128671" fill="lightblue" r="2" stroke="blue" /><circle cx="120.04013233039927" cy="327.14233553701735" fill="lightblue" r="2" stroke="blue" /><circle cx="121.77375564434763" cy="364.919091808118" fill="lightblue" r="2" stroke="blue" /><circle cx="162.57895100464287" cy="5.64242491082584" fill="lightblue" r="2" stroke="blue" /><circle cx="168.36307705386068" cy="40.614635948653984" fill="lightblue" r="2" stroke="blue" /><circle cx="162.28204544634653" cy="84.1939898849295" fill="lightblue" r="2" stroke="blue" /><circle cx="167.4576270542654" cy="120.45281627927221" fill="lightblue" r="2" stroke="blue" /><circle cx="161.62561843433943" cy="166.0316289959095" fill="lightblue" r="2" stroke="blue" /><circle cx="167.84356495784328" cy="205.95645367014404" fill="lightblue" r="2" stroke="blue" /><circle cx="169.10834956404057" cy="240.09029764177444" fill="lightblue" r="2" stroke="blue" /><circle cx="166.80938624311844" cy="280.3544018296434" fill="lightblue" r="2" stroke="blue" /><circle cx="161.63783604323305" cy="327.69279324263147" fill="lightblue" r="2" stroke="blue" /><circle cx="164.92806877473626" cy="364.98553549040463" fill="lightblue" r="2" stroke="blue" /><circle cx="207.95749035750575" cy="3.3776265598818203" fill="lightblue" r="2" stroke="blue" /><circle cx="206.87414574695634" cy="43.44486599746217" fill="lightblue" r="2" stroke="blue" /><circle cx="205.88858035145105" cy="85.1628888509442" fill="lightblue" r="2" stroke="blue" /><circle cx="207.600094803918" cy="120.79964507875563" fill="lightblue" r="2" stroke="blue" /><circle cx="200.78472738203368" cy="160.43499589827329" fill="lightblue" r="2" stroke="blue" /><circle cx="204.231814420426" cy="205.718994857437" fill="lightblue" r="2" stroke="blue" /><circle cx="202.94755074275358" cy="245.6832616562037" fill="lightblue" r="2" stroke="blue" /><circle cx="209.691615596248" cy="283.67556812115527" fill="lightblue" r="2" stroke="blue" /><circle cx="202.44932786540076" cy="320.7981939246956" fill="lightblue" r="2" stroke="blue" /><circle cx="200.14345006515651" cy="368.4638591958773" fill="lightblue" r="2" stroke="blue" /><circle cx="241.48326576909017" cy="3.6682230826095132" fill="lightblue" r="2" stroke="blue" /><circle cx="248.3710980274864" cy="44.79070630958783" fill="lightblue" r="2" stroke="blue" /><circle cx="249.67235824471516" cy="83.69433196778863" fill="lightblue" r="2" stroke="blue" /><circle cx="242.94948159391004" cy="129.54571512710817" fill="lightblue" r="2" stroke="blue" /><circle cx="243.67569143963576" cy="164.77791816603442" fill="lightblue" r="2" stroke="blue" /><circle cx="248.86542922044163" cy="209.04021219918377" fill="lightblue" r="2" stroke="blue" /><circle cx="246.3036831774951" cy="246.5118737961389" fill="lightblue" r="2" stroke="blue" /><circle cx="247.9463087018023" cy="285.8010914960643" fill="lightblue" r="2" stroke="blue" /><circle cx="249.39820938717918" cy="325.74293899338204" fill="lightblue" r="2" stroke="blue" /><circle cx="247.65579298261278" cy="364.6127012242638" fill="lightblue" r="2" stroke="blue" /><circle cx="285.2846598920214" cy="9.634312502912929" fill="lightblue" r="2" stroke="blue" /><circle cx="280.8859991178084" cy="48.20984098304453" fill="lightblue" r="2" stroke="blue" /><circle cx="281.546270371331" cy="87.0600778010513" fill="lightblue" r="2" stroke="blue" /><circle cx="282.2376330311852" cy="125.69783627303885" fill="lightblue" r="2" stroke="blue" /><circle cx="284.9706770543391" cy="166.41655242062052" fill="lightblue" r="2" stroke="blue" /><circle cx="286.95898998607385" cy="202.82604524824714" fill="lightblue" r="2" stroke="blue" /><circle cx="282.14632473996255" cy="249.26135956324887" fill="lightblue" r="2" stroke="blue" /><circle cx="288.91550669983343" cy="282.23730302316204" fill="lightblue" r="2" stroke="blue" /><circle cx="286.96878946491603" cy="325.2951424699392" fill="lightblue" r="2" stroke="blue" /><circle cx="283.54147627141606" cy="365.4275512691919" fill="lightblue" r="2" stroke="blue" /><circle cx="325.6767358318286" cy="2.847047016308064" fill="lightblue" r="2" stroke="blue" /><circle cx="323.3032592602998" cy="47.90176688032993" fill="lightblue" r="2" stroke="blue" /><circle cx="324.69994944927674" cy="85.66203442226367" fill="lightblue" r="2" stroke="blue" /><circle cx="321.39735006388474" cy="127.68960885904623" fill="lightblue" r="2" stroke="blue" /><circle cx="324.5024723577764" cy="166.4929451828923" fill="lightblue" r="2" stroke="blue" /><circle cx="321.8151426323349" cy="200.5951635312249" fill="lightblue" r="2" stroke="blue" /><circle cx="324.8406154188524" cy="246.213157676155" fill="lightblue" r="2" stroke="blue" /><circle cx="324.00793897748287" cy="280.1585515151656" fill="lightblue" r="2" stroke="blue" /><circle cx="327.5904299508855" cy="323.6859035321582" fill="lightblue" r="2" stroke="blue" /><circle cx="326.1789119784597" cy="364.5942093059098" fill="lightblue" r="2" stroke="blue" /><circle cx="364.71435130534144" cy="6.927236545689337" fill="lightblue" r="2" stroke="blue" /><circle cx="360.57872238390183" cy="47.33973590739132" fill="lightblue" r="2" stroke="blue" /><circle cx="368.9630757970426" cy="85.68827253029332" fill="lightblue" r="2" stroke="blue" /><circle cx="362.23282496197606" cy="123.73852600361951" fill="lightblue" r="2" stroke="blue" /><circle cx="360.2489830416697" cy="166.48779126885054" fill="lightblue" r="2" stroke="blue" /><circle cx="361.8183860780673" cy="209.19353264490783" fill="lightblue" r="2" stroke="blue" /><circle cx="364.5869781594385" cy="242.53083068686135" fill="lightblue" r="2" stroke="blue" /><circle cx="369.19672460476545" cy="283.34370289357855" fill="lightblue" r="2" stroke="blue" /><circle cx="362.9170673393202" cy="320.0591344466141" fill="lightblue" r="2" stroke="blue" /><circle cx="360.57588671354443" cy="363.46336228882797" fill="lightblue" r="2" stroke="blue" /></svg>