<?xml version="1.0" encoding="utf-8" ?>
<svg baseProfile="full" height="100%" version="1.1" width="100%" xmlns="http://www.w3.org/2000/svg" xmlns:ev="http://www.w3.org/2001/xml-events" xmlns:xlink="http://www.w3.org/1999/xlink"><defs /><circle cx="52.77791981312037" cy="49.429160338725794" fill="lightblue" r="2" stroke="blue" /><circle cx="49.23737087430296" cy="57.364916238989316" fill="lightblue" r="2" stroke="blue" /><circle cx="52.122892504916244" cy="76.81882324024309" fill="lightblue" r="2" stroke="blue" /><circle cx="50.96999618985963" cy="90.23257100354174" fill="lightblue" r="2" stroke="blue" /><circle cx="49.99591518849148" cy="99.00526566498978" fill="lightblue" r="2" stroke="blue" /><circle cx="51.526326990701946" cy="105.34342174184046" fill="lightblue" r="2" stroke="blue" /><circle cx="47.44665383885912" cy="113.23795531935336" fill="lightblue" r="2" stroke="blue" /><circle cx="50.14682900539376" cy="121.03751801950519" fill="lightblue" r="2" stroke="blue" /><circle cx="55.42044281057173" cy="51.79135835396669" fill="lightblue" r="2" stroke="blue" /><circle cx="59.35348139966096" cy="55.15115681293829" fill="lightblue" r="2" stroke="blue" /><circle cx="59.21367349217198" cy="68.75464621614239" fill="lightblue" r="2" stroke="blue" /><circle cx="60.907838004954954" cy="83.65371277405917" fill="lightblue" r="2" stroke="blue" /><circle cx="57.20221860364177" cy="90.66636729529931" fill="lightblue" r="2" stroke="blue" /><circle cx="55.30987648322477" cy="111.27186326497849" fill="lightblue" r="2" stroke="blue" /><circle cx="58.952738400645416" cy="121.57885322632609" fill="lightblue" r="2" stroke="blue" /><circle cx="65.61076187332431" cy="50.859905291849415" fill="lightblue" r="2" stroke="blue" /><circle cx="65.94278608082627" cy="58.190632524385215" fill="lightblue" r="2" stroke="blue" /><circle cx="65.80434258009409" cy="65.92583744612325" fill="lightblue" r="2" stroke="blue" /><circle cx="65.64770767568206" cy="73.92489156169435" fill="lightblue" r="2" stroke="blue" /><circle cx="68.92974023970707" cy="81.9224766296839" fill="lightblue" r="2" stroke="blue" /><circle cx="68.36772787410305" cy="91.37348012342366" fill="lightblue" r="2" stroke="blue" /><circle cx="65.05873028058204" cy="103.06352153623286" fill="lightblue" r="2" stroke="blue" /><circle cx="67.42213654088425" cy="114.59749865051833" fill="lightblue" r="2" stroke="blue" /><circle cx="65.34118113687042" cy="119.81076186160026" fill="lightblue" r="2" stroke="blue" /><circle cx="75.76833825108902" cy="57.06460739620373" fill="lightblue" r="2" stroke="blue" /><circle cx="73.00796993211995" cy="66.17898755617126" fill="lightblue" r="2" stroke="blue" /><circle cx="73.30824871333672" cy="75.85898384601676" fill="lightblue" r="2" stroke="blue" /><circle cx="72.16482038033297" cy="88.48561016948901" fill="lightblue" r="2" stroke="blue" /><circle cx="76.4263442694696" cy="98.07099219575593" fill="lightblue" r="2" stroke="blue" /><circle cx="76.21050149109286" cy="108.01020089492589" fill="lightblue" r="2" stroke="blue" /><circle cx="75.1012054073325" cy="114.78245386740453" fill="lightblue" r="2" stroke="blue" /><circle cx="71.7947507463188" cy="123.44070572306818" fill="lightblue" r="2" stroke="blue" /><circle cx="79.52114341075291" cy="51.606869799163334" fill="lightblue" r="2" stroke="blue" /><circle cx="84.1013765910712" cy="68.90278722955314" fill="lightblue" r="2" stroke="blue" /><circle cx="81.88553363047795" cy="72.64247880856607" fill="lightblue" r="2" stroke="blue" /><circle cx="80.55416704812686" cy="81.93984932805176" fill="lightblue" r="2" stroke="blue" /><circle cx="79.92397768995518" cy="88.61765109170365" fill="lightblue" r="2" stroke="blue" /><circle cx="79.35867991212704" cy="98.94767270848898" fill="lightblue" r="2" stroke="blue" /><circle cx="82.26656439599995" cy="107.02912839757431" fill="lightblue" r="2" stroke="blue" /><circle cx="81.6906018881347" cy="115.1691581837619" fill="lightblue" r="2" stroke="blue" /><circle cx="79.57532087652503" cy="120.63221573991487" fill="lightblue" r="2" stroke="blue" /><circle cx="89.7869652325481" cy="47.41427385179974" fill="lightblue" r="2" stroke="blue" /><circle cx="89.73537070742773" cy="55.53090188774568" fill="lightblue" r="2" stroke="blue" /><circle cx="90.22832242159731" cy="65.66054052136063" fill="lightblue" r="2" stroke="blue" /><circle cx="92.5255182454833" cy="80.74526817326286" fill="lightblue" r="2" stroke="blue" /><circle cx="90.9779676451249" cy="89.32447283374725" fill="lightblue" r="2" stroke="blue" /><circle cx="89.63942219273584" cy="99.52732110312881" fill="lightblue" r="2" stroke="blue" /><circle cx="89.78470213574764" cy="103.74034064399928" fill="lightblue" r="2" stroke="blue" /><circle cx="90.0827506684607" cy="112.76196079804515" fill="lightblue" r="2" stroke="blue" /><circle cx="90.65416174176089" cy="122.0504991597307" fill="lightblue" r="2" stroke="blue" /><circle cx="98.6670712256987" cy="51.91218442517973" fill="lightblue" r="2" stroke="blue" /><circle cx="97.58294138297545" cy="60.30221151825261" fill="lightblue" r="2" stroke="blue" /><circle cx="98.6589641405744" cy="91.1383937208133" fill="lightblue" r="2" stroke="blue" /><circle cx="96.06639304836591" cy="100.1869958107451" fill="lightblue" r="2" stroke="blue" /><circle cx="97.15878977283016" cy="104.64839421295014" fill="lightblue" r="2" stroke="blue" /><circle cx="96.99465388036745" cy="112.89507408034726" fill="lightblue" r="2" stroke="blue" /><circle cx="98.18028213268961" cy="121.57246103586567" fill="lightblue" r="2" stroke="blue" /><circle cx="108.72526423652644" cy="50.59639162881413" fill="lightblue" r="2" stroke="blue" /><circle cx="107.3472688840981" cy="60.90467481337731" fill="lightblue" r="2" stroke="blue" /><circle cx="108.74376800327167" cy="67.99996889972478" fill="lightblue" r="2" stroke="blue" /><circle cx="106.83352454902987" cy="75.47123450241284" fill="lightblue" r="2" stroke="blue" /><circle cx="107.65604565286054" cy="84.56435095137553" fill="lightblue" r="2" stroke="blue" /><circle cx="104.68664204688655" cy="87.11817280362978" fill="lightblue" r="2" stroke="blue" /><circle cx="108.39142977138413" cy="107.00041239483076" fill="lightblue" r="2" stroke="blue" /><circle cx="104.13683998404126" cy="114.90063275599981" fill="lightblue" r="2" stroke="blue" /><circle cx="104.69394540259707" cy="121.15558591358301" fill="lightblue" r="2" stroke="blue" /><circle cx="116.23451170216956" cy="47.278190345918006" fill="lightblue" r="2" stroke="blue" /><circle cx="116.15627819436125" cy="65.46952931609121" fill="lightblue" r="2" stroke="blue" /><circle cx="115.98539051331318" cy="74.39441368071574" fill="lightblue" r="2" stroke="blue" /><circle cx="113.90047208184339" cy="79.95232490780758" fill="lightblue" r="2" stroke="blue" /><circle cx="115.7729966416532" cy="100.25260415262612" fill="lightblue" r="2" stroke="blue" /><circle cx="113.17243701078392" cy="104.83823418179503" fill="lightblue" r="2" stroke="blue" /><circle cx="111.31015039790351" cy="123.94656907950235" fill="lightblue" r="2" stroke="blue" /><circle cx="123.22586008748695" cy="49.565945439392486" fill="lightblue" r="2" stroke="blue" /><circle cx="121.98827174530322" cy="58.5735915198438" fill="lightblue" r="2" stroke="blue" /><circle cx="123.04383098858922" cy="65.82739565097114" fill="lightblue" r="2" stroke="blue" /><circle cx="123.51264215191165" cy="72.24246460605302" fill="lightblue" r="2" stroke="blue" /><circle cx="119.38164158800231" cy="97.1625273578087" fill="lightblue" r="2" stroke="blue" /><circle cx="123.37194692691762" cy="105.45922473246065" fill="lightblue" r="2" stroke="blue" /><circle cx="123.76582560991469" cy="116.04785705527763" fill="lightblue" r="2" stroke="blue" /><circle cx="124.65359237744913" cy="121.40555834360156" fill="lightblue" r="2" stroke="blue" /><line stroke="black" x1="47.44665383885912" x2="47.44665383885912" y1="113.23795531935336" y2="113.23795531935336" /><line stroke="black" x1="47.44665383885912" x2="50.14682900539376" y1="113.23795531935336" y2="121.03751801950519" /><line stroke="black" x1="50.14682900539376" x2="71.7947507463188" y1="121.03751801950519" y2="123.44070572306818" /><line stroke="black" x1="71.7947507463188" x2="111.31015039790351" y1="123.44070572306818" y2="123.94656907950235" /><line stroke="black" x1="111.31015039790351" x2="124.65359237744913" y1="123.94656907950235" y2="121.40555834360156" /><line stroke="black" x1="124.65359237744913" x2="123.22586008748695" y1="121.40555834360156" y2="49.565945439392486" /><line stroke="black" x1="123.22586008748695" x2="116.23451170216956" y1="49.565945439392486" y2="47.278190345918006" /><line stroke="black" x1="116.23451170216956" x2="89.7869652325481" y1="47.278190345918006" y2="47.41427385179974" /><line stroke="black" x1="89.7869652325481" x2="52.77791981312037" y1="47.41427385179974" y2="49.429160338725794" /><line stroke="black" x1="52.77791981312037" x2="49.23737087430296" y1="49.429160338725794" y2="57.364916238989316" /><line stroke="black" x1="49.23737087430296" x2="47.44665383885912" y1="57.364916238989316" y2="113.23795531935336" /></svg>