<?xml version="1.0" encoding="utf-8" ?>
<svg baseProfile="full" height="430" version="1.1" width="430" xmlns="http://www.w3.org/2000/svg" xmlns:ev="http://www.w3.org/2001/xml-events" xmlns:xlink="http://www.w3.org/1999/xlink"><defs /><circle cx="24.25973271040124" cy="13.097201129085985" fill="lightblue" r="2" stroke="blue" /><circle cx="12.457902914343206" cy="52.88305412996438" fill="lightblue" r="2" stroke="blue" /><circle cx="22.076308349720808" cy="144.39607746747697" fill="lightblue" r="2" stroke="blue" /><circle cx="18.233320632865436" cy="215.77523667847248" fill="lightblue" r="2" stroke="blue" /><circle cx="14.986383961638257" cy="258.35088554996594" fill="lightblue" r="2" stroke="blue" /><circle cx="20.087756635673166" cy="292.81140580613487" fill="lightblue" r="2" stroke="blue" /><circle cx="6.488846129530398" cy="332.4598510645112" fill="lightblue" r="2" stroke="blue" /><circle cx="15.489430017979217" cy="371.7917267316839" fill="lightblue" r="2" stroke="blue" /><circle cx="46.4014760352391" cy="20.971194513222308" fill="lightblue" r="2" stroke="blue" /><circle cx="59.511604665536524" cy="45.50385604312764" fill="lightblue" r="2" stroke="blue" /><circle cx="59.04557830723992" cy="104.18215405380796" fill="lightblue" r="2" stroke="blue" /><circle cx="64.69279334984985" cy="180.51237591353058" fill="lightblue" r="2" stroke="blue" /><circle cx="52.3407286788059" cy="217.22122431766437" fill="lightblue" r="2" stroke="blue" /><circle cx="46.03292161074922" cy="325.9062108832616" fill="lightblue" r="2" stroke="blue" /><circle cx="58.175794668818064" cy="373.59617742108696" fill="lightblue" r="2" stroke="blue" /><circle cx="93.70253957774769" cy="17.866350972831373" fill="lightblue" r="2" stroke="blue" /><circle cx="94.80928693608757" cy="55.635441747950715" fill="lightblue" r="2" stroke="blue" /><circle cx="94.34780860031361" cy="94.75279148707752" fill="lightblue" r="2" stroke="blue" /><circle cx="93.82569225227351" cy="134.74963853898115" fill="lightblue" r="2" stroke="blue" /><circle cx="104.7658007990236" cy="174.741588765613" fill="lightblue" r="2" stroke="blue" /><circle cx="102.89242624701016" cy="219.57826707807888" fill="lightblue" r="2" stroke="blue" /><circle cx="91.86243426860682" cy="285.21173845410954" fill="lightblue" r="2" stroke="blue" /><circle cx="99.74045513628084" cy="336.99166216839444" fill="lightblue" r="2" stroke="blue" /><circle cx="92.80393712290139" cy="367.7025395386675" fill="lightblue" r="2" stroke="blue" /><circle cx="140.8944608369634" cy="51.88202465401244" fill="lightblue" r="2" stroke="blue" /><circle cx="131.6932331070665" cy="95.59662518723756" fill="lightblue" r="2" stroke="blue" /><circle cx="132.6941623777891" cy="141.19661282005586" fill="lightblue" r="2" stroke="blue" /><circle cx="128.88273460110992" cy="209.95203389829672" fill="lightblue" r="2" stroke="blue" /><circle cx="143.08781423156532" cy="255.23664065251975" fill="lightblue" r="2" stroke="blue" /><circle cx="142.36833830364284" cy="301.70066964975297" fill="lightblue" r="2" stroke="blue" /><circle cx="138.67068469110836" cy="337.6081795580151" fill="lightblue" r="2" stroke="blue" /><circle cx="127.649169154396" cy="379.80235241022723" fill="lightblue" r="2" stroke="blue" /><circle cx="166.73714470250968" cy="20.356232663877783" fill="lightblue" r="2" stroke="blue" /><circle cx="182.004588636904" cy="104.67595743184381" fill="lightblue" r="2" stroke="blue" /><circle cx="174.61844543492649" cy="130.4749293618869" fill="lightblue" r="2" stroke="blue" /><circle cx="170.18055682708953" cy="174.79949776017256" fill="lightblue" r="2" stroke="blue" /><circle cx="168.07992563318393" cy="210.39217030567883" fill="lightblue" r="2" stroke="blue" /><circle cx="166.19559970709014" cy="258.1589090282966" fill="lightblue" r="2" stroke="blue" /><circle cx="175.88854798666648" cy="298.43042799191437" fill="lightblue" r="2" stroke="blue" /><circle cx="173.96867296044897" cy="338.89719394587297" fill="lightblue" r="2" stroke="blue" /><circle cx="166.91773625508344" cy="370.4407191330496" fill="lightblue" r="2" stroke="blue" /><circle cx="214.28988410849368" cy="6.3809128393324634" fill="lightblue" r="2" stroke="blue" /><circle cx="214.11790235809244" cy="46.76967295915226" fill="lightblue" r="2" stroke="blue" /><circle cx="215.76107473865773" cy="93.86846840453545" fill="lightblue" r="2" stroke="blue" /><circle cx="223.41839415161098" cy="170.81756057754285" fill="lightblue" r="2" stroke="blue" /><circle cx="218.25989215041636" cy="212.7482427791575" fill="lightblue" r="2" stroke="blue" /><circle cx="213.79807397578614" cy="260.0910703437627" fill="lightblue" r="2" stroke="blue" /><circle cx="214.28234045249215" cy="287.46780214666427" fill="lightblue" r="2" stroke="blue" /><circle cx="215.27583556153567" cy="330.8732026601505" fill="lightblue" r="2" stroke="blue" /><circle cx="217.18053913920298" cy="375.1683305324357" fill="lightblue" r="2" stroke="blue" /><circle cx="257.223570752329" cy="21.373948083932426" fill="lightblue" r="2" stroke="blue" /><circle cx="253.60980460991817" cy="62.674038394175376" fill="lightblue" r="2" stroke="blue" /><circle cx="257.196547135248" cy="218.79464573604434" fill="lightblue" r="2" stroke="blue" /><circle cx="248.55464349455303" cy="262.289986035817" fill="lightblue" r="2" stroke="blue" /><circle cx="252.19596590943388" cy="290.49464737650044" fill="lightblue" r="2" stroke="blue" /><circle cx="251.64884626789149" cy="331.3169136011575" fill="lightblue" r="2" stroke="blue" /><circle cx="255.6009404422987" cy="373.57487011955226" fill="lightblue" r="2" stroke="blue" /><circle cx="304.0842141217548" cy="16.987972096047095" fill="lightblue" r="2" stroke="blue" /><circle cx="299.490896280327" cy="64.68224937792438" fill="lightblue" r="2" stroke="blue" /><circle cx="304.14589334423886" cy="101.66656299908257" fill="lightblue" r="2" stroke="blue" /><circle cx="297.7784151634329" cy="139.90411500804282" fill="lightblue" r="2" stroke="blue" /><circle cx="300.5201521762018" cy="183.5478365045851" fill="lightblue" r="2" stroke="blue" /><circle cx="290.6221401562885" cy="205.3939093454326" fill="lightblue" r="2" stroke="blue" /><circle cx="302.9714325712804" cy="298.3347079827692" fill="lightblue" r="2" stroke="blue" /><circle cx="288.78946661347084" cy="338.002109186666" fill="lightblue" r="2" stroke="blue" /><circle cx="290.64648467532356" cy="372.18528637861004" fill="lightblue" r="2" stroke="blue" /><circle cx="342.4483723405652" cy="5.927301153060016" fill="lightblue" r="2" stroke="blue" /><circle cx="342.18759398120415" cy="93.23176438697071" fill="lightblue" r="2" stroke="blue" /><circle cx="341.6179683777106" cy="136.31471226905245" fill="lightblue" r="2" stroke="blue" /><circle cx="334.6682402728113" cy="168.1744163593586" fill="lightblue" r="2" stroke="blue" /><circle cx="340.90998880551064" cy="262.50868050875374" fill="lightblue" r="2" stroke="blue" /><circle cx="332.2414567026131" cy="291.1274472726501" fill="lightblue" r="2" stroke="blue" /><circle cx="326.03383465967835" cy="381.48856359834116" fill="lightblue" r="2" stroke="blue" /><circle cx="379.0862002916232" cy="13.553151464641616" fill="lightblue" r="2" stroke="blue" /><circle cx="374.96090581767737" cy="56.91197173281266" fill="lightblue" r="2" stroke="blue" /><circle cx="378.47943662863076" cy="94.4246521699038" fill="lightblue" r="2" stroke="blue" /><circle cx="380.04214050637216" cy="129.1415486868434" fill="lightblue" r="2" stroke="blue" /><circle cx="366.2721386266744" cy="252.208424526029" fill="lightblue" r="2" stroke="blue" /><circle cx="379.5731564230587" cy="293.19741577486883" fill="lightblue" r="2" stroke="blue" /><circle cx="380.8860853663823" cy="341.82619018425873" fill="lightblue" r="2" stroke="blue" /><circle cx="383.8453079248304" cy="373.0185278120052" fill="lightblue" r="2" stroke="blue" /><line stroke="black" x1="6.488846129530398" x2="6.488846129530398" y1="332.4598510645112" y2="332.4598510645112" /><line stroke="black" x1="6.488846129530398" x2="15.489430017979217" y1="332.4598510645112" y2="371.7917267316839" /><line stroke="black" x1="15.489430017979217" x2="127.649169154396" y1="371.7917267316839" y2="379.80235241022723" /><line stroke="black" x1="127.649169154396" x2="326.03383465967835" y1="379.80235241022723" y2="381.48856359834116" /><line stroke="black" x1="326.03383465967835" x2="383.8453079248304" y1="381.48856359834116" y2="373.0185278120052" /><line stroke="black" x1="383.8453079248304" x2="379.0862002916232" y1="373.0185278120052" y2="13.553151464641616" /><line stroke="black" x1="379.0862002916232" x2="342.4483723405652" y1="13.553151464641616" y2="5.927301153060016" /><line stroke="black" x1="342.4483723405652" x2="214.28988410849368" y1="5.927301153060016" y2="6.3809128393324634" /><line stroke="black" x1="214.28988410849368" x2="24.25973271040124" y1="6.3809128393324634" y2="13.097201129085985" /><line stroke="black" x1="24.25973271040124" x2="12.457902914343206" y1="13.097201129085985" y2="52.88305412996438" /><line stroke="black" x1="12.457902914343206" x2="6.488846129530398" y1="52.88305412996438" y2="332.4598510645112" /></svg>