<?xml version="1.0" encoding="utf-8" ?>
<svg baseProfile="full" height="420" version="1.1" width="420" xmlns="http://www.w3.org/2000/svg" xmlns:ev="http://www.w3.org/2001/xml-events" xmlns:xlink="http://www.w3.org/1999/xlink"><defs /><circle cx="14.259732710401241" cy="3.0972011290859847" fill="lightblue" r="2" stroke="blue" /><circle cx="2.4579029143432063" cy="42.88305412996438" fill="lightblue" r="2" stroke="blue" /><circle cx="12.076308349720808" cy="134.39607746747697" fill="lightblue" r="2" stroke="blue" /><circle cx="8.233320632865436" cy="205.77523667847248" fill="lightblue" r="2" stroke="blue" /><circle cx="4.986383961638257" cy="248.3508855499659" fill="lightblue" r="2" stroke="blue" /><circle cx="10.087756635673166" cy="282.81140580613487" fill="lightblue" r="2" stroke="blue" /><circle cx="-3.5111538704696024" cy="322.4598510645112" fill="lightblue" r="2" stroke="blue" /><circle cx="5.489430017979217" cy="361.7917267316839" fill="lightblue" r="2" stroke="blue" /><circle cx="36.4014760352391" cy="10.971194513222306" fill="lightblue" r="2" stroke="blue" /><circle cx="49.511604665536524" cy="35.50385604312764" fill="lightblue" r="2" stroke="blue" /><circle cx="49.04557830723992" cy="94.18215405380796" fill="lightblue" r="2" stroke="blue" /><circle cx="54.69279334984985" cy="170.51237591353058" fill="lightblue" r="2" stroke="blue" /><circle cx="42.3407286788059" cy="207.22122431766437" fill="lightblue" r="2" stroke="blue" /><circle cx="36.03292161074922" cy="315.9062108832616" fill="lightblue" r="2" stroke="blue" /><circle cx="48.175794668818064" cy="363.59617742108696" fill="lightblue" r="2" stroke="blue" /><circle cx="83.70253957774769" cy="7.866350972831373" fill="lightblue" r="2" stroke="blue" /><circle cx="84.80928693608757" cy="45.635441747950715" fill="lightblue" r="2" stroke="blue" /><circle cx="84.34780860031361" cy="84.75279148707752" fill="lightblue" r="2" stroke="blue" /><circle cx="83.82569225227351" cy="124.74963853898116" fill="lightblue" r="2" stroke="blue" /><circle cx="94.7658007990236" cy="164.741588765613" fill="lightblue" r="2" stroke="blue" /><circle cx="92.89242624701016" cy="209.57826707807888" fill="lightblue" r="2" stroke="blue" /><circle cx="81.86243426860682" cy="275.21173845410954" fill="lightblue" r="2" stroke="blue" /><circle cx="89.74045513628084" cy="326.99166216839444" fill="lightblue" r="2" stroke="blue" /><circle cx="82.80393712290139" cy="357.7025395386675" fill="lightblue" r="2" stroke="blue" /><circle cx="130.8944608369634" cy="41.88202465401244" fill="lightblue" r="2" stroke="blue" /><circle cx="121.6932331070665" cy="85.59662518723756" fill="lightblue" r="2" stroke="blue" /><circle cx="122.69416237778908" cy="131.19661282005586" fill="lightblue" r="2" stroke="blue" /><circle cx="118.88273460110992" cy="199.95203389829672" fill="lightblue" r="2" stroke="blue" /><circle cx="133.08781423156532" cy="245.23664065251975" fill="lightblue" r="2" stroke="blue" /><circle cx="132.36833830364284" cy="291.70066964975297" fill="lightblue" r="2" stroke="blue" /><circle cx="128.67068469110836" cy="327.6081795580151" fill="lightblue" r="2" stroke="blue" /><circle cx="117.649169154396" cy="369.80235241022723" fill="lightblue" r="2" stroke="blue" /><circle cx="156.73714470250968" cy="10.356232663877783" fill="lightblue" r="2" stroke="blue" /><circle cx="172.004588636904" cy="94.67595743184381" fill="lightblue" r="2" stroke="blue" /><circle cx="164.61844543492649" cy="120.47492936188688" fill="lightblue" r="2" stroke="blue" /><circle cx="160.18055682708953" cy="164.79949776017256" fill="lightblue" r="2" stroke="blue" /><circle cx="158.07992563318393" cy="200.39217030567883" fill="lightblue" r="2" stroke="blue" /><circle cx="156.19559970709014" cy="248.1589090282966" fill="lightblue" r="2" stroke="blue" /><circle cx="165.88854798666648" cy="288.43042799191437" fill="lightblue" r="2" stroke="blue" /><circle cx="163.96867296044897" cy="328.89719394587297" fill="lightblue" r="2" stroke="blue" /><circle cx="156.91773625508344" cy="360.4407191330496" fill="lightblue" r="2" stroke="blue" /><circle cx="204.28988410849368" cy="-3.6190871606675366" fill="lightblue" r="2" stroke="blue" /><circle cx="204.11790235809244" cy="36.76967295915226" fill="lightblue" r="2" stroke="blue" /><circle cx="205.76107473865773" cy="83.86846840453545" fill="lightblue" r="2" stroke="blue" /><circle cx="213.41839415161098" cy="160.81756057754285" fill="lightblue" r="2" stroke="blue" /><circle cx="208.25989215041636" cy="202.7482427791575" fill="lightblue" r="2" stroke="blue" /><circle cx="203.79807397578614" cy="250.0910703437627" fill="lightblue" r="2" stroke="blue" /><circle cx="204.28234045249215" cy="277.46780214666427" fill="lightblue" r="2" stroke="blue" /><circle cx="205.27583556153567" cy="320.8732026601505" fill="lightblue" r="2" stroke="blue" /><circle cx="207.18053913920298" cy="365.1683305324357" fill="lightblue" r="2" stroke="blue" /><circle cx="247.223570752329" cy="11.373948083932426" fill="lightblue" r="2" stroke="blue" /><circle cx="243.60980460991817" cy="52.674038394175376" fill="lightblue" r="2" stroke="blue" /><circle cx="247.196547135248" cy="208.79464573604434" fill="lightblue" r="2" stroke="blue" /><circle cx="238.55464349455303" cy="252.289986035817" fill="lightblue" r="2" stroke="blue" /><circle cx="242.19596590943388" cy="280.49464737650044" fill="lightblue" r="2" stroke="blue" /><circle cx="241.64884626789149" cy="321.3169136011575" fill="lightblue" r="2" stroke="blue" /><circle cx="245.6009404422987" cy="363.57487011955226" fill="lightblue" r="2" stroke="blue" /><circle cx="294.0842141217548" cy="6.987972096047095" fill="lightblue" r="2" stroke="blue" /><circle cx="289.490896280327" cy="54.68224937792438" fill="lightblue" r="2" stroke="blue" /><circle cx="294.14589334423886" cy="91.66656299908257" fill="lightblue" r="2" stroke="blue" /><circle cx="287.7784151634329" cy="129.90411500804282" fill="lightblue" r="2" stroke="blue" /><circle cx="290.5201521762018" cy="173.5478365045851" fill="lightblue" r="2" stroke="blue" /><circle cx="280.6221401562885" cy="195.3939093454326" fill="lightblue" r="2" stroke="blue" /><circle cx="292.9714325712804" cy="288.3347079827692" fill="lightblue" r="2" stroke="blue" /><circle cx="278.78946661347084" cy="328.002109186666" fill="lightblue" r="2" stroke="blue" /><circle cx="280.64648467532356" cy="362.18528637861004" fill="lightblue" r="2" stroke="blue" /><circle cx="332.4483723405652" cy="-4.072698846939984" fill="lightblue" r="2" stroke="blue" /><circle cx="332.18759398120415" cy="83.23176438697071" fill="lightblue" r="2" stroke="blue" /><circle cx="331.6179683777106" cy="126.31471226905246" fill="lightblue" r="2" stroke="blue" /><circle cx="324.6682402728113" cy="158.1744163593586" fill="lightblue" r="2" stroke="blue" /><circle cx="330.90998880551064" cy="252.50868050875374" fill="lightblue" r="2" stroke="blue" /><circle cx="322.2414567026131" cy="281.1274472726501" fill="lightblue" r="2" stroke="blue" /><circle cx="316.03383465967835" cy="371.48856359834116" fill="lightblue" r="2" stroke="blue" /><circle cx="369.0862002916232" cy="3.5531514646416156" fill="lightblue" r="2" stroke="blue" /><circle cx="364.96090581767737" cy="46.91197173281266" fill="lightblue" r="2" stroke="blue" /><circle cx="368.47943662863076" cy="84.4246521699038" fill="lightblue" r="2" stroke="blue" /><circle cx="370.04214050637216" cy="119.1415486868434" fill="lightblue" r="2" stroke="blue" /><circle cx="356.2721386266744" cy="242.208424526029" fill="lightblue" r="2" stroke="blue" /><circle cx="369.5731564230587" cy="283.19741577486883" fill="lightblue" r="2" stroke="blue" /><circle cx="370.8860853663823" cy="331.82619018425873" fill="lightblue" r="2" stroke="blue" /><circle cx="373.8453079248304" cy="363.0185278120052" fill="lightblue" r="2" stroke="blue" /><line stroke="black" x1="-3.5111538704696024" x2="-3.5111538704696024" y1="322.4598510645112" y2="322.4598510645112" /><line stroke="black" x1="-3.5111538704696024" x2="5.489430017979217" y1="322.4598510645112" y2="361.7917267316839" /><line stroke="black" x1="5.489430017979217" x2="117.649169154396" y1="361.7917267316839" y2="369.80235241022723" /><line stroke="black" x1="117.649169154396" x2="316.03383465967835" y1="369.80235241022723" y2="371.48856359834116" /><line stroke="black" x1="316.03383465967835" x2="373.8453079248304" y1="371.48856359834116" y2="363.0185278120052" /><line stroke="black" x1="373.8453079248304" x2="369.0862002916232" y1="363.0185278120052" y2="3.5531514646416156" /><line stroke="black" x1="369.0862002916232" x2="332.4483723405652" y1="3.5531514646416156" y2="-4.072698846939984" /><line stroke="black" x1="332.4483723405652" x2="204.28988410849368" y1="-4.072698846939984" y2="-3.6190871606675366" /><line stroke="black" x1="204.28988410849368" x2="14.259732710401241" y1="-3.6190871606675366" y2="3.0972011290859847" /><line stroke="black" x1="14.259732710401241" x2="2.4579029143432063" y1="3.0972011290859847" y2="42.88305412996438" /><line stroke="black" x1="2.4579029143432063" x2="-3.5111538704696024" y1="42.88305412996438" y2="322.4598510645112" /></svg>