<?xml version="1.0" encoding="utf-8" ?>
<svg baseProfile="full" height="600" version="1.1" width="550" xmlns="http://www.w3.org/2000/svg" xmlns:ev="http://www.w3.org/2001/xml-events" xmlns:xlink="http://www.w3.org/1999/xlink"><defs /><line stroke="black" stroke-width="1" x1="450" x2="444.0" y1="450" y2="450.0" /><line stroke="black" stroke-width="1" x1="444.0" x2="441.0" y1="450.0" y2="444.80384757729337" /><line stroke="black" stroke-width="1" x1="441.0" x2="444.0" y1="444.80384757729337" y2="439.60769515458674" /><line stroke="black" stroke-width="1" x1="444.0" x2="441.0" y1="439.60769515458674" y2="434.4115427318801" /><line stroke="black" stroke-width="1" x1="441.0" x2="435.0" y1="434.4115427318801" y2="434.4115427318801" /><line stroke="black" stroke-width="1" x1="435.0" x2="432.0" y1="434.4115427318801" y2="439.60769515458674" /><line stroke="black" stroke-width="1" x1="432.0" x2="435.0" y1="439.60769515458674" y2="444.80384757729337" /><line stroke="black" stroke-width="1" x1="435.0" x2="432.0" y1="444.80384757729337" y2="450.0" /><line stroke="black" stroke-width="1" x1="432.0" x2="426.0" y1="450.0" y2="450.0" /><line stroke="black" stroke-width="1" x1="426.0" x2="423.0" y1="450.0" y2="444.80384757729337" /><line stroke="black" stroke-width="1" x1="423.0" x2="417.0" y1="444.80384757729337" y2="444.80384757729337" /><line stroke="black" stroke-width="1" x1="417.0" x2="414.0" y1="444.80384757729337" y2="450.0" /><line stroke="black" stroke-width="1" x1="414.0" x2="408.0" y1="450.0" y2="450.0" /><line stroke="black" stroke-width="1" x1="408.0" x2="405.0" y1="450.0" y2="444.80384757729337" /><line stroke="black" stroke-width="1" x1="405.0" x2="408.0" y1="444.80384757729337" y2="439.60769515458674" /><line stroke="black" stroke-width="1" x1="408.0" x2="414.0" y1="439.60769515458674" y2="439.60769515458674" /><line stroke="black" stroke-width="1" x1="414.0" x2="417.0" y1="439.60769515458674" y2="434.4115427318801" /><line stroke="black" stroke-width="1" x1="417.0" x2="414.0" y1="434.4115427318801" y2="429.2153903091735" /><line stroke="black" stroke-width="1" x1="414.0" x2="417.0" y1="429.2153903091735" y2="424.01923788646684" /><line stroke="black" stroke-width="1" x1="417.0" x2="423.0" y1="424.01923788646684" y2="424.01923788646684" /><line stroke="black" stroke-width="1" x1="423.0" x2="426.0" y1="424.01923788646684" y2="429.2153903091735" /><line stroke="black" stroke-width="1" x1="426.0" x2="432.0" y1="429.2153903091735" y2="429.2153903091735" /><line stroke="black" stroke-width="1" x1="432.0" x2="435.0" y1="429.2153903091735" y2="424.01923788646684" /><line stroke="black" stroke-width="1" x1="435.0" x2="432.0" y1="424.01923788646684" y2="418.8230854637602" /><line stroke="black" stroke-width="1" x1="432.0" x2="426.0" y1="418.8230854637602" y2="418.8230854637602" /><line stroke="black" stroke-width="1" x1="426.0" x2="423.0" y1="418.8230854637602" y2="413.6269330410536" /><line stroke="black" stroke-width="1" x1="423.0" x2="426.0" y1="413.6269330410536" y2="408.43078061834694" /><line stroke="black" stroke-width="1" x1="426.0" x2="423.0" y1="408.43078061834694" y2="403.2346281956403" /><line stroke="black" stroke-width="1" x1="423.0" x2="417.0" y1="403.2346281956403" y2="403.2346281956403" /><line stroke="black" stroke-width="1" x1="417.0" x2="414.0" y1="403.2346281956403" y2="408.43078061834694" /><line stroke="black" stroke-width="1" x1="414.0" x2="408.0" y1="408.43078061834694" y2="408.43078061834694" /><line stroke="black" stroke-width="1" x1="408.0" x2="405.0" y1="408.43078061834694" y2="403.2346281956403" /><line stroke="black" stroke-width="1" x1="405.0" x2="408.0" y1="403.2346281956403" y2="398.0384757729337" /><line stroke="black" stroke-width="1" x1="408.0" x2="414.0" y1="398.0384757729337" y2="398.0384757729337" /><line stroke="black" stroke-width="1" x1="414.0" x2="417.0" y1="398.0384757729337" y2="392.84232335022705" /><line stroke="black" stroke-width="1" x1="417.0" x2="414.0" y1="392.84232335022705" y2="387.6461709275204" /><line stroke="black" stroke-width="1" x1="414.0" x2="408.0" y1="387.6461709275204" y2="387.6461709275204" /><line stroke="black" stroke-width="1" x1="408.0" x2="405.0" y1="387.6461709275204" y2="382.4500185048138" /><line stroke="black" stroke-width="1" x1="405.0" x2="408.0" y1="382.4500185048138" y2="377.25386608210715" /><line stroke="black" stroke-width="1" x1="408.0" x2="405.0" y1="377.25386608210715" y2="372.0577136594005" /><line stroke="black" stroke-width="1" x1="405.0" x2="399.0" y1="372.0577136594005" y2="372.0577136594005" /><line stroke="black" stroke-width="1" x1="399.0" x2="396.0" y1="372.0577136594005" y2="377.25386608210715" /><line stroke="black" stroke-width="1" x1="396.0" x2="399.0" y1="377.25386608210715" y2="382.4500185048138" /><line stroke="black" stroke-width="1" x1="399.0" x2="396.0" y1="382.4500185048138" y2="387.6461709275204" /><line stroke="black" stroke-width="1" x1="396.0" x2="390.0" y1="387.6461709275204" y2="387.6461709275204" /><line stroke="black" stroke-width="1" x1="390.0" x2="387.0" y1="387.6461709275204" y2="392.84232335022705" /><line stroke="black" stroke-width="1" x1="387.0" x2="390.0" y1="392.84232335022705" y2="398.0384757729337" /><line stroke="black" stroke-width="1" x1="390.0" x2="396.0" y1="398.0384757729337" y2="398.0384757729337" /><line stroke="black" stroke-width="1" x1="396.0" x2="399.0" y1="398.0384757729337" y2="403.2346281956403" /><line stroke="black" stroke-width="1" x1="399.0" x2="396.0" y1="403.2346281956403" y2="408.43078061834694" /><line stroke="black" stroke-width="1" x1="396.0" x2="390.0" y1="408.43078061834694" y2="408.43078061834694" /><line stroke="black" stroke-width="1" x1="390.0" x2="387.0" y1="408.43078061834694" y2="403.2346281956403" /><line stroke="black" stroke-width="1" x1="387.0" x2="381.0" y1="403.2346281956403" y2="403.2346281956403" /><line stroke="black" stroke-width="1" x1="381.0" x2="378.0" y1="403.2346281956403" y2="408.43078061834694" /><line stroke="black" stroke-width="1" x1="378.0" x2="381.0" y1="408.43078061834694" y2="413.6269330410536" /><line stroke="black" stroke-width="1" x1="381.0" x2="378.0" y1="413.6269330410536" y2="418.8230854637602" /><line stroke="black" stroke-width="1" x1="378.0" x2="372.0" y1="418.8230854637602" y2="418.8230854637602" /><line stroke="black" stroke-width="1" x1="372.0" x2="369.0" y1="418.8230854637602" y2="424.01923788646684" /><line stroke="black" stroke-width="1" x1="369.0" x2="372.0" y1="424.01923788646684" y2="429.2153903091735" /><line stroke="black" stroke-width="1" x1="372.0" x2="378.0" y1="429.2153903091735" y2="429.2153903091735" /><line stroke="black" stroke-width="1" x1="378.0" x2="381.0" y1="429.2153903091735" y2="424.01923788646684" /><line stroke="black" stroke-width="1" x1="381.0" x2="387.0" y1="424.01923788646684" y2="424.01923788646684" /><line stroke="black" stroke-width="1" x1="387.0" x2="390.0" y1="424.01923788646684" y2="429.2153903091735" /><line stroke="black" stroke-width="1" x1="390.0" x2="387.0" y1="429.2153903091735" y2="434.4115427318801" /><line stroke="black" stroke-width="1" x1="387.0" x2="390.0" y1="434.4115427318801" y2="439.60769515458674" /><line stroke="black" stroke-width="1" x1="390.0" x2="396.0" y1="439.60769515458674" y2="439.60769515458674" /><line stroke="black" stroke-width="1" x1="396.0" x2="399.0" y1="439.60769515458674" y2="444.80384757729337" /><line stroke="black" stroke-width="1" x1="399.0" x2="396.0" y1="444.80384757729337" y2="450.0" /><line stroke="black" stroke-width="1" x1="396.0" x2="390.0" y1="450.0" y2="450.0" /><line stroke="black" stroke-width="1" x1="390.0" x2="387.0" y1="450.0" y2="444.80384757729337" /><line stroke="black" stroke-width="1" x1="387.0" x2="381.0" y1="444.80384757729337" y2="444.80384757729337" /><line stroke="black" stroke-width="1" x1="381.0" x2="378.0" y1="444.80384757729337" y2="450.0" /><line stroke="black" stroke-width="1" x1="378.0" x2="372.0" y1="450.0" y2="450.0" /><line stroke="black" stroke-width="1" x1="372.0" x2="369.0" y1="450.0" y2="444.80384757729337" /><line stroke="black" stroke-width="1" x1="369.0" x2="372.0" y1="444.80384757729337" y2="439.60769515458674" /><line stroke="black" stroke-width="1" x1="372.0" x2="369.0" y1="439.60769515458674" y2="434.4115427318801" /><line stroke="black" stroke-width="1" x1="369.0" x2="363.0" y1="434.4115427318801" y2="434.4115427318801" /><line stroke="black" stroke-width="1" x1="363.0" x2="360.0" y1="434.4115427318801" y2="439.60769515458674" /><line stroke="black" stroke-width="1" x1="360.0" x2="363.0" y1="439.60769515458674" y2="444.80384757729337" /><line stroke="black" stroke-width="1" x1="363.0" x2="360.0" y1="444.80384757729337" y2="450.0" /><line stroke="black" stroke-width="1" x1="360.0" x2="354.0" y1="450.0" y2="450.0" /><line stroke="black" stroke-width="1" x1="354.0" x2="351.0" y1="450.0" y2="444.80384757729337" /><line stroke="black" stroke-width="1" x1="351.0" x2="345.0" y1="444.80384757729337" y2="444.80384757729337" /><line stroke="black" stroke-width="1" x1="345.0" x2="342.0" y1="444.80384757729337" y2="450.0" /><line stroke="black" stroke-width="1" x1="342.0" x2="336.0" y1="450.0" y2="450.0" /><line stroke="black" stroke-width="1" x1="336.0" x2="333.0" y1="450.0" y2="444.80384757729337" /><line stroke="black" stroke-width="1" x1="333.0" x2="336.0" y1="444.80384757729337" y2="439.60769515458674" /><line stroke="black" stroke-width="1" x1="336.0" x2="342.0" y1="439.60769515458674" y2="439.60769515458674" /><line stroke="black" stroke-width="1" x1="342.0" x2="345.0" y1="439.60769515458674" y2="434.4115427318801" /><line stroke="black" stroke-width="1" x1="345.0" x2="342.0" y1="434.4115427318801" y2="429.2153903091735" /><line stroke="black" stroke-width="1" x1="342.0" x2="336.0" y1="429.2153903091735" y2="429.2153903091735" /><line stroke="black" stroke-width="1" x1="336.0" x2="333.0" y1="429.2153903091735" y2="424.01923788646684" /><line stroke="black" stroke-width="1" x1="333.0" x2="336.0" y1="424.01923788646684" y2="418.8230854637602" /><line stroke="black" stroke-width="1" x1="336.0" x2="333.0" y1="418.8230854637602" y2="413.6269330410536" /><line stroke="black" stroke-width="1" x1="333.0" x2="327.0" y1="413.6269330410536" y2="413.6269330410536" /><line stroke="black" stroke-width="1" x1="327.0" x2="324.0" y1="413.6269330410536" y2="418.8230854637602" /><line stroke="black" stroke-width="1" x1="324.0" x2="327.0" y1="418.8230854637602" y2="424.01923788646684" /><line stroke="black" stroke-width="1" x1="327.0" x2="324.0" y1="424.01923788646684" y2="429.2153903091735" /><line stroke="black" stroke-width="1" x1="324.0" x2="318.0" y1="429.2153903091735" y2="429.2153903091735" /><line stroke="black" stroke-width="1" x1="318.0" x2="315.0" y1="429.2153903091735" y2="434.4115427318801" /><line stroke="black" stroke-width="1" x1="315.0" x2="318.0" y1="434.4115427318801" y2="439.60769515458674" /><line stroke="black" stroke-width="1" x1="318.0" x2="324.0" y1="439.60769515458674" y2="439.60769515458674" /><line stroke="black" stroke-width="1" x1="324.0" x2="327.0" y1="439.60769515458674" y2="444.80384757729337" /><line stroke="black" stroke-width="1" x1="327.0" x2="324.0" y1="444.80384757729337" y2="450.0" /><line stroke="black" stroke-width="1" x1="324.0" x2="318.0" y1="450.0" y2="450.0" /><line stroke="black" stroke-width="1" x1="318.0" x2="315.0" y1="450.0" y2="444.80384757729337" /><line stroke="black" stroke-width="1" x1="315.0" x2="309.0" y1="444.80384757729337" y2="444.80384757729337" /><line stroke="black" stroke-width="1" x1="309.0" x2="306.0" y1="444.80384757729337" y2="450.0" /><line stroke="black" stroke-width="1" x1="306.0" x2="300.0" y1="450.0" y2="450.0" /><line stroke="black" stroke-width="1" x1="300.0" x2="297.0" y1="450.0" y2="444.80384757729337" /><line stroke="black" stroke-width="1" x1="297.0" x2="300.0" y1="444.80384757729337" y2="439.60769515458674" /><line stroke="black" stroke-width="1" x1="300.0" x2="297.0" y1="439.60769515458674" y2="434.4115427318801" /><line stroke="black" stroke-width="1" x1="297.0" x2="291.0" y1="434.4115427318801" y2="434.4115427318801" /><line stroke="black" stroke-width="1" x1="291.0" x2="288.0" y1="434.4115427318801" y2="439.60769515458674" /><line stroke="black" stroke-width="1" x1="288.0" x2="291.0" y1="439.60769515458674" y2="444.80384757729337" /><line stroke="black" stroke-width="1" x1="291.0" x2="288.0" y1="444.80384757729337" y2="450.0" /><line stroke="black" stroke-width="1" x1="288.0" x2="282.0" y1="450.0" y2="450.0" /><line stroke="black" stroke-width="1" x1="282.0" x2="279.0" y1="450.0" y2="444.80384757729337" /><line stroke="black" stroke-width="1" x1="279.0" x2="273.0" y1="444.80384757729337" y2="444.80384757729337" /><line stroke="black" stroke-width="1" x1="273.0" x2="270.0" y1="444.80384757729337" y2="450.0" /><line stroke="black" stroke-width="1" x1="270.0" x2="264.0" y1="450.0" y2="450.0" /><line stroke="black" stroke-width="1" x1="264.0" x2="261.0" y1="450.0" y2="444.80384757729337" /><line stroke="black" stroke-width="1" x1="261.0" x2="264.0" y1="444.80384757729337" y2="439.60769515458674" /><line stroke="black" stroke-width="1" x1="264.0" x2="270.0" y1="439.60769515458674" y2="439.60769515458674" /><line stroke="black" stroke-width="1" x1="270.0" x2="273.0" y1="439.60769515458674" y2="434.4115427318801" /><line stroke="black" stroke-width="1" x1="273.0" x2="270.0" y1="434.4115427318801" y2="429.2153903091735" /><line stroke="black" stroke-width="1" x1="270.0" x2="273.0" y1="429.2153903091735" y2="424.01923788646684" /><line stroke="black" stroke-width="1" x1="273.0" x2="279.0" y1="424.01923788646684" y2="424.01923788646684" /><line stroke="black" stroke-width="1" x1="279.0" x2="282.0" y1="424.01923788646684" y2="429.2153903091735" /><line stroke="black" stroke-width="1" x1="282.0" x2="288.0" y1="429.2153903091735" y2="429.2153903091735" /><line stroke="black" stroke-width="1" x1="288.0" x2="291.0" y1="429.2153903091735" y2="424.01923788646684" /><line stroke="black" stroke-width="1" x1="291.0" x2="288.0" y1="424.01923788646684" y2="418.8230854637602" /><line stroke="black" stroke-width="1" x1="288.0" x2="282.0" y1="418.8230854637602" y2="418.8230854637602" /><line stroke="black" stroke-width="1" x1="282.0" x2="279.0" y1="418.8230854637602" y2="413.6269330410536" /><line stroke="black" stroke-width="1" x1="279.0" x2="282.0" y1="413.6269330410536" y2="408.43078061834694" /><line stroke="black" stroke-width="1" x1="282.0" x2="288.0" y1="408.43078061834694" y2="408.43078061834694" /><line stroke="black" stroke-width="1" x1="288.0" x2="291.0" y1="408.43078061834694" y2="403.2346281956403" /><line stroke="black" stroke-width="1" x1="291.0" x2="288.0" y1="403.2346281956403" y2="398.0384757729337" /><line stroke="black" stroke-width="1" x1="288.0" x2="291.0" y1="398.0384757729337" y2="392.84232335022705" /><line stroke="black" stroke-width="1" x1="291.0" x2="297.0" y1="392.84232335022705" y2="392.84232335022705" /><line stroke="black" stroke-width="1" x1="297.0" x2="300.0" y1="392.84232335022705" y2="398.0384757729337" /><line stroke="black" stroke-width="1" x1="300.0" x2="297.0" y1="398.0384757729337" y2="403.2346281956403" /><line stroke="black" stroke-width="1" x1="297.0" x2="300.0" y1="403.2346281956403" y2="408.43078061834694" /><line stroke="black" stroke-width="1" x1="300.0" x2="306.0" y1="408.43078061834694" y2="408.43078061834694" /><line stroke="black" stroke-width="1" x1="306.0" x2="309.0" y1="408.43078061834694" y2="403.2346281956403" /><line stroke="black" stroke-width="1" x1="309.0" x2="315.0" y1="403.2346281956403" y2="403.2346281956403" /><line stroke="black" stroke-width="1" x1="315.0" x2="318.0" y1="403.2346281956403" y2="408.43078061834694" /><line stroke="black" stroke-width="1" x1="318.0" x2="324.0" y1="408.43078061834694" y2="408.43078061834694" /><line stroke="black" stroke-width="1" x1="324.0" x2="327.0" y1="408.43078061834694" y2="403.2346281956403" /><line stroke="black" stroke-width="1" x1="327.0" x2="324.0" y1="403.2346281956403" y2="398.0384757729337" /><line stroke="black" stroke-width="1" x1="324.0" x2="318.0" y1="398.0384757729337" y2="398.0384757729337" /><line stroke="black" stroke-width="1" x1="318.0" x2="315.0" y1="398.0384757729337" y2="392.84232335022705" /><line stroke="black" stroke-width="1" x1="315.0" x2="318.0" y1="392.84232335022705" y2="387.6461709275204" /><line stroke="black" stroke-width="1" x1="318.0" x2="315.0" y1="387.6461709275204" y2="382.4500185048138" /><line stroke="black" stroke-width="1" x1="315.0" x2="309.0" y1="382.4500185048138" y2="382.4500185048138" /><line stroke="black" stroke-width="1" x1="309.0" x2="306.0" y1="382.4500185048138" y2="387.6461709275204" /><line stroke="black" stroke-width="1" x1="306.0" x2="300.0" y1="387.6461709275204" y2="387.6461709275204" /><line stroke="black" stroke-width="1" x1="300.0" x2="297.0" y1="387.6461709275204" y2="382.4500185048138" /><line stroke="black" stroke-width="1" x1="297.0" x2="300.0" y1="382.4500185048138" y2="377.25386608210715" /><line stroke="black" stroke-width="1" x1="300.0" x2="306.0" y1="377.25386608210715" y2="377.25386608210715" /><line stroke="black" stroke-width="1" x1="306.0" x2="309.0" y1="377.25386608210715" y2="372.0577136594005" /><line stroke="black" stroke-width="1" x1="309.0" x2="306.0" y1="372.0577136594005" y2="366.8615612366939" /><line stroke="black" stroke-width="1" x1="306.0" x2="309.0" y1="366.8615612366939" y2="361.66540881398726" /><line stroke="black" stroke-width="1" x1="309.0" x2="315.0" y1="361.66540881398726" y2="361.66540881398726" /><line stroke="black" stroke-width="1" x1="315.0" x2="318.0" y1="361.66540881398726" y2="366.8615612366939" /><line stroke="black" stroke-width="1" x1="318.0" x2="324.0" y1="366.8615612366939" y2="366.8615612366939" /><line stroke="black" stroke-width="1" x1="324.0" x2="327.0" y1="366.8615612366939" y2="361.66540881398726" /><line stroke="black" stroke-width="1" x1="327.0" x2="324.0" y1="361.66540881398726" y2="356.4692563912806" /><line stroke="black" stroke-width="1" x1="324.0" x2="318.0" y1="356.4692563912806" y2="356.4692563912806" /><line stroke="black" stroke-width="1" x1="318.0" x2="315.0" y1="356.4692563912806" y2="351.273103968574" /><line stroke="black" stroke-width="1" x1="315.0" x2="318.0" y1="351.273103968574" y2="346.07695154586736" /><line stroke="black" stroke-width="1" x1="318.0" x2="324.0" y1="346.07695154586736" y2="346.07695154586736" /><line stroke="black" stroke-width="1" x1="324.0" x2="327.0" y1="346.07695154586736" y2="340.8807991231607" /><line stroke="black" stroke-width="1" x1="327.0" x2="324.0" y1="340.8807991231607" y2="335.6846467004541" /><line stroke="black" stroke-width="1" x1="324.0" x2="327.0" y1="335.6846467004541" y2="330.48849427774746" /><line stroke="black" stroke-width="1" x1="327.0" x2="333.0" y1="330.48849427774746" y2="330.48849427774746" /><line stroke="black" stroke-width="1" x1="333.0" x2="336.0" y1="330.48849427774746" y2="335.6846467004541" /><line stroke="black" stroke-width="1" x1="336.0" x2="333.0" y1="335.6846467004541" y2="340.8807991231607" /><line stroke="black" stroke-width="1" x1="333.0" x2="336.0" y1="340.8807991231607" y2="346.07695154586736" /><line stroke="black" stroke-width="1" x1="336.0" x2="342.0" y1="346.07695154586736" y2="346.07695154586736" /><line stroke="black" stroke-width="1" x1="342.0" x2="345.0" y1="346.07695154586736" y2="351.273103968574" /><line stroke="black" stroke-width="1" x1="345.0" x2="342.0" y1="351.273103968574" y2="356.4692563912806" /><line stroke="black" stroke-width="1" x1="342.0" x2="336.0" y1="356.4692563912806" y2="356.4692563912806" /><line stroke="black" stroke-width="1" x1="336.0" x2="333.0" y1="356.4692563912806" y2="361.66540881398726" /><line stroke="black" stroke-width="1" x1="333.0" x2="336.0" y1="361.66540881398726" y2="366.8615612366939" /><line stroke="black" stroke-width="1" x1="336.0" x2="342.0" y1="366.8615612366939" y2="366.8615612366939" /><line stroke="black" stroke-width="1" x1="342.0" x2="345.0" y1="366.8615612366939" y2="361.66540881398726" /><line stroke="black" stroke-width="1" x1="345.0" x2="351.0" y1="361.66540881398726" y2="361.66540881398726" /><line stroke="black" stroke-width="1" x1="351.0" x2="354.0" y1="361.66540881398726" y2="366.8615612366939" /><line stroke="black" stroke-width="1" x1="354.0" x2="360.0" y1="366.8615612366939" y2="366.8615612366939" /><line stroke="black" stroke-width="1" x1="360.0" x2="363.0" y1="366.8615612366939" y2="361.66540881398726" /><line stroke="black" stroke-width="1" x1="363.0" x2="360.0" y1="361.66540881398726" y2="356.4692563912806" /><line stroke="black" stroke-width="1" x1="360.0" x2="363.0" y1="356.4692563912806" y2="351.273103968574" /><line stroke="black" stroke-width="1" x1="363.0" x2="369.0" y1="351.273103968574" y2="351.273103968574" /><line stroke="black" stroke-width="1" x1="369.0" x2="372.0" y1="351.273103968574" y2="356.4692563912806" /><line stroke="black" stroke-width="1" x1="372.0" x2="369.0" y1="356.4692563912806" y2="361.66540881398726" /><line stroke="black" stroke-width="1" x1="369.0" x2="372.0" y1="361.66540881398726" y2="366.8615612366939" /><line stroke="black" stroke-width="1" x1="372.0" x2="378.0" y1="366.8615612366939" y2="366.8615612366939" /><line stroke="black" stroke-width="1" x1="378.0" x2="381.0" y1="366.8615612366939" y2="361.66540881398726" /><line stroke="black" stroke-width="1" x1="381.0" x2="387.0" y1="361.66540881398726" y2="361.66540881398726" /><line stroke="black" stroke-width="1" x1="387.0" x2="390.0" y1="361.66540881398726" y2="366.8615612366939" /><line stroke="black" stroke-width="1" x1="390.0" x2="396.0" y1="366.8615612366939" y2="366.8615612366939" /><line stroke="black" stroke-width="1" x1="396.0" x2="399.0" y1="366.8615612366939" y2="361.66540881398726" /><line stroke="black" stroke-width="1" x1="399.0" x2="396.0" y1="361.66540881398726" y2="356.4692563912806" /><line stroke="black" stroke-width="1" x1="396.0" x2="390.0" y1="356.4692563912806" y2="356.4692563912806" /><line stroke="black" stroke-width="1" x1="390.0" x2="387.0" y1="356.4692563912806" y2="351.273103968574" /><line stroke="black" stroke-width="1" x1="387.0" x2="390.0" y1="351.273103968574" y2="346.07695154586736" /><line stroke="black" stroke-width="1" x1="390.0" x2="387.0" y1="346.07695154586736" y2="340.8807991231607" /><line stroke="black" stroke-width="1" x1="387.0" x2="381.0" y1="340.8807991231607" y2="340.8807991231607" /><line stroke="black" stroke-width="1" x1="381.0" x2="378.0" y1="340.8807991231607" y2="346.07695154586736" /><line stroke="black" stroke-width="1" x1="378.0" x2="372.0" y1="346.07695154586736" y2="346.07695154586736" /><line stroke="black" stroke-width="1" x1="372.0" x2="369.0" y1="346.07695154586736" y2="340.8807991231607" /><line stroke="black" stroke-width="1" x1="369.0" x2="372.0" y1="340.8807991231607" y2="335.6846467004541" /><line stroke="black" stroke-width="1" x1="372.0" x2="378.0" y1="335.6846467004541" y2="335.6846467004541" /><line stroke="black" stroke-width="1" x1="378.0" x2="381.0" y1="335.6846467004541" y2="330.48849427774746" /><line stroke="black" stroke-width="1" x1="381.0" x2="378.0" y1="330.48849427774746" y2="325.29234185504083" /><line stroke="black" stroke-width="1" x1="378.0" x2="372.0" y1="325.29234185504083" y2="325.29234185504083" /><line stroke="black" stroke-width="1" x1="372.0" x2="369.0" y1="325.29234185504083" y2="320.0961894323342" /><line stroke="black" stroke-width="1" x1="369.0" x2="372.0" y1="320.0961894323342" y2="314.90003700962757" /><line stroke="black" stroke-width="1" x1="372.0" x2="369.0" y1="314.90003700962757" y2="309.70388458692094" /><line stroke="black" stroke-width="1" x1="369.0" x2="363.0" y1="309.70388458692094" y2="309.70388458692094" /><line stroke="black" stroke-width="1" x1="363.0" x2="360.0" y1="309.70388458692094" y2="314.90003700962757" /><line stroke="black" stroke-width="1" x1="360.0" x2="363.0" y1="314.90003700962757" y2="320.0961894323342" /><line stroke="black" stroke-width="1" x1="363.0" x2="360.0" y1="320.0961894323342" y2="325.29234185504083" /><line stroke="black" stroke-width="1" x1="360.0" x2="354.0" y1="325.29234185504083" y2="325.29234185504083" /><line stroke="black" stroke-width="1" x1="354.0" x2="351.0" y1="325.29234185504083" y2="320.0961894323342" /><line stroke="black" stroke-width="1" x1="351.0" x2="345.0" y1="320.0961894323342" y2="320.0961894323342" /><line stroke="black" stroke-width="1" x1="345.0" x2="342.0" y1="320.0961894323342" y2="325.29234185504083" /><line stroke="black" stroke-width="1" x1="342.0" x2="336.0" y1="325.29234185504083" y2="325.29234185504083" /><line stroke="black" stroke-width="1" x1="336.0" x2="333.0" y1="325.29234185504083" y2="320.0961894323342" /><line stroke="black" stroke-width="1" x1="333.0" x2="336.0" y1="320.0961894323342" y2="314.90003700962757" /><line stroke="black" stroke-width="1" x1="336.0" x2="342.0" y1="314.90003700962757" y2="314.90003700962757" /><line stroke="black" stroke-width="1" x1="342.0" x2="345.0" y1="314.90003700962757" y2="309.70388458692094" /><line stroke="black" stroke-width="1" x1="345.0" x2="342.0" y1="309.70388458692094" y2="304.5077321642143" /><line stroke="black" stroke-width="1" x1="342.0" x2="345.0" y1="304.5077321642143" y2="299.31157974150767" /><line stroke="black" stroke-width="1" x1="345.0" x2="351.0" y1="299.31157974150767" y2="299.31157974150767" /><line stroke="black" stroke-width="1" x1="351.0" x2="354.0" y1="299.31157974150767" y2="304.5077321642143" /><line stroke="black" stroke-width="1" x1="354.0" x2="360.0" y1="304.5077321642143" y2="304.5077321642143" /><line stroke="black" stroke-width="1" x1="360.0" x2="363.0" y1="304.5077321642143" y2="299.31157974150767" /><line stroke="black" stroke-width="1" x1="363.0" x2="360.0" y1="299.31157974150767" y2="294.11542731880104" /><line stroke="black" stroke-width="1" x1="360.0" x2="354.0" y1="294.11542731880104" y2="294.11542731880104" /><line stroke="black" stroke-width="1" x1="354.0" x2="351.0" y1="294.11542731880104" y2="288.9192748960944" /><line stroke="black" stroke-width="1" x1="351.0" x2="354.0" y1="288.9192748960944" y2="283.7231224733878" /><line stroke="black" stroke-width="1" x1="354.0" x2="351.0" y1="283.7231224733878" y2="278.52697005068114" /><line stroke="black" stroke-width="1" x1="351.0" x2="345.0" y1="278.52697005068114" y2="278.52697005068114" /><line stroke="black" stroke-width="1" x1="345.0" x2="342.0" y1="278.52697005068114" y2="283.7231224733878" /><line stroke="black" stroke-width="1" x1="342.0" x2="336.0" y1="283.7231224733878" y2="283.7231224733878" /><line stroke="black" stroke-width="1" x1="336.0" x2="333.0" y1="283.7231224733878" y2="278.52697005068114" /><line stroke="black" stroke-width="1" x1="333.0" x2="336.0" y1="278.52697005068114" y2="273.3308176279745" /><line stroke="black" stroke-width="1" x1="336.0" x2="342.0" y1="273.3308176279745" y2="273.3308176279745" /><line stroke="black" stroke-width="1" x1="342.0" x2="345.0" y1="273.3308176279745" y2="268.1346652052679" /><line stroke="black" stroke-width="1" x1="345.0" x2="342.0" y1="268.1346652052679" y2="262.93851278256125" /><line stroke="black" stroke-width="1" x1="342.0" x2="336.0" y1="262.93851278256125" y2="262.93851278256125" /><line stroke="black" stroke-width="1" x1="336.0" x2="333.0" y1="262.93851278256125" y2="257.7423603598546" /><line stroke="black" stroke-width="1" x1="333.0" x2="336.0" y1="257.7423603598546" y2="252.54620793714798" /><line stroke="black" stroke-width="1" x1="336.0" x2="333.0" y1="252.54620793714798" y2="247.35005551444135" /><line stroke="black" stroke-width="1" x1="333.0" x2="327.0" y1="247.35005551444135" y2="247.35005551444135" /><line stroke="black" stroke-width="1" x1="327.0" x2="324.0" y1="247.35005551444135" y2="252.54620793714798" /><line stroke="black" stroke-width="1" x1="324.0" x2="327.0" y1="252.54620793714798" y2="257.7423603598546" /><line stroke="black" stroke-width="1" x1="327.0" x2="324.0" y1="257.7423603598546" y2="262.93851278256125" /><line stroke="black" stroke-width="1" x1="324.0" x2="318.0" y1="262.93851278256125" y2="262.93851278256125" /><line stroke="black" stroke-width="1" x1="318.0" x2="315.0" y1="262.93851278256125" y2="268.1346652052679" /><line stroke="black" stroke-width="1" x1="315.0" x2="318.0" y1="268.1346652052679" y2="273.3308176279745" /><line stroke="black" stroke-width="1" x1="318.0" x2="324.0" y1="273.3308176279745" y2="273.3308176279745" /><line stroke="black" stroke-width="1" x1="324.0" x2="327.0" y1="273.3308176279745" y2="278.52697005068114" /><line stroke="black" stroke-width="1" x1="327.0" x2="324.0" y1="278.52697005068114" y2="283.7231224733878" /><line stroke="black" stroke-width="1" x1="324.0" x2="318.0" y1="283.7231224733878" y2="283.7231224733878" /><line stroke="black" stroke-width="1" x1="318.0" x2="315.0" y1="283.7231224733878" y2="278.52697005068114" /><line stroke="black" stroke-width="1" x1="315.0" x2="309.0" y1="278.52697005068114" y2="278.52697005068114" /><line stroke="black" stroke-width="1" x1="309.0" x2="306.0" y1="278.52697005068114" y2="283.7231224733878" /><line stroke="black" stroke-width="1" x1="306.0" x2="300.0" y1="283.7231224733878" y2="283.7231224733878" /><line stroke="black" stroke-width="1" x1="300.0" x2="297.0" y1="283.7231224733878" y2="278.52697005068114" /><line stroke="black" stroke-width="1" x1="297.0" x2="300.0" y1="278.52697005068114" y2="273.3308176279745" /><line stroke="black" stroke-width="1" x1="300.0" x2="297.0" y1="273.3308176279745" y2="268.1346652052679" /><line stroke="black" stroke-width="1" x1="297.0" x2="291.0" y1="268.1346652052679" y2="268.1346652052679" /><line stroke="black" stroke-width="1" x1="291.0" x2="288.0" y1="268.1346652052679" y2="273.3308176279745" /><line stroke="black" stroke-width="1" x1="288.0" x2="291.0" y1="273.3308176279745" y2="278.52697005068114" /><line stroke="black" stroke-width="1" x1="291.0" x2="288.0" y1="278.52697005068114" y2="283.7231224733878" /><line stroke="black" stroke-width="1" x1="288.0" x2="282.0" y1="283.7231224733878" y2="283.7231224733878" /><line stroke="black" stroke-width="1" x1="282.0" x2="279.0" y1="283.7231224733878" y2="278.52697005068114" /><line stroke="black" stroke-width="1" x1="279.0" x2="273.0" y1="278.52697005068114" y2="278.52697005068114" /><line stroke="black" stroke-width="1" x1="273.0" x2="270.0" y1="278.52697005068114" y2="283.7231224733878" /><line stroke="black" stroke-width="1" x1="270.0" x2="264.0" y1="283.7231224733878" y2="283.7231224733878" /><line stroke="black" stroke-width="1" x1="264.0" x2="261.0" y1="283.7231224733878" y2="278.52697005068114" /><line stroke="black" stroke-width="1" x1="261.0" x2="264.0" y1="278.52697005068114" y2="273.3308176279745" /><line stroke="black" stroke-width="1" x1="264.0" x2="270.0" y1="273.3308176279745" y2="273.3308176279745" /><line stroke="black" stroke-width="1" x1="270.0" x2="273.0" y1="273.3308176279745" y2="268.1346652052679" /><line stroke="black" stroke-width="1" x1="273.0" x2="270.0" y1="268.1346652052679" y2="262.93851278256125" /><line stroke="black" stroke-width="1" x1="270.0" x2="273.0" y1="262.93851278256125" y2="257.7423603598546" /><line stroke="black" stroke-width="1" x1="273.0" x2="279.0" y1="257.7423603598546" y2="257.7423603598546" /><line stroke="black" stroke-width="1" x1="279.0" x2="282.0" y1="257.7423603598546" y2="262.93851278256125" /><line stroke="black" stroke-width="1" x1="282.0" x2="288.0" y1="262.93851278256125" y2="262.93851278256125" /><line stroke="black" stroke-width="1" x1="288.0" x2="291.0" y1="262.93851278256125" y2="257.7423603598546" /><line stroke="black" stroke-width="1" x1="291.0" x2="288.0" y1="257.7423603598546" y2="252.54620793714798" /><line stroke="black" stroke-width="1" x1="288.0" x2="282.0" y1="252.54620793714798" y2="252.54620793714798" /><line stroke="black" stroke-width="1" x1="282.0" x2="279.0" y1="252.54620793714798" y2="247.35005551444135" /><line stroke="black" stroke-width="1" x1="279.0" x2="282.0" y1="247.35005551444135" y2="242.15390309173472" /><line stroke="black" stroke-width="1" x1="282.0" x2="288.0" y1="242.15390309173472" y2="242.15390309173472" /><line stroke="black" stroke-width="1" x1="288.0" x2="291.0" y1="242.15390309173472" y2="236.9577506690281" /><line stroke="black" stroke-width="1" x1="291.0" x2="288.0" y1="236.9577506690281" y2="231.76159824632146" /><line stroke="black" stroke-width="1" x1="288.0" x2="291.0" y1="231.76159824632146" y2="226.56544582361482" /><line stroke="black" stroke-width="1" x1="291.0" x2="297.0" y1="226.56544582361482" y2="226.56544582361482" /><line stroke="black" stroke-width="1" x1="297.0" x2="300.0" y1="226.56544582361482" y2="231.76159824632146" /><line stroke="black" stroke-width="1" x1="300.0" x2="297.0" y1="231.76159824632146" y2="236.9577506690281" /><line stroke="black" stroke-width="1" x1="297.0" x2="300.0" y1="236.9577506690281" y2="242.15390309173472" /><line stroke="black" stroke-width="1" x1="300.0" x2="306.0" y1="242.15390309173472" y2="242.15390309173472" /><line stroke="black" stroke-width="1" x1="306.0" x2="309.0" y1="242.15390309173472" y2="236.9577506690281" /><line stroke="black" stroke-width="1" x1="309.0" x2="315.0" y1="236.9577506690281" y2="236.9577506690281" /><line stroke="black" stroke-width="1" x1="315.0" x2="318.0" y1="236.9577506690281" y2="242.15390309173472" /><line stroke="black" stroke-width="1" x1="318.0" x2="324.0" y1="242.15390309173472" y2="242.15390309173472" /><line stroke="black" stroke-width="1" x1="324.0" x2="327.0" y1="242.15390309173472" y2="236.9577506690281" /><line stroke="black" stroke-width="1" x1="327.0" x2="324.0" y1="236.9577506690281" y2="231.76159824632146" /><line stroke="black" stroke-width="1" x1="324.0" x2="318.0" y1="231.76159824632146" y2="231.76159824632146" /><line stroke="black" stroke-width="1" x1="318.0" x2="315.0" y1="231.76159824632146" y2="226.56544582361482" /><line stroke="black" stroke-width="1" x1="315.0" x2="318.0" y1="226.56544582361482" y2="221.3692934009082" /><line stroke="black" stroke-width="1" x1="318.0" x2="315.0" y1="221.3692934009082" y2="216.17314097820156" /><line stroke="black" stroke-width="1" x1="315.0" x2="309.0" y1="216.17314097820156" y2="216.17314097820156" /><line stroke="black" stroke-width="1" x1="309.0" x2="306.0" y1="216.17314097820156" y2="221.3692934009082" /><line stroke="black" stroke-width="1" x1="306.0" x2="300.0" y1="221.3692934009082" y2="221.3692934009082" /><line stroke="black" stroke-width="1" x1="300.0" x2="297.0" y1="221.3692934009082" y2="216.17314097820156" /><line stroke="black" stroke-width="1" x1="297.0" x2="300.0" y1="216.17314097820156" y2="210.97698855549493" /><line stroke="black" stroke-width="1" x1="300.0" x2="306.0" y1="210.97698855549493" y2="210.97698855549493" /><line stroke="black" stroke-width="1" x1="306.0" x2="309.0" y1="210.97698855549493" y2="205.7808361327883" /><line stroke="black" stroke-width="1" x1="309.0" x2="306.0" y1="205.7808361327883" y2="200.58468371008166" /><line stroke="black" stroke-width="1" x1="306.0" x2="300.0" y1="200.58468371008166" y2="200.58468371008166" /><line stroke="black" stroke-width="1" x1="300.0" x2="297.0" y1="200.58468371008166" y2="195.38853128737503" /><line stroke="black" stroke-width="1" x1="297.0" x2="300.0" y1="195.38853128737503" y2="190.1923788646684" /><line stroke="black" stroke-width="1" x1="300.0" x2="297.0" y1="190.1923788646684" y2="184.99622644196177" /><line stroke="black" stroke-width="1" x1="297.0" x2="291.0" y1="184.99622644196177" y2="184.99622644196177" /><line stroke="black" stroke-width="1" x1="291.0" x2="288.0" y1="184.99622644196177" y2="190.1923788646684" /><line stroke="black" stroke-width="1" x1="288.0" x2="291.0" y1="190.1923788646684" y2="195.38853128737503" /><line stroke="black" stroke-width="1" x1="291.0" x2="288.0" y1="195.38853128737503" y2="200.58468371008166" /><line stroke="black" stroke-width="1" x1="288.0" x2="282.0" y1="200.58468371008166" y2="200.58468371008166" /><line stroke="black" stroke-width="1" x1="282.0" x2="279.0" y1="200.58468371008166" y2="195.38853128737503" /><line stroke="black" stroke-width="1" x1="279.0" x2="273.0" y1="195.38853128737503" y2="195.38853128737503" /><line stroke="black" stroke-width="1" x1="273.0" x2="270.0" y1="195.38853128737503" y2="200.58468371008166" /><line stroke="black" stroke-width="1" x1="270.0" x2="264.0" y1="200.58468371008166" y2="200.58468371008166" /><line stroke="black" stroke-width="1" x1="264.0" x2="261.0" y1="200.58468371008166" y2="195.38853128737503" /><line stroke="black" stroke-width="1" x1="261.0" x2="264.0" y1="195.38853128737503" y2="190.1923788646684" /><line stroke="black" stroke-width="1" x1="264.0" x2="270.0" y1="190.1923788646684" y2="190.1923788646684" /><line stroke="black" stroke-width="1" x1="270.0" x2="273.0" y1="190.1923788646684" y2="184.99622644196177" /><line stroke="black" stroke-width="1" x1="273.0" x2="270.0" y1="184.99622644196177" y2="179.80007401925513" /><line stroke="black" stroke-width="1" x1="270.0" x2="273.0" y1="179.80007401925513" y2="174.6039215965485" /><line stroke="black" stroke-width="1" x1="273.0" x2="279.0" y1="174.6039215965485" y2="174.6039215965485" /><line stroke="black" stroke-width="1" x1="279.0" x2="282.0" y1="174.6039215965485" y2="179.80007401925513" /><line stroke="black" stroke-width="1" x1="282.0" x2="288.0" y1="179.80007401925513" y2="179.80007401925513" /><line stroke="black" stroke-width="1" x1="288.0" x2="291.0" y1="179.80007401925513" y2="174.6039215965485" /><line stroke="black" stroke-width="1" x1="291.0" x2="288.0" y1="174.6039215965485" y2="169.40776917384187" /><line stroke="black" stroke-width="1" x1="288.0" x2="282.0" y1="169.40776917384187" y2="169.40776917384187" /><line stroke="black" stroke-width="1" x1="282.0" x2="279.0" y1="169.40776917384187" y2="164.21161675113524" /><line stroke="black" stroke-width="1" x1="279.0" x2="282.0" y1="164.21161675113524" y2="159.0154643284286" /><line stroke="black" stroke-width="1" x1="282.0" x2="279.0" y1="159.0154643284286" y2="153.81931190572197" /><line stroke="black" stroke-width="1" x1="279.0" x2="273.0" y1="153.81931190572197" y2="153.81931190572197" /><line stroke="black" stroke-width="1" x1="273.0" x2="270.0" y1="153.81931190572197" y2="159.0154643284286" /><line stroke="black" stroke-width="1" x1="270.0" x2="264.0" y1="159.0154643284286" y2="159.0154643284286" /><line stroke="black" stroke-width="1" x1="264.0" x2="261.0" y1="159.0154643284286" y2="153.81931190572197" /><line stroke="black" stroke-width="1" x1="261.0" x2="264.0" y1="153.81931190572197" y2="148.62315948301534" /><line stroke="black" stroke-width="1" x1="264.0" x2="270.0" y1="148.62315948301534" y2="148.62315948301534" /><line stroke="black" stroke-width="1" x1="270.0" x2="273.0" y1="148.62315948301534" y2="143.4270070603087" /><line stroke="black" stroke-width="1" x1="273.0" x2="270.0" y1="143.4270070603087" y2="138.23085463760208" /><line stroke="black" stroke-width="1" x1="270.0" x2="264.0" y1="138.23085463760208" y2="138.23085463760208" /><line stroke="black" stroke-width="1" x1="264.0" x2="261.0" y1="138.23085463760208" y2="133.03470221489545" /><line stroke="black" stroke-width="1" x1="261.0" x2="264.0" y1="133.03470221489545" y2="127.83854979218881" /><line stroke="black" stroke-width="1" x1="264.0" x2="261.0" y1="127.83854979218881" y2="122.64239736948218" /><line stroke="black" stroke-width="1" x1="261.0" x2="255.0" y1="122.64239736948218" y2="122.64239736948218" /><line stroke="black" stroke-width="1" x1="255.0" x2="252.0" y1="122.64239736948218" y2="127.83854979218881" /><line stroke="black" stroke-width="1" x1="252.0" x2="255.0" y1="127.83854979218881" y2="133.03470221489545" /><line stroke="black" stroke-width="1" x1="255.0" x2="252.0" y1="133.03470221489545" y2="138.23085463760208" /><line stroke="black" stroke-width="1" x1="252.0" x2="246.0" y1="138.23085463760208" y2="138.23085463760208" /><line stroke="black" stroke-width="1" x1="246.0" x2="243.0" y1="138.23085463760208" y2="143.4270070603087" /><line stroke="black" stroke-width="1" x1="243.0" x2="246.0" y1="143.4270070603087" y2="148.62315948301534" /><line stroke="black" stroke-width="1" x1="246.0" x2="252.0" y1="148.62315948301534" y2="148.62315948301534" /><line stroke="black" stroke-width="1" x1="252.0" x2="255.0" y1="148.62315948301534" y2="153.81931190572197" /><line stroke="black" stroke-width="1" x1="255.0" x2="252.0" y1="153.81931190572197" y2="159.0154643284286" /><line stroke="black" stroke-width="1" x1="252.0" x2="246.0" y1="159.0154643284286" y2="159.0154643284286" /><line stroke="black" stroke-width="1" x1="246.0" x2="243.0" y1="159.0154643284286" y2="153.81931190572197" /><line stroke="black" stroke-width="1" x1="243.0" x2="237.0" y1="153.81931190572197" y2="153.81931190572197" /><line stroke="black" stroke-width="1" x1="237.0" x2="234.0" y1="153.81931190572197" y2="159.0154643284286" /><line stroke="black" stroke-width="1" x1="234.0" x2="237.0" y1="159.0154643284286" y2="164.21161675113524" /><line stroke="black" stroke-width="1" x1="237.0" x2="234.0" y1="164.21161675113524" y2="169.40776917384187" /><line stroke="black" stroke-width="1" x1="234.0" x2="228.0" y1="169.40776917384187" y2="169.40776917384187" /><line stroke="black" stroke-width="1" x1="228.0" x2="225.0" y1="169.40776917384187" y2="174.6039215965485" /><line stroke="black" stroke-width="1" x1="225.0" x2="228.0" y1="174.6039215965485" y2="179.80007401925513" /><line stroke="black" stroke-width="1" x1="228.0" x2="234.0" y1="179.80007401925513" y2="179.80007401925513" /><line stroke="black" stroke-width="1" x1="234.0" x2="237.0" y1="179.80007401925513" y2="174.6039215965485" /><line stroke="black" stroke-width="1" x1="237.0" x2="243.0" y1="174.6039215965485" y2="174.6039215965485" /><line stroke="black" stroke-width="1" x1="243.0" x2="246.0" y1="174.6039215965485" y2="179.80007401925513" /><line stroke="black" stroke-width="1" x1="246.0" x2="243.0" y1="179.80007401925513" y2="184.99622644196177" /><line stroke="black" stroke-width="1" x1="243.0" x2="246.0" y1="184.99622644196177" y2="190.1923788646684" /><line stroke="black" stroke-width="1" x1="246.0" x2="252.0" y1="190.1923788646684" y2="190.1923788646684" /><line stroke="black" stroke-width="1" x1="252.0" x2="255.0" y1="190.1923788646684" y2="195.38853128737503" /><line stroke="black" stroke-width="1" x1="255.0" x2="252.0" y1="195.38853128737503" y2="200.58468371008166" /><line stroke="black" stroke-width="1" x1="252.0" x2="246.0" y1="200.58468371008166" y2="200.58468371008166" /><line stroke="black" stroke-width="1" x1="246.0" x2="243.0" y1="200.58468371008166" y2="195.38853128737503" /><line stroke="black" stroke-width="1" x1="243.0" x2="237.0" y1="195.38853128737503" y2="195.38853128737503" /><line stroke="black" stroke-width="1" x1="237.0" x2="234.0" y1="195.38853128737503" y2="200.58468371008166" /><line stroke="black" stroke-width="1" x1="234.0" x2="228.0" y1="200.58468371008166" y2="200.58468371008166" /><line stroke="black" stroke-width="1" x1="228.0" x2="225.0" y1="200.58468371008166" y2="195.38853128737503" /><line stroke="black" stroke-width="1" x1="225.0" x2="228.0" y1="195.38853128737503" y2="190.1923788646684" /><line stroke="black" stroke-width="1" x1="228.0" x2="225.0" y1="190.1923788646684" y2="184.99622644196177" /><line stroke="black" stroke-width="1" x1="225.0" x2="219.0" y1="184.99622644196177" y2="184.99622644196177" /><line stroke="black" stroke-width="1" x1="219.0" x2="216.0" y1="184.99622644196177" y2="190.1923788646684" /><line stroke="black" stroke-width="1" x1="216.0" x2="219.0" y1="190.1923788646684" y2="195.38853128737503" /><line stroke="black" stroke-width="1" x1="219.0" x2="216.0" y1="195.38853128737503" y2="200.58468371008166" /><line stroke="black" stroke-width="1" x1="216.0" x2="210.0" y1="200.58468371008166" y2="200.58468371008166" /><line stroke="black" stroke-width="1" x1="210.0" x2="207.0" y1="200.58468371008166" y2="205.7808361327883" /><line stroke="black" stroke-width="1" x1="207.0" x2="210.0" y1="205.7808361327883" y2="210.97698855549493" /><line stroke="black" stroke-width="1" x1="210.0" x2="216.0" y1="210.97698855549493" y2="210.97698855549493" /><line stroke="black" stroke-width="1" x1="216.0" x2="219.0" y1="210.97698855549493" y2="216.17314097820156" /><line stroke="black" stroke-width="1" x1="219.0" x2="216.0" y1="216.17314097820156" y2="221.3692934009082" /><line stroke="black" stroke-width="1" x1="216.0" x2="210.0" y1="221.3692934009082" y2="221.3692934009082" /><line stroke="black" stroke-width="1" x1="210.0" x2="207.0" y1="221.3692934009082" y2="216.17314097820156" /><line stroke="black" stroke-width="1" x1="207.0" x2="201.0" y1="216.17314097820156" y2="216.17314097820156" /><line stroke="black" stroke-width="1" x1="201.0" x2="198.0" y1="216.17314097820156" y2="221.3692934009082" /><line stroke="black" stroke-width="1" x1="198.0" x2="201.0" y1="221.3692934009082" y2="226.56544582361482" /><line stroke="black" stroke-width="1" x1="201.0" x2="198.0" y1="226.56544582361482" y2="231.76159824632146" /><line stroke="black" stroke-width="1" x1="198.0" x2="192.0" y1="231.76159824632146" y2="231.76159824632146" /><line stroke="black" stroke-width="1" x1="192.0" x2="189.0" y1="231.76159824632146" y2="236.9577506690281" /><line stroke="black" stroke-width="1" x1="189.0" x2="192.0" y1="236.9577506690281" y2="242.15390309173472" /><line stroke="black" stroke-width="1" x1="192.0" x2="198.0" y1="242.15390309173472" y2="242.15390309173472" /><line stroke="black" stroke-width="1" x1="198.0" x2="201.0" y1="242.15390309173472" y2="236.9577506690281" /><line stroke="black" stroke-width="1" x1="201.0" x2="207.0" y1="236.9577506690281" y2="236.9577506690281" /><line stroke="black" stroke-width="1" x1="207.0" x2="210.0" y1="236.9577506690281" y2="242.15390309173472" /><line stroke="black" stroke-width="1" x1="210.0" x2="216.0" y1="242.15390309173472" y2="242.15390309173472" /><line stroke="black" stroke-width="1" x1="216.0" x2="219.0" y1="242.15390309173472" y2="236.9577506690281" /><line stroke="black" stroke-width="1" x1="219.0" x2="216.0" y1="236.9577506690281" y2="231.76159824632146" /><line stroke="black" stroke-width="1" x1="216.0" x2="219.0" y1="231.76159824632146" y2="226.56544582361482" /><line stroke="black" stroke-width="1" x1="219.0" x2="225.0" y1="226.56544582361482" y2="226.56544582361482" /><line stroke="black" stroke-width="1" x1="225.0" x2="228.0" y1="226.56544582361482" y2="231.76159824632146" /><line stroke="black" stroke-width="1" x1="228.0" x2="225.0" y1="231.76159824632146" y2="236.9577506690281" /><line stroke="black" stroke-width="1" x1="225.0" x2="228.0" y1="236.9577506690281" y2="242.15390309173472" /><line stroke="black" stroke-width="1" x1="228.0" x2="234.0" y1="242.15390309173472" y2="242.15390309173472" /><line stroke="black" stroke-width="1" x1="234.0" x2="237.0" y1="242.15390309173472" y2="247.35005551444135" /><line stroke="black" stroke-width="1" x1="237.0" x2="234.0" y1="247.35005551444135" y2="252.54620793714798" /><line stroke="black" stroke-width="1" x1="234.0" x2="228.0" y1="252.54620793714798" y2="252.54620793714798" /><line stroke="black" stroke-width="1" x1="228.0" x2="225.0" y1="252.54620793714798" y2="257.7423603598546" /><line stroke="black" stroke-width="1" x1="225.0" x2="228.0" y1="257.7423603598546" y2="262.93851278256125" /><line stroke="black" stroke-width="1" x1="228.0" x2="234.0" y1="262.93851278256125" y2="262.93851278256125" /><line stroke="black" stroke-width="1" x1="234.0" x2="237.0" y1="262.93851278256125" y2="257.7423603598546" /><line stroke="black" stroke-width="1" x1="237.0" x2="243.0" y1="257.7423603598546" y2="257.7423603598546" /><line stroke="black" stroke-width="1" x1="243.0" x2="246.0" y1="257.7423603598546" y2="262.93851278256125" /><line stroke="black" stroke-width="1" x1="246.0" x2="243.0" y1="262.93851278256125" y2="268.1346652052679" /><line stroke="black" stroke-width="1" x1="243.0" x2="246.0" y1="268.1346652052679" y2="273.3308176279745" /><line stroke="black" stroke-width="1" x1="246.0" x2="252.0" y1="273.3308176279745" y2="273.3308176279745" /><line stroke="black" stroke-width="1" x1="252.0" x2="255.0" y1="273.3308176279745" y2="278.52697005068114" /><line stroke="black" stroke-width="1" x1="255.0" x2="252.0" y1="278.52697005068114" y2="283.7231224733878" /><line stroke="black" stroke-width="1" x1="252.0" x2="246.0" y1="283.7231224733878" y2="283.7231224733878" /><line stroke="black" stroke-width="1" x1="246.0" x2="243.0" y1="283.7231224733878" y2="278.52697005068114" /><line stroke="black" stroke-width="1" x1="243.0" x2="237.0" y1="278.52697005068114" y2="278.52697005068114" /><line stroke="black" stroke-width="1" x1="237.0" x2="234.0" y1="278.52697005068114" y2="283.7231224733878" /><line stroke="black" stroke-width="1" x1="234.0" x2="228.0" y1="283.7231224733878" y2="283.7231224733878" /><line stroke="black" stroke-width="1" x1="228.0" x2="225.0" y1="283.7231224733878" y2="278.52697005068114" /><line stroke="black" stroke-width="1" x1="225.0" x2="228.0" y1="278.52697005068114" y2="273.3308176279745" /><line stroke="black" stroke-width="1" x1="228.0" x2="225.0" y1="273.3308176279745" y2="268.1346652052679" /><line stroke="black" stroke-width="1" x1="225.0" x2="219.0" y1="268.1346652052679" y2="268.1346652052679" /><line stroke="black" stroke-width="1" x1="219.0" x2="216.0" y1="268.1346652052679" y2="273.3308176279745" /><line stroke="black" stroke-width="1" x1="216.0" x2="219.0" y1="273.3308176279745" y2="278.52697005068114" /><line stroke="black" stroke-width="1" x1="219.0" x2="216.0" y1="278.52697005068114" y2="283.7231224733878" /><line stroke="black" stroke-width="1" x1="216.0" x2="210.0" y1="283.7231224733878" y2="283.7231224733878" /><line stroke="black" stroke-width="1" x1="210.0" x2="207.0" y1="283.7231224733878" y2="278.52697005068114" /><line stroke="black" stroke-width="1" x1="207.0" x2="201.0" y1="278.52697005068114" y2="278.52697005068114" /><line stroke="black" stroke-width="1" x1="201.0" x2="198.0" y1="278.52697005068114" y2="283.7231224733878" /><line stroke="black" stroke-width="1" x1="198.0" x2="192.0" y1="283.7231224733878" y2="283.7231224733878" /><line stroke="black" stroke-width="1" x1="192.0" x2="189.0" y1="283.7231224733878" y2="278.52697005068114" /><line stroke="black" stroke-width="1" x1="189.0" x2="192.0" y1="278.52697005068114" y2="273.3308176279745" /><line stroke="black" stroke-width="1" x1="192.0" x2="198.0" y1="273.3308176279745" y2="273.3308176279745" /><line stroke="black" stroke-width="1" x1="198.0" x2="201.0" y1="273.3308176279745" y2="268.1346652052679" /><line stroke="black" stroke-width="1" x1="201.0" x2="198.0" y1="268.1346652052679" y2="262.93851278256125" /><line stroke="black" stroke-width="1" x1="198.0" x2="192.0" y1="262.93851278256125" y2="262.93851278256125" /><line stroke="black" stroke-width="1" x1="192.0" x2="189.0" y1="262.93851278256125" y2="257.7423603598546" /><line stroke="black" stroke-width="1" x1="189.0" x2="192.0" y1="257.7423603598546" y2="252.54620793714798" /><line stroke="black" stroke-width="1" x1="192.0" x2="189.0" y1="252.54620793714798" y2="247.35005551444135" /><line stroke="black" stroke-width="1" x1="189.0" x2="183.0" y1="247.35005551444135" y2="247.35005551444135" /><line stroke="black" stroke-width="1" x1="183.0" x2="180.0" y1="247.35005551444135" y2="252.54620793714798" /><line stroke="black" stroke-width="1" x1="180.0" x2="183.0" y1="252.54620793714798" y2="257.7423603598546" /><line stroke="black" stroke-width="1" x1="183.0" x2="180.0" y1="257.7423603598546" y2="262.93851278256125" /><line stroke="black" stroke-width="1" x1="180.0" x2="174.0" y1="262.93851278256125" y2="262.93851278256125" /><line stroke="black" stroke-width="1" x1="174.0" x2="171.0" y1="262.93851278256125" y2="268.1346652052679" /><line stroke="black" stroke-width="1" x1="171.0" x2="174.0" y1="268.1346652052679" y2="273.3308176279745" /><line stroke="black" stroke-width="1" x1="174.0" x2="180.0" y1="273.3308176279745" y2="273.3308176279745" /><line stroke="black" stroke-width="1" x1="180.0" x2="183.0" y1="273.3308176279745" y2="278.52697005068114" /><line stroke="black" stroke-width="1" x1="183.0" x2="180.0" y1="278.52697005068114" y2="283.7231224733878" /><line stroke="black" stroke-width="1" x1="180.0" x2="174.0" y1="283.7231224733878" y2="283.7231224733878" /><line stroke="black" stroke-width="1" x1="174.0" x2="171.0" y1="283.7231224733878" y2="278.52697005068114" /><line stroke="black" stroke-width="1" x1="171.0" x2="165.0" y1="278.52697005068114" y2="278.52697005068114" /><line stroke="black" stroke-width="1" x1="165.0" x2="162.0" y1="278.52697005068114" y2="283.7231224733878" /><line stroke="black" stroke-width="1" x1="162.0" x2="165.0" y1="283.7231224733878" y2="288.9192748960944" /><line stroke="black" stroke-width="1" x1="165.0" x2="162.0" y1="288.9192748960944" y2="294.11542731880104" /><line stroke="black" stroke-width="1" x1="162.0" x2="156.0" y1="294.11542731880104" y2="294.11542731880104" /><line stroke="black" stroke-width="1" x1="156.0" x2="153.0" y1="294.11542731880104" y2="299.31157974150767" /><line stroke="black" stroke-width="1" x1="153.0" x2="156.0" y1="299.31157974150767" y2="304.5077321642143" /><line stroke="black" stroke-width="1" x1="156.0" x2="162.0" y1="304.5077321642143" y2="304.5077321642143" /><line stroke="black" stroke-width="1" x1="162.0" x2="165.0" y1="304.5077321642143" y2="299.31157974150767" /><line stroke="black" stroke-width="1" x1="165.0" x2="171.0" y1="299.31157974150767" y2="299.31157974150767" /><line stroke="black" stroke-width="1" x1="171.0" x2="174.0" y1="299.31157974150767" y2="304.5077321642143" /><line stroke="black" stroke-width="1" x1="174.0" x2="171.0" y1="304.5077321642143" y2="309.70388458692094" /><line stroke="black" stroke-width="1" x1="171.0" x2="174.0" y1="309.70388458692094" y2="314.90003700962757" /><line stroke="black" stroke-width="1" x1="174.0" x2="180.0" y1="314.90003700962757" y2="314.90003700962757" /><line stroke="black" stroke-width="1" x1="180.0" x2="183.0" y1="314.90003700962757" y2="320.0961894323342" /><line stroke="black" stroke-width="1" x1="183.0" x2="180.0" y1="320.0961894323342" y2="325.29234185504083" /><line stroke="black" stroke-width="1" x1="180.0" x2="174.0" y1="325.29234185504083" y2="325.29234185504083" /><line stroke="black" stroke-width="1" x1="174.0" x2="171.0" y1="325.29234185504083" y2="320.0961894323342" /><line stroke="black" stroke-width="1" x1="171.0" x2="165.0" y1="320.0961894323342" y2="320.0961894323342" /><line stroke="black" stroke-width="1" x1="165.0" x2="162.0" y1="320.0961894323342" y2="325.29234185504083" /><line stroke="black" stroke-width="1" x1="162.0" x2="156.0" y1="325.29234185504083" y2="325.29234185504083" /><line stroke="black" stroke-width="1" x1="156.0" x2="153.0" y1="325.29234185504083" y2="320.0961894323342" /><line stroke="black" stroke-width="1" x1="153.0" x2="156.0" y1="320.0961894323342" y2="314.90003700962757" /><line stroke="black" stroke-width="1" x1="156.0" x2="153.0" y1="314.90003700962757" y2="309.70388458692094" /><line stroke="black" stroke-width="1" x1="153.0" x2="147.0" y1="309.70388458692094" y2="309.70388458692094" /><line stroke="black" stroke-width="1" x1="147.0" x2="144.0" y1="309.70388458692094" y2="314.90003700962757" /><line stroke="black" stroke-width="1" x1="144.0" x2="147.0" y1="314.90003700962757" y2="320.0961894323342" /><line stroke="black" stroke-width="1" x1="147.0" x2="144.0" y1="320.0961894323342" y2="325.29234185504083" /><line stroke="black" stroke-width="1" x1="144.0" x2="138.0" y1="325.29234185504083" y2="325.29234185504083" /><line stroke="black" stroke-width="1" x1="138.0" x2="135.0" y1="325.29234185504083" y2="330.48849427774746" /><line stroke="black" stroke-width="1" x1="135.0" x2="138.0" y1="330.48849427774746" y2="335.6846467004541" /><line stroke="black" stroke-width="1" x1="138.0" x2="144.0" y1="335.6846467004541" y2="335.6846467004541" /><line stroke="black" stroke-width="1" x1="144.0" x2="147.0" y1="335.6846467004541" y2="340.8807991231607" /><line stroke="black" stroke-width="1" x1="147.0" x2="144.0" y1="340.8807991231607" y2="346.07695154586736" /><line stroke="black" stroke-width="1" x1="144.0" x2="138.0" y1="346.07695154586736" y2="346.07695154586736" /><line stroke="black" stroke-width="1" x1="138.0" x2="135.0" y1="346.07695154586736" y2="340.8807991231607" /><line stroke="black" stroke-width="1" x1="135.0" x2="129.0" y1="340.8807991231607" y2="340.8807991231607" /><line stroke="black" stroke-width="1" x1="129.0" x2="126.0" y1="340.8807991231607" y2="346.07695154586736" /><line stroke="black" stroke-width="1" x1="126.0" x2="129.0" y1="346.07695154586736" y2="351.273103968574" /><line stroke="black" stroke-width="1" x1="129.0" x2="126.0" y1="351.273103968574" y2="356.4692563912806" /><line stroke="black" stroke-width="1" x1="126.0" x2="120.0" y1="356.4692563912806" y2="356.4692563912806" /><line stroke="black" stroke-width="1" x1="120.0" x2="117.0" y1="356.4692563912806" y2="361.66540881398726" /><line stroke="black" stroke-width="1" x1="117.0" x2="120.0" y1="361.66540881398726" y2="366.8615612366939" /><line stroke="black" stroke-width="1" x1="120.0" x2="126.0" y1="366.8615612366939" y2="366.8615612366939" /><line stroke="black" stroke-width="1" x1="126.0" x2="129.0" y1="366.8615612366939" y2="361.66540881398726" /><line stroke="black" stroke-width="1" x1="129.0" x2="135.0" y1="361.66540881398726" y2="361.66540881398726" /><line stroke="black" stroke-width="1" x1="135.0" x2="138.0" y1="361.66540881398726" y2="366.8615612366939" /><line stroke="black" stroke-width="1" x1="138.0" x2="144.0" y1="366.8615612366939" y2="366.8615612366939" /><line stroke="black" stroke-width="1" x1="144.0" x2="147.0" y1="366.8615612366939" y2="361.66540881398726" /><line stroke="black" stroke-width="1" x1="147.0" x2="144.0" y1="361.66540881398726" y2="356.4692563912806" /><line stroke="black" stroke-width="1" x1="144.0" x2="147.0" y1="356.4692563912806" y2="351.273103968574" /><line stroke="black" stroke-width="1" x1="147.0" x2="153.0" y1="351.273103968574" y2="351.273103968574" /><line stroke="black" stroke-width="1" x1="153.0" x2="156.0" y1="351.273103968574" y2="356.4692563912806" /><line stroke="black" stroke-width="1" x1="156.0" x2="153.0" y1="356.4692563912806" y2="361.66540881398726" /><line stroke="black" stroke-width="1" x1="153.0" x2="156.0" y1="361.66540881398726" y2="366.8615612366939" /><line stroke="black" stroke-width="1" x1="156.0" x2="162.0" y1="366.8615612366939" y2="366.8615612366939" /><line stroke="black" stroke-width="1" x1="162.0" x2="165.0" y1="366.8615612366939" y2="361.66540881398726" /><line stroke="black" stroke-width="1" x1="165.0" x2="171.0" y1="361.66540881398726" y2="361.66540881398726" /><line stroke="black" stroke-width="1" x1="171.0" x2="174.0" y1="361.66540881398726" y2="366.8615612366939" /><line stroke="black" stroke-width="1" x1="174.0" x2="180.0" y1="366.8615612366939" y2="366.8615612366939" /><line stroke="black" stroke-width="1" x1="180.0" x2="183.0" y1="366.8615612366939" y2="361.66540881398726" /><line stroke="black" stroke-width="1" x1="183.0" x2="180.0" y1="361.66540881398726" y2="356.4692563912806" /><line stroke="black" stroke-width="1" x1="180.0" x2="174.0" y1="356.4692563912806" y2="356.4692563912806" /><line stroke="black" stroke-width="1" x1="174.0" x2="171.0" y1="356.4692563912806" y2="351.273103968574" /><line stroke="black" stroke-width="1" x1="171.0" x2="174.0" y1="351.273103968574" y2="346.07695154586736" /><line stroke="black" stroke-width="1" x1="174.0" x2="180.0" y1="346.07695154586736" y2="346.07695154586736" /><line stroke="black" stroke-width="1" x1="180.0" x2="183.0" y1="346.07695154586736" y2="340.8807991231607" /><line stroke="black" stroke-width="1" x1="183.0" x2="180.0" y1="340.8807991231607" y2="335.6846467004541" /><line stroke="black" stroke-width="1" x1="180.0" x2="183.0" y1="335.6846467004541" y2="330.48849427774746" /><line stroke="black" stroke-width="1" x1="183.0" x2="189.0" y1="330.48849427774746" y2="330.48849427774746" /><line stroke="black" stroke-width="1" x1="189.0" x2="192.0" y1="330.48849427774746" y2="335.6846467004541" /><line stroke="black" stroke-width="1" x1="192.0" x2="189.0" y1="335.6846467004541" y2="340.8807991231607" /><line stroke="black" stroke-width="1" x1="189.0" x2="192.0" y1="340.8807991231607" y2="346.07695154586736" /><line stroke="black" stroke-width="1" x1="192.0" x2="198.0" y1="346.07695154586736" y2="346.07695154586736" /><line stroke="black" stroke-width="1" x1="198.0" x2="201.0" y1="346.07695154586736" y2="351.273103968574" /><line stroke="black" stroke-width="1" x1="201.0" x2="198.0" y1="351.273103968574" y2="356.4692563912806" /><line stroke="black" stroke-width="1" x1="198.0" x2="192.0" y1="356.4692563912806" y2="356.4692563912806" /><line stroke="black" stroke-width="1" x1="192.0" x2="189.0" y1="356.4692563912806" y2="361.66540881398726" /><line stroke="black" stroke-width="1" x1="189.0" x2="192.0" y1="361.66540881398726" y2="366.8615612366939" /><line stroke="black" stroke-width="1" x1="192.0" x2="198.0" y1="366.8615612366939" y2="366.8615612366939" /><line stroke="black" stroke-width="1" x1="198.0" x2="201.0" y1="366.8615612366939" y2="361.66540881398726" /><line stroke="black" stroke-width="1" x1="201.0" x2="207.0" y1="361.66540881398726" y2="361.66540881398726" /><line stroke="black" stroke-width="1" x1="207.0" x2="210.0" y1="361.66540881398726" y2="366.8615612366939" /><line stroke="black" stroke-width="1" x1="210.0" x2="207.0" y1="366.8615612366939" y2="372.0577136594005" /><line stroke="black" stroke-width="1" x1="207.0" x2="210.0" y1="372.0577136594005" y2="377.25386608210715" /><line stroke="black" stroke-width="1" x1="210.0" x2="216.0" y1="377.25386608210715" y2="377.25386608210715" /><line stroke="black" stroke-width="1" x1="216.0" x2="219.0" y1="377.25386608210715" y2="382.4500185048138" /><line stroke="black" stroke-width="1" x1="219.0" x2="216.0" y1="382.4500185048138" y2="387.6461709275204" /><line stroke="black" stroke-width="1" x1="216.0" x2="210.0" y1="387.6461709275204" y2="387.6461709275204" /><line stroke="black" stroke-width="1" x1="210.0" x2="207.0" y1="387.6461709275204" y2="382.4500185048138" /><line stroke="black" stroke-width="1" x1="207.0" x2="201.0" y1="382.4500185048138" y2="382.4500185048138" /><line stroke="black" stroke-width="1" x1="201.0" x2="198.0" y1="382.4500185048138" y2="387.6461709275204" /><line stroke="black" stroke-width="1" x1="198.0" x2="201.0" y1="387.6461709275204" y2="392.84232335022705" /><line stroke="black" stroke-width="1" x1="201.0" x2="198.0" y1="392.84232335022705" y2="398.0384757729337" /><line stroke="black" stroke-width="1" x1="198.0" x2="192.0" y1="398.0384757729337" y2="398.0384757729337" /><line stroke="black" stroke-width="1" x1="192.0" x2="189.0" y1="398.0384757729337" y2="403.2346281956403" /><line stroke="black" stroke-width="1" x1="189.0" x2="192.0" y1="403.2346281956403" y2="408.43078061834694" /><line stroke="black" stroke-width="1" x1="192.0" x2="198.0" y1="408.43078061834694" y2="408.43078061834694" /><line stroke="black" stroke-width="1" x1="198.0" x2="201.0" y1="408.43078061834694" y2="403.2346281956403" /><line stroke="black" stroke-width="1" x1="201.0" x2="207.0" y1="403.2346281956403" y2="403.2346281956403" /><line stroke="black" stroke-width="1" x1="207.0" x2="210.0" y1="403.2346281956403" y2="408.43078061834694" /><line stroke="black" stroke-width="1" x1="210.0" x2="216.0" y1="408.43078061834694" y2="408.43078061834694" /><line stroke="black" stroke-width="1" x1="216.0" x2="219.0" y1="408.43078061834694" y2="403.2346281956403" /><line stroke="black" stroke-width="1" x1="219.0" x2="216.0" y1="403.2346281956403" y2="398.0384757729337" /><line stroke="black" stroke-width="1" x1="216.0" x2="219.0" y1="398.0384757729337" y2="392.84232335022705" /><line stroke="black" stroke-width="1" x1="219.0" x2="225.0" y1="392.84232335022705" y2="392.84232335022705" /><line stroke="black" stroke-width="1" x1="225.0" x2="228.0" y1="392.84232335022705" y2="398.0384757729337" /><line stroke="black" stroke-width="1" x1="228.0" x2="225.0" y1="398.0384757729337" y2="403.2346281956403" /><line stroke="black" stroke-width="1" x1="225.0" x2="228.0" y1="403.2346281956403" y2="408.43078061834694" /><line stroke="black" stroke-width="1" x1="228.0" x2="234.0" y1="408.43078061834694" y2="408.43078061834694" /><line stroke="black" stroke-width="1" x1="234.0" x2="237.0" y1="408.43078061834694" y2="413.6269330410536" /><line stroke="black" stroke-width="1" x1="237.0" x2="234.0" y1="413.6269330410536" y2="418.8230854637602" /><line stroke="black" stroke-width="1" x1="234.0" x2="228.0" y1="418.8230854637602" y2="418.8230854637602" /><line stroke="black" stroke-width="1" x1="228.0" x2="225.0" y1="418.8230854637602" y2="424.01923788646684" /><line stroke="black" stroke-width="1" x1="225.0" x2="228.0" y1="424.01923788646684" y2="429.2153903091735" /><line stroke="black" stroke-width="1" x1="228.0" x2="234.0" y1="429.2153903091735" y2="429.2153903091735" /><line stroke="black" stroke-width="1" x1="234.0" x2="237.0" y1="429.2153903091735" y2="424.01923788646684" /><line stroke="black" stroke-width="1" x1="237.0" x2="243.0" y1="424.01923788646684" y2="424.01923788646684" /><line stroke="black" stroke-width="1" x1="243.0" x2="246.0" y1="424.01923788646684" y2="429.2153903091735" /><line stroke="black" stroke-width="1" x1="246.0" x2="243.0" y1="429.2153903091735" y2="434.4115427318801" /><line stroke="black" stroke-width="1" x1="243.0" x2="246.0" y1="434.4115427318801" y2="439.60769515458674" /><line stroke="black" stroke-width="1" x1="246.0" x2="252.0" y1="439.60769515458674" y2="439.60769515458674" /><line stroke="black" stroke-width="1" x1="252.0" x2="255.0" y1="439.60769515458674" y2="444.80384757729337" /><line stroke="black" stroke-width="1" x1="255.0" x2="252.0" y1="444.80384757729337" y2="450.0" /><line stroke="black" stroke-width="1" x1="252.0" x2="246.0" y1="450.0" y2="450.0" /><line stroke="black" stroke-width="1" x1="246.0" x2="243.0" y1="450.0" y2="444.80384757729337" /><line stroke="black" stroke-width="1" x1="243.0" x2="237.0" y1="444.80384757729337" y2="444.80384757729337" /><line stroke="black" stroke-width="1" x1="237.0" x2="234.0" y1="444.80384757729337" y2="450.0" /><line stroke="black" stroke-width="1" x1="234.0" x2="228.0" y1="450.0" y2="450.0" /><line stroke="black" stroke-width="1" x1="228.0" x2="225.0" y1="450.0" y2="444.80384757729337" /><line stroke="black" stroke-width="1" x1="225.0" x2="228.0" y1="444.80384757729337" y2="439.60769515458674" /><line stroke="black" stroke-width="1" x1="228.0" x2="225.0" y1="439.60769515458674" y2="434.4115427318801" /><line stroke="black" stroke-width="1" x1="225.0" x2="219.0" y1="434.4115427318801" y2="434.4115427318801" /><line stroke="black" stroke-width="1" x1="219.0" x2="216.0" y1="434.4115427318801" y2="439.60769515458674" /><line stroke="black" stroke-width="1" x1="216.0" x2="219.0" y1="439.60769515458674" y2="444.80384757729337" /><line stroke="black" stroke-width="1" x1="219.0" x2="216.0" y1="444.80384757729337" y2="450.0" /><line stroke="black" stroke-width="1" x1="216.0" x2="210.0" y1="450.0" y2="450.0" /><line stroke="black" stroke-width="1" x1="210.0" x2="207.0" y1="450.0" y2="444.80384757729337" /><line stroke="black" stroke-width="1" x1="207.0" x2="201.0" y1="444.80384757729337" y2="444.80384757729337" /><line stroke="black" stroke-width="1" x1="201.0" x2="198.0" y1="444.80384757729337" y2="450.0" /><line stroke="black" stroke-width="1" x1="198.0" x2="192.0" y1="450.0" y2="450.0" /><line stroke="black" stroke-width="1" x1="192.0" x2="189.0" y1="450.0" y2="444.80384757729337" /><line stroke="black" stroke-width="1" x1="189.0" x2="192.0" y1="444.80384757729337" y2="439.60769515458674" /><line stroke="black" stroke-width="1" x1="192.0" x2="198.0" y1="439.60769515458674" y2="439.60769515458674" /><line stroke="black" stroke-width="1" x1="198.0" x2="201.0" y1="439.60769515458674" y2="434.4115427318801" /><line stroke="black" stroke-width="1" x1="201.0" x2="198.0" y1="434.4115427318801" y2="429.2153903091735" /><line stroke="black" stroke-width="1" x1="198.0" x2="192.0" y1="429.2153903091735" y2="429.2153903091735" /><line stroke="black" stroke-width="1" x1="192.0" x2="189.0" y1="429.2153903091735" y2="424.01923788646684" /><line stroke="black" stroke-width="1" x1="189.0" x2="192.0" y1="424.01923788646684" y2="418.8230854637602" /><line stroke="black" stroke-width="1" x1="192.0" x2="189.0" y1="418.8230854637602" y2="413.6269330410536" /><line stroke="black" stroke-width="1" x1="189.0" x2="183.0" y1="413.6269330410536" y2="413.6269330410536" /><line stroke="black" stroke-width="1" x1="183.0" x2="180.0" y1="413.6269330410536" y2="418.8230854637602" /><line stroke="black" stroke-width="1" x1="180.0" x2="183.0" y1="418.8230854637602" y2="424.01923788646684" /><line stroke="black" stroke-width="1" x1="183.0" x2="180.0" y1="424.01923788646684" y2="429.2153903091735" /><line stroke="black" stroke-width="1" x1="180.0" x2="174.0" y1="429.2153903091735" y2="429.2153903091735" /><line stroke="black" stroke-width="1" x1="174.0" x2="171.0" y1="429.2153903091735" y2="434.4115427318801" /><line stroke="black" stroke-width="1" x1="171.0" x2="174.0" y1="434.4115427318801" y2="439.60769515458674" /><line stroke="black" stroke-width="1" x1="174.0" x2="180.0" y1="439.60769515458674" y2="439.60769515458674" /><line stroke="black" stroke-width="1" x1="180.0" x2="183.0" y1="439.60769515458674" y2="444.80384757729337" /><line stroke="black" stroke-width="1" x1="183.0" x2="180.0" y1="444.80384757729337" y2="450.0" /><line stroke="black" stroke-width="1" x1="180.0" x2="174.0" y1="450.0" y2="450.0" /><line stroke="black" stroke-width="1" x1="174.0" x2="171.0" y1="450.0" y2="444.80384757729337" /><line stroke="black" stroke-width="1" x1="171.0" x2="165.0" y1="444.80384757729337" y2="444.80384757729337" /><line stroke="black" stroke-width="1" x1="165.0" x2="162.0" y1="444.80384757729337" y2="450.0" /><line stroke="black" stroke-width="1" x1="162.0" x2="156.0" y1="450.0" y2="450.0" /><line stroke="black" stroke-width="1" x1="156.0" x2="153.0" y1="450.0" y2="444.80384757729337" /><line stroke="black" stroke-width="1" x1="153.0" x2="156.0" y1="444.80384757729337" y2="439.60769515458674" /><line stroke="black" stroke-width="1" x1="156.0" x2="153.0" y1="439.60769515458674" y2="434.4115427318801" /><line stroke="black" stroke-width="1" x1="153.0" x2="147.0" y1="434.4115427318801" y2="434.4115427318801" /><line stroke="black" stroke-width="1" x1="147.0" x2="144.0" y1="434.4115427318801" y2="439.60769515458674" /><line stroke="black" stroke-width="1" x1="144.0" x2="147.0" y1="439.60769515458674" y2="444.80384757729337" /><line stroke="black" stroke-width="1" x1="147.0" x2="144.0" y1="444.80384757729337" y2="450.0" /><line stroke="black" stroke-width="1" x1="144.0" x2="138.0" y1="450.0" y2="450.0" /><line stroke="black" stroke-width="1" x1="138.0" x2="135.0" y1="450.0" y2="444.80384757729337" /><line stroke="black" stroke-width="1" x1="135.0" x2="129.0" y1="444.80384757729337" y2="444.80384757729337" /><line stroke="black" stroke-width="1" x1="129.0" x2="126.0" y1="444.80384757729337" y2="450.0" /><line stroke="black" stroke-width="1" x1="126.0" x2="120.0" y1="450.0" y2="450.0" /><line stroke="black" stroke-width="1" x1="120.0" x2="117.0" y1="450.0" y2="444.80384757729337" /><line stroke="black" stroke-width="1" x1="117.0" x2="120.0" y1="444.80384757729337" y2="439.60769515458674" /><line stroke="black" stroke-width="1" x1="120.0" x2="126.0" y1="439.60769515458674" y2="439.60769515458674" /><line stroke="black" stroke-width="1" x1="126.0" x2="129.0" y1="439.60769515458674" y2="434.4115427318801" /><line stroke="black" stroke-width="1" x1="129.0" x2="126.0" y1="434.4115427318801" y2="429.2153903091735" /><line stroke="black" stroke-width="1" x1="126.0" x2="129.0" y1="429.2153903091735" y2="424.01923788646684" /><line stroke="black" stroke-width="1" x1="129.0" x2="135.0" y1="424.01923788646684" y2="424.01923788646684" /><line stroke="black" stroke-width="1" x1="135.0" x2="138.0" y1="424.01923788646684" y2="429.2153903091735" /><line stroke="black" stroke-width="1" x1="138.0" x2="144.0" y1="429.2153903091735" y2="429.2153903091735" /><line stroke="black" stroke-width="1" x1="144.0" x2="147.0" y1="429.2153903091735" y2="424.01923788646684" /><line stroke="black" stroke-width="1" x1="147.0" x2="144.0" y1="424.01923788646684" y2="418.8230854637602" /><line stroke="black" stroke-width="1" x1="144.0" x2="138.0" y1="418.8230854637602" y2="418.8230854637602" /><line stroke="black" stroke-width="1" x1="138.0" x2="135.0" y1="418.8230854637602" y2="413.6269330410536" /><line stroke="black" stroke-width="1" x1="135.0" x2="138.0" y1="413.6269330410536" y2="408.43078061834694" /><line stroke="black" stroke-width="1" x1="138.0" x2="135.0" y1="408.43078061834694" y2="403.2346281956403" /><line stroke="black" stroke-width="1" x1="135.0" x2="129.0" y1="403.2346281956403" y2="403.2346281956403" /><line stroke="black" stroke-width="1" x1="129.0" x2="126.0" y1="403.2346281956403" y2="408.43078061834694" /><line stroke="black" stroke-width="1" x1="126.0" x2="120.0" y1="408.43078061834694" y2="408.43078061834694" /><line stroke="black" stroke-width="1" x1="120.0" x2="117.0" y1="408.43078061834694" y2="403.2346281956403" /><line stroke="black" stroke-width="1" x1="117.0" x2="120.0" y1="403.2346281956403" y2="398.0384757729337" /><line stroke="black" stroke-width="1" x1="120.0" x2="126.0" y1="398.0384757729337" y2="398.0384757729337" /><line stroke="black" stroke-width="1" x1="126.0" x2="129.0" y1="398.0384757729337" y2="392.84232335022705" /><line stroke="black" stroke-width="1" x1="129.0" x2="126.0" y1="392.84232335022705" y2="387.6461709275204" /><line stroke="black" stroke-width="1" x1="126.0" x2="120.0" y1="387.6461709275204" y2="387.6461709275204" /><line stroke="black" stroke-width="1" x1="120.0" x2="117.0" y1="387.6461709275204" y2="382.4500185048138" /><line stroke="black" stroke-width="1" x1="117.0" x2="120.0" y1="382.4500185048138" y2="377.25386608210715" /><line stroke="black" stroke-width="1" x1="120.0" x2="117.0" y1="377.25386608210715" y2="372.0577136594005" /><line stroke="black" stroke-width="1" x1="117.0" x2="111.0" y1="372.0577136594005" y2="372.0577136594005" /><line stroke="black" stroke-width="1" x1="111.0" x2="108.0" y1="372.0577136594005" y2="377.25386608210715" /><line stroke="black" stroke-width="1" x1="108.0" x2="111.0" y1="377.25386608210715" y2="382.4500185048138" /><line stroke="black" stroke-width="1" x1="111.0" x2="108.0" y1="382.4500185048138" y2="387.6461709275204" /><line stroke="black" stroke-width="1" x1="108.0" x2="102.0" y1="387.6461709275204" y2="387.6461709275204" /><line stroke="black" stroke-width="1" x1="102.0" x2="99.0" y1="387.6461709275204" y2="392.84232335022705" /><line stroke="black" stroke-width="1" x1="99.0" x2="102.0" y1="392.84232335022705" y2="398.0384757729337" /><line stroke="black" stroke-width="1" x1="102.0" x2="108.0" y1="398.0384757729337" y2="398.0384757729337" /><line stroke="black" stroke-width="1" x1="108.0" x2="111.0" y1="398.0384757729337" y2="403.2346281956403" /><line stroke="black" stroke-width="1" x1="111.0" x2="108.0" y1="403.2346281956403" y2="408.43078061834694" /><line stroke="black" stroke-width="1" x1="108.0" x2="102.0" y1="408.43078061834694" y2="408.43078061834694" /><line stroke="black" stroke-width="1" x1="102.0" x2="99.0" y1="408.43078061834694" y2="403.2346281956403" /><line stroke="black" stroke-width="1" x1="99.0" x2="93.0" y1="403.2346281956403" y2="403.2346281956403" /><line stroke="black" stroke-width="1" x1="93.0" x2="90.0" y1="403.2346281956403" y2="408.43078061834694" /><line stroke="black" stroke-width="1" x1="90.0" x2="93.0" y1="408.43078061834694" y2="413.6269330410536" /><line stroke="black" stroke-width="1" x1="93.0" x2="90.0" y1="413.6269330410536" y2="418.8230854637602" /><line stroke="black" stroke-width="1" x1="90.0" x2="84.0" y1="418.8230854637602" y2="418.8230854637602" /><line stroke="black" stroke-width="1" x1="84.0" x2="81.0" y1="418.8230854637602" y2="424.01923788646684" /><line stroke="black" stroke-width="1" x1="81.0" x2="84.0" y1="424.01923788646684" y2="429.2153903091735" /><line stroke="black" stroke-width="1" x1="84.0" x2="90.0" y1="429.2153903091735" y2="429.2153903091735" /><line stroke="black" stroke-width="1" x1="90.0" x2="93.0" y1="429.2153903091735" y2="424.01923788646684" /><line stroke="black" stroke-width="1" x1="93.0" x2="99.0" y1="424.01923788646684" y2="424.01923788646684" /><line stroke="black" stroke-width="1" x1="99.0" x2="102.0" y1="424.01923788646684" y2="429.2153903091735" /><line stroke="black" stroke-width="1" x1="102.0" x2="99.0" y1="429.2153903091735" y2="434.4115427318801" /><line stroke="black" stroke-width="1" x1="99.0" x2="102.0" y1="434.4115427318801" y2="439.60769515458674" /><line stroke="black" stroke-width="1" x1="102.0" x2="108.0" y1="439.60769515458674" y2="439.60769515458674" /><line stroke="black" stroke-width="1" x1="108.0" x2="111.0" y1="439.60769515458674" y2="444.80384757729337" /><line stroke="black" stroke-width="1" x1="111.0" x2="108.0" y1="444.80384757729337" y2="450.0" /><line stroke="black" stroke-width="1" x1="108.0" x2="102.0" y1="450.0" y2="450.0" /><line stroke="black" stroke-width="1" x1="102.0" x2="99.0" y1="450.0" y2="444.80384757729337" /><line stroke="black" stroke-width="1" x1="99.0" x2="93.0" y1="444.80384757729337" y2="444.80384757729337" /><line stroke="black" stroke-width="1" x1="93.0" x2="90.0" y1="444.80384757729337" y2="450.0" /><line stroke="black" stroke-width="1" x1="90.0" x2="84.0" y1="450.0" y2="450.0" /><line stroke="black" stroke-width="1" x1="84.0" x2="81.0" y1="450.0" y2="444.80384757729337" /><line stroke="black" stroke-width="1" x1="81.0" x2="84.0" y1="444.80384757729337" y2="439.60769515458674" /><line stroke="black" stroke-width="1" x1="84.0" x2="81.0" y1="439.60769515458674" y2="434.4115427318801" /><line stroke="black" stroke-width="1" x1="81.0" x2="75.0" y1="434.4115427318801" y2="434.4115427318801" /><line stroke="black" stroke-width="1" x1="75.0" x2="72.0" y1="434.4115427318801" y2="439.60769515458674" /><line stroke="black" stroke-width="1" x1="72.0" x2="75.0" y1="439.60769515458674" y2="444.80384757729337" /><line stroke="black" stroke-width="1" x1="75.0" x2="72.0" y1="444.80384757729337" y2="450.0" /><line stroke="black" stroke-width="1" x1="72.0" x2="66.0" y1="450.0" y2="450.0" /></svg>