<?xml version="1.0" encoding="utf-8" ?>
<svg baseProfile="full" height="600" version="1.1" width="550" xmlns="http://www.w3.org/2000/svg" xmlns:ev="http://www.w3.org/2001/xml-events" xmlns:xlink="http://www.w3.org/1999/xlink"><defs /><line stroke="black" stroke-width="1" x1="450" x2="446.0" y1="450" y2="450.0" /><line stroke="black" stroke-width="1" x1="446.0" x2="443.763228386117" y1="450.0" y2="446.68384970977985" /><line stroke="black" stroke-width="1" x1="443.763228386117" x2="445.26165475978064" y1="446.68384970977985" y2="442.9751142915127" /><line stroke="black" stroke-width="1" x1="445.26165475978064" x2="443.02488314589766" y1="442.9751142915127" y2="439.65896400129253" /><line stroke="black" stroke-width="1" x1="443.02488314589766" x2="439.02488314589766" y1="439.65896400129253" y2="439.65896400129253" /><line stroke="black" stroke-width="1" x1="439.02488314589766" x2="436.7881115320147" y1="439.65896400129253" y2="442.9751142915127" /><line stroke="black" stroke-width="1" x1="436.7881115320147" x2="438.28653790567836" y1="442.9751142915127" y2="446.68384970977985" /><line stroke="black" stroke-width="1" x1="438.28653790567836" x2="436.0497662917954" y1="446.68384970977985" y2="450.0" /><line stroke="black" stroke-width="1" x1="436.0497662917954" x2="432.0497662917954" y1="450.0" y2="450.0" /><line stroke="black" stroke-width="1" x1="432.0497662917954" x2="429.8129946779124" y1="450.0" y2="446.68384970977985" /><line stroke="black" stroke-width="1" x1="429.8129946779124" x2="425.8129946779124" y1="446.68384970977985" y2="446.68384970977985" /><line stroke="black" stroke-width="1" x1="425.8129946779124" x2="423.5762230640294" y1="446.68384970977985" y2="450.0" /><line stroke="black" stroke-width="1" x1="423.5762230640294" x2="419.5762230640294" y1="450.0" y2="450.0" /><line stroke="black" stroke-width="1" x1="419.5762230640294" x2="417.33945145014644" y1="450.0" y2="446.68384970977985" /><line stroke="black" stroke-width="1" x1="417.33945145014644" x2="418.8378778238101" y1="446.68384970977985" y2="442.9751142915127" /><line stroke="black" stroke-width="1" x1="418.8378778238101" x2="422.75046822674534" y1="442.9751142915127" y2="442.1434675282416" /><line stroke="black" stroke-width="1" x1="422.75046822674534" x2="424.248894600409" y1="442.1434675282416" y2="438.43473210997445" /><line stroke="black" stroke-width="1" x1="424.248894600409" x2="422.01212298652604" y1="438.43473210997445" y2="435.1185818197543" /><line stroke="black" stroke-width="1" x1="422.01212298652604" x2="423.51054936018966" y1="435.1185818197543" y2="431.40984640148713" /><line stroke="black" stroke-width="1" x1="423.51054936018966" x2="427.4231397631249" y1="431.40984640148713" y2="430.57819963821606" /><line stroke="black" stroke-width="1" x1="427.4231397631249" x2="430.30049896447946" y1="430.57819963821606" y2="433.35683312005204" /><line stroke="black" stroke-width="1" x1="430.30049896447946" x2="434.2130893674147" y1="433.35683312005204" y2="432.525186356781" /><line stroke="black" stroke-width="1" x1="434.2130893674147" x2="435.7115157410783" y1="432.525186356781" y2="428.8164509385138" /><line stroke="black" stroke-width="1" x1="435.7115157410783" x2="433.4747441271953" y1="428.8164509385138" y2="425.50030064829366" /><line stroke="black" stroke-width="1" x1="433.4747441271953" x2="429.4747441271953" y1="425.50030064829366" y2="425.50030064829366" /><line stroke="black" stroke-width="1" x1="429.4747441271953" x2="427.23797251331234" y1="425.50030064829366" y2="422.1841503580735" /><line stroke="black" stroke-width="1" x1="427.23797251331234" x2="428.73639888697596" y1="422.1841503580735" y2="418.47541493980634" /><line stroke="black" stroke-width="1" x1="428.73639888697596" x2="426.499627273093" y1="418.47541493980634" y2="415.1592646495862" /><line stroke="black" stroke-width="1" x1="426.499627273093" x2="422.499627273093" y1="415.1592646495862" y2="415.1592646495862" /><line stroke="black" stroke-width="1" x1="422.499627273093" x2="420.26285565921" y1="415.1592646495862" y2="418.47541493980634" /><line stroke="black" stroke-width="1" x1="420.26285565921" x2="416.26285565921" y1="418.47541493980634" y2="418.47541493980634" /><line stroke="black" stroke-width="1" x1="416.26285565921" x2="414.026084045327" y1="418.47541493980634" y2="415.1592646495862" /><line stroke="black" stroke-width="1" x1="414.026084045327" x2="415.52451041899064" y1="415.1592646495862" y2="411.450529231319" /><line stroke="black" stroke-width="1" x1="415.52451041899064" x2="419.43710082192587" y1="411.450529231319" y2="410.61888246804796" /><line stroke="black" stroke-width="1" x1="419.43710082192587" x2="420.93552719558954" y1="410.61888246804796" y2="406.9101470497808" /><line stroke="black" stroke-width="1" x1="420.93552719558954" x2="418.69875558170656" y1="406.9101470497808" y2="403.59399675956064" /><line stroke="black" stroke-width="1" x1="418.69875558170656" x2="414.69875558170656" y1="403.59399675956064" y2="403.59399675956064" /><line stroke="black" stroke-width="1" x1="414.69875558170656" x2="412.4619839678236" y1="403.59399675956064" y2="400.2778464693405" /><line stroke="black" stroke-width="1" x1="412.4619839678236" x2="413.9604103414872" y1="400.2778464693405" y2="396.5691110510733" /><line stroke="black" stroke-width="1" x1="413.9604103414872" x2="411.7236387276042" y1="396.5691110510733" y2="393.25296076085317" /><line stroke="black" stroke-width="1" x1="411.7236387276042" x2="407.7236387276042" y1="393.25296076085317" y2="393.25296076085317" /><line stroke="black" stroke-width="1" x1="407.7236387276042" x2="405.48686711372125" y1="393.25296076085317" y2="396.5691110510733" /><line stroke="black" stroke-width="1" x1="405.48686711372125" x2="406.9852934873849" y1="396.5691110510733" y2="400.2778464693405" /><line stroke="black" stroke-width="1" x1="406.9852934873849" x2="404.74852187350194" y1="400.2778464693405" y2="403.59399675956064" /><line stroke="black" stroke-width="1" x1="404.74852187350194" x2="400.74852187350194" y1="403.59399675956064" y2="403.59399675956064" /><line stroke="black" stroke-width="1" x1="400.74852187350194" x2="398.51175025961896" y1="403.59399675956064" y2="406.9101470497808" /><line stroke="black" stroke-width="1" x1="398.51175025961896" x2="400.01017663328264" y1="406.9101470497808" y2="410.61888246804796" /><line stroke="black" stroke-width="1" x1="400.01017663328264" x2="403.92276703621786" y1="410.61888246804796" y2="411.45052923131897" /><line stroke="black" stroke-width="1" x1="403.92276703621786" x2="405.42119340988154" y1="411.45052923131897" y2="415.15926464958613" /><line stroke="black" stroke-width="1" x1="405.42119340988154" x2="403.18442179599856" y1="415.15926464958613" y2="418.4754149398063" /><line stroke="black" stroke-width="1" x1="403.18442179599856" x2="399.18442179599856" y1="418.4754149398063" y2="418.4754149398063" /><line stroke="black" stroke-width="1" x1="399.18442179599856" x2="396.9476501821156" y1="418.4754149398063" y2="415.15926464958613" /><line stroke="black" stroke-width="1" x1="396.9476501821156" x2="392.9476501821156" y1="415.15926464958613" y2="415.15926464958613" /><line stroke="black" stroke-width="1" x1="392.9476501821156" x2="390.7108785682326" y1="415.15926464958613" y2="418.4754149398063" /><line stroke="black" stroke-width="1" x1="390.7108785682326" x2="392.2093049418963" y1="418.4754149398063" y2="422.18415035807345" /><line stroke="black" stroke-width="1" x1="392.2093049418963" x2="389.9725333280133" y1="422.18415035807345" y2="425.5003006482936" /><line stroke="black" stroke-width="1" x1="389.9725333280133" x2="385.9725333280133" y1="425.5003006482936" y2="425.5003006482936" /><line stroke="black" stroke-width="1" x1="385.9725333280133" x2="383.7357617141303" y1="425.5003006482936" y2="428.81645093851375" /><line stroke="black" stroke-width="1" x1="383.7357617141303" x2="385.234188087794" y1="428.81645093851375" y2="432.5251863567809" /><line stroke="black" stroke-width="1" x1="385.234188087794" x2="389.1467784907292" y1="432.5251863567809" y2="433.35683312005193" /><line stroke="black" stroke-width="1" x1="389.1467784907292" x2="392.0241376920838" y1="433.35683312005193" y2="430.57819963821595" /><line stroke="black" stroke-width="1" x1="392.0241376920838" x2="395.936728095019" y1="430.57819963821595" y2="431.40984640148696" /><line stroke="black" stroke-width="1" x1="395.936728095019" x2="397.4351544686827" y1="431.40984640148696" y2="435.1185818197541" /><line stroke="black" stroke-width="1" x1="397.4351544686827" x2="395.1983828547997" y1="435.1185818197541" y2="438.4347321099743" /><line stroke="black" stroke-width="1" x1="395.1983828547997" x2="396.6968092284634" y1="438.4347321099743" y2="442.14346752824144" /><line stroke="black" stroke-width="1" x1="396.6968092284634" x2="400.6093996313986" y1="442.14346752824144" y2="442.97511429151245" /><line stroke="black" stroke-width="1" x1="400.6093996313986" x2="402.1078260050623" y1="442.97511429151245" y2="446.6838497097796" /><line stroke="black" stroke-width="1" x1="402.1078260050623" x2="399.8710543911793" y1="446.6838497097796" y2="449.9999999999998" /><line stroke="black" stroke-width="1" x1="399.8710543911793" x2="395.8710543911793" y1="449.9999999999998" y2="449.9999999999998" /><line stroke="black" stroke-width="1" x1="395.8710543911793" x2="393.63428277729633" y1="449.9999999999998" y2="446.6838497097796" /><line stroke="black" stroke-width="1" x1="393.63428277729633" x2="389.63428277729633" y1="446.6838497097796" y2="446.6838497097796" /><line stroke="black" stroke-width="1" x1="389.63428277729633" x2="387.39751116341336" y1="446.6838497097796" y2="449.9999999999998" /><line stroke="black" stroke-width="1" x1="387.39751116341336" x2="383.39751116341336" y1="449.9999999999998" y2="449.9999999999998" /><line stroke="black" stroke-width="1" x1="383.39751116341336" x2="381.1607395495304" y1="449.9999999999998" y2="446.6838497097796" /><line stroke="black" stroke-width="1" x1="381.1607395495304" x2="382.659165923194" y1="446.6838497097796" y2="442.97511429151245" /><line stroke="black" stroke-width="1" x1="382.659165923194" x2="380.422394309311" y1="442.97511429151245" y2="439.6589640012923" /><line stroke="black" stroke-width="1" x1="380.422394309311" x2="376.422394309311" y1="439.6589640012923" y2="439.6589640012923" /><line stroke="black" stroke-width="1" x1="376.422394309311" x2="374.18562269542804" y1="439.6589640012923" y2="442.97511429151245" /><line stroke="black" stroke-width="1" x1="374.18562269542804" x2="375.6840490690917" y1="442.97511429151245" y2="446.6838497097796" /><line stroke="black" stroke-width="1" x1="375.6840490690917" x2="373.44727745520873" y1="446.6838497097796" y2="449.9999999999998" /><line stroke="black" stroke-width="1" x1="373.44727745520873" x2="369.44727745520873" y1="449.9999999999998" y2="449.9999999999998" /><line stroke="black" stroke-width="1" x1="369.44727745520873" x2="367.21050584132576" y1="449.9999999999998" y2="446.6838497097796" /><line stroke="black" stroke-width="1" x1="367.21050584132576" x2="363.21050584132576" y1="446.6838497097796" y2="446.6838497097796" /><line stroke="black" stroke-width="1" x1="363.21050584132576" x2="360.9737342274428" y1="446.6838497097796" y2="449.9999999999998" /><line stroke="black" stroke-width="1" x1="360.9737342274428" x2="356.9737342274428" y1="449.9999999999998" y2="449.9999999999998" /><line stroke="black" stroke-width="1" x1="356.9737342274428" x2="354.7369626135598" y1="449.9999999999998" y2="446.6838497097796" /><line stroke="black" stroke-width="1" x1="354.7369626135598" x2="356.2353889872235" y1="446.6838497097796" y2="442.97511429151245" /><line stroke="black" stroke-width="1" x1="356.2353889872235" x2="360.1479793901587" y1="442.97511429151245" y2="442.1434675282414" /><line stroke="black" stroke-width="1" x1="360.1479793901587" x2="361.6464057638224" y1="442.1434675282414" y2="438.4347321099742" /><line stroke="black" stroke-width="1" x1="361.6464057638224" x2="359.4096341499394" y1="438.4347321099742" y2="435.11858181975407" /><line stroke="black" stroke-width="1" x1="359.4096341499394" x2="355.4096341499394" y1="435.11858181975407" y2="435.11858181975407" /><line stroke="black" stroke-width="1" x1="355.4096341499394" x2="353.1728625360564" y1="435.11858181975407" y2="431.8024315295339" /><line stroke="black" stroke-width="1" x1="353.1728625360564" x2="354.67128890972003" y1="431.8024315295339" y2="428.09369611126675" /><line stroke="black" stroke-width="1" x1="354.67128890972003" x2="352.43451729583705" y1="428.09369611126675" y2="424.7775458210466" /><line stroke="black" stroke-width="1" x1="352.43451729583705" x2="348.43451729583705" y1="424.7775458210466" y2="424.7775458210466" /><line stroke="black" stroke-width="1" x1="348.43451729583705" x2="346.1977456819541" y1="424.7775458210466" y2="428.09369611126675" /><line stroke="black" stroke-width="1" x1="346.1977456819541" x2="347.69617205561775" y1="428.09369611126675" y2="431.8024315295339" /><line stroke="black" stroke-width="1" x1="347.69617205561775" x2="345.4594004417348" y1="431.8024315295339" y2="435.11858181975407" /><line stroke="black" stroke-width="1" x1="345.4594004417348" x2="341.4594004417348" y1="435.11858181975407" y2="435.11858181975407" /><line stroke="black" stroke-width="1" x1="341.4594004417348" x2="339.2226288278518" y1="435.11858181975407" y2="438.4347321099742" /><line stroke="black" stroke-width="1" x1="339.2226288278518" x2="340.72105520151547" y1="438.4347321099742" y2="442.1434675282414" /><line stroke="black" stroke-width="1" x1="340.72105520151547" x2="344.6336456044507" y1="442.1434675282414" y2="442.9751142915124" /><line stroke="black" stroke-width="1" x1="344.6336456044507" x2="346.13207197811437" y1="442.9751142915124" y2="446.68384970977957" /><line stroke="black" stroke-width="1" x1="346.13207197811437" x2="343.8953003642314" y1="446.68384970977957" y2="449.9999999999997" /><line stroke="black" stroke-width="1" x1="343.8953003642314" x2="339.8953003642314" y1="449.9999999999997" y2="449.9999999999997" /><line stroke="black" stroke-width="1" x1="339.8953003642314" x2="337.6585287503484" y1="449.9999999999997" y2="446.68384970977957" /><line stroke="black" stroke-width="1" x1="337.6585287503484" x2="333.6585287503484" y1="446.68384970977957" y2="446.68384970977957" /><line stroke="black" stroke-width="1" x1="333.6585287503484" x2="331.42175713646543" y1="446.68384970977957" y2="449.9999999999997" /><line stroke="black" stroke-width="1" x1="331.42175713646543" x2="327.42175713646543" y1="449.9999999999997" y2="449.9999999999997" /><line stroke="black" stroke-width="1" x1="327.42175713646543" x2="325.18498552258245" y1="449.9999999999997" y2="446.68384970977957" /><line stroke="black" stroke-width="1" x1="325.18498552258245" x2="326.68341189624607" y1="446.68384970977957" y2="442.9751142915124" /><line stroke="black" stroke-width="1" x1="326.68341189624607" x2="324.4466402823631" y1="442.9751142915124" y2="439.65896400129225" /><line stroke="black" stroke-width="1" x1="324.4466402823631" x2="320.4466402823631" y1="439.65896400129225" y2="439.65896400129225" /><line stroke="black" stroke-width="1" x1="320.4466402823631" x2="318.2098686684801" y1="439.65896400129225" y2="442.9751142915124" /><line stroke="black" stroke-width="1" x1="318.2098686684801" x2="319.7082950421438" y1="442.9751142915124" y2="446.68384970977957" /><line stroke="black" stroke-width="1" x1="319.7082950421438" x2="317.4715234282608" y1="446.68384970977957" y2="449.9999999999997" /><line stroke="black" stroke-width="1" x1="317.4715234282608" x2="313.4715234282608" y1="449.9999999999997" y2="449.9999999999997" /><line stroke="black" stroke-width="1" x1="313.4715234282608" x2="311.23475181437783" y1="449.9999999999997" y2="446.68384970977957" /><line stroke="black" stroke-width="1" x1="311.23475181437783" x2="307.23475181437783" y1="446.68384970977957" y2="446.68384970977957" /><line stroke="black" stroke-width="1" x1="307.23475181437783" x2="304.99798020049485" y1="446.68384970977957" y2="449.9999999999997" /><line stroke="black" stroke-width="1" x1="304.99798020049485" x2="300.99798020049485" y1="449.9999999999997" y2="449.9999999999997" /><line stroke="black" stroke-width="1" x1="300.99798020049485" x2="298.7612085866119" y1="449.9999999999997" y2="446.68384970977957" /><line stroke="black" stroke-width="1" x1="298.7612085866119" x2="300.25963496027555" y1="446.68384970977957" y2="442.9751142915124" /><line stroke="black" stroke-width="1" x1="300.25963496027555" x2="304.17222536321077" y1="442.9751142915124" y2="442.14346752824133" /><line stroke="black" stroke-width="1" x1="304.17222536321077" x2="305.67065173687445" y1="442.14346752824133" y2="438.43473210997416" /><line stroke="black" stroke-width="1" x1="305.67065173687445" x2="303.43388012299147" y1="438.43473210997416" y2="435.118581819754" /><line stroke="black" stroke-width="1" x1="303.43388012299147" x2="304.9323064966551" y1="435.118581819754" y2="431.40984640148685" /><line stroke="black" stroke-width="1" x1="304.9323064966551" x2="308.8448968995903" y1="431.40984640148685" y2="430.5781996382158" /><line stroke="black" stroke-width="1" x1="308.8448968995903" x2="311.7222561009449" y1="430.5781996382158" y2="433.35683312005176" /><line stroke="black" stroke-width="1" x1="311.7222561009449" x2="315.6348465038801" y1="433.35683312005176" y2="432.5251863567807" /><line stroke="black" stroke-width="1" x1="315.6348465038801" x2="317.13327287754373" y1="432.5251863567807" y2="428.8164509385135" /><line stroke="black" stroke-width="1" x1="317.13327287754373" x2="314.89650126366075" y1="428.8164509385135" y2="425.5003006482934" /><line stroke="black" stroke-width="1" x1="314.89650126366075" x2="310.89650126366075" y1="425.5003006482934" y2="425.5003006482934" /><line stroke="black" stroke-width="1" x1="310.89650126366075" x2="308.6597296497778" y1="425.5003006482934" y2="422.1841503580732" /><line stroke="black" stroke-width="1" x1="308.6597296497778" x2="310.1581560234414" y1="422.1841503580732" y2="418.47541493980606" /><line stroke="black" stroke-width="1" x1="310.1581560234414" x2="314.0707464263766" y1="418.47541493980606" y2="417.643768176535" /><line stroke="black" stroke-width="1" x1="314.0707464263766" x2="315.5691728000403" y1="417.643768176535" y2="413.9350327582678" /><line stroke="black" stroke-width="1" x1="315.5691728000403" x2="313.3324011861573" y1="413.9350327582678" y2="410.6188824680477" /><line stroke="black" stroke-width="1" x1="313.3324011861573" x2="314.83082755982093" y1="410.6188824680477" y2="406.9101470497805" /><line stroke="black" stroke-width="1" x1="314.83082755982093" x2="318.74341796275615" y1="406.9101470497805" y2="406.07850028650944" /><line stroke="black" stroke-width="1" x1="318.74341796275615" x2="321.62077716411073" y1="406.07850028650944" y2="408.8571337683454" /><line stroke="black" stroke-width="1" x1="321.62077716411073" x2="320.926184453443" y1="408.8571337683454" y2="412.79636478039424" /><line stroke="black" stroke-width="1" x1="320.926184453443" x2="323.8035436547976" y1="412.79636478039424" y2="415.5749982622302" /><line stroke="black" stroke-width="1" x1="323.8035436547976" x2="327.7161340577328" y1="415.5749982622302" y2="414.74335149895916" /><line stroke="black" stroke-width="1" x1="327.7161340577328" x2="329.2145604313964" y1="414.74335149895916" y2="411.034616080692" /><line stroke="black" stroke-width="1" x1="329.2145604313964" x2="333.12715083433164" y1="411.034616080692" y2="410.2029693174209" /><line stroke="black" stroke-width="1" x1="333.12715083433164" x2="336.0045100356862" y1="410.2029693174209" y2="412.9816027992569" /><line stroke="black" stroke-width="1" x1="336.0045100356862" x2="339.91710043862145" y1="412.9816027992569" y2="412.14995603598584" /><line stroke="black" stroke-width="1" x1="339.91710043862145" x2="341.41552681228507" y1="412.14995603598584" y2="408.44122061771867" /><line stroke="black" stroke-width="1" x1="341.41552681228507" x2="339.1787551984021" y1="408.44122061771867" y2="405.1250703274985" /><line stroke="black" stroke-width="1" x1="339.1787551984021" x2="335.1787551984021" y1="405.1250703274985" y2="405.1250703274985" /><line stroke="black" stroke-width="1" x1="335.1787551984021" x2="332.9419835845191" y1="405.1250703274985" y2="401.80892003727837" /><line stroke="black" stroke-width="1" x1="332.9419835845191" x2="334.4404099581827" y1="401.80892003727837" y2="398.1001846190112" /><line stroke="black" stroke-width="1" x1="334.4404099581827" x2="332.20363834429975" y1="398.1001846190112" y2="394.78403432879105" /><line stroke="black" stroke-width="1" x1="332.20363834429975" x2="328.20363834429975" y1="394.78403432879105" y2="394.78403432879105" /><line stroke="black" stroke-width="1" x1="328.20363834429975" x2="325.96686673041677" y1="394.78403432879105" y2="398.1001846190112" /><line stroke="black" stroke-width="1" x1="325.96686673041677" x2="321.96686673041677" y1="398.1001846190112" y2="398.1001846190112" /><line stroke="black" stroke-width="1" x1="321.96686673041677" x2="319.7300951165338" y1="398.1001846190112" y2="394.78403432879105" /><line stroke="black" stroke-width="1" x1="319.7300951165338" x2="321.2285214901974" y1="394.78403432879105" y2="391.0752989105239" /><line stroke="black" stroke-width="1" x1="321.2285214901974" x2="325.14111189313263" y1="391.0752989105239" y2="390.2436521472528" /><line stroke="black" stroke-width="1" x1="325.14111189313263" x2="326.6395382667963" y1="390.2436521472528" y2="386.53491672898565" /><line stroke="black" stroke-width="1" x1="326.6395382667963" x2="324.40276665291333" y1="386.53491672898565" y2="383.2187664387655" /><line stroke="black" stroke-width="1" x1="324.40276665291333" x2="325.90119302657695" y1="383.2187664387655" y2="379.51003102049833" /><line stroke="black" stroke-width="1" x1="325.90119302657695" x2="329.81378342951217" y1="379.51003102049833" y2="378.67838425722726" /><line stroke="black" stroke-width="1" x1="329.81378342951217" x2="332.69114263086675" y1="378.67838425722726" y2="381.45701773906325" /><line stroke="black" stroke-width="1" x1="332.69114263086675" x2="336.603733033802" y1="381.45701773906325" y2="380.6253709757922" /><line stroke="black" stroke-width="1" x1="336.603733033802" x2="338.1021594074656" y1="380.6253709757922" y2="376.916635557525" /><line stroke="black" stroke-width="1" x1="338.1021594074656" x2="335.8653877935826" y1="376.916635557525" y2="373.60048526730486" /><line stroke="black" stroke-width="1" x1="335.8653877935826" x2="331.8653877935826" y1="373.60048526730486" y2="373.60048526730486" /><line stroke="black" stroke-width="1" x1="331.8653877935826" x2="329.62861617969963" y1="373.60048526730486" y2="370.2843349770847" /><line stroke="black" stroke-width="1" x1="329.62861617969963" x2="331.12704255336325" y1="370.2843349770847" y2="366.57559955881754" /><line stroke="black" stroke-width="1" x1="331.12704255336325" x2="335.0396329562985" y1="366.57559955881754" y2="365.7439527955465" /><line stroke="black" stroke-width="1" x1="335.0396329562985" x2="336.53805932996215" y1="365.7439527955465" y2="362.0352173772793" /><line stroke="black" stroke-width="1" x1="336.53805932996215" x2="334.3012877160792" y1="362.0352173772793" y2="358.71906708705916" /><line stroke="black" stroke-width="1" x1="334.3012877160792" x2="335.7997140897428" y1="358.71906708705916" y2="355.010331668792" /><line stroke="black" stroke-width="1" x1="335.7997140897428" x2="339.712304492678" y1="355.010331668792" y2="354.1786849055209" /><line stroke="black" stroke-width="1" x1="339.712304492678" x2="342.5896636940326" y1="354.1786849055209" y2="356.9573183873569" /><line stroke="black" stroke-width="1" x1="342.5896636940326" x2="341.89507098336486" y1="356.9573183873569" y2="360.8965493994057" /><line stroke="black" stroke-width="1" x1="341.89507098336486" x2="344.77243018471944" y1="360.8965493994057" y2="363.6751828812417" /><line stroke="black" stroke-width="1" x1="344.77243018471944" x2="348.68502058765466" y1="363.6751828812417" y2="362.84353611797064" /><line stroke="black" stroke-width="1" x1="348.68502058765466" x2="351.56237978900924" y1="362.84353611797064" y2="365.6221695998066" /><line stroke="black" stroke-width="1" x1="351.56237978900924" x2="350.8677870783415" y1="365.6221695998066" y2="369.56140061185545" /><line stroke="black" stroke-width="1" x1="350.8677870783415" x2="347.2136052477711" y1="369.56140061185545" y2="371.18834718415866" /><line stroke="black" stroke-width="1" x1="347.2136052477711" x2="346.5190125371034" y1="371.18834718415866" y2="375.1275781962075" /><line stroke="black" stroke-width="1" x1="346.5190125371034" x2="349.39637173845796" y1="375.1275781962075" y2="377.90621167804346" /><line stroke="black" stroke-width="1" x1="349.39637173845796" x2="353.3089621413932" y1="377.90621167804346" y2="377.0745649147724" /><line stroke="black" stroke-width="1" x1="353.3089621413932" x2="354.8073885150568" y1="377.0745649147724" y2="373.3658294965052" /><line stroke="black" stroke-width="1" x1="354.8073885150568" x2="358.719978917992" y1="373.3658294965052" y2="372.53418273323416" /><line stroke="black" stroke-width="1" x1="358.719978917992" x2="361.5973381193466" y1="372.53418273323416" y2="375.31281621507014" /><line stroke="black" stroke-width="1" x1="361.5973381193466" x2="365.5099285222818" y1="375.31281621507014" y2="374.4811694517991" /><line stroke="black" stroke-width="1" x1="365.5099285222818" x2="367.00835489594544" y1="374.4811694517991" y2="370.7724340335319" /><line stroke="black" stroke-width="1" x1="367.00835489594544" x2="364.77158328206247" y1="370.7724340335319" y2="367.45628374331176" /><line stroke="black" stroke-width="1" x1="364.77158328206247" x2="366.2700096557261" y1="367.45628374331176" y2="363.7475483250446" /><line stroke="black" stroke-width="1" x1="366.2700096557261" x2="370.1826000586613" y1="363.7475483250446" y2="362.9159015617735" /><line stroke="black" stroke-width="1" x1="370.1826000586613" x2="373.0599592600159" y1="362.9159015617735" y2="365.6945350436095" /><line stroke="black" stroke-width="1" x1="373.0599592600159" x2="372.36536654934815" y1="365.6945350436095" y2="369.6337660556583" /><line stroke="black" stroke-width="1" x1="372.36536654934815" x2="375.24272575070273" y1="369.6337660556583" y2="372.4123995374943" /><line stroke="black" stroke-width="1" x1="375.24272575070273" x2="379.15531615363795" y1="372.4123995374943" y2="371.58075277422324" /><line stroke="black" stroke-width="1" x1="379.15531615363795" x2="380.6537425273016" y1="371.58075277422324" y2="367.8720173559561" /><line stroke="black" stroke-width="1" x1="380.6537425273016" x2="384.5663329302368" y1="367.8720173559561" y2="367.040370592685" /><line stroke="black" stroke-width="1" x1="384.5663329302368" x2="387.4436921315914" y1="367.040370592685" y2="369.819004074521" /><line stroke="black" stroke-width="1" x1="387.4436921315914" x2="391.3562825345266" y1="369.819004074521" y2="368.9873573112499" /><line stroke="black" stroke-width="1" x1="391.3562825345266" x2="392.8547089081902" y1="368.9873573112499" y2="365.27862189298276" /><line stroke="black" stroke-width="1" x1="392.8547089081902" x2="390.61793729430724" y1="365.27862189298276" y2="361.9624716027626" /><line stroke="black" stroke-width="1" x1="390.61793729430724" x2="386.61793729430724" y1="361.9624716027626" y2="361.9624716027626" /><line stroke="black" stroke-width="1" x1="386.61793729430724" x2="384.38116568042426" y1="361.9624716027626" y2="358.64632131254245" /><line stroke="black" stroke-width="1" x1="384.38116568042426" x2="385.8795920540879" y1="358.64632131254245" y2="354.9375858942753" /><line stroke="black" stroke-width="1" x1="385.8795920540879" x2="383.6428204402049" y1="354.9375858942753" y2="351.62143560405514" /><line stroke="black" stroke-width="1" x1="383.6428204402049" x2="379.6428204402049" y1="351.62143560405514" y2="351.62143560405514" /><line stroke="black" stroke-width="1" x1="379.6428204402049" x2="377.4060488263219" y1="351.62143560405514" y2="354.9375858942753" /><line stroke="black" stroke-width="1" x1="377.4060488263219" x2="373.4060488263219" y1="354.9375858942753" y2="354.9375858942753" /><line stroke="black" stroke-width="1" x1="373.4060488263219" x2="371.16927721243894" y1="354.9375858942753" y2="351.62143560405514" /><line stroke="black" stroke-width="1" x1="371.16927721243894" x2="372.66770358610256" y1="351.62143560405514" y2="347.91270018578797" /><line stroke="black" stroke-width="1" x1="372.66770358610256" x2="376.5802939890378" y1="347.91270018578797" y2="347.0810534225169" /><line stroke="black" stroke-width="1" x1="376.5802939890378" x2="378.07872036270146" y1="347.0810534225169" y2="343.37231800424973" /><line stroke="black" stroke-width="1" x1="378.07872036270146" x2="375.8419487488185" y1="343.37231800424973" y2="340.0561677140296" /><line stroke="black" stroke-width="1" x1="375.8419487488185" x2="371.8419487488185" y1="340.0561677140296" y2="340.0561677140296" /><line stroke="black" stroke-width="1" x1="371.8419487488185" x2="369.6051771349355" y1="340.0561677140296" y2="336.74001742380943" /><line stroke="black" stroke-width="1" x1="369.6051771349355" x2="371.1036035085991" y1="336.74001742380943" y2="333.03128200554227" /><line stroke="black" stroke-width="1" x1="371.1036035085991" x2="368.86683189471614" y1="333.03128200554227" y2="329.7151317153221" /><line stroke="black" stroke-width="1" x1="368.86683189471614" x2="364.86683189471614" y1="329.7151317153221" y2="329.7151317153221" /><line stroke="black" stroke-width="1" x1="364.86683189471614" x2="362.63006028083316" y1="329.7151317153221" y2="333.03128200554227" /><line stroke="black" stroke-width="1" x1="362.63006028083316" x2="364.12848665449684" y1="333.03128200554227" y2="336.74001742380943" /><line stroke="black" stroke-width="1" x1="364.12848665449684" x2="361.89171504061386" y1="336.74001742380943" y2="340.0561677140296" /><line stroke="black" stroke-width="1" x1="361.89171504061386" x2="357.89171504061386" y1="340.0561677140296" y2="340.0561677140296" /><line stroke="black" stroke-width="1" x1="357.89171504061386" x2="355.6549434267309" y1="340.0561677140296" y2="336.74001742380943" /><line stroke="black" stroke-width="1" x1="355.6549434267309" x2="351.6549434267309" y1="336.74001742380943" y2="336.74001742380943" /><line stroke="black" stroke-width="1" x1="351.6549434267309" x2="349.4181718128479" y1="336.74001742380943" y2="340.0561677140296" /><line stroke="black" stroke-width="1" x1="349.4181718128479" x2="345.4181718128479" y1="340.0561677140296" y2="340.0561677140296" /><line stroke="black" stroke-width="1" x1="345.4181718128479" x2="343.1814001989649" y1="340.0561677140296" y2="336.74001742380943" /><line stroke="black" stroke-width="1" x1="343.1814001989649" x2="344.6798265726286" y1="336.74001742380943" y2="333.03128200554227" /><line stroke="black" stroke-width="1" x1="344.6798265726286" x2="348.5924169755638" y1="333.03128200554227" y2="332.1996352422712" /><line stroke="black" stroke-width="1" x1="348.5924169755638" x2="350.0908433492275" y1="332.1996352422712" y2="328.49089982400403" /><line stroke="black" stroke-width="1" x1="350.0908433492275" x2="347.8540717353445" y1="328.49089982400403" y2="325.1747495337839" /><line stroke="black" stroke-width="1" x1="347.8540717353445" x2="349.35249810900814" y1="325.1747495337839" y2="321.4660141155167" /><line stroke="black" stroke-width="1" x1="349.35249810900814" x2="353.26508851194336" y1="321.4660141155167" y2="320.63436735224565" /><line stroke="black" stroke-width="1" x1="353.26508851194336" x2="356.14244771329794" y1="320.63436735224565" y2="323.41300083408163" /><line stroke="black" stroke-width="1" x1="356.14244771329794" x2="360.05503811623316" y1="323.41300083408163" y2="322.58135407081056" /><line stroke="black" stroke-width="1" x1="360.05503811623316" x2="361.5534644898968" y1="322.58135407081056" y2="318.8726186525434" /><line stroke="black" stroke-width="1" x1="361.5534644898968" x2="359.3166928760138" y1="318.8726186525434" y2="315.55646836232324" /><line stroke="black" stroke-width="1" x1="359.3166928760138" x2="355.3166928760138" y1="315.55646836232324" y2="315.55646836232324" /><line stroke="black" stroke-width="1" x1="355.3166928760138" x2="353.0799212621308" y1="315.55646836232324" y2="312.2403180721031" /><line stroke="black" stroke-width="1" x1="353.0799212621308" x2="354.57834763579444" y1="312.2403180721031" y2="308.5315826538359" /><line stroke="black" stroke-width="1" x1="354.57834763579444" x2="352.34157602191146" y1="308.5315826538359" y2="305.2154323636158" /><line stroke="black" stroke-width="1" x1="352.34157602191146" x2="348.34157602191146" y1="305.2154323636158" y2="305.2154323636158" /><line stroke="black" stroke-width="1" x1="348.34157602191146" x2="346.1048044080285" y1="305.2154323636158" y2="308.5315826538359" /><line stroke="black" stroke-width="1" x1="346.1048044080285" x2="342.1048044080285" y1="308.5315826538359" y2="308.5315826538359" /><line stroke="black" stroke-width="1" x1="342.1048044080285" x2="339.8680327941455" y1="308.5315826538359" y2="305.2154323636158" /><line stroke="black" stroke-width="1" x1="339.8680327941455" x2="341.3664591678091" y1="305.2154323636158" y2="301.5066969453486" /><line stroke="black" stroke-width="1" x1="341.3664591678091" x2="345.27904957074435" y1="301.5066969453486" y2="300.67505018207754" /><line stroke="black" stroke-width="1" x1="345.27904957074435" x2="346.777475944408" y1="300.67505018207754" y2="296.9663147638104" /><line stroke="black" stroke-width="1" x1="346.777475944408" x2="344.54070433052505" y1="296.9663147638104" y2="293.6501644735902" /><line stroke="black" stroke-width="1" x1="344.54070433052505" x2="340.54070433052505" y1="293.6501644735902" y2="293.6501644735902" /><line stroke="black" stroke-width="1" x1="340.54070433052505" x2="338.30393271664207" y1="293.6501644735902" y2="290.3340141833701" /><line stroke="black" stroke-width="1" x1="338.30393271664207" x2="339.8023590903057" y1="290.3340141833701" y2="286.6252787651029" /><line stroke="black" stroke-width="1" x1="339.8023590903057" x2="337.5655874764227" y1="286.6252787651029" y2="283.30912847488275" /><line stroke="black" stroke-width="1" x1="337.5655874764227" x2="333.5655874764227" y1="283.30912847488275" y2="283.30912847488275" /><line stroke="black" stroke-width="1" x1="333.5655874764227" x2="331.3288158625397" y1="283.30912847488275" y2="286.6252787651029" /><line stroke="black" stroke-width="1" x1="331.3288158625397" x2="332.8272422362034" y1="286.6252787651029" y2="290.3340141833701" /><line stroke="black" stroke-width="1" x1="332.8272422362034" x2="330.5904706223204" y1="290.3340141833701" y2="293.6501644735902" /><line stroke="black" stroke-width="1" x1="330.5904706223204" x2="326.5904706223204" y1="293.6501644735902" y2="293.6501644735902" /><line stroke="black" stroke-width="1" x1="326.5904706223204" x2="324.35369900843745" y1="293.6501644735902" y2="296.9663147638104" /><line stroke="black" stroke-width="1" x1="324.35369900843745" x2="325.8521253821011" y1="296.9663147638104" y2="300.67505018207754" /><line stroke="black" stroke-width="1" x1="325.8521253821011" x2="329.76471578503634" y1="300.67505018207754" y2="301.50669694534855" /><line stroke="black" stroke-width="1" x1="329.76471578503634" x2="331.2631421587" y1="301.50669694534855" y2="305.2154323636157" /><line stroke="black" stroke-width="1" x1="331.2631421587" x2="329.02637054481704" y1="305.2154323636157" y2="308.53158265383587" /><line stroke="black" stroke-width="1" x1="329.02637054481704" x2="325.02637054481704" y1="308.53158265383587" y2="308.53158265383587" /><line stroke="black" stroke-width="1" x1="325.02637054481704" x2="322.78959893093406" y1="308.53158265383587" y2="305.2154323636157" /><line stroke="black" stroke-width="1" x1="322.78959893093406" x2="318.78959893093406" y1="305.2154323636157" y2="305.2154323636157" /><line stroke="black" stroke-width="1" x1="318.78959893093406" x2="316.5528273170511" y1="305.2154323636157" y2="308.53158265383587" /><line stroke="black" stroke-width="1" x1="316.5528273170511" x2="312.5528273170511" y1="308.53158265383587" y2="308.53158265383587" /><line stroke="black" stroke-width="1" x1="312.5528273170511" x2="310.3160557031681" y1="308.53158265383587" y2="305.2154323636157" /><line stroke="black" stroke-width="1" x1="310.3160557031681" x2="311.8144820768317" y1="305.2154323636157" y2="301.50669694534855" /><line stroke="black" stroke-width="1" x1="311.8144820768317" x2="309.57771046294874" y1="301.50669694534855" y2="298.1905466551284" /><line stroke="black" stroke-width="1" x1="309.57771046294874" x2="305.57771046294874" y1="298.1905466551284" y2="298.1905466551284" /><line stroke="black" stroke-width="1" x1="305.57771046294874" x2="303.34093884906576" y1="298.1905466551284" y2="301.50669694534855" /><line stroke="black" stroke-width="1" x1="303.34093884906576" x2="304.83936522272944" y1="301.50669694534855" y2="305.2154323636157" /><line stroke="black" stroke-width="1" x1="304.83936522272944" x2="302.60259360884646" y1="305.2154323636157" y2="308.53158265383587" /><line stroke="black" stroke-width="1" x1="302.60259360884646" x2="298.60259360884646" y1="308.53158265383587" y2="308.53158265383587" /><line stroke="black" stroke-width="1" x1="298.60259360884646" x2="296.3658219949635" y1="308.53158265383587" y2="305.2154323636157" /><line stroke="black" stroke-width="1" x1="296.3658219949635" x2="292.3658219949635" y1="305.2154323636157" y2="305.2154323636157" /><line stroke="black" stroke-width="1" x1="292.3658219949635" x2="290.1290503810805" y1="305.2154323636157" y2="308.53158265383587" /><line stroke="black" stroke-width="1" x1="290.1290503810805" x2="286.1290503810805" y1="308.53158265383587" y2="308.53158265383587" /><line stroke="black" stroke-width="1" x1="286.1290503810805" x2="283.8922787671975" y1="308.53158265383587" y2="305.2154323636157" /><line stroke="black" stroke-width="1" x1="283.8922787671975" x2="285.3907051408612" y1="305.2154323636157" y2="301.50669694534855" /><line stroke="black" stroke-width="1" x1="285.3907051408612" x2="289.3032955437964" y1="301.50669694534855" y2="300.6750501820775" /><line stroke="black" stroke-width="1" x1="289.3032955437964" x2="290.8017219174601" y1="300.6750501820775" y2="296.9663147638103" /><line stroke="black" stroke-width="1" x1="290.8017219174601" x2="288.5649503035771" y1="296.9663147638103" y2="293.65016447359017" /><line stroke="black" stroke-width="1" x1="288.5649503035771" x2="290.06337667724074" y1="293.65016447359017" y2="289.941429055323" /><line stroke="black" stroke-width="1" x1="290.06337667724074" x2="293.97596708017596" y1="289.941429055323" y2="289.10978229205193" /><line stroke="black" stroke-width="1" x1="293.97596708017596" x2="296.85332628153054" y1="289.10978229205193" y2="291.8884157738879" /><line stroke="black" stroke-width="1" x1="296.85332628153054" x2="300.76591668446576" y1="291.8884157738879" y2="291.05676901061685" /><line stroke="black" stroke-width="1" x1="300.76591668446576" x2="302.2643430581294" y1="291.05676901061685" y2="287.3480335923497" /><line stroke="black" stroke-width="1" x1="302.2643430581294" x2="300.0275714442464" y1="287.3480335923497" y2="284.03188330212953" /><line stroke="black" stroke-width="1" x1="300.0275714442464" x2="296.0275714442464" y1="284.03188330212953" y2="284.03188330212953" /><line stroke="black" stroke-width="1" x1="296.0275714442464" x2="293.7907998303634" y1="284.03188330212953" y2="280.7157330119094" /><line stroke="black" stroke-width="1" x1="293.7907998303634" x2="295.28922620402705" y1="280.7157330119094" y2="277.0069975936422" /><line stroke="black" stroke-width="1" x1="295.28922620402705" x2="299.20181660696227" y1="277.0069975936422" y2="276.17535083037114" /><line stroke="black" stroke-width="1" x1="299.20181660696227" x2="300.70024298062594" y1="276.17535083037114" y2="272.466615412104" /><line stroke="black" stroke-width="1" x1="300.70024298062594" x2="298.46347136674297" y1="272.466615412104" y2="269.1504651218838" /><line stroke="black" stroke-width="1" x1="298.46347136674297" x2="299.9618977404066" y1="269.1504651218838" y2="265.44172970361666" /><line stroke="black" stroke-width="1" x1="299.9618977404066" x2="303.8744881433418" y1="265.44172970361666" y2="264.6100829403456" /><line stroke="black" stroke-width="1" x1="303.8744881433418" x2="306.7518473446964" y1="264.6100829403456" y2="267.3887164221816" /><line stroke="black" stroke-width="1" x1="306.7518473446964" x2="306.05725463402865" y1="267.3887164221816" y2="271.3279474342304" /><line stroke="black" stroke-width="1" x1="306.05725463402865" x2="308.93461383538323" y1="271.3279474342304" y2="274.1065809160664" /><line stroke="black" stroke-width="1" x1="308.93461383538323" x2="312.84720423831845" y1="274.1065809160664" y2="273.2749341527953" /><line stroke="black" stroke-width="1" x1="312.84720423831845" x2="314.3456306119821" y1="273.2749341527953" y2="269.56619873452814" /><line stroke="black" stroke-width="1" x1="314.3456306119821" x2="318.2582210149173" y1="269.56619873452814" y2="268.7345519712571" /><line stroke="black" stroke-width="1" x1="318.2582210149173" x2="321.1355802162719" y1="268.7345519712571" y2="271.51318545309306" /><line stroke="black" stroke-width="1" x1="321.1355802162719" x2="325.0481706192071" y1="271.51318545309306" y2="270.681538689822" /><line stroke="black" stroke-width="1" x1="325.0481706192071" x2="326.5465969928707" y1="270.681538689822" y2="266.9728032715548" /><line stroke="black" stroke-width="1" x1="326.5465969928707" x2="324.30982537898774" y1="266.9728032715548" y2="263.6566529813347" /><line stroke="black" stroke-width="1" x1="324.30982537898774" x2="320.30982537898774" y1="263.6566529813347" y2="263.6566529813347" /><line stroke="black" stroke-width="1" x1="320.30982537898774" x2="318.07305376510476" y1="263.6566529813347" y2="260.3405026911145" /><line stroke="black" stroke-width="1" x1="318.07305376510476" x2="319.5714801387684" y1="260.3405026911145" y2="256.63176727284736" /><line stroke="black" stroke-width="1" x1="319.5714801387684" x2="317.3347085248854" y1="256.63176727284736" y2="253.31561698262718" /><line stroke="black" stroke-width="1" x1="317.3347085248854" x2="313.3347085248854" y1="253.31561698262718" y2="253.31561698262718" /><line stroke="black" stroke-width="1" x1="313.3347085248854" x2="311.0979369110024" y1="253.31561698262718" y2="256.63176727284736" /><line stroke="black" stroke-width="1" x1="311.0979369110024" x2="307.0979369110024" y1="256.63176727284736" y2="256.63176727284736" /><line stroke="black" stroke-width="1" x1="307.0979369110024" x2="304.86116529711944" y1="256.63176727284736" y2="253.31561698262718" /><line stroke="black" stroke-width="1" x1="304.86116529711944" x2="306.35959167078306" y1="253.31561698262718" y2="249.60688156436004" /><line stroke="black" stroke-width="1" x1="306.35959167078306" x2="310.2721820737183" y1="249.60688156436004" y2="248.775234801089" /><line stroke="black" stroke-width="1" x1="310.2721820737183" x2="311.77060844738196" y1="248.775234801089" y2="245.06649938282186" /><line stroke="black" stroke-width="1" x1="311.77060844738196" x2="309.533836833499" y1="245.06649938282186" y2="241.75034909260168" /><line stroke="black" stroke-width="1" x1="309.533836833499" x2="305.533836833499" y1="241.75034909260168" y2="241.75034909260168" /><line stroke="black" stroke-width="1" x1="305.533836833499" x2="303.297065219616" y1="241.75034909260168" y2="238.4341988023815" /><line stroke="black" stroke-width="1" x1="303.297065219616" x2="304.7954915932796" y1="238.4341988023815" y2="234.72546338411436" /><line stroke="black" stroke-width="1" x1="304.7954915932796" x2="302.55871997939664" y1="234.72546338411436" y2="231.40931309389418" /><line stroke="black" stroke-width="1" x1="302.55871997939664" x2="298.55871997939664" y1="231.40931309389418" y2="231.40931309389418" /><line stroke="black" stroke-width="1" x1="298.55871997939664" x2="296.32194836551366" y1="231.40931309389418" y2="234.72546338411436" /><line stroke="black" stroke-width="1" x1="296.32194836551366" x2="297.82037473917734" y1="234.72546338411436" y2="238.4341988023815" /><line stroke="black" stroke-width="1" x1="297.82037473917734" x2="295.58360312529436" y1="238.4341988023815" y2="241.75034909260168" /><line stroke="black" stroke-width="1" x1="295.58360312529436" x2="291.58360312529436" y1="241.75034909260168" y2="241.75034909260168" /><line stroke="black" stroke-width="1" x1="291.58360312529436" x2="289.3468315114114" y1="241.75034909260168" y2="238.4341988023815" /><line stroke="black" stroke-width="1" x1="289.3468315114114" x2="285.3468315114114" y1="238.4341988023815" y2="238.4341988023815" /><line stroke="black" stroke-width="1" x1="285.3468315114114" x2="283.1100598975284" y1="238.4341988023815" y2="241.75034909260168" /><line stroke="black" stroke-width="1" x1="283.1100598975284" x2="279.1100598975284" y1="241.75034909260168" y2="241.75034909260168" /><line stroke="black" stroke-width="1" x1="279.1100598975284" x2="276.8732882836454" y1="241.75034909260168" y2="238.4341988023815" /><line stroke="black" stroke-width="1" x1="276.8732882836454" x2="278.3717146573091" y1="238.4341988023815" y2="234.72546338411436" /><line stroke="black" stroke-width="1" x1="278.3717146573091" x2="282.2843050602443" y1="234.72546338411436" y2="233.89381662084332" /><line stroke="black" stroke-width="1" x1="282.2843050602443" x2="283.782731433908" y1="233.89381662084332" y2="230.18508120257619" /><line stroke="black" stroke-width="1" x1="283.782731433908" x2="281.545959820025" y1="230.18508120257619" y2="226.868930912356" /><line stroke="black" stroke-width="1" x1="281.545959820025" x2="283.04438619368864" y1="226.868930912356" y2="223.16019549408887" /><line stroke="black" stroke-width="1" x1="283.04438619368864" x2="286.95697659662386" y1="223.16019549408887" y2="222.32854873081783" /><line stroke="black" stroke-width="1" x1="286.95697659662386" x2="289.83433579797844" y1="222.32854873081783" y2="225.1071822126538" /><line stroke="black" stroke-width="1" x1="289.83433579797844" x2="293.74692620091366" y1="225.1071822126538" y2="224.27553544938277" /><line stroke="black" stroke-width="1" x1="293.74692620091366" x2="295.2453525745773" y1="224.27553544938277" y2="220.56680003111563" /><line stroke="black" stroke-width="1" x1="295.2453525745773" x2="293.0085809606943" y1="220.56680003111563" y2="217.25064974089545" /><line stroke="black" stroke-width="1" x1="293.0085809606943" x2="289.0085809606943" y1="217.25064974089545" y2="217.25064974089545" /><line stroke="black" stroke-width="1" x1="289.0085809606943" x2="286.7718093468113" y1="217.25064974089545" y2="213.93449945067528" /><line stroke="black" stroke-width="1" x1="286.7718093468113" x2="288.27023572047494" y1="213.93449945067528" y2="210.22576403240814" /><line stroke="black" stroke-width="1" x1="288.27023572047494" x2="286.03346410659196" y1="210.22576403240814" y2="206.90961374218796" /><line stroke="black" stroke-width="1" x1="286.03346410659196" x2="282.03346410659196" y1="206.90961374218796" y2="206.90961374218796" /><line stroke="black" stroke-width="1" x1="282.03346410659196" x2="279.796692492709" y1="206.90961374218796" y2="210.22576403240814" /><line stroke="black" stroke-width="1" x1="279.796692492709" x2="275.796692492709" y1="210.22576403240814" y2="210.22576403240814" /><line stroke="black" stroke-width="1" x1="275.796692492709" x2="273.559920878826" y1="210.22576403240814" y2="206.90961374218796" /><line stroke="black" stroke-width="1" x1="273.559920878826" x2="275.0583472524896" y1="206.90961374218796" y2="203.20087832392082" /><line stroke="black" stroke-width="1" x1="275.0583472524896" x2="278.97093765542485" y1="203.20087832392082" y2="202.36923156064978" /><line stroke="black" stroke-width="1" x1="278.97093765542485" x2="280.4693640290885" y1="202.36923156064978" y2="198.66049614238264" /><line stroke="black" stroke-width="1" x1="280.4693640290885" x2="278.23259241520554" y1="198.66049614238264" y2="195.34434585216246" /><line stroke="black" stroke-width="1" x1="278.23259241520554" x2="274.23259241520554" y1="195.34434585216246" y2="195.34434585216246" /><line stroke="black" stroke-width="1" x1="274.23259241520554" x2="271.99582080132257" y1="195.34434585216246" y2="192.02819556194228" /><line stroke="black" stroke-width="1" x1="271.99582080132257" x2="273.4942471749862" y1="192.02819556194228" y2="188.31946014367514" /><line stroke="black" stroke-width="1" x1="273.4942471749862" x2="271.2574755611032" y1="188.31946014367514" y2="185.00330985345497" /><line stroke="black" stroke-width="1" x1="271.2574755611032" x2="267.2574755611032" y1="185.00330985345497" y2="185.00330985345497" /><line stroke="black" stroke-width="1" x1="267.2574755611032" x2="265.0207039472202" y1="185.00330985345497" y2="188.31946014367514" /><line stroke="black" stroke-width="1" x1="265.0207039472202" x2="266.5191303208839" y1="188.31946014367514" y2="192.02819556194228" /><line stroke="black" stroke-width="1" x1="266.5191303208839" x2="264.2823587070009" y1="192.02819556194228" y2="195.34434585216246" /><line stroke="black" stroke-width="1" x1="264.2823587070009" x2="260.2823587070009" y1="195.34434585216246" y2="195.34434585216246" /><line stroke="black" stroke-width="1" x1="260.2823587070009" x2="258.04558709311794" y1="195.34434585216246" y2="198.66049614238264" /><line stroke="black" stroke-width="1" x1="258.04558709311794" x2="259.5440134667816" y1="198.66049614238264" y2="202.36923156064978" /><line stroke="black" stroke-width="1" x1="259.5440134667816" x2="263.45660386971684" y1="202.36923156064978" y2="203.20087832392082" /><line stroke="black" stroke-width="1" x1="263.45660386971684" x2="264.9550302433805" y1="203.20087832392082" y2="206.90961374218796" /><line stroke="black" stroke-width="1" x1="264.9550302433805" x2="262.71825862949754" y1="206.90961374218796" y2="210.22576403240814" /><line stroke="black" stroke-width="1" x1="262.71825862949754" x2="258.71825862949754" y1="210.22576403240814" y2="210.22576403240814" /><line stroke="black" stroke-width="1" x1="258.71825862949754" x2="256.48148701561456" y1="210.22576403240814" y2="206.90961374218796" /><line stroke="black" stroke-width="1" x1="256.48148701561456" x2="252.48148701561456" y1="206.90961374218796" y2="206.90961374218796" /><line stroke="black" stroke-width="1" x1="252.48148701561456" x2="250.24471540173158" y1="206.90961374218796" y2="210.22576403240814" /><line stroke="black" stroke-width="1" x1="250.24471540173158" x2="251.74314177539523" y1="210.22576403240814" y2="213.93449945067528" /><line stroke="black" stroke-width="1" x1="251.74314177539523" x2="249.50637016151225" y1="213.93449945067528" y2="217.25064974089545" /><line stroke="black" stroke-width="1" x1="249.50637016151225" x2="245.50637016151225" y1="217.25064974089545" y2="217.25064974089545" /><line stroke="black" stroke-width="1" x1="245.50637016151225" x2="243.26959854762927" y1="217.25064974089545" y2="220.56680003111563" /><line stroke="black" stroke-width="1" x1="243.26959854762927" x2="244.76802492129292" y1="220.56680003111563" y2="224.27553544938277" /><line stroke="black" stroke-width="1" x1="244.76802492129292" x2="248.68061532422814" y1="224.27553544938277" y2="225.1071822126538" /><line stroke="black" stroke-width="1" x1="248.68061532422814" x2="251.55797452558275" y1="225.1071822126538" y2="222.32854873081783" /><line stroke="black" stroke-width="1" x1="251.55797452558275" x2="255.47056492851797" y1="222.32854873081783" y2="223.16019549408887" /><line stroke="black" stroke-width="1" x1="255.47056492851797" x2="256.9689913021816" y1="223.16019549408887" y2="226.868930912356" /><line stroke="black" stroke-width="1" x1="256.9689913021816" x2="254.73221968829864" y1="226.868930912356" y2="230.18508120257619" /><line stroke="black" stroke-width="1" x1="254.73221968829864" x2="256.2306460619623" y1="230.18508120257619" y2="233.89381662084332" /><line stroke="black" stroke-width="1" x1="256.2306460619623" x2="260.14323646489754" y1="233.89381662084332" y2="234.72546338411436" /><line stroke="black" stroke-width="1" x1="260.14323646489754" x2="261.6416628385612" y1="234.72546338411436" y2="238.4341988023815" /><line stroke="black" stroke-width="1" x1="261.6416628385612" x2="259.40489122467824" y1="238.4341988023815" y2="241.75034909260168" /><line stroke="black" stroke-width="1" x1="259.40489122467824" x2="255.40489122467824" y1="241.75034909260168" y2="241.75034909260168" /><line stroke="black" stroke-width="1" x1="255.40489122467824" x2="253.16811961079526" y1="241.75034909260168" y2="238.4341988023815" /><line stroke="black" stroke-width="1" x1="253.16811961079526" x2="249.16811961079526" y1="238.4341988023815" y2="238.4341988023815" /><line stroke="black" stroke-width="1" x1="249.16811961079526" x2="246.93134799691228" y1="238.4341988023815" y2="241.75034909260168" /><line stroke="black" stroke-width="1" x1="246.93134799691228" x2="242.93134799691228" y1="241.75034909260168" y2="241.75034909260168" /><line stroke="black" stroke-width="1" x1="242.93134799691228" x2="240.6945763830293" y1="241.75034909260168" y2="238.4341988023815" /><line stroke="black" stroke-width="1" x1="240.6945763830293" x2="242.19300275669295" y1="238.4341988023815" y2="234.72546338411436" /><line stroke="black" stroke-width="1" x1="242.19300275669295" x2="239.95623114280997" y1="234.72546338411436" y2="231.40931309389418" /><line stroke="black" stroke-width="1" x1="239.95623114280997" x2="235.95623114280997" y1="231.40931309389418" y2="231.40931309389418" /><line stroke="black" stroke-width="1" x1="235.95623114280997" x2="233.719459528927" y1="231.40931309389418" y2="234.72546338411436" /><line stroke="black" stroke-width="1" x1="233.719459528927" x2="235.21788590259064" y1="234.72546338411436" y2="238.4341988023815" /><line stroke="black" stroke-width="1" x1="235.21788590259064" x2="232.98111428870766" y1="238.4341988023815" y2="241.75034909260168" /><line stroke="black" stroke-width="1" x1="232.98111428870766" x2="228.98111428870766" y1="241.75034909260168" y2="241.75034909260168" /><line stroke="black" stroke-width="1" x1="228.98111428870766" x2="226.74434267482468" y1="241.75034909260168" y2="245.06649938282186" /><line stroke="black" stroke-width="1" x1="226.74434267482468" x2="228.24276904848833" y1="245.06649938282186" y2="248.775234801089" /><line stroke="black" stroke-width="1" x1="228.24276904848833" x2="232.15535945142355" y1="248.775234801089" y2="249.60688156436004" /><line stroke="black" stroke-width="1" x1="232.15535945142355" x2="233.6537858250872" y1="249.60688156436004" y2="253.31561698262718" /><line stroke="black" stroke-width="1" x1="233.6537858250872" x2="231.41701421120422" y1="253.31561698262718" y2="256.63176727284736" /><line stroke="black" stroke-width="1" x1="231.41701421120422" x2="227.41701421120422" y1="256.63176727284736" y2="256.63176727284736" /><line stroke="black" stroke-width="1" x1="227.41701421120422" x2="225.18024259732124" y1="256.63176727284736" y2="253.31561698262718" /><line stroke="black" stroke-width="1" x1="225.18024259732124" x2="221.18024259732124" y1="253.31561698262718" y2="253.31561698262718" /><line stroke="black" stroke-width="1" x1="221.18024259732124" x2="218.94347098343826" y1="253.31561698262718" y2="256.63176727284736" /><line stroke="black" stroke-width="1" x1="218.94347098343826" x2="220.4418973571019" y1="256.63176727284736" y2="260.3405026911145" /><line stroke="black" stroke-width="1" x1="220.4418973571019" x2="218.20512574321893" y1="260.3405026911145" y2="263.6566529813347" /><line stroke="black" stroke-width="1" x1="218.20512574321893" x2="214.20512574321893" y1="263.6566529813347" y2="263.6566529813347" /><line stroke="black" stroke-width="1" x1="214.20512574321893" x2="211.96835412933595" y1="263.6566529813347" y2="266.9728032715548" /><line stroke="black" stroke-width="1" x1="211.96835412933595" x2="213.4667805029996" y1="266.9728032715548" y2="270.681538689822" /><line stroke="black" stroke-width="1" x1="213.4667805029996" x2="217.37937090593482" y1="270.681538689822" y2="271.513185453093" /><line stroke="black" stroke-width="1" x1="217.37937090593482" x2="220.25673010728943" y1="271.513185453093" y2="268.734551971257" /><line stroke="black" stroke-width="1" x1="220.25673010728943" x2="224.16932051022465" y1="268.734551971257" y2="269.56619873452803" /><line stroke="black" stroke-width="1" x1="224.16932051022465" x2="225.6677468838883" y1="269.56619873452803" y2="273.2749341527952" /><line stroke="black" stroke-width="1" x1="225.6677468838883" x2="229.58033728682352" y1="273.2749341527952" y2="274.1065809160662" /><line stroke="black" stroke-width="1" x1="229.58033728682352" x2="232.45769648817813" y1="274.1065809160662" y2="271.3279474342302" /><line stroke="black" stroke-width="1" x1="232.45769648817813" x2="231.7631037775104" y1="271.3279474342302" y2="267.3887164221814" /><line stroke="black" stroke-width="1" x1="231.7631037775104" x2="234.640462978865" y1="267.3887164221814" y2="264.6100829403454" /><line stroke="black" stroke-width="1" x1="234.640462978865" x2="238.55305338180023" y1="264.6100829403454" y2="265.44172970361643" /><line stroke="black" stroke-width="1" x1="238.55305338180023" x2="240.05147975546387" y1="265.44172970361643" y2="269.1504651218836" /><line stroke="black" stroke-width="1" x1="240.05147975546387" x2="237.8147081415809" y1="269.1504651218836" y2="272.46661541210375" /><line stroke="black" stroke-width="1" x1="237.8147081415809" x2="239.31313451524454" y1="272.46661541210375" y2="276.1753508303709" /><line stroke="black" stroke-width="1" x1="239.31313451524454" x2="243.22572491817976" y1="276.1753508303709" y2="277.0069975936419" /><line stroke="black" stroke-width="1" x1="243.22572491817976" x2="244.7241512918434" y1="277.0069975936419" y2="280.7157330119091" /><line stroke="black" stroke-width="1" x1="244.7241512918434" x2="242.48737967796043" y1="280.7157330119091" y2="284.03188330212924" /><line stroke="black" stroke-width="1" x1="242.48737967796043" x2="238.48737967796043" y1="284.03188330212924" y2="284.03188330212924" /><line stroke="black" stroke-width="1" x1="238.48737967796043" x2="236.25060806407745" y1="284.03188330212924" y2="287.3480335923494" /><line stroke="black" stroke-width="1" x1="236.25060806407745" x2="237.7490344377411" y1="287.3480335923494" y2="291.05676901061656" /><line stroke="black" stroke-width="1" x1="237.7490344377411" x2="241.66162484067632" y1="291.05676901061656" y2="291.8884157738876" /><line stroke="black" stroke-width="1" x1="241.66162484067632" x2="244.53898404203093" y1="291.8884157738876" y2="289.1097822920516" /><line stroke="black" stroke-width="1" x1="244.53898404203093" x2="248.45157444496616" y1="289.1097822920516" y2="289.9414290553226" /><line stroke="black" stroke-width="1" x1="248.45157444496616" x2="249.9500008186298" y1="289.9414290553226" y2="293.65016447358977" /><line stroke="black" stroke-width="1" x1="249.9500008186298" x2="247.71322920474682" y1="293.65016447358977" y2="296.9663147638099" /><line stroke="black" stroke-width="1" x1="247.71322920474682" x2="249.21165557841047" y1="296.9663147638099" y2="300.6750501820771" /><line stroke="black" stroke-width="1" x1="249.21165557841047" x2="253.1242459813457" y1="300.6750501820771" y2="301.5066969453481" /><line stroke="black" stroke-width="1" x1="253.1242459813457" x2="254.62267235500934" y1="301.5066969453481" y2="305.21543236361526" /><line stroke="black" stroke-width="1" x1="254.62267235500934" x2="252.38590074112636" y1="305.21543236361526" y2="308.5315826538354" /><line stroke="black" stroke-width="1" x1="252.38590074112636" x2="248.38590074112636" y1="308.5315826538354" y2="308.5315826538354" /><line stroke="black" stroke-width="1" x1="248.38590074112636" x2="246.14912912724338" y1="308.5315826538354" y2="305.21543236361526" /><line stroke="black" stroke-width="1" x1="246.14912912724338" x2="242.14912912724338" y1="305.21543236361526" y2="305.21543236361526" /><line stroke="black" stroke-width="1" x1="242.14912912724338" x2="239.9123575133604" y1="305.21543236361526" y2="308.5315826538354" /><line stroke="black" stroke-width="1" x1="239.9123575133604" x2="235.9123575133604" y1="308.5315826538354" y2="308.5315826538354" /><line stroke="black" stroke-width="1" x1="235.9123575133604" x2="233.67558589947743" y1="308.5315826538354" y2="305.21543236361526" /><line stroke="black" stroke-width="1" x1="233.67558589947743" x2="235.17401227314107" y1="305.21543236361526" y2="301.5066969453481" /><line stroke="black" stroke-width="1" x1="235.17401227314107" x2="232.9372406592581" y1="301.5066969453481" y2="298.19054665512795" /><line stroke="black" stroke-width="1" x1="232.9372406592581" x2="228.9372406592581" y1="298.19054665512795" y2="298.19054665512795" /><line stroke="black" stroke-width="1" x1="228.9372406592581" x2="226.70046904537512" y1="298.19054665512795" y2="301.5066969453481" /><line stroke="black" stroke-width="1" x1="226.70046904537512" x2="228.19889541903876" y1="301.5066969453481" y2="305.21543236361526" /><line stroke="black" stroke-width="1" x1="228.19889541903876" x2="225.96212380515578" y1="305.21543236361526" y2="308.5315826538354" /><line stroke="black" stroke-width="1" x1="225.96212380515578" x2="221.96212380515578" y1="308.5315826538354" y2="308.5315826538354" /><line stroke="black" stroke-width="1" x1="221.96212380515578" x2="219.7253521912728" y1="308.5315826538354" y2="305.21543236361526" /><line stroke="black" stroke-width="1" x1="219.7253521912728" x2="215.7253521912728" y1="305.21543236361526" y2="305.21543236361526" /><line stroke="black" stroke-width="1" x1="215.7253521912728" x2="213.48858057738983" y1="305.21543236361526" y2="308.5315826538354" /><line stroke="black" stroke-width="1" x1="213.48858057738983" x2="209.48858057738983" y1="308.5315826538354" y2="308.5315826538354" /><line stroke="black" stroke-width="1" x1="209.48858057738983" x2="207.25180896350685" y1="308.5315826538354" y2="305.21543236361526" /><line stroke="black" stroke-width="1" x1="207.25180896350685" x2="208.7502353371705" y1="305.21543236361526" y2="301.5066969453481" /><line stroke="black" stroke-width="1" x1="208.7502353371705" x2="212.66282574010572" y1="301.5066969453481" y2="300.67505018207703" /><line stroke="black" stroke-width="1" x1="212.66282574010572" x2="214.16125211376936" y1="300.67505018207703" y2="296.96631476380986" /><line stroke="black" stroke-width="1" x1="214.16125211376936" x2="211.92448049988639" y1="296.96631476380986" y2="293.6501644735897" /><line stroke="black" stroke-width="1" x1="211.92448049988639" x2="207.92448049988639" y1="293.6501644735897" y2="293.6501644735897" /><line stroke="black" stroke-width="1" x1="207.92448049988639" x2="205.6877088860034" y1="293.6501644735897" y2="290.33401418336956" /><line stroke="black" stroke-width="1" x1="205.6877088860034" x2="207.18613525966705" y1="290.33401418336956" y2="286.6252787651024" /><line stroke="black" stroke-width="1" x1="207.18613525966705" x2="204.94936364578408" y1="286.6252787651024" y2="283.30912847488224" /><line stroke="black" stroke-width="1" x1="204.94936364578408" x2="200.94936364578408" y1="283.30912847488224" y2="283.30912847488224" /><line stroke="black" stroke-width="1" x1="200.94936364578408" x2="198.7125920319011" y1="283.30912847488224" y2="286.6252787651024" /><line stroke="black" stroke-width="1" x1="198.7125920319011" x2="200.21101840556474" y1="286.6252787651024" y2="290.33401418336956" /><line stroke="black" stroke-width="1" x1="200.21101840556474" x2="197.97424679168176" y1="290.33401418336956" y2="293.6501644735897" /><line stroke="black" stroke-width="1" x1="197.97424679168176" x2="193.97424679168176" y1="293.6501644735897" y2="293.6501644735897" /><line stroke="black" stroke-width="1" x1="193.97424679168176" x2="191.73747517779879" y1="293.6501644735897" y2="296.96631476380986" /><line stroke="black" stroke-width="1" x1="191.73747517779879" x2="193.23590155146243" y1="296.96631476380986" y2="300.67505018207703" /><line stroke="black" stroke-width="1" x1="193.23590155146243" x2="197.14849195439766" y1="300.67505018207703" y2="301.50669694534804" /><line stroke="black" stroke-width="1" x1="197.14849195439766" x2="198.6469183280613" y1="301.50669694534804" y2="305.2154323636152" /><line stroke="black" stroke-width="1" x1="198.6469183280613" x2="196.41014671417832" y1="305.2154323636152" y2="308.53158265383536" /><line stroke="black" stroke-width="1" x1="196.41014671417832" x2="192.41014671417832" y1="308.53158265383536" y2="308.53158265383536" /><line stroke="black" stroke-width="1" x1="192.41014671417832" x2="190.17337510029535" y1="308.53158265383536" y2="305.2154323636152" /><line stroke="black" stroke-width="1" x1="190.17337510029535" x2="186.17337510029535" y1="305.2154323636152" y2="305.2154323636152" /><line stroke="black" stroke-width="1" x1="186.17337510029535" x2="183.93660348641237" y1="305.2154323636152" y2="308.53158265383536" /><line stroke="black" stroke-width="1" x1="183.93660348641237" x2="185.435029860076" y1="308.53158265383536" y2="312.2403180721025" /><line stroke="black" stroke-width="1" x1="185.435029860076" x2="183.19825824619303" y1="312.2403180721025" y2="315.5564683623227" /><line stroke="black" stroke-width="1" x1="183.19825824619303" x2="179.19825824619303" y1="315.5564683623227" y2="315.5564683623227" /><line stroke="black" stroke-width="1" x1="179.19825824619303" x2="176.96148663231006" y1="315.5564683623227" y2="318.8726186525428" /><line stroke="black" stroke-width="1" x1="176.96148663231006" x2="178.4599130059737" y1="318.8726186525428" y2="322.58135407081" /><line stroke="black" stroke-width="1" x1="178.4599130059737" x2="182.37250340890893" y1="322.58135407081" y2="323.413000834081" /><line stroke="black" stroke-width="1" x1="182.37250340890893" x2="185.24986261026353" y1="323.413000834081" y2="320.634367352245" /><line stroke="black" stroke-width="1" x1="185.24986261026353" x2="189.16245301319876" y1="320.634367352245" y2="321.46601411551603" /><line stroke="black" stroke-width="1" x1="189.16245301319876" x2="190.6608793868624" y1="321.46601411551603" y2="325.1747495337832" /><line stroke="black" stroke-width="1" x1="190.6608793868624" x2="188.42410777297943" y1="325.1747495337832" y2="328.49089982400335" /><line stroke="black" stroke-width="1" x1="188.42410777297943" x2="189.92253414664307" y1="328.49089982400335" y2="332.1996352422705" /><line stroke="black" stroke-width="1" x1="189.92253414664307" x2="193.8351245495783" y1="332.1996352422705" y2="333.0312820055415" /><line stroke="black" stroke-width="1" x1="193.8351245495783" x2="195.33355092324194" y1="333.0312820055415" y2="336.7400174238087" /><line stroke="black" stroke-width="1" x1="195.33355092324194" x2="193.09677930935896" y1="336.7400174238087" y2="340.05616771402885" /><line stroke="black" stroke-width="1" x1="193.09677930935896" x2="189.09677930935896" y1="340.05616771402885" y2="340.05616771402885" /><line stroke="black" stroke-width="1" x1="189.09677930935896" x2="186.86000769547599" y1="340.05616771402885" y2="336.7400174238087" /><line stroke="black" stroke-width="1" x1="186.86000769547599" x2="182.86000769547599" y1="336.7400174238087" y2="336.7400174238087" /><line stroke="black" stroke-width="1" x1="182.86000769547599" x2="180.623236081593" y1="336.7400174238087" y2="340.05616771402885" /><line stroke="black" stroke-width="1" x1="180.623236081593" x2="176.623236081593" y1="340.05616771402885" y2="340.05616771402885" /><line stroke="black" stroke-width="1" x1="176.623236081593" x2="174.38646446771003" y1="340.05616771402885" y2="336.7400174238087" /><line stroke="black" stroke-width="1" x1="174.38646446771003" x2="175.88489084137368" y1="336.7400174238087" y2="333.0312820055415" /><line stroke="black" stroke-width="1" x1="175.88489084137368" x2="173.6481192274907" y1="333.0312820055415" y2="329.7151317153214" /><line stroke="black" stroke-width="1" x1="173.6481192274907" x2="169.6481192274907" y1="329.7151317153214" y2="329.7151317153214" /><line stroke="black" stroke-width="1" x1="169.6481192274907" x2="167.41134761360772" y1="329.7151317153214" y2="333.0312820055415" /><line stroke="black" stroke-width="1" x1="167.41134761360772" x2="168.90977398727136" y1="333.0312820055415" y2="336.7400174238087" /><line stroke="black" stroke-width="1" x1="168.90977398727136" x2="166.67300237338839" y1="336.7400174238087" y2="340.05616771402885" /><line stroke="black" stroke-width="1" x1="166.67300237338839" x2="162.67300237338839" y1="340.05616771402885" y2="340.05616771402885" /><line stroke="black" stroke-width="1" x1="162.67300237338839" x2="160.4362307595054" y1="340.05616771402885" y2="343.372318004249" /><line stroke="black" stroke-width="1" x1="160.4362307595054" x2="161.93465713316905" y1="343.372318004249" y2="347.08105342251616" /><line stroke="black" stroke-width="1" x1="161.93465713316905" x2="165.84724753610428" y1="347.08105342251616" y2="347.9127001857872" /><line stroke="black" stroke-width="1" x1="165.84724753610428" x2="167.34567390976792" y1="347.9127001857872" y2="351.62143560405434" /><line stroke="black" stroke-width="1" x1="167.34567390976792" x2="165.10890229588495" y1="351.62143560405434" y2="354.9375858942745" /><line stroke="black" stroke-width="1" x1="165.10890229588495" x2="161.10890229588495" y1="354.9375858942745" y2="354.9375858942745" /><line stroke="black" stroke-width="1" x1="161.10890229588495" x2="158.87213068200197" y1="354.9375858942745" y2="351.62143560405434" /><line stroke="black" stroke-width="1" x1="158.87213068200197" x2="154.87213068200197" y1="351.62143560405434" y2="351.62143560405434" /><line stroke="black" stroke-width="1" x1="154.87213068200197" x2="152.635359068119" y1="351.62143560405434" y2="354.9375858942745" /><line stroke="black" stroke-width="1" x1="152.635359068119" x2="154.13378544178263" y1="354.9375858942745" y2="358.64632131254166" /><line stroke="black" stroke-width="1" x1="154.13378544178263" x2="151.89701382789966" y1="358.64632131254166" y2="361.9624716027618" /><line stroke="black" stroke-width="1" x1="151.89701382789966" x2="147.89701382789966" y1="361.9624716027618" y2="361.9624716027618" /><line stroke="black" stroke-width="1" x1="147.89701382789966" x2="145.66024221401668" y1="361.9624716027618" y2="365.27862189298196" /><line stroke="black" stroke-width="1" x1="145.66024221401668" x2="147.15866858768032" y1="365.27862189298196" y2="368.9873573112491" /><line stroke="black" stroke-width="1" x1="147.15866858768032" x2="151.07125899061555" y1="368.9873573112491" y2="369.81900407452014" /><line stroke="black" stroke-width="1" x1="151.07125899061555" x2="153.94861819197016" y1="369.81900407452014" y2="367.04037059268416" /><line stroke="black" stroke-width="1" x1="153.94861819197016" x2="157.86120859490538" y1="367.04037059268416" y2="367.87201735595517" /><line stroke="black" stroke-width="1" x1="157.86120859490538" x2="159.35963496856903" y1="367.87201735595517" y2="371.58075277422233" /><line stroke="black" stroke-width="1" x1="159.35963496856903" x2="163.27222537150425" y1="371.58075277422233" y2="372.41239953749334" /><line stroke="black" stroke-width="1" x1="163.27222537150425" x2="166.14958457285886" y1="372.41239953749334" y2="369.63376605565736" /><line stroke="black" stroke-width="1" x1="166.14958457285886" x2="165.45499186219112" y1="369.63376605565736" y2="365.69453504360854" /><line stroke="black" stroke-width="1" x1="165.45499186219112" x2="168.33235106354573" y1="365.69453504360854" y2="362.91590156177256" /><line stroke="black" stroke-width="1" x1="168.33235106354573" x2="172.24494146648095" y1="362.91590156177256" y2="363.74754832504357" /><line stroke="black" stroke-width="1" x1="172.24494146648095" x2="173.7433678401446" y1="363.74754832504357" y2="367.45628374331073" /><line stroke="black" stroke-width="1" x1="173.7433678401446" x2="171.50659622626162" y1="367.45628374331073" y2="370.7724340335309" /><line stroke="black" stroke-width="1" x1="171.50659622626162" x2="173.00502259992527" y1="370.7724340335309" y2="374.48116945179805" /><line stroke="black" stroke-width="1" x1="173.00502259992527" x2="176.9176130028605" y1="374.48116945179805" y2="375.31281621506906" /><line stroke="black" stroke-width="1" x1="176.9176130028605" x2="179.7949722042151" y1="375.31281621506906" y2="372.5341827332331" /><line stroke="black" stroke-width="1" x1="179.7949722042151" x2="183.70756260715032" y1="372.5341827332331" y2="373.3658294965041" /><line stroke="black" stroke-width="1" x1="183.70756260715032" x2="185.20598898081397" y1="373.3658294965041" y2="377.07456491477126" /><line stroke="black" stroke-width="1" x1="185.20598898081397" x2="189.1185793837492" y1="377.07456491477126" y2="377.90621167804227" /><line stroke="black" stroke-width="1" x1="189.1185793837492" x2="191.9959385851038" y1="377.90621167804227" y2="375.1275781962063" /><line stroke="black" stroke-width="1" x1="191.9959385851038" x2="191.30134587443607" y1="375.1275781962063" y2="371.18834718415746" /><line stroke="black" stroke-width="1" x1="191.30134587443607" x2="187.64716404386567" y1="371.18834718415746" y2="369.56140061185425" /><line stroke="black" stroke-width="1" x1="187.64716404386567" x2="186.95257133319794" y1="369.56140061185425" y2="365.62216959980543" /><line stroke="black" stroke-width="1" x1="186.95257133319794" x2="189.82993053455255" y1="365.62216959980543" y2="362.84353611796945" /><line stroke="black" stroke-width="1" x1="189.82993053455255" x2="193.74252093748777" y1="362.84353611796945" y2="363.67518288124046" /><line stroke="black" stroke-width="1" x1="193.74252093748777" x2="196.61988013884238" y1="363.67518288124046" y2="360.8965493994045" /><line stroke="black" stroke-width="1" x1="196.61988013884238" x2="195.92528742817464" y1="360.8965493994045" y2="356.95731838735566" /><line stroke="black" stroke-width="1" x1="195.92528742817464" x2="198.80264662952925" y1="356.95731838735566" y2="354.1786849055197" /><line stroke="black" stroke-width="1" x1="198.80264662952925" x2="202.71523703246447" y1="354.1786849055197" y2="355.0103316687907" /><line stroke="black" stroke-width="1" x1="202.71523703246447" x2="204.21366340612812" y1="355.0103316687907" y2="358.71906708705785" /><line stroke="black" stroke-width="1" x1="204.21366340612812" x2="201.97689179224514" y1="358.71906708705785" y2="362.035217377278" /><line stroke="black" stroke-width="1" x1="201.97689179224514" x2="203.4753181659088" y1="362.035217377278" y2="365.74395279554517" /><line stroke="black" stroke-width="1" x1="203.4753181659088" x2="207.387908568844" y1="365.74395279554517" y2="366.5755995588162" /><line stroke="black" stroke-width="1" x1="207.387908568844" x2="208.88633494250766" y1="366.5755995588162" y2="370.28433497708335" /><line stroke="black" stroke-width="1" x1="208.88633494250766" x2="206.64956332862468" y1="370.28433497708335" y2="373.6004852673035" /><line stroke="black" stroke-width="1" x1="206.64956332862468" x2="202.64956332862468" y1="373.6004852673035" y2="373.6004852673035" /><line stroke="black" stroke-width="1" x1="202.64956332862468" x2="200.4127917147417" y1="373.6004852673035" y2="376.91663555752365" /><line stroke="black" stroke-width="1" x1="200.4127917147417" x2="201.91121808840535" y1="376.91663555752365" y2="380.6253709757908" /><line stroke="black" stroke-width="1" x1="201.91121808840535" x2="205.82380849134057" y1="380.6253709757908" y2="381.4570177390618" /><line stroke="black" stroke-width="1" x1="205.82380849134057" x2="208.70116769269518" y1="381.4570177390618" y2="378.67838425722584" /><line stroke="black" stroke-width="1" x1="208.70116769269518" x2="212.6137580956304" y1="378.67838425722584" y2="379.51003102049685" /><line stroke="black" stroke-width="1" x1="212.6137580956304" x2="214.11218446929405" y1="379.51003102049685" y2="383.218766438764" /><line stroke="black" stroke-width="1" x1="214.11218446929405" x2="211.87541285541107" y1="383.218766438764" y2="386.5349167289842" /><line stroke="black" stroke-width="1" x1="211.87541285541107" x2="213.37383922907472" y1="386.5349167289842" y2="390.24365214725134" /><line stroke="black" stroke-width="1" x1="213.37383922907472" x2="217.28642963200994" y1="390.24365214725134" y2="391.07529891052235" /><line stroke="black" stroke-width="1" x1="217.28642963200994" x2="218.7848560056736" y1="391.07529891052235" y2="394.7840343287895" /><line stroke="black" stroke-width="1" x1="218.7848560056736" x2="216.5480843917906" y1="394.7840343287895" y2="398.10018461900967" /><line stroke="black" stroke-width="1" x1="216.5480843917906" x2="212.5480843917906" y1="398.10018461900967" y2="398.10018461900967" /><line stroke="black" stroke-width="1" x1="212.5480843917906" x2="210.31131277790763" y1="398.10018461900967" y2="394.7840343287895" /><line stroke="black" stroke-width="1" x1="210.31131277790763" x2="206.31131277790763" y1="394.7840343287895" y2="394.7840343287895" /><line stroke="black" stroke-width="1" x1="206.31131277790763" x2="204.07454116402465" y1="394.7840343287895" y2="398.10018461900967" /><line stroke="black" stroke-width="1" x1="204.07454116402465" x2="205.5729675376883" y1="398.10018461900967" y2="401.80892003727683" /><line stroke="black" stroke-width="1" x1="205.5729675376883" x2="203.33619592380532" y1="401.80892003727683" y2="405.125070327497" /><line stroke="black" stroke-width="1" x1="203.33619592380532" x2="199.33619592380532" y1="405.125070327497" y2="405.125070327497" /><line stroke="black" stroke-width="1" x1="199.33619592380532" x2="197.09942430992234" y1="405.125070327497" y2="408.44122061771714" /><line stroke="black" stroke-width="1" x1="197.09942430992234" x2="198.597850683586" y1="408.44122061771714" y2="412.1499560359843" /><line stroke="black" stroke-width="1" x1="198.597850683586" x2="202.5104410865212" y1="412.1499560359843" y2="412.9816027992553" /><line stroke="black" stroke-width="1" x1="202.5104410865212" x2="205.38780028787582" y1="412.9816027992553" y2="410.20296931741933" /><line stroke="black" stroke-width="1" x1="205.38780028787582" x2="209.30039069081104" y1="410.20296931741933" y2="411.03461608069034" /><line stroke="black" stroke-width="1" x1="209.30039069081104" x2="210.7988170644747" y1="411.03461608069034" y2="414.7433514989575" /><line stroke="black" stroke-width="1" x1="210.7988170644747" x2="214.7114074674099" y1="414.7433514989575" y2="415.5749982622285" /><line stroke="black" stroke-width="1" x1="214.7114074674099" x2="217.58876666876452" y1="415.5749982622285" y2="412.79636478039254" /><line stroke="black" stroke-width="1" x1="217.58876666876452" x2="216.8941739580968" y1="412.79636478039254" y2="408.8571337683437" /><line stroke="black" stroke-width="1" x1="216.8941739580968" x2="219.7715331594514" y1="408.8571337683437" y2="406.07850028650773" /><line stroke="black" stroke-width="1" x1="219.7715331594514" x2="223.68412356238662" y1="406.07850028650773" y2="406.91014704977874" /><line stroke="black" stroke-width="1" x1="223.68412356238662" x2="225.18254993605026" y1="406.91014704977874" y2="410.6188824680459" /><line stroke="black" stroke-width="1" x1="225.18254993605026" x2="222.94577832216729" y1="410.6188824680459" y2="413.93503275826606" /><line stroke="black" stroke-width="1" x1="222.94577832216729" x2="224.44420469583093" y1="413.93503275826606" y2="417.64376817653323" /><line stroke="black" stroke-width="1" x1="224.44420469583093" x2="228.35679509876616" y1="417.64376817653323" y2="418.47541493980424" /><line stroke="black" stroke-width="1" x1="228.35679509876616" x2="229.8552214724298" y1="418.47541493980424" y2="422.1841503580714" /><line stroke="black" stroke-width="1" x1="229.8552214724298" x2="227.61844985854682" y1="422.1841503580714" y2="425.50030064829156" /><line stroke="black" stroke-width="1" x1="227.61844985854682" x2="223.61844985854682" y1="425.50030064829156" y2="425.50030064829156" /><line stroke="black" stroke-width="1" x1="223.61844985854682" x2="221.38167824466385" y1="425.50030064829156" y2="428.8164509385117" /><line stroke="black" stroke-width="1" x1="221.38167824466385" x2="222.8801046183275" y1="428.8164509385117" y2="432.5251863567789" /><line stroke="black" stroke-width="1" x1="222.8801046183275" x2="226.79269502126272" y1="432.5251863567789" y2="433.3568331200499" /><line stroke="black" stroke-width="1" x1="226.79269502126272" x2="229.67005422261732" y1="433.3568331200499" y2="430.5781996382139" /><line stroke="black" stroke-width="1" x1="229.67005422261732" x2="233.58264462555255" y1="430.5781996382139" y2="431.4098464014849" /><line stroke="black" stroke-width="1" x1="233.58264462555255" x2="235.0810709992162" y1="431.4098464014849" y2="435.1185818197521" /><line stroke="black" stroke-width="1" x1="235.0810709992162" x2="232.84429938533322" y1="435.1185818197521" y2="438.43473210997223" /><line stroke="black" stroke-width="1" x1="232.84429938533322" x2="234.34272575899686" y1="438.43473210997223" y2="442.1434675282394" /><line stroke="black" stroke-width="1" x1="234.34272575899686" x2="238.2553161619321" y1="442.1434675282394" y2="442.9751142915104" /><line stroke="black" stroke-width="1" x1="238.2553161619321" x2="239.75374253559573" y1="442.9751142915104" y2="446.6838497097776" /><line stroke="black" stroke-width="1" x1="239.75374253559573" x2="237.51697092171275" y1="446.6838497097776" y2="449.9999999999977" /><line stroke="black" stroke-width="1" x1="237.51697092171275" x2="233.51697092171275" y1="449.9999999999977" y2="449.9999999999977" /><line stroke="black" stroke-width="1" x1="233.51697092171275" x2="231.28019930782978" y1="449.9999999999977" y2="446.6838497097776" /><line stroke="black" stroke-width="1" x1="231.28019930782978" x2="227.28019930782978" y1="446.6838497097776" y2="446.6838497097776" /><line stroke="black" stroke-width="1" x1="227.28019930782978" x2="225.0434276939468" y1="446.6838497097776" y2="449.9999999999977" /><line stroke="black" stroke-width="1" x1="225.0434276939468" x2="221.0434276939468" y1="449.9999999999977" y2="449.9999999999977" /><line stroke="black" stroke-width="1" x1="221.0434276939468" x2="218.80665608006382" y1="449.9999999999977" y2="446.6838497097776" /><line stroke="black" stroke-width="1" x1="218.80665608006382" x2="220.30508245372747" y1="446.6838497097776" y2="442.9751142915104" /><line stroke="black" stroke-width="1" x1="220.30508245372747" x2="218.0683108398445" y1="442.9751142915104" y2="439.65896400129026" /><line stroke="black" stroke-width="1" x1="218.0683108398445" x2="214.0683108398445" y1="439.65896400129026" y2="439.65896400129026" /><line stroke="black" stroke-width="1" x1="214.0683108398445" x2="211.8315392259615" y1="439.65896400129026" y2="442.9751142915104" /><line stroke="black" stroke-width="1" x1="211.8315392259615" x2="213.32996559962515" y1="442.9751142915104" y2="446.6838497097776" /><line stroke="black" stroke-width="1" x1="213.32996559962515" x2="211.09319398574218" y1="446.6838497097776" y2="449.9999999999977" /><line stroke="black" stroke-width="1" x1="211.09319398574218" x2="207.09319398574218" y1="449.9999999999977" y2="449.9999999999977" /><line stroke="black" stroke-width="1" x1="207.09319398574218" x2="204.8564223718592" y1="449.9999999999977" y2="446.6838497097776" /><line stroke="black" stroke-width="1" x1="204.8564223718592" x2="200.8564223718592" y1="446.6838497097776" y2="446.6838497097776" /><line stroke="black" stroke-width="1" x1="200.8564223718592" x2="198.61965075797622" y1="446.6838497097776" y2="449.9999999999977" /><line stroke="black" stroke-width="1" x1="198.61965075797622" x2="194.61965075797622" y1="449.9999999999977" y2="449.9999999999977" /><line stroke="black" stroke-width="1" x1="194.61965075797622" x2="192.38287914409324" y1="449.9999999999977" y2="446.6838497097776" /><line stroke="black" stroke-width="1" x1="192.38287914409324" x2="193.88130551775689" y1="446.6838497097776" y2="442.9751142915104" /><line stroke="black" stroke-width="1" x1="193.88130551775689" x2="197.7938959206921" y1="442.9751142915104" y2="442.14346752823934" /><line stroke="black" stroke-width="1" x1="197.7938959206921" x2="199.29232229435576" y1="442.14346752823934" y2="438.4347321099722" /><line stroke="black" stroke-width="1" x1="199.29232229435576" x2="197.05555068047278" y1="438.4347321099722" y2="435.118581819752" /><line stroke="black" stroke-width="1" x1="197.05555068047278" x2="193.05555068047278" y1="435.118581819752" y2="435.118581819752" /><line stroke="black" stroke-width="1" x1="193.05555068047278" x2="190.8187790665898" y1="435.118581819752" y2="431.8024315295319" /><line stroke="black" stroke-width="1" x1="190.8187790665898" x2="192.31720544025345" y1="431.8024315295319" y2="428.0936961112647" /><line stroke="black" stroke-width="1" x1="192.31720544025345" x2="190.08043382637047" y1="428.0936961112647" y2="424.77754582104455" /><line stroke="black" stroke-width="1" x1="190.08043382637047" x2="186.08043382637047" y1="424.77754582104455" y2="424.77754582104455" /><line stroke="black" stroke-width="1" x1="186.08043382637047" x2="183.8436622124875" y1="424.77754582104455" y2="428.0936961112647" /><line stroke="black" stroke-width="1" x1="183.8436622124875" x2="185.34208858615114" y1="428.0936961112647" y2="431.8024315295319" /><line stroke="black" stroke-width="1" x1="185.34208858615114" x2="183.10531697226816" y1="431.8024315295319" y2="435.118581819752" /><line stroke="black" stroke-width="1" x1="183.10531697226816" x2="179.10531697226816" y1="435.118581819752" y2="435.118581819752" /><line stroke="black" stroke-width="1" x1="179.10531697226816" x2="176.86854535838518" y1="435.118581819752" y2="438.4347321099722" /><line stroke="black" stroke-width="1" x1="176.86854535838518" x2="178.36697173204882" y1="438.4347321099722" y2="442.14346752823934" /><line stroke="black" stroke-width="1" x1="178.36697173204882" x2="182.27956213498405" y1="442.14346752823934" y2="442.97511429151035" /><line stroke="black" stroke-width="1" x1="182.27956213498405" x2="183.7779885086477" y1="442.97511429151035" y2="446.6838497097775" /><line stroke="black" stroke-width="1" x1="183.7779885086477" x2="181.54121689476472" y1="446.6838497097775" y2="449.99999999999767" /><line stroke="black" stroke-width="1" x1="181.54121689476472" x2="177.54121689476472" y1="449.99999999999767" y2="449.99999999999767" /><line stroke="black" stroke-width="1" x1="177.54121689476472" x2="175.30444528088174" y1="449.99999999999767" y2="446.6838497097775" /><line stroke="black" stroke-width="1" x1="175.30444528088174" x2="171.30444528088174" y1="446.6838497097775" y2="446.6838497097775" /><line stroke="black" stroke-width="1" x1="171.30444528088174" x2="169.06767366699876" y1="446.6838497097775" y2="449.99999999999767" /><line stroke="black" stroke-width="1" x1="169.06767366699876" x2="165.06767366699876" y1="449.99999999999767" y2="449.99999999999767" /><line stroke="black" stroke-width="1" x1="165.06767366699876" x2="162.83090205311578" y1="449.99999999999767" y2="446.6838497097775" /><line stroke="black" stroke-width="1" x1="162.83090205311578" x2="164.32932842677943" y1="446.6838497097775" y2="442.97511429151035" /><line stroke="black" stroke-width="1" x1="164.32932842677943" x2="162.09255681289645" y1="442.97511429151035" y2="439.6589640012902" /><line stroke="black" stroke-width="1" x1="162.09255681289645" x2="158.09255681289645" y1="439.6589640012902" y2="439.6589640012902" /><line stroke="black" stroke-width="1" x1="158.09255681289645" x2="155.85578519901347" y1="439.6589640012902" y2="442.97511429151035" /><line stroke="black" stroke-width="1" x1="155.85578519901347" x2="157.35421157267712" y1="442.97511429151035" y2="446.6838497097775" /><line stroke="black" stroke-width="1" x1="157.35421157267712" x2="155.11743995879414" y1="446.6838497097775" y2="449.99999999999767" /><line stroke="black" stroke-width="1" x1="155.11743995879414" x2="151.11743995879414" y1="449.99999999999767" y2="449.99999999999767" /><line stroke="black" stroke-width="1" x1="151.11743995879414" x2="148.88066834491116" y1="449.99999999999767" y2="446.6838497097775" /><line stroke="black" stroke-width="1" x1="148.88066834491116" x2="144.88066834491116" y1="446.6838497097775" y2="446.6838497097775" /><line stroke="black" stroke-width="1" x1="144.88066834491116" x2="142.64389673102818" y1="446.6838497097775" y2="449.99999999999767" /><line stroke="black" stroke-width="1" x1="142.64389673102818" x2="138.64389673102818" y1="449.99999999999767" y2="449.99999999999767" /><line stroke="black" stroke-width="1" x1="138.64389673102818" x2="136.4071251171452" y1="449.99999999999767" y2="446.6838497097775" /><line stroke="black" stroke-width="1" x1="136.4071251171452" x2="137.90555149080885" y1="446.6838497097775" y2="442.97511429151035" /><line stroke="black" stroke-width="1" x1="137.90555149080885" x2="141.81814189374407" y1="442.97511429151035" y2="442.1434675282393" /><line stroke="black" stroke-width="1" x1="141.81814189374407" x2="143.31656826740772" y1="442.1434675282393" y2="438.4347321099721" /><line stroke="black" stroke-width="1" x1="143.31656826740772" x2="141.07979665352474" y1="438.4347321099721" y2="435.11858181975197" /><line stroke="black" stroke-width="1" x1="141.07979665352474" x2="142.5782230271884" y1="435.11858181975197" y2="431.4098464014848" /><line stroke="black" stroke-width="1" x1="142.5782230271884" x2="146.4908134301236" y1="431.4098464014848" y2="430.57819963821373" /><line stroke="black" stroke-width="1" x1="146.4908134301236" x2="149.36817263147822" y1="430.57819963821373" y2="433.3568331200497" /><line stroke="black" stroke-width="1" x1="149.36817263147822" x2="153.28076303441344" y1="433.3568331200497" y2="432.52518635677865" /><line stroke="black" stroke-width="1" x1="153.28076303441344" x2="154.7791894080771" y1="432.52518635677865" y2="428.8164509385115" /><line stroke="black" stroke-width="1" x1="154.7791894080771" x2="152.5424177941941" y1="428.8164509385115" y2="425.50030064829133" /><line stroke="black" stroke-width="1" x1="152.5424177941941" x2="148.5424177941941" y1="425.50030064829133" y2="425.50030064829133" /><line stroke="black" stroke-width="1" x1="148.5424177941941" x2="146.30564618031113" y1="425.50030064829133" y2="422.1841503580712" /><line stroke="black" stroke-width="1" x1="146.30564618031113" x2="147.80407255397478" y1="422.1841503580712" y2="418.475414939804" /><line stroke="black" stroke-width="1" x1="147.80407255397478" x2="145.5673009400918" y1="418.475414939804" y2="415.15926464958386" /><line stroke="black" stroke-width="1" x1="145.5673009400918" x2="141.5673009400918" y1="415.15926464958386" y2="415.15926464958386" /><line stroke="black" stroke-width="1" x1="141.5673009400918" x2="139.33052932620882" y1="415.15926464958386" y2="418.475414939804" /><line stroke="black" stroke-width="1" x1="139.33052932620882" x2="135.33052932620882" y1="418.475414939804" y2="418.475414939804" /><line stroke="black" stroke-width="1" x1="135.33052932620882" x2="133.09375771232584" y1="418.475414939804" y2="415.15926464958386" /><line stroke="black" stroke-width="1" x1="133.09375771232584" x2="134.5921840859895" y1="415.15926464958386" y2="411.4505292313167" /><line stroke="black" stroke-width="1" x1="134.5921840859895" x2="138.5047744889247" y1="411.4505292313167" y2="410.6188824680456" /><line stroke="black" stroke-width="1" x1="138.5047744889247" x2="140.00320086258836" y1="410.6188824680456" y2="406.91014704977846" /><line stroke="black" stroke-width="1" x1="140.00320086258836" x2="137.76642924870538" y1="406.91014704977846" y2="403.5939967595583" /><line stroke="black" stroke-width="1" x1="137.76642924870538" x2="133.76642924870538" y1="403.5939967595583" y2="403.5939967595583" /><line stroke="black" stroke-width="1" x1="133.76642924870538" x2="131.5296576348224" y1="403.5939967595583" y2="400.27784646933816" /><line stroke="black" stroke-width="1" x1="131.5296576348224" x2="133.02808400848605" y1="400.27784646933816" y2="396.569111051071" /><line stroke="black" stroke-width="1" x1="133.02808400848605" x2="130.79131239460307" y1="396.569111051071" y2="393.25296076085084" /><line stroke="black" stroke-width="1" x1="130.79131239460307" x2="126.79131239460307" y1="393.25296076085084" y2="393.25296076085084" /><line stroke="black" stroke-width="1" x1="126.79131239460307" x2="124.55454078072007" y1="393.25296076085084" y2="396.569111051071" /><line stroke="black" stroke-width="1" x1="124.55454078072007" x2="126.05296715438372" y1="396.569111051071" y2="400.27784646933816" /><line stroke="black" stroke-width="1" x1="126.05296715438372" x2="123.81619554050073" y1="400.27784646933816" y2="403.5939967595583" /><line stroke="black" stroke-width="1" x1="123.81619554050073" x2="119.81619554050073" y1="403.5939967595583" y2="403.5939967595583" /><line stroke="black" stroke-width="1" x1="119.81619554050073" x2="117.57942392661774" y1="403.5939967595583" y2="406.91014704977846" /><line stroke="black" stroke-width="1" x1="117.57942392661774" x2="119.07785030028138" y1="406.91014704977846" y2="410.6188824680456" /><line stroke="black" stroke-width="1" x1="119.07785030028138" x2="122.9904407032166" y1="410.6188824680456" y2="411.45052923131664" /><line stroke="black" stroke-width="1" x1="122.9904407032166" x2="124.48886707688025" y1="411.45052923131664" y2="415.1592646495838" /><line stroke="black" stroke-width="1" x1="124.48886707688025" x2="122.25209546299726" y1="415.1592646495838" y2="418.47541493980395" /><line stroke="black" stroke-width="1" x1="122.25209546299726" x2="118.25209546299726" y1="418.47541493980395" y2="418.47541493980395" /><line stroke="black" stroke-width="1" x1="118.25209546299726" x2="116.01532384911427" y1="418.47541493980395" y2="415.1592646495838" /><line stroke="black" stroke-width="1" x1="116.01532384911427" x2="112.01532384911427" y1="415.1592646495838" y2="415.1592646495838" /><line stroke="black" stroke-width="1" x1="112.01532384911427" x2="109.77855223523127" y1="415.1592646495838" y2="418.47541493980395" /><line stroke="black" stroke-width="1" x1="109.77855223523127" x2="111.27697860889492" y1="418.47541493980395" y2="422.1841503580711" /><line stroke="black" stroke-width="1" x1="111.27697860889492" x2="109.04020699501193" y1="422.1841503580711" y2="425.5003006482913" /><line stroke="black" stroke-width="1" x1="109.04020699501193" x2="105.04020699501193" y1="425.5003006482913" y2="425.5003006482913" /><line stroke="black" stroke-width="1" x1="105.04020699501193" x2="102.80343538112893" y1="425.5003006482913" y2="428.8164509385114" /><line stroke="black" stroke-width="1" x1="102.80343538112893" x2="104.30186175479258" y1="428.8164509385114" y2="432.5251863567786" /><line stroke="black" stroke-width="1" x1="104.30186175479258" x2="108.2144521577278" y1="432.5251863567786" y2="433.3568331200496" /><line stroke="black" stroke-width="1" x1="108.2144521577278" x2="111.09181135908241" y1="433.3568331200496" y2="430.5781996382136" /><line stroke="black" stroke-width="1" x1="111.09181135908241" x2="115.00440176201764" y1="430.5781996382136" y2="431.40984640148463" /><line stroke="black" stroke-width="1" x1="115.00440176201764" x2="116.50282813568128" y1="431.40984640148463" y2="435.1185818197518" /><line stroke="black" stroke-width="1" x1="116.50282813568128" x2="114.26605652179829" y1="435.1185818197518" y2="438.43473210997195" /><line stroke="black" stroke-width="1" x1="114.26605652179829" x2="115.76448289546194" y1="438.43473210997195" y2="442.1434675282391" /><line stroke="black" stroke-width="1" x1="115.76448289546194" x2="119.67707329839716" y1="442.1434675282391" y2="442.9751142915101" /><line stroke="black" stroke-width="1" x1="119.67707329839716" x2="121.17549967206081" y1="442.9751142915101" y2="446.6838497097773" /><line stroke="black" stroke-width="1" x1="121.17549967206081" x2="118.93872805817782" y1="446.6838497097773" y2="449.99999999999744" /><line stroke="black" stroke-width="1" x1="118.93872805817782" x2="114.93872805817782" y1="449.99999999999744" y2="449.99999999999744" /><line stroke="black" stroke-width="1" x1="114.93872805817782" x2="112.70195644429482" y1="449.99999999999744" y2="446.6838497097773" /><line stroke="black" stroke-width="1" x1="112.70195644429482" x2="108.70195644429482" y1="446.6838497097773" y2="446.6838497097773" /><line stroke="black" stroke-width="1" x1="108.70195644429482" x2="106.46518483041183" y1="446.6838497097773" y2="449.99999999999744" /><line stroke="black" stroke-width="1" x1="106.46518483041183" x2="102.46518483041183" y1="449.99999999999744" y2="449.99999999999744" /><line stroke="black" stroke-width="1" x1="102.46518483041183" x2="100.22841321652884" y1="449.99999999999744" y2="446.6838497097773" /><line stroke="black" stroke-width="1" x1="100.22841321652884" x2="101.72683959019248" y1="446.6838497097773" y2="442.9751142915101" /><line stroke="black" stroke-width="1" x1="101.72683959019248" x2="99.49006797630949" y1="442.9751142915101" y2="439.65896400129" /><line stroke="black" stroke-width="1" x1="99.49006797630949" x2="95.49006797630949" y1="439.65896400129" y2="439.65896400129" /><line stroke="black" stroke-width="1" x1="95.49006797630949" x2="93.2532963624265" y1="439.65896400129" y2="442.9751142915101" /><line stroke="black" stroke-width="1" x1="93.2532963624265" x2="94.75172273609014" y1="442.9751142915101" y2="446.6838497097773" /><line stroke="black" stroke-width="1" x1="94.75172273609014" x2="92.51495112220715" y1="446.6838497097773" y2="449.99999999999744" /><line stroke="black" stroke-width="1" x1="92.51495112220715" x2="88.51495112220715" y1="449.99999999999744" y2="449.99999999999744" /></svg>