<?xml version="1.0" encoding="utf-8" ?>
<svg baseProfile="full" height="250" version="1.1" width="250" xmlns="http://www.w3.org/2000/svg" xmlns:ev="http://www.w3.org/2001/xml-events" xmlns:xlink="http://www.w3.org/1999/xlink"><defs /><line stroke="black" stroke-width="1" x1="150" x2="150.0" y1="200" y2="194.0" /><line stroke="black" stroke-width="1" x1="150.0" x2="155.19615242270663" y1="194.0" y2="191.0" /><line stroke="black" stroke-width="1" x1="155.19615242270663" x2="150.0" y1="191.0" y2="188.0" /><line stroke="black" stroke-width="1" x1="150.0" x2="150.0" y1="188.0" y2="182.0" /><line stroke="black" stroke-width="1" x1="150.0" x2="155.19615242270663" y1="182.0" y2="179.0" /><line stroke="black" stroke-width="1" x1="155.19615242270663" x2="160.39230484541326" y1="179.0" y2="182.0" /><line stroke="black" stroke-width="1" x1="160.39230484541326" x2="160.39230484541326" y1="182.0" y2="176.0" /><line stroke="black" stroke-width="1" x1="160.39230484541326" x2="165.5884572681199" y1="176.0" y2="173.0" /><line stroke="black" stroke-width="1" x1="165.5884572681199" x2="160.39230484541326" y1="173.0" y2="170.0" /><line stroke="black" stroke-width="1" x1="160.39230484541326" x2="160.39230484541326" y1="170.0" y2="164.0" /><line stroke="black" stroke-width="1" x1="160.39230484541326" x2="155.19615242270663" y1="164.0" y2="167.0" /><line stroke="black" stroke-width="1" x1="155.19615242270663" x2="150.0" y1="167.0" y2="164.0" /><line stroke="black" stroke-width="1" x1="150.0" x2="150.0" y1="164.0" y2="158.0" /><line stroke="black" stroke-width="1" x1="150.0" x2="155.19615242270663" y1="158.0" y2="155.0" /><line stroke="black" stroke-width="1" x1="155.19615242270663" x2="150.0" y1="155.0" y2="152.0" /><line stroke="black" stroke-width="1" x1="150.0" x2="150.0" y1="152.0" y2="146.0" /><line stroke="black" stroke-width="1" x1="150.0" x2="155.19615242270663" y1="146.0" y2="143.0" /><line stroke="black" stroke-width="1" x1="155.19615242270663" x2="160.39230484541326" y1="143.0" y2="146.0" /><line stroke="black" stroke-width="1" x1="160.39230484541326" x2="160.39230484541326" y1="146.0" y2="140.0" /><line stroke="black" stroke-width="1" x1="160.39230484541326" x2="165.5884572681199" y1="140.0" y2="137.0" /><line stroke="black" stroke-width="1" x1="165.5884572681199" x2="170.78460969082653" y1="137.0" y2="140.0" /><line stroke="black" stroke-width="1" x1="170.78460969082653" x2="170.78460969082653" y1="140.0" y2="146.0" /><line stroke="black" stroke-width="1" x1="170.78460969082653" x2="175.98076211353316" y1="146.0" y2="143.0" /><line stroke="black" stroke-width="1" x1="175.98076211353316" x2="181.1769145362398" y1="143.0" y2="146.0" /><line stroke="black" stroke-width="1" x1="181.1769145362398" x2="181.1769145362398" y1="146.0" y2="140.0" /><line stroke="black" stroke-width="1" x1="181.1769145362398" x2="186.37306695894642" y1="140.0" y2="137.0" /><line stroke="black" stroke-width="1" x1="186.37306695894642" x2="181.1769145362398" y1="137.0" y2="134.0" /><line stroke="black" stroke-width="1" x1="181.1769145362398" x2="181.1769145362398" y1="134.0" y2="128.0" /><line stroke="black" stroke-width="1" x1="181.1769145362398" x2="186.37306695894642" y1="128.0" y2="125.0" /><line stroke="black" stroke-width="1" x1="186.37306695894642" x2="191.56921938165306" y1="125.0" y2="128.0" /><line stroke="black" stroke-width="1" x1="191.56921938165306" x2="191.56921938165306" y1="128.0" y2="122.0" /><line stroke="black" stroke-width="1" x1="191.56921938165306" x2="196.7653718043597" y1="122.0" y2="119.0" /><line stroke="black" stroke-width="1" x1="196.7653718043597" x2="191.56921938165306" y1="119.0" y2="116.0" /><line stroke="black" stroke-width="1" x1="191.56921938165306" x2="191.56921938165306" y1="116.0" y2="110.0" /><line stroke="black" stroke-width="1" x1="191.56921938165306" x2="186.37306695894642" y1="110.0" y2="113.0" /><line stroke="black" stroke-width="1" x1="186.37306695894642" x2="181.1769145362398" y1="113.0" y2="110.0" /><line stroke="black" stroke-width="1" x1="181.1769145362398" x2="181.1769145362398" y1="110.0" y2="104.0" /><line stroke="black" stroke-width="1" x1="181.1769145362398" x2="186.37306695894642" y1="104.0" y2="101.0" /><line stroke="black" stroke-width="1" x1="186.37306695894642" x2="181.1769145362398" y1="101.0" y2="98.0" /><line stroke="black" stroke-width="1" x1="181.1769145362398" x2="181.1769145362398" y1="98.0" y2="92.0" /><line stroke="black" stroke-width="1" x1="181.1769145362398" x2="175.98076211353316" y1="92.0" y2="95.0" /><line stroke="black" stroke-width="1" x1="175.98076211353316" x2="170.78460969082653" y1="95.0" y2="92.0" /><line stroke="black" stroke-width="1" x1="170.78460969082653" x2="170.78460969082653" y1="92.0" y2="98.0" /><line stroke="black" stroke-width="1" x1="170.78460969082653" x2="165.5884572681199" y1="98.0" y2="101.0" /><line stroke="black" stroke-width="1" x1="165.5884572681199" x2="160.39230484541326" y1="101.0" y2="98.0" /><line stroke="black" stroke-width="1" x1="160.39230484541326" x2="160.39230484541326" y1="98.0" y2="92.0" /><line stroke="black" stroke-width="1" x1="160.39230484541326" x2="155.19615242270663" y1="92.0" y2="95.0" /><line stroke="black" stroke-width="1" x1="155.19615242270663" x2="150.0" y1="95.0" y2="92.0" /><line stroke="black" stroke-width="1" x1="150.0" x2="150.0" y1="92.0" y2="86.0" /><line stroke="black" stroke-width="1" x1="150.0" x2="155.19615242270663" y1="86.0" y2="83.0" /><line stroke="black" stroke-width="1" x1="155.19615242270663" x2="150.0" y1="83.0" y2="80.0" /><line stroke="black" stroke-width="1" x1="150.0" x2="150.0" y1="80.0" y2="74.0" /><line stroke="black" stroke-width="1" x1="150.0" x2="155.19615242270663" y1="74.0" y2="71.0" /><line stroke="black" stroke-width="1" x1="155.19615242270663" x2="160.39230484541326" y1="71.0" y2="74.0" /><line stroke="black" stroke-width="1" x1="160.39230484541326" x2="160.39230484541326" y1="74.0" y2="68.0" /><line stroke="black" stroke-width="1" x1="160.39230484541326" x2="165.5884572681199" y1="68.0" y2="65.0" /><line stroke="black" stroke-width="1" x1="165.5884572681199" x2="160.39230484541326" y1="65.0" y2="62.0" /><line stroke="black" stroke-width="1" x1="160.39230484541326" x2="160.39230484541326" y1="62.0" y2="56.0" /><line stroke="black" stroke-width="1" x1="160.39230484541326" x2="155.19615242270663" y1="56.0" y2="59.0" /><line stroke="black" stroke-width="1" x1="155.19615242270663" x2="150.0" y1="59.0" y2="56.0" /><line stroke="black" stroke-width="1" x1="150.0" x2="150.0" y1="56.0" y2="50.0" /><line stroke="black" stroke-width="1" x1="150.0" x2="155.19615242270663" y1="50.0" y2="47.0" /><line stroke="black" stroke-width="1" x1="155.19615242270663" x2="150.0" y1="47.0" y2="44.0" /><line stroke="black" stroke-width="1" x1="150.0" x2="150.0" y1="44.0" y2="38.0" /><line stroke="black" stroke-width="1" x1="150.0" x2="144.80384757729337" y1="38.0" y2="41.0" /><line stroke="black" stroke-width="1" x1="144.80384757729337" x2="139.60769515458674" y1="41.0" y2="38.0" /><line stroke="black" stroke-width="1" x1="139.60769515458674" x2="139.60769515458674" y1="38.0" y2="44.0" /><line stroke="black" stroke-width="1" x1="139.60769515458674" x2="134.4115427318801" y1="44.0" y2="47.0" /><line stroke="black" stroke-width="1" x1="134.4115427318801" x2="129.21539030917347" y1="47.0" y2="44.0" /><line stroke="black" stroke-width="1" x1="129.21539030917347" x2="129.21539030917347" y1="44.0" y2="38.0" /><line stroke="black" stroke-width="1" x1="129.21539030917347" x2="124.01923788646684" y1="38.0" y2="41.0" /><line stroke="black" stroke-width="1" x1="124.01923788646684" x2="118.82308546376021" y1="41.0" y2="38.0" /><line stroke="black" stroke-width="1" x1="118.82308546376021" x2="118.82308546376021" y1="38.0" y2="44.0" /><line stroke="black" stroke-width="1" x1="118.82308546376021" x2="113.62693304105358" y1="44.0" y2="47.0" /><line stroke="black" stroke-width="1" x1="113.62693304105358" x2="118.82308546376021" y1="47.0" y2="50.0" /><line stroke="black" stroke-width="1" x1="118.82308546376021" x2="118.82308546376021" y1="50.0" y2="56.0" /><line stroke="black" stroke-width="1" x1="118.82308546376021" x2="113.62693304105358" y1="56.0" y2="59.0" /><line stroke="black" stroke-width="1" x1="113.62693304105358" x2="108.43078061834694" y1="59.0" y2="56.0" /><line stroke="black" stroke-width="1" x1="108.43078061834694" x2="108.43078061834694" y1="56.0" y2="62.0" /><line stroke="black" stroke-width="1" x1="108.43078061834694" x2="103.23462819564031" y1="62.0" y2="65.0" /><line stroke="black" stroke-width="1" x1="103.23462819564031" x2="98.03847577293368" y1="65.0" y2="62.0" /><line stroke="black" stroke-width="1" x1="98.03847577293368" x2="98.03847577293368" y1="62.0" y2="56.0" /><line stroke="black" stroke-width="1" x1="98.03847577293368" x2="92.84232335022705" y1="56.0" y2="59.0" /><line stroke="black" stroke-width="1" x1="92.84232335022705" x2="87.64617092752042" y1="59.0" y2="56.0" /><line stroke="black" stroke-width="1" x1="87.64617092752042" x2="87.64617092752042" y1="56.0" y2="50.0" /><line stroke="black" stroke-width="1" x1="87.64617092752042" x2="92.84232335022705" y1="50.0" y2="47.0" /><line stroke="black" stroke-width="1" x1="92.84232335022705" x2="87.64617092752042" y1="47.0" y2="44.0" /><line stroke="black" stroke-width="1" x1="87.64617092752042" x2="87.64617092752042" y1="44.0" y2="38.0" /><line stroke="black" stroke-width="1" x1="87.64617092752042" x2="82.45001850481378" y1="38.0" y2="41.0" /><line stroke="black" stroke-width="1" x1="82.45001850481378" x2="77.25386608210715" y1="41.0" y2="38.0" /><line stroke="black" stroke-width="1" x1="77.25386608210715" x2="77.25386608210715" y1="38.0" y2="44.0" /><line stroke="black" stroke-width="1" x1="77.25386608210715" x2="72.05771365940052" y1="44.0" y2="47.0" /><line stroke="black" stroke-width="1" x1="72.05771365940052" x2="66.86156123669389" y1="47.0" y2="44.0" /><line stroke="black" stroke-width="1" x1="66.86156123669389" x2="66.86156123669389" y1="44.0" y2="38.0" /><line stroke="black" stroke-width="1" x1="66.86156123669389" x2="61.665408813987256" y1="38.0" y2="41.0" /><line stroke="black" stroke-width="1" x1="61.665408813987256" x2="56.469256391280624" y1="41.0" y2="38.0" /><line stroke="black" stroke-width="1" x1="56.469256391280624" x2="56.469256391280624" y1="38.0" y2="44.0" /><line stroke="black" stroke-width="1" x1="56.469256391280624" x2="51.27310396857399" y1="44.0" y2="47.0" /><line stroke="black" stroke-width="1" x1="51.27310396857399" x2="56.469256391280624" y1="47.0" y2="50.0" /><line stroke="black" stroke-width="1" x1="56.469256391280624" x2="56.469256391280624" y1="50.0" y2="56.0" /><line stroke="black" stroke-width="1" x1="56.469256391280624" x2="51.27310396857399" y1="56.0" y2="59.0" /><line stroke="black" stroke-width="1" x1="51.27310396857399" x2="46.07695154586736" y1="59.0" y2="56.0" /><line stroke="black" stroke-width="1" x1="46.07695154586736" x2="46.07695154586736" y1="56.0" y2="62.0" /><line stroke="black" stroke-width="1" x1="46.07695154586736" x2="40.88079912316073" y1="62.0" y2="65.0" /><line stroke="black" stroke-width="1" x1="40.88079912316073" x2="46.07695154586736" y1="65.0" y2="68.0" /><line stroke="black" stroke-width="1" x1="46.07695154586736" x2="46.07695154586736" y1="68.0" y2="74.0" /><line stroke="black" stroke-width="1" x1="46.07695154586736" x2="51.27310396857399" y1="74.0" y2="71.0" /><line stroke="black" stroke-width="1" x1="51.27310396857399" x2="56.469256391280624" y1="71.0" y2="74.0" /><line stroke="black" stroke-width="1" x1="56.469256391280624" x2="56.469256391280624" y1="74.0" y2="80.0" /><line stroke="black" stroke-width="1" x1="56.469256391280624" x2="51.27310396857399" y1="80.0" y2="83.0" /><line stroke="black" stroke-width="1" x1="51.27310396857399" x2="56.469256391280624" y1="83.0" y2="86.0" /><line stroke="black" stroke-width="1" x1="56.469256391280624" x2="56.469256391280624" y1="86.0" y2="92.0" /><line stroke="black" stroke-width="1" x1="56.469256391280624" x2="51.27310396857399" y1="92.0" y2="95.0" /><line stroke="black" stroke-width="1" x1="51.27310396857399" x2="46.07695154586736" y1="95.0" y2="92.0" /><line stroke="black" stroke-width="1" x1="46.07695154586736" x2="46.07695154586736" y1="92.0" y2="98.0" /><line stroke="black" stroke-width="1" x1="46.07695154586736" x2="40.88079912316073" y1="98.0" y2="101.0" /><line stroke="black" stroke-width="1" x1="40.88079912316073" x2="35.684646700454095" y1="101.0" y2="98.0" /><line stroke="black" stroke-width="1" x1="35.684646700454095" x2="35.684646700454095" y1="98.0" y2="92.0" /><line stroke="black" stroke-width="1" x1="35.684646700454095" x2="30.488494277747463" y1="92.0" y2="95.0" /><line stroke="black" stroke-width="1" x1="30.488494277747463" x2="25.29234185504083" y1="95.0" y2="92.0" /><line stroke="black" stroke-width="1" x1="25.29234185504083" x2="25.29234185504083" y1="92.0" y2="98.0" /><line stroke="black" stroke-width="1" x1="25.29234185504083" x2="20.0961894323342" y1="98.0" y2="101.0" /><line stroke="black" stroke-width="1" x1="20.0961894323342" x2="25.29234185504083" y1="101.0" y2="104.0" /><line stroke="black" stroke-width="1" x1="25.29234185504083" x2="25.29234185504083" y1="104.0" y2="110.0" /><line stroke="black" stroke-width="1" x1="25.29234185504083" x2="20.0961894323342" y1="110.0" y2="113.0" /><line stroke="black" stroke-width="1" x1="20.0961894323342" x2="14.900037009627567" y1="113.0" y2="110.0" /><line stroke="black" stroke-width="1" x1="14.900037009627567" x2="14.900037009627567" y1="110.0" y2="116.0" /><line stroke="black" stroke-width="1" x1="14.900037009627567" x2="9.703884586920935" y1="116.0" y2="119.0" /><line stroke="black" stroke-width="1" x1="9.703884586920935" x2="14.900037009627567" y1="119.0" y2="122.0" /><line stroke="black" stroke-width="1" x1="14.900037009627567" x2="14.900037009627567" y1="122.0" y2="128.0" /><line stroke="black" stroke-width="1" x1="14.900037009627567" x2="20.0961894323342" y1="128.0" y2="125.0" /><line stroke="black" stroke-width="1" x1="20.0961894323342" x2="25.29234185504083" y1="125.0" y2="128.0" /><line stroke="black" stroke-width="1" x1="25.29234185504083" x2="25.29234185504083" y1="128.0" y2="134.0" /><line stroke="black" stroke-width="1" x1="25.29234185504083" x2="20.0961894323342" y1="134.0" y2="137.0" /><line stroke="black" stroke-width="1" x1="20.0961894323342" x2="25.29234185504083" y1="137.0" y2="140.0" /><line stroke="black" stroke-width="1" x1="25.29234185504083" x2="25.29234185504083" y1="140.0" y2="146.0" /><line stroke="black" stroke-width="1" x1="25.29234185504083" x2="30.488494277747463" y1="146.0" y2="143.0" /><line stroke="black" stroke-width="1" x1="30.488494277747463" x2="35.684646700454095" y1="143.0" y2="146.0" /><line stroke="black" stroke-width="1" x1="35.684646700454095" x2="35.684646700454095" y1="146.0" y2="140.0" /><line stroke="black" stroke-width="1" x1="35.684646700454095" x2="40.88079912316073" y1="140.0" y2="137.0" /><line stroke="black" stroke-width="1" x1="40.88079912316073" x2="46.07695154586736" y1="137.0" y2="140.0" /><line stroke="black" stroke-width="1" x1="46.07695154586736" x2="46.07695154586736" y1="140.0" y2="146.0" /><line stroke="black" stroke-width="1" x1="46.07695154586736" x2="51.27310396857399" y1="146.0" y2="143.0" /><line stroke="black" stroke-width="1" x1="51.27310396857399" x2="56.469256391280624" y1="143.0" y2="146.0" /><line stroke="black" stroke-width="1" x1="56.469256391280624" x2="56.469256391280624" y1="146.0" y2="152.0" /><line stroke="black" stroke-width="1" x1="56.469256391280624" x2="51.27310396857399" y1="152.0" y2="155.0" /><line stroke="black" stroke-width="1" x1="51.27310396857399" x2="56.469256391280624" y1="155.0" y2="158.0" /><line stroke="black" stroke-width="1" x1="56.469256391280624" x2="56.469256391280624" y1="158.0" y2="164.0" /><line stroke="black" stroke-width="1" x1="56.469256391280624" x2="51.27310396857399" y1="164.0" y2="167.0" /><line stroke="black" stroke-width="1" x1="51.27310396857399" x2="46.07695154586736" y1="167.0" y2="164.0" /><line stroke="black" stroke-width="1" x1="46.07695154586736" x2="46.07695154586736" y1="164.0" y2="170.0" /><line stroke="black" stroke-width="1" x1="46.07695154586736" x2="40.88079912316073" y1="170.0" y2="173.0" /><line stroke="black" stroke-width="1" x1="40.88079912316073" x2="46.07695154586736" y1="173.0" y2="176.0" /><line stroke="black" stroke-width="1" x1="46.07695154586736" x2="46.07695154586736" y1="176.0" y2="182.0" /><line stroke="black" stroke-width="1" x1="46.07695154586736" x2="51.27310396857399" y1="182.0" y2="179.0" /><line stroke="black" stroke-width="1" x1="51.27310396857399" x2="56.469256391280624" y1="179.0" y2="182.0" /><line stroke="black" stroke-width="1" x1="56.469256391280624" x2="56.469256391280624" y1="182.0" y2="188.0" /><line stroke="black" stroke-width="1" x1="56.469256391280624" x2="51.27310396857399" y1="188.0" y2="191.0" /><line stroke="black" stroke-width="1" x1="51.27310396857399" x2="56.469256391280624" y1="191.0" y2="194.0" /><line stroke="black" stroke-width="1" x1="56.469256391280624" x2="56.469256391280624" y1="194.0" y2="200.0" /><line stroke="black" stroke-width="1" x1="56.469256391280624" x2="61.665408813987256" y1="200.0" y2="197.0" /><line stroke="black" stroke-width="1" x1="61.665408813987256" x2="66.86156123669389" y1="197.0" y2="200.0" /><line stroke="black" stroke-width="1" x1="66.86156123669389" x2="66.86156123669389" y1="200.0" y2="194.0" /><line stroke="black" stroke-width="1" x1="66.86156123669389" x2="72.05771365940052" y1="194.0" y2="191.0" /><line stroke="black" stroke-width="1" x1="72.05771365940052" x2="77.25386608210715" y1="191.0" y2="194.0" /><line stroke="black" stroke-width="1" x1="77.25386608210715" x2="77.25386608210715" y1="194.0" y2="200.0" /><line stroke="black" stroke-width="1" x1="77.25386608210715" x2="82.45001850481378" y1="200.0" y2="197.0" /><line stroke="black" stroke-width="1" x1="82.45001850481378" x2="87.64617092752042" y1="197.0" y2="200.0" /><line stroke="black" stroke-width="1" x1="87.64617092752042" x2="87.64617092752042" y1="200.0" y2="194.0" /><line stroke="black" stroke-width="1" x1="87.64617092752042" x2="92.84232335022705" y1="194.0" y2="191.0" /><line stroke="black" stroke-width="1" x1="92.84232335022705" x2="87.64617092752042" y1="191.0" y2="188.0" /><line stroke="black" stroke-width="1" x1="87.64617092752042" x2="87.64617092752042" y1="188.0" y2="182.0" /><line stroke="black" stroke-width="1" x1="87.64617092752042" x2="92.84232335022705" y1="182.0" y2="179.0" /><line stroke="black" stroke-width="1" x1="92.84232335022705" x2="98.03847577293368" y1="179.0" y2="182.0" /><line stroke="black" stroke-width="1" x1="98.03847577293368" x2="98.03847577293368" y1="182.0" y2="176.0" /><line stroke="black" stroke-width="1" x1="98.03847577293368" x2="103.23462819564031" y1="176.0" y2="173.0" /><line stroke="black" stroke-width="1" x1="103.23462819564031" x2="108.43078061834694" y1="173.0" y2="176.0" /><line stroke="black" stroke-width="1" x1="108.43078061834694" x2="108.43078061834694" y1="176.0" y2="182.0" /><line stroke="black" stroke-width="1" x1="108.43078061834694" x2="113.62693304105358" y1="182.0" y2="179.0" /><line stroke="black" stroke-width="1" x1="113.62693304105358" x2="118.82308546376021" y1="179.0" y2="182.0" /><line stroke="black" stroke-width="1" x1="118.82308546376021" x2="118.82308546376021" y1="182.0" y2="188.0" /><line stroke="black" stroke-width="1" x1="118.82308546376021" x2="113.62693304105358" y1="188.0" y2="191.0" /><line stroke="black" stroke-width="1" x1="113.62693304105358" x2="118.82308546376021" y1="191.0" y2="194.0" /><line stroke="black" stroke-width="1" x1="118.82308546376021" x2="118.82308546376021" y1="194.0" y2="200.0" /><line stroke="black" stroke-width="1" x1="118.82308546376021" x2="124.01923788646684" y1="200.0" y2="197.0" /><line stroke="black" stroke-width="1" x1="124.01923788646684" x2="129.21539030917347" y1="197.0" y2="200.0" /><line stroke="black" stroke-width="1" x1="129.21539030917347" x2="129.21539030917347" y1="200.0" y2="194.0" /><line stroke="black" stroke-width="1" x1="129.21539030917347" x2="134.4115427318801" y1="194.0" y2="191.0" /><line stroke="black" stroke-width="1" x1="134.4115427318801" x2="139.60769515458674" y1="191.0" y2="194.0" /><line stroke="black" stroke-width="1" x1="139.60769515458674" x2="139.60769515458674" y1="194.0" y2="200.0" /><line stroke="black" stroke-width="1" x1="139.60769515458674" x2="144.80384757729337" y1="200.0" y2="197.0" /><line stroke="black" stroke-width="1" x1="144.80384757729337" x2="150.0" y1="197.0" y2="200.0" /></svg>