<?xml version="1.0" encoding="utf-8" ?>
<svg baseProfile="full" height="100%" version="1.1" viewBox="-200 -200 400 400" width="100%" xmlns="http://www.w3.org/2000/svg" xmlns:ev="http://www.w3.org/2001/xml-events" xmlns:xlink="http://www.w3.org/1999/xlink">
  <defs/>
  <line stroke="black" stroke-width="1" x1="-30" x2="-30" y1="30" y2="-30"/>
  <line stroke="black" stroke-width="1" x1="-30" x2="30" y1="-30" y2="-30"/>
  <line stroke="black" stroke-width="1" x1="30" x2="30" y1="-30" y2="30"/>
  <line stroke="black" stroke-width="1" x1="30" x2="-30" y1="30" y2="30"/>
  <line stroke="black" stroke-width="1" x1="-27.80294233629932" x2="-19.467829808286663" y1="26.768265986394162" y2="-38.22904571241157"/>
  <line stroke="black" stroke-width="1" x1="-19.467829808286663" x2="27.80294233629932" y1="-38.22904571241157" y2="-26.768265986394162"/>
  <line stroke="black" stroke-width="1" x1="27.80294233629932" x2="19.467829808286663" y1="-26.768265986394162" y2="38.22904571241157"/>
  <line stroke="black" stroke-width="1" x1="19.467829808286663" x2="-27.80294233629932" y1="38.22904571241157" y2="26.768265986394162"/>
  <line stroke="black" stroke-width="1" x1="-25.623051021743954" x2="-10.026932486093463" y1="23.68703216837851" y2="-45.13169515489794"/>
  <line stroke="black" stroke-width="1" x1="-10.026932486093463" x2="25.623051021743954" y1="-45.13169515489794" y2="-23.68703216837851"/>
  <line stroke="black" stroke-width="1" x1="25.623051021743954" x2="10.026932486093463" y1="-23.68703216837851" y2="45.13169515489794"/>
  <line stroke="black" stroke-width="1" x1="10.026932486093463" x2="-25.623051021743954" y1="45.13169515489794" y2="23.68703216837851"/>
  <line stroke="black" stroke-width="1" x1="-23.47759141793417" x2="-1.630051386053891" y1="20.765554489983728" y2="-50.805922033819115"/>
  <line stroke="black" stroke-width="1" x1="-1.630051386053891" x2="23.47759141793417" y1="-50.805922033819115" y2="-20.765554489983728"/>
  <line stroke="black" stroke-width="1" x1="23.47759141793417" x2="1.630051386053891" y1="-20.765554489983728" y2="50.805922033819115"/>
  <line stroke="black" stroke-width="1" x1="1.630051386053891" x2="-23.47759141793417" y1="50.805922033819115" y2="20.765554489983728"/>
  <line stroke="black" stroke-width="1" x1="-21.381451796690776" x2="5.773654826453333" y1="18.01056190076045" y2="-55.34883350758359"/>
  <line stroke="black" stroke-width="1" x1="5.773654826453333" x2="21.381451796690776" y1="-55.34883350758359" y2="-18.01056190076045"/>
  <line stroke="black" stroke-width="1" x1="21.381451796690776" x2="-5.773654826453333" y1="-18.01056190076045" y2="55.34883350758359"/>
  <line stroke="black" stroke-width="1" x1="-5.773654826453333" x2="-21.381451796690776" y1="55.34883350758359" y2="18.01056190076045"/>
  <line stroke="black" stroke-width="1" x1="-19.3472966022899" x2="12.237731288711855" y1="15.426499941167162" y2="-58.85591329129457"/>
  <line stroke="black" stroke-width="1" x1="12.237731288711855" x2="19.3472966022899" y1="-58.85591329129457" y2="-15.426499941167162"/>
  <line stroke="black" stroke-width="1" x1="19.3472966022899" x2="-12.237731288711855" y1="-15.426499941167162" y2="58.85591329129457"/>
  <line stroke="black" stroke-width="1" x1="-12.237731288711855" x2="-19.3472966022899" y1="58.85591329129457" y2="15.426499941167162"/>
  <line stroke="black" stroke-width="1" x1="-17.385721037059625" x2="17.817627792287745" y1="13.015765340748008" y2="-61.42036998110065"/>
  <line stroke="black" stroke-width="1" x1="17.817627792287745" x2="17.385721037059625" y1="-61.42036998110065" y2="-13.015765340748008"/>
  <line stroke="black" stroke-width="1" x1="17.385721037059625" x2="-17.817627792287745" y1="-13.015765340748008" y2="61.42036998110065"/>
  <line stroke="black" stroke-width="1" x1="-17.817627792287745" x2="-17.385721037059625" y1="61.42036998110065" y2="13.015765340748008"/>
  <line stroke="black" stroke-width="1" x1="-15.505405441092039" x2="22.56997864718202" y1="10.778930627789727" y2="-63.132583749166564"/>
  <line stroke="black" stroke-width="1" x1="22.56997864718202" x2="15.505405441092039" y1="-63.132583749166564" y2="-10.778930627789727"/>
  <line stroke="black" stroke-width="1" x1="15.505405441092039" x2="-22.56997864718202" y1="-10.778930627789727" y2="63.132583749166564"/>
  <line stroke="black" stroke-width="1" x1="-22.56997864718202" x2="-15.505405441092039" y1="63.132583749166564" y2="10.778930627789727"/>
  <line stroke="black" stroke-width="1" x1="-13.71326812215925" x2="26.551958461209978" y1="8.714957957855084" y2="-64.07964450998779"/>
  <line stroke="black" stroke-width="1" x1="26.551958461209978" x2="13.71326812215925" y1="-64.07964450998779" y2="-8.714957957855084"/>
  <line stroke="black" stroke-width="1" x1="13.71326812215925" x2="-26.551958461209978" y1="-8.714957957855084" y2="64.07964450998779"/>
  <line stroke="black" stroke-width="1" x1="-26.551958461209978" x2="-13.71326812215925" y1="64.07964450998779" y2="8.714957957855084"/>
  <line stroke="black" stroke-width="1" x1="-12.014615466930431" x2="29.820710435969424" y1="6.821401559280186" y2="-64.34497467576749"/>
  <line stroke="black" stroke-width="1" x1="29.820710435969424" x2="12.014615466930431" y1="-64.34497467576749" y2="-6.821401559280186"/>
  <line stroke="black" stroke-width="1" x1="12.014615466930431" x2="-29.820710435969424" y1="-6.821401559280186" y2="64.34497467576749"/>
  <line stroke="black" stroke-width="1" x1="-29.820710435969424" x2="-12.014615466930431" y1="64.34497467576749" y2="6.821401559280186"/>
  <line stroke="black" stroke-width="1" x1="-10.413288328957472" x2="32.43284354571725" y1="5.09459836686603" y2="-64.00802969454378"/>
  <line stroke="black" stroke-width="1" x1="32.43284354571725" x2="10.413288328957472" y1="-64.00802969454378" y2="-5.09459836686603"/>
  <line stroke="black" stroke-width="1" x1="10.413288328957472" x2="-32.43284354571725" y1="-5.09459836686603" y2="64.00802969454378"/>
  <line stroke="black" stroke-width="1" x1="-32.43284354571725" x2="-10.413288328957472" y1="64.00802969454378" y2="5.09459836686603"/>
  <line stroke="black" stroke-width="1" x1="-8.911803842448053" x2="34.44399479085007" y1="3.5298465711621496" y2="-63.14406969194707"/>
  <line stroke="black" stroke-width="1" x1="34.44399479085007" x2="8.911803842448053" y1="-63.14406969194707" y2="-3.5298465711621496"/>
  <line stroke="black" stroke-width="1" x1="8.911803842448053" x2="-34.44399479085007" y1="-3.5298465711621496" y2="63.14406969194707"/>
  <line stroke="black" stroke-width="1" x1="-34.44399479085007" x2="-8.911803842448053" y1="63.14406969194707" y2="3.5298465711621496"/>
  <line stroke="black" stroke-width="1" x1="-7.511491953514394" x2="35.908452597777206" y1="2.121571950583558" y2="-61.82399570860953"/>
  <line stroke="black" stroke-width="1" x1="35.908452597777206" x2="7.511491953514394" y1="-61.82399570860953" y2="-2.121571950583558"/>
  <line stroke="black" stroke-width="1" x1="7.511491953514394" x2="-35.908452597777206" y1="-2.121571950583558" y2="61.82399570860953"/>
  <line stroke="black" stroke-width="1" x1="-35.908452597777206" x2="-7.511491953514394" y1="61.82399570860953" y2="2.121571950583558"/>
  <line stroke="black" stroke-width="1" x1="-6.212626092414322" x2="36.87883736628042" y1="0.8634819778423761" y2="-60.11424423354765"/>
  <line stroke="black" stroke-width="1" x1="36.87883736628042" x2="6.212626092414322" y1="-60.11424423354765" y2="-0.8634819778423761"/>
  <line stroke="black" stroke-width="1" x1="6.212626092414322" x2="-36.87883736628042" y1="-0.8634819778423761" y2="60.11424423354765"/>
  <line stroke="black" stroke-width="1" x1="-36.87883736628042" x2="-6.212626092414322" y1="60.11424423354765" y2="0.8634819778423761"/>
  <line stroke="black" stroke-width="1" x1="-5.014547531420902" x2="37.40583513869568" y1="-0.251292198419101" y2="-58.0767339729912"/>
  <line stroke="black" stroke-width="1" x1="37.40583513869568" x2="5.014547531420902" y1="-58.0767339729912" y2="0.251292198419101"/>
  <line stroke="black" stroke-width="1" x1="5.014547531420902" x2="-37.40583513869568" y1="0.251292198419101" y2="58.0767339729912"/>
  <line stroke="black" stroke-width="1" x1="-37.40583513869568" x2="-5.014547531420902" y1="58.0767339729912" y2="-0.251292198419101"/>
</svg>
