<?xml version="1.0" encoding="utf-8" ?>
<svg baseProfile="full" height="100%" version="1.1" viewBox="-80 -50 100 200" width="100%" xmlns="http://www.w3.org/2000/svg" xmlns:ev="http://www.w3.org/2001/xml-events" xmlns:xlink="http://www.w3.org/1999/xlink">
  <defs/>
  <line stroke="black" stroke-width="1" x1="-15" x2="-15" y1="15" y2="-15"/>
  <line stroke="black" stroke-width="1" x1="-15" x2="15" y1="-15" y2="-15"/>
  <line stroke="black" stroke-width="1" x1="15" x2="15" y1="-15" y2="15"/>
  <line stroke="black" stroke-width="1" x1="15" x2="-15" y1="15" y2="15"/>
  <line stroke="black" stroke-width="1" x1="-11.148260607841024" x2="0.1384041219060439" y1="14.861595878093956" y2="-16.148260607841024"/>
  <line stroke="black" stroke-width="1" x1="0.1384041219060439" x2="31.148260607841024" y1="-16.148260607841024" y2="-4.861595878093956"/>
  <line stroke="black" stroke-width="1" x1="31.148260607841024" x2="19.861595878093958" y1="-4.861595878093956" y2="26.148260607841024"/>
  <line stroke="black" stroke-width="1" x1="19.861595878093958" x2="-11.148260607841024" y1="26.148260607841024" y2="14.861595878093956"/>
  <line stroke="black" stroke-width="1" x1="-7.114793718066334" x2="16.21839651355505" y1="16.16764251770362" y2="-11.639770767515298"/>
  <line stroke="black" stroke-width="1" x1="16.21839651355505" x2="44.02580979877396" y1="-11.639770767515298" y2="11.693419464106084"/>
  <line stroke="black" stroke-width="1" x1="44.02580979877396" x2="20.692619567152583" y1="11.693419464106084" y2="39.500832749325"/>
  <line stroke="black" stroke-width="1" x1="20.692619567152583" x2="-7.114793718066334" y1="39.500832749325" y2="16.16764251770362"/>
  <line stroke="black" stroke-width="1" x1="-3.4369164230664424" x2="31.14347795004621" y1="19.03513276242548" y2="-0.9298672375745376"/>
  <line stroke="black" stroke-width="1" x1="31.14347795004621" x2="51.10847795004623" y1="-0.9298672375745376" y2="33.65052713553811"/>
  <line stroke="black" stroke-width="1" x1="51.10847795004623" x2="16.528083576933575" y1="33.65052713553811" y2="53.61552713553813"/>
  <line stroke="black" stroke-width="1" x1="16.528083576933575" x2="-3.4369164230664424" y1="53.61552713553813" y2="19.03513276242548"/>
  <line stroke="black" stroke-width="1" x1="-0.7140482203054681" x2="42.541662715249785" y1="23.38284705940736" y2="15.755698151742763"/>
  <line stroke="black" stroke-width="1" x1="42.541662715249785" x2="50.168811622914376" y1="15.755698151742763" y2="59.01140908729801"/>
  <line stroke="black" stroke-width="1" x1="50.168811622914376" x2="6.91310068735913" y1="59.01140908729801" y2="66.63855799496261"/>
  <line stroke="black" stroke-width="1" x1="6.91310068735913" x2="-0.7140482203054681" y1="66.63855799496261" y2="23.38284705940736"/>
  <line stroke="black" stroke-width="1" x1="0.46477039926023167" x2="48.04605242837102" y1="28.90131695604429" y2="37.29118075447532"/>
  <line stroke="black" stroke-width="1" x1="48.04605242837102" x2="39.65618862993999" y1="37.29118075447532" y2="84.87246278358612"/>
  <line stroke="black" stroke-width="1" x1="39.65618862993999" x2="-7.925093399170798" y1="84.87246278358612" y2="76.48259898515508"/>
  <line stroke="black" stroke-width="1" x1="-7.925093399170798" x2="0.46477039926023167" y1="76.48259898515508" y2="28.90131695604429"/>
  <line stroke="black" stroke-width="1" x1="-0.3929003783685143" x2="45.63360453224446" y1="35.049046624473796" y2="61.622461624473814"/>
  <line stroke="black" stroke-width="1" x1="45.63360453224446" x2="19.06018953224445" y1="61.622461624473814" y2="107.6489665350868"/>
  <line stroke="black" stroke-width="1" x1="19.06018953224445" x2="-26.96631537836853" y1="107.6489665350868" y2="81.07555153508677"/>
  <line stroke="black" stroke-width="1" x1="-26.96631537836853" x2="-0.3929003783685143" y1="81.07555153508677" y2="35.049046624473796"/>
  <line stroke="black" stroke-width="1" x1="-3.5923540898062036" x2="33.9859821101224" y1="41.081045698364676" y2="85.86516286834262"/>
  <line stroke="black" stroke-width="1" x1="33.9859821101224" x2="-10.798135059855543" y1="85.86516286834262" y2="123.44349906827122"/>
  <line stroke="black" stroke-width="1" x1="-10.798135059855543" x2="-48.37647125978415" y1="123.44349906827122" y2="78.65938189829328"/>
  <line stroke="black" stroke-width="1" x1="-48.37647125978415" x2="-3.5923540898062036" y1="78.65938189829328" y2="41.081045698364676"/>
  <line stroke="black" stroke-width="1" x1="-9.168879143880403" x2="12.825637416944645" y1="46.11238783987489" y2="106.54182544256238"/>
  <line stroke="black" stroke-width="1" x1="12.825637416944645" x2="-47.60380018574284" y1="106.54182544256238" y2="128.53634200338743"/>
  <line stroke="black" stroke-width="1" x1="-47.60380018574284" x2="-69.59831674656789" y1="128.53634200338743" y2="68.10690440069993"/>
  <line stroke="black" stroke-width="1" x1="-69.59831674656789" x2="-9.168879143880403" y1="68.10690440069993" y2="46.11238783987489"/>
  <line stroke="black" stroke-width="1" x1="-16.826022927511573" x2="-16.826022927511545" y1="49.215082143124846" y2="119.95351287312496"/>
  <line stroke="black" stroke-width="1" x1="-16.826022927511545" x2="-87.56445365751166" y1="119.95351287312496" y2="119.95351287312499"/>
  <line stroke="black" stroke-width="1" x1="-87.56445365751166" x2="-87.56445365751169" y1="119.95351287312499" y2="49.215082143124874"/>
  <line stroke="black" stroke-width="1" x1="-87.56445365751169" x2="-16.826022927511573" y1="49.215082143124874" y2="49.215082143124846"/>
</svg>
