<?xml version="1.0" encoding="utf-8" ?>
<svg baseProfile="full" height="100%" version="1.1" viewBox="-200 -150 350 450" width="100%" xmlns="http://www.w3.org/2000/svg" xmlns:ev="http://www.w3.org/2001/xml-events" xmlns:xlink="http://www.w3.org/1999/xlink">
  <defs/>
  <line stroke="black" stroke-width="1" x1="-10" x2="-10" y1="10" y2="-10"/>
  <line stroke="black" stroke-width="1" x1="-10" x2="10" y1="-10" y2="-10"/>
  <line stroke="black" stroke-width="1" x1="10" x2="10" y1="-10" y2="10"/>
  <line stroke="black" stroke-width="1" x1="10" x2="-10" y1="10" y2="10"/>
  <line stroke="black" stroke-width="1" x1="28.464585122995807" x2="34.62094770285784" y1="45.37905229714216" y2="28.464585122995807"/>
  <line stroke="black" stroke-width="1" x1="34.62094770285784" x2="51.53541487700419" y1="28.464585122995807" y2="34.62094770285784"/>
  <line stroke="black" stroke-width="1" x1="51.53541487700419" x2="45.37905229714216" y1="34.62094770285784" y2="51.53541487700419"/>
  <line stroke="black" stroke-width="1" x1="45.37905229714216" x2="28.464585122995807" y1="51.53541487700419" y2="45.37905229714216"/>
  <line stroke="black" stroke-width="1" x1="50.10466956084394" x2="60.517828837765876" y1="87.14003985881953" y2="74.73011988029208"/>
  <line stroke="black" stroke-width="1" x1="60.517828837765876" x2="72.92774881629333" y1="74.73011988029208" y2="85.14327915721401"/>
  <line stroke="black" stroke-width="1" x1="72.92774881629333" x2="62.514589539371386" y1="85.14327915721401" y2="97.55319913574147"/>
  <line stroke="black" stroke-width="1" x1="62.514589539371386" x2="50.10466956084394" y1="97.55319913574147" y2="87.14003985881953"/>
  <line stroke="black" stroke-width="1" x1="55.55140539819109" x2="68.17805578536822" y1="129.119492825327" y2="121.82949282532698"/>
  <line stroke="black" stroke-width="1" x1="68.17805578536822" x2="75.46805578536822" y1="121.82949282532698" y2="134.4561432125041"/>
  <line stroke="black" stroke-width="1" x1="75.46805578536822" x2="62.8414053981911" y1="134.4561432125041" y2="141.7461432125041"/>
  <line stroke="black" stroke-width="1" x1="62.8414053981911" x2="55.55140539819109" y1="141.7461432125041" y2="129.119492825327"/>
  <line stroke="black" stroke-width="1" x1="47.2358004562396" x2="60.1584477912658" y1="166.2991008194294" y2="164.02048943208393"/>
  <line stroke="black" stroke-width="1" x1="60.1584477912658" x2="62.437059178611264" y1="164.02048943208393" y2="176.94313676711013"/>
  <line stroke="black" stroke-width="1" x1="62.437059178611264" x2="49.514411843585066" y1="176.94313676711013" y2="179.2217481544556"/>
  <line stroke="black" stroke-width="1" x1="49.514411843585066" x2="47.2358004562396" y1="179.2217481544556" y2="166.2991008194294"/>
  <line stroke="black" stroke-width="1" x1="28.758541745607637" x2="40.388924347131216" y1="195.18306981294586" y2="197.23382006155677"/>
  <line stroke="black" stroke-width="1" x1="40.388924347131216" x2="38.338174098520305" y1="197.23382006155677" y2="208.86420266308033"/>
  <line stroke="black" stroke-width="1" x1="38.338174098520305" x2="26.707791496996723" y1="208.86420266308033" y2="206.81345241446942"/>
  <line stroke="black" stroke-width="1" x1="26.707791496996723" x2="28.758541745607637" y1="206.81345241446942" y2="195.18306981294586"/>
  <line stroke="black" stroke-width="1" x1="4.240883155668931" x2="13.445711287921057" y1="213.92328187771238" y2="219.23769187771236"/>
  <line stroke="black" stroke-width="1" x1="13.445711287921057" x2="8.131301287921055" y1="219.23769187771236" y2="228.44252000996448"/>
  <line stroke="black" stroke-width="1" x1="8.131301287921055" x2="-1.0735268443310693" y1="228.44252000996448" y2="223.1281100099645"/>
  <line stroke="black" stroke-width="1" x1="-1.0735268443310693" x2="4.240883155668931" y1="223.1281100099645" y2="213.92328187771238"/>
  <line stroke="black" stroke-width="1" x1="-22.262850429363745" x2="-16.113984007934103" y1="222.22533717356754" y2="229.55327082168822"/>
  <line stroke="black" stroke-width="1" x1="-16.113984007934103" x2="-23.441917656054777" y1="229.55327082168822" y2="235.70213724311787"/>
  <line stroke="black" stroke-width="1" x1="-23.441917656054777" x2="-29.590784077484418" y1="235.70213724311787" y2="228.3742035949972"/>
  <line stroke="black" stroke-width="1" x1="-29.590784077484418" x2="-22.262850429363745" y1="228.3742035949972" y2="222.22533717356754"/>
  <line stroke="black" stroke-width="1" x1="-47.233200143148935" x2="-44.28863100592491" y1="221.08824957907564" y2="229.17838679362163"/>
  <line stroke="black" stroke-width="1" x1="-44.28863100592491" x2="-52.378768220470874" y1="229.17838679362163" y2="232.12295593084565"/>
  <line stroke="black" stroke-width="1" x1="-52.378768220470874" x2="-55.323337357694896" y1="232.12295593084565" y2="224.03281871629966"/>
  <line stroke="black" stroke-width="1" x1="-55.323337357694896" x2="-47.233200143148935" y1="224.03281871629966" y2="221.08824957907564"/>
  <line stroke="black" stroke-width="1" x1="-68.00119199534987" x2="-68.00119199534987" y1="212.44026171031675" y2="220.18867149031675"/>
  <line stroke="black" stroke-width="1" x1="-68.00119199534987" x2="-75.74960177534987" y1="220.18867149031675" y2="220.18867149031678"/>
  <line stroke="black" stroke-width="1" x1="-75.74960177534987" x2="-75.74960177534987" y1="220.18867149031678" y2="212.44026171031678"/>
  <line stroke="black" stroke-width="1" x1="-75.74960177534987" x2="-68.00119199534987" y1="212.44026171031678" y2="212.44026171031675"/>
  <line stroke="black" stroke-width="1" x1="-82.90316037288305" x2="-85.2882613740345" y1="198.73369196900137" y2="205.2867031127836"/>
  <line stroke="black" stroke-width="1" x1="-85.2882613740345" x2="-91.84127251781673" y1="205.2867031127836" y2="202.90160211163214"/>
  <line stroke="black" stroke-width="1" x1="-91.84127251781673" x2="-89.45617151666528" y1="202.90160211163214" y2="196.3485909678499"/>
  <line stroke="black" stroke-width="1" x1="-89.45617151666528" x2="-82.90316037288305" y1="196.3485909678499" y2="198.73369196900137"/>
  <line stroke="black" stroke-width="1" x1="-91.2869724677955" x2="-95.32124372689547" y1="182.55462974673338" y2="187.36248701326537"/>
  <line stroke="black" stroke-width="1" x1="-95.32124372689547" x2="-100.12910099342744" y1="187.36248701326537" y2="183.3282157541654"/>
  <line stroke="black" stroke-width="1" x1="-100.12910099342744" x2="-96.09482973432746" y1="183.3282157541654" y2="178.52035848763342"/>
  <line stroke="black" stroke-width="1" x1="-96.09482973432746" x2="-91.2869724677955" y1="178.52035848763342" y2="182.55462974673338"/>
  <line stroke="black" stroke-width="1" x1="-93.39714952935437" x2="-98.28897259678656" y1="166.29092955049657" y2="169.11522491530656"/>
  <line stroke="black" stroke-width="1" x1="-98.28897259678656" x2="-101.11326796159658" y1="169.11522491530656" y2="164.22340184787436"/>
  <line stroke="black" stroke-width="1" x1="-101.11326796159658" x2="-96.22144489416438" y1="164.22340184787436" y2="161.39910648306437"/>
  <line stroke="black" stroke-width="1" x1="-96.22144489416438" x2="-93.39714952935437" y1="161.39910648306437" y2="166.29092955049657"/>
  <line stroke="black" stroke-width="1" x1="-90.1755137964127" x2="-95.1820121461231" y1="151.88678764059307" y2="152.7695683785194"/>
  <line stroke="black" stroke-width="1" x1="-95.1820121461231" x2="-96.06479288404944" y1="152.7695683785194" y2="147.763070028809"/>
  <line stroke="black" stroke-width="1" x1="-96.06479288404944" x2="-91.05829453433904" y1="147.763070028809" y2="146.88028929088267"/>
  <line stroke="black" stroke-width="1" x1="-91.05829453433904" x2="-90.1755137964127" y1="146.88028929088267" y2="151.88678764059307"/>
  <line stroke="black" stroke-width="1" x1="-83.01704519136015" x2="-87.52289370609951" y1="140.69654624886408" y2="139.90204358473036"/>
  <line stroke="black" stroke-width="1" x1="-87.52289370609951" x2="-86.7283910419658" y1="139.90204358473036" y2="135.396195069991"/>
  <line stroke="black" stroke-width="1" x1="-86.7283910419658" x2="-82.22254252722645" y1="135.396195069991" y2="136.1906977341247"/>
  <line stroke="black" stroke-width="1" x1="-82.22254252722645" x2="-83.01704519136015" y1="136.1906977341247" y2="140.69654624886408"/>
  <line stroke="black" stroke-width="1" x1="-73.51840191131105" x2="-77.08454092746912" y1="133.43620412676847" y2="131.377292805822"/>
  <line stroke="black" stroke-width="1" x1="-77.08454092746912" x2="-75.02562960652263" y1="131.377292805822" y2="127.81115378966392"/>
  <line stroke="black" stroke-width="1" x1="-75.02562960652263" x2="-71.45949059036455" y1="127.81115378966392" y2="129.8700651106104"/>
  <line stroke="black" stroke-width="1" x1="-71.45949059036455" x2="-73.51840191131105" y1="129.8700651106104" y2="133.43620412676847"/>
  <line stroke="black" stroke-width="1" x1="-63.250312485471945" x2="-65.6325093212579" y1="130.21981780434325" y2="127.38082616702879"/>
  <line stroke="black" stroke-width="1" x1="-65.6325093212579" x2="-62.79351768394343" y1="127.38082616702879" y2="124.99862933124282"/>
  <line stroke="black" stroke-width="1" x1="-62.79351768394343" x2="-60.41132084815747" y1="124.99862933124282" y2="127.83762096855729"/>
  <line stroke="black" stroke-width="1" x1="-60.41132084815747" x2="-63.250312485471945" y1="127.83762096855729" y2="130.21981780434325"/>
  <line stroke="black" stroke-width="1" x1="-53.57628738885628" x2="-54.71707380389392" y1="130.66034883623715" y2="127.52606392050065"/>
  <line stroke="black" stroke-width="1" x1="-54.71707380389392" x2="-51.58278888815742" y1="127.52606392050065" y2="126.38527750546301"/>
  <line stroke="black" stroke-width="1" x1="-51.58278888815742" x2="-50.44200247311978" y1="126.38527750546301" y2="129.5195624211995"/>
  <line stroke="black" stroke-width="1" x1="-50.44200247311978" x2="-53.57628738885628" y1="129.5195624211995" y2="130.66034883623715"/>
  <line stroke="black" stroke-width="1" x1="-45.53034182992856" x2="-45.53034182992857" y1="134.0107565252178" y2="131.0088638192778"/>
  <line stroke="black" stroke-width="1" x1="-45.53034182992857" x2="-42.52844912398858" y1="131.0088638192778" y2="131.0088638192778"/>
  <line stroke="black" stroke-width="1" x1="-42.52844912398858" x2="-42.52844912398857" y1="131.0088638192778" y2="134.0107565252178"/>
  <line stroke="black" stroke-width="1" x1="-42.52844912398857" x2="-45.53034182992856" y1="134.0107565252178" y2="134.0107565252178"/>
  <line stroke="black" stroke-width="1" x1="-39.75701395404211" x2="-38.83297695786162" y1="139.3209624769108" y2="136.78219169516424"/>
  <line stroke="black" stroke-width="1" x1="-38.83297695786162" x2="-36.294206176115054" y1="136.78219169516424" y2="137.7062286913447"/>
  <line stroke="black" stroke-width="1" x1="-36.294206176115054" x2="-37.218243172295544" y1="137.7062286913447" y2="140.24499947309127"/>
  <line stroke="black" stroke-width="1" x1="-37.218243172295544" x2="-39.75701395404211" y1="140.24499947309127" y2="139.3209624769108"/>
  <line stroke="black" stroke-width="1" x1="-36.508953372547026" x2="-34.94599402858786" y1="145.5890626746233" y2="143.72640026138126"/>
  <line stroke="black" stroke-width="1" x1="-34.94599402858786" x2="-33.08333161534584" y1="143.72640026138126" y2="145.28935960534042"/>
  <line stroke="black" stroke-width="1" x1="-33.08333161534584" x2="-34.646290959305006" y1="145.28935960534042" y2="147.15202201858247"/>
  <line stroke="black" stroke-width="1" x1="-34.646290959305006" x2="-36.508953372547026" y1="147.15202201858247" y2="145.5890626746233"/>
  <line stroke="black" stroke-width="1" x1="-35.69142754348132" x2="-33.79623505859525" y1="151.88995335759876" y2="150.79576346628363"/>
  <line stroke="black" stroke-width="1" x1="-33.79623505859525" x2="-32.702045167280126" y1="150.79576346628363" y2="152.6909559511697"/>
  <line stroke="black" stroke-width="1" x1="-32.702045167280126" x2="-34.59723765216619" y1="152.6909559511697" y2="153.78514584248484"/>
  <line stroke="black" stroke-width="1" x1="-34.59723765216619" x2="-35.69142754348132" y1="153.78514584248484" y2="151.88995335759876"/>
  <line stroke="black" stroke-width="1" x1="-36.93955523451744" x2="-34.999935195694945" y1="157.470413059959" y2="157.12840571479177"/>
  <line stroke="black" stroke-width="1" x1="-34.999935195694945" x2="-34.65792785052774" y1="157.12840571479177" y2="159.06802575361425"/>
  <line stroke="black" stroke-width="1" x1="-34.65792785052774" x2="-36.59754788935024" y1="159.06802575361425" y2="159.41003309878147"/>
  <line stroke="black" stroke-width="1" x1="-36.59754788935024" x2="-36.93955523451744" y1="159.41003309878147" y2="157.470413059959"/>
  <line stroke="black" stroke-width="1" x1="-39.712892641978044" x2="-37.967234607037796" y1="161.80574185197062" y2="162.1135484626211"/>
  <line stroke="black" stroke-width="1" x1="-37.967234607037796" x2="-38.27504121768828" y1="162.1135484626211" y2="163.85920649756136"/>
  <line stroke="black" stroke-width="1" x1="-38.27504121768828" x2="-40.02069925262853" y1="163.85920649756136" y2="163.55139988691087"/>
  <line stroke="black" stroke-width="1" x1="-40.02069925262853" x2="-39.712892641978044" y1="163.55139988691087" y2="161.80574185197062"/>
  <line stroke="black" stroke-width="1" x1="-43.39286166637123" x2="-42.011266344889286" y1="164.61854714722017" y2="165.41621157798892"/>
  <line stroke="black" stroke-width="1" x1="-42.011266344889286" x2="-42.80893077565801" y1="165.41621157798892" y2="166.79780689947086"/>
  <line stroke="black" stroke-width="1" x1="-42.80893077565801" x2="-44.19052609713996" y1="166.79780689947086" y2="166.0001424687021"/>
  <line stroke="black" stroke-width="1" x1="-44.19052609713996" x2="-43.39286166637123" y1="166.0001424687021" y2="164.61854714722017"/>
</svg>
