<?xml version="1.0" encoding="utf-8" ?>
<svg baseProfile="full" height="100%" version="1.1" viewBox="-10,-10,70,70" width="100%" xmlns="http://www.w3.org/2000/svg" xmlns:ev="http://www.w3.org/2001/xml-events" xmlns:xlink="http://www.w3.org/1999/xlink"><defs /><line stroke="black" stroke-width="0.1" x1="25.0" x2="25.0" y1="25.0" y2="0.0" /><line stroke="black" stroke-width="0.1" x1="25.0" x2="0.0" y1="0.0" y2="0.0" /><line stroke="black" stroke-width="0.1" x1="0.0" x2="0.0" y1="0.0" y2="25.0" /><line stroke="black" stroke-width="0.1" x1="0.0" x2="25.0" y1="25.0" y2="25.0" /><line stroke="black" stroke-width="0.1" x1="25.0" x2="12.5" y1="0.0" y2="12.5" /><line stroke="black" stroke-width="0.1" x1="0.0" x2="0.0" y1="50.0" y2="25.0" /><line stroke="black" stroke-width="0.1" x1="0.0" x2="25.0" y1="25.0" y2="25.0" /><line stroke="black" stroke-width="0.1" x1="25.0" x2="25.0" y1="25.0" y2="50.0" /><line stroke="black" stroke-width="0.1" x1="25.0" x2="0.0" y1="50.0" y2="50.0" /><line stroke="black" stroke-width="0.1" x1="0.0" x2="12.5" y1="25.0" y2="37.5" /><line stroke="black" stroke-width="0.1" x1="25.0" x2="25.0" y1="0.0" y2="25.0" /><line stroke="black" stroke-width="0.1" x1="25.0" x2="50.0" y1="25.0" y2="25.0" /><line stroke="black" stroke-width="0.1" x1="50.0" x2="50.0" y1="25.0" y2="0.0" /><line stroke="black" stroke-width="0.1" x1="50.0" x2="25.0" y1="0.0" y2="0.0" /><line stroke="black" stroke-width="0.1" x1="25.0" x2="37.5" y1="25.0" y2="12.5" /></svg>